<?xml version="1.0" encoding="utf-8"?>
<!-- Generator: Adobe Illustrator 28.2.0, SVG Export Plug-In . SVG Version: 6.00 Build 0)  -->
<svg version="1.1" id="MODIFIED_OG_LOGO" xmlns="http://www.w3.org/2000/svg" xmlns:xlink="http://www.w3.org/1999/xlink" x="0px"
	 y="0px" viewBox="0 0 500 500" style="enable-background:new 0 0 500 500;" xml:space="preserve">
<path id="OUTLINE" style="fill:#CECCCA;" d="M250.21,469.49c-31.15-26.83-62.29-53.65-93.44-80.48c-4.52-2.95-9.81-7.1-14.88-12.85
	c-12.47-14.17-16.26-29.8-17.58-37.87c-1.39,2.9-2.78,5.81-4.17,8.71c-3.05-3.05-7.99-8.81-11.16-17.45
	c-2.53-6.89-2.96-12.99-2.93-16.96c-4.73-5.86-9.47-11.72-14.2-17.58c3.38-27.05,6.76-54.11,10.14-81.16
	c7.2-13.92,14.4-27.84,21.61-41.76c-2.34-15.2-4.25-38.09,0.04-65.1c5.99-37.79,25.21-90.81,45.99-90.23
	c10,0.28,17.7,13.08,33.1,38.77c11.09,18.5,18.03,35.25,22.36,47.47c6.7-1.65,15.86-3.19,26.75-2.97
	c10.16,0.21,18.71,1.89,25.1,3.63c5.29-12.94,14-31.81,27.73-52.97c13.18-20.31,19.93-30.44,27.94-30.26
	c17.28,0.38,29.06,45.28,35.84,71.01c9.39,35.62,11.95,65.79,12.65,85.5c6.38,12.3,12.76,24.61,19.14,36.91
	c2.55,27.4,5.11,54.8,7.66,82.2c-4.5,6.13-9,12.26-13.5,18.39c-0.31,3.95-1.29,10.2-4.68,17.02c-4.33,8.74-10.41,14.01-13.83,16.58
	c-0.9-2.8-1.8-5.6-2.71-8.39c-1.33,6.67-4.04,16.3-10.15,26.37c-6.67,11-14.5,17.38-17.58,20.29
	c-15.78,14.9-49.83,44.97-95.25,83.19L250.21,469.49z"/>
<path id="BASE" style="fill:#051C33;" d="M250.33,462.44l-91.26-76.73c-4.42-2.81-9.59-6.76-14.53-12.25
	c-12.18-13.51-15.88-28.41-17.17-36.11c-1.36,2.77-2.71,5.54-4.07,8.31c-2.98-2.91-7.81-8.4-10.9-16.63
	c-2.47-6.57-2.9-12.39-2.86-16.17c-4.62-5.59-9.25-11.18-13.87-16.76c3.3-25.79,6.61-51.58,9.91-77.38
	c7.11-12.91,14.23-25.82,21.34-38.73c-2.44-14.77-4.47-36.97-0.2-63.15c6.22-38.13,26.19-86.98,44.92-86.02
	c7.95,0.41,14.32,11.75,27.04,34.43c11.29,20.12,18.51,38.13,23.12,51.49c7-1.91,16.65-3.79,28.22-3.86
	c12.21-0.08,22.36,1.9,29.58,3.86c5.31-12.74,13.69-31.06,26.13-52.12c17.26-29.23,22.58-30.28,25.1-30.31
	c16.84-0.19,31.04,52.8,35.01,67.7c5.21,19.55,10.62,47.22,11.1,81.74c6.65,11.66,13.3,23.31,19.95,34.97
	c2.5,26.12,4.99,52.25,7.49,78.37c-4.39,5.85-8.79,11.69-13.18,17.54c-0.3,3.77-1.26,9.73-4.57,16.23
	c-4.23,8.33-10.17,13.36-13.51,15.8c-0.88-2.67-1.76-5.33-2.64-8c-1.3,6.36-3.95,15.54-9.91,25.14
	c-6.52,10.49-14.17,16.57-17.17,19.34c-15.41,14.21-48.67,42.87-93.03,79.31L250.33,462.44z"/>
<g id="FOREGROUND">
	<path style="fill:#B32025;" d="M387.7,220.32c1.67,23.41,3.33,46.81,5,70.22c-5.67,9.23-11.33,18.46-17,27.68
		c-2.19-2.72-5.89-6.72-11.45-9.98c-31.29-18.38-61.42,21.59-114.25,21.59c-52.49,0-81.1-39.43-114.19-21.35
		c-5.87,3.21-9.88,7.13-12.22,9.74c-5.51-9.97-11.03-19.95-16.54-29.92l5.54-66.2c6.97-14.38,13.94-28.76,20.91-43.14
		c-2.57-14.46-4.51-35.91,0.07-61.12c6.87-37.79,24.83-64.35,35.47-77.81c8.84,10.84,18.59,24.43,27.76,40.88
		c8.89,15.95,15.16,30.87,19.64,43.68c9.3-1.73,20.5-3.14,33.21-3.38c12.7-0.24,23.93,0.73,33.29,2.09
		c4.49-10.46,9.8-21.55,16.09-33.06c10.62-19.43,21.91-36.14,32.68-50.22c11.08,18.25,24.85,46.07,31.79,82.08
		c4.26,22.11,4.89,41.78,4.17,57.6c6.68,13.53,13.35,27.07,20.03,40.6V220.32z"/>
</g>
<path id="FLUFF" style="fill:#F2F1F0;" d="M364.25,307.68c0.52,6.93,0.51,17.48-2.75,29.73c-3.3,12.4-8.62,21.64-12.55,27.41
	c-0.66-6.57-1.32-13.14-1.98-19.7c-3.2,10.27-8.51,23.17-17.62,36.44c-3.79,5.51-7.69,10.3-11.45,14.42
	c-0.06-3.33-0.16-7.54-0.33-12.44c-0.22-6.41-0.34-7.52-0.87-7.67c-1.74-0.46-4.66,10.4-11.79,21.54
	c-2.76,4.32-6.1,8.59-15.31,17.58c-8.24,8.04-21.22,19.9-39.6,33.83c-18.38-13.93-31.36-25.79-39.6-33.83
	c-9.21-8.99-12.55-13.26-15.31-17.58c-7.13-11.14-10.05-22-11.79-21.54c-0.53,0.15-0.65,1.26-0.87,7.67
	c-0.17,4.9-0.27,9.11-0.33,12.44c-3.76-4.12-7.66-8.91-11.45-14.42c-9.11-13.27-14.42-26.17-17.62-36.44
	c-0.66,6.56-1.32,13.13-1.98,19.7c-3.93-5.77-9.25-15.01-12.55-27.41c-3.26-12.25-3.27-22.8-2.75-29.73
	c-3.82,3.42-7.63,6.83-11.45,10.24c0.5-8.39,2.04-15.12,3.41-19.81c1.42-4.87,2.65-9.08,5.61-13.85c4.27-6.9,9.85-11.2,13.99-13.75
	c-2.36-0.34-4.89-0.62-7.6-0.81c-2.89-0.19-5.62-0.25-8.14-0.22c0.69-1.55,6.33-13.55,19.81-16.84c1.75-0.43,12.16-2.97,20.37,2.64
	c7.22,4.94,6.49,10.61,12.99,15.23c4.06,2.88,10.92,5.19,23.16,2.39c-0.17,0.97-0.34,1.94-0.51,2.9
	c-2.19,12.58-4.38,25.15-6.58,37.72c3.72-12.15,8.81-20.52,12.91-26.02c4.42-5.94,7.85-8.76,10.69-16.02
	c1.27-3.24,4.74-12.11,1.31-19.81c-1.26-2.85-3.7-6.06-4.03-6.5c-1.21-1.58-2.91-3.81-5.61-5.91c-3.53-2.75-6.81-3.88-9.58-4.82
	c-2.08-0.7-6.43-2.13-12.18-2.28c-8.4-0.21-10.79,2.71-18.28,1.87c-3.93-0.43-7.07-1.49-9.11-2.31c6.01-3.52,12.02-7.04,18.03-10.57
	c-10.29-2.86-12.33-4.29-12.22-5.06c0.09-0.62,1.53-0.75,5.51-1.76c5.08-1.3,5.35-1.75,8.58-2.53c2.78-0.68,6.77-1.37,11.89-1.33
	c-0.88-2.43-1.99-5.11-3.41-7.92c-1.1-2.18-2.23-4.15-3.34-5.91c1.97-0.17,4.66-0.17,7.74,0.51c4.98,1.1,8.52,3.44,10.46,4.96
	c0.11-2.72,0.22-5.43,0.33-8.15c4.48,4.59,8.96,9.17,13.43,13.76c-0.14-8.33-0.29-16.66-0.44-24.99c3.45,2.93,8.2,7.62,12.11,14.42
	c4.56,7.92,5.43,14.25,8.48,30.06c1.26,6.51,3.2,16.25,5.83,28.29v0.46c0.06-0.16,0.12-0.31,0.18-0.46
	c2.63-12.04,4.57-21.78,5.83-28.29c3.05-15.82,3.93-22.15,8.48-30.06c3.91-6.8,8.66-11.49,12.11-14.42
	c-0.15,8.33-0.3,16.66-0.44,24.99c4.47-4.59,8.95-9.17,13.43-13.76c0.11,2.72,0.22,5.43,0.33,8.15c1.94-1.52,5.48-3.86,10.46-4.96
	c3.08-0.68,5.77-0.68,7.74-0.51c-1.11,1.76-2.24,3.73-3.34,5.91c-1.42,2.81-2.53,5.49-3.41,7.92c5.12-0.04,9.11,0.65,11.89,1.33
	c3.23,0.78,3.5,1.23,8.58,2.53c3.98,1.01,5.42,1.14,5.51,1.76c0.11,0.77-1.93,2.2-12.22,5.06c6.01,3.53,12.02,7.05,18.03,10.57
	c-2.04,0.82-5.18,1.88-9.11,2.31c-7.49,0.84-9.88-2.08-18.28-1.87c-5.75,0.15-10.1,1.58-12.18,2.28c-2.77,0.94-6.05,2.07-9.58,4.82
	c-2.7,2.1-4.4,4.33-5.61,5.91c-0.33,0.44-2.77,3.65-4.03,6.5c-3.43,7.7,0.04,16.57,1.31,19.81c2.84,7.26,6.27,10.08,10.69,16.02
	c4.1,5.5,9.19,13.87,12.91,26.02c-2.2-12.57-4.39-25.14-6.58-37.72c-0.17-0.96-0.34-1.93-0.51-2.9c12.24,2.8,19.1,0.49,23.16-2.39
	c6.5-4.62,5.77-10.29,12.99-15.23c8.21-5.61,18.62-3.07,20.37-2.64c13.48,3.29,19.12,15.29,19.81,16.84
	c-2.52-0.03-5.25,0.03-8.14,0.22c-2.71,0.19-5.24,0.47-7.6,0.81c4.14,2.55,9.72,6.85,13.99,13.75c2.96,4.77,4.19,8.98,5.61,13.85
	c1.37,4.69,2.91,11.42,3.41,19.81C371.88,314.51,368.07,311.1,364.25,307.68z"/>
<g id="EARS">
	<g id="BASE-2">
		<path style="fill:#F2F1F0;" d="M171.37,60.07c-6.7,7.57-17.2,20.98-23.77,38.23c-1.35,3.54-3.87,10.3-5.41,19.54
			c-0.56,3.36-0.82,8.58-1.34,19.01c-0.61,12.35-0.49,17.44,0.35,23.21c0.47,3.22,1.04,5.86,1.47,7.63
			c5.8-6.89,11.14-12.4,15.34-16.49c12.31-11.96,19.27-15.99,25.01-18.52c1.53-0.68,2.83-1.18,3.68-1.49
			c4.75-3.36,9.49-6.73,14.24-10.09c-2.72-9.6-6.72-20.83-12.69-32.93c-5.43-10.99-11.33-20.36-16.87-28.1L171.37,60.07z"/>
		<path style="fill:#F2F1F0;" d="M328.1,60.07c6.7,7.57,17.2,20.98,23.77,38.23c1.35,3.54,3.87,10.3,5.41,19.54
			c0.56,3.36,0.82,8.58,1.34,19.01c0.61,12.35,0.49,17.44-0.35,23.21c-0.47,3.22-1.04,5.86-1.47,7.63
			c-5.8-6.89-11.14-12.4-15.34-16.49c-12.31-11.96-19.27-15.99-25.01-18.52c-1.53-0.68-2.83-1.18-3.68-1.49
			c-4.75-3.36-9.49-6.73-14.24-10.09c2.72-9.6,6.72-20.83,12.69-32.93c5.43-10.99,11.33-20.36,16.87-28.1L328.1,60.07z"/>
		<path style="fill:#CECCCA;" d="M353.83,157.61c-1.69-2.2-4.04-5.64-5.91-10.19c-2.21-5.38-2.07-8.16-4.28-13.4
			c-1.12-2.65-3.03-6.35-6.42-10.49c-2.03,2.04-4.06,4.09-6.09,6.13c-0.38-6.12-0.76-12.24-1.15-18.36
			c-2.68,1.42-6.75,3.98-10.51,8.23c-3.59,4.06-5.44,8.03-6.41,10.64l-0.35-5.53c2-8.23,5.05-17.8,9.82-28.1
			c3.1-6.7,6.45-12.67,9.74-17.89c5.25,7.61,11.17,17.92,15.55,30.82C354.48,129.08,354.71,146.29,353.83,157.61L353.83,157.61z"/>
		<path style="fill:#051C33;" d="M329.98,111.3c0.38,6.12,0.76,12.24,1.15,18.36c2.03-2.04,4.06-4.09,6.09-6.13
			c1.77,2.12,4.18,5.39,6.1,9.76c2.26,5.13,1.39,6.18,3.61,11.45c2.6,6.17,4.58,6.62,6.9,12.87c1.22,3.28,2.75,8.74,1.54,9.25
			c-1.03,0.44-3.47-3.01-7.36-7.46c0,0-5.05-5.79-14.48-14.12c-4.44-3.92-11.13-9.07-20.76-14.08c0.82-2.66,2.57-7.06,6.46-11.54
			C323.08,115.23,327.34,112.66,329.98,111.3L329.98,111.3z"/>
	</g>
	<g id="MIDDLE">
		<path style="fill:#CECCCA;" d="M145.64,157.61c1.69-2.2,4.04-5.64,5.91-10.19c2.21-5.38,2.07-8.16,4.28-13.4
			c1.12-2.65,3.03-6.35,6.42-10.49c2.03,2.04,4.06,4.09,6.09,6.13c0.38-6.12,0.76-12.24,1.15-18.36c2.68,1.42,6.75,3.98,10.51,8.23
			c3.59,4.06,5.44,8.03,6.41,10.64l0.35-5.53c-2-8.23-5.05-17.8-9.82-28.1c-3.1-6.7-6.45-12.67-9.74-17.89
			c-5.25,7.61-11.17,17.92-15.55,30.82C144.99,129.08,144.76,146.29,145.64,157.61z"/>
	</g>
	<g id="BOTTOM">
		<path style="fill:#051C33;" d="M169.49,111.3c-0.38,6.12-0.76,12.24-1.15,18.36c-2.03-2.04-4.06-4.09-6.09-6.13
			c-1.77,2.12-4.18,5.39-6.1,9.76c-2.26,5.13-1.39,6.18-3.61,11.45c-2.6,6.17-4.58,6.62-6.9,12.87c-1.22,3.28-2.75,8.74-1.54,9.25
			c1.03,0.44,3.47-3.01,7.36-7.46c0,0,5.05-5.79,14.48-14.12c4.44-3.92,11.13-9.07,20.76-14.08c-0.82-2.66-2.57-7.06-6.46-11.54
			C176.39,115.23,172.13,112.66,169.49,111.3z"/>
	</g>
</g>
<g id="SHNOZ">
	<path style="fill:#051C33;" d="M308.24,348.92c-2.75,10.36-9.13,17.01-12.97,20.97c-2.19,2.26-4.47,4.11-9.02,7.82
		c-6.72,5.45-10.88,8.83-16.22,11.73c-5.77,3.14-11.7,6.36-19.39,6.44c-0.29,0-0.72,0.01-1.24,0c-3.98-0.08-9.75-1.03-19.38-6.44
		c-5.75-3.23-10.24-6.88-16.22-11.73c-4.56-3.71-6.84-5.56-9.03-7.82c-3.66-3.78-10.09-10.48-12.96-20.97
		c-2.01-7.34-1.59-14.05-0.62-19.09c-0.13,3.15-0.4,17.86,10.44,28.99c5.62,5.77,11.89,8.18,14.29,9
		c3.06,1.05,10.55,3.48,19.49,0.98c4.75-1.33,8.22-3.58,10.31-5.19c0.17-3.35,0.33-6.71,0.5-10.07c-3.71-1.89-9.09-5.01-14.78-9.91
		c-5.1-4.38-7.98-6.86-9.78-11.31c-2.5-6.2-2.48-15.25,2.68-20.31c2.21-2.17,4.82-2.9,10.04-4.36c7.45-2.08,12.26-3.43,15.53-1.92
		c0.08,0.04,0.15,0.07,0.23,0.13v-0.13c8.33-0.05,14.24,1.56,15.53,1.92c5.23,1.48,7.85,2.21,10.03,4.36
		c5.16,5.06,5.18,14.11,2.68,20.31c-1.62,4.01-4.37,6.5-9.78,11.31c-5.26,4.69-10.13,7.92-13.54,9.97c0,1.63,0.04,3.32,0.11,5.06
		c0.07,1.67,0.17,3.28,0.3,4.84c1.82,1.6,4.87,3.88,9.16,5.29c8.51,2.8,15.96,0.23,19.5-0.98c2.68-0.92,8.82-3.35,14.28-9
		c10.83-11.2,10.3-26.02,10.14-28.99c1.09,5.05,1.64,11.76-0.31,19.09V348.92z"/>
	<path id="JAW" style="fill:#CECCCA;" d="M258.46,387.77c-15.53,4.9-35.92-12.81-37.91-14.58c8.73,1.37,18.98,2.39,30.45,2.43
		c12.12,0.05,22.89-1.01,31.99-2.43c-2.16,1.86-5.33,4.39-9.41,7C267.52,384.06,261.39,386.85,258.46,387.77z"/>
	<path id="NOSE" style="fill:#B32025;" d="M282.82,311.5c0.42,2.2-1.76,5.38-4.09,8.79c-1.46,2.14-2.91,3.72-3.93,4.75
		c-1.69-1.04-5.52-3.06-10.56-2.86c-1.48,0.06-7.33,0.29-8.52,3.25c-1.17,2.89,2.97,6.31,3.52,6.77c2.74,2.27,5.94,2.78,7.29,2.92
		c-1.1,1.47-2.71,3.31-5,5.12c-2.87,2.26-5.72,3.61-7.78,4.4c-0.21-1.61-1.43-10.62-3.11-10.62c-1.66,0-2.9,8.8-3.13,10.46
		c-2.11-0.8-5.03-2.16-7.97-4.46c-2.28-1.78-3.89-3.6-5-5.06c1.33-0.14,3.64-0.54,5.87-1.98c2.91-1.88,6.04-5.74,4.65-8.29
		c-1.24-2.28-5.51-2.43-7.62-2.5c-5.18-0.18-9.12,1.76-10.93,2.81c-1.3-1.03-3.15-2.76-4.75-5.35c-1.09-1.76-3.58-5.78-2.9-8.48
		c1.63-6.44,21.69-6.44,30.82-6.44c5.63,0,31.87,0,33.15,6.77L282.82,311.5z"/>
</g>
<g id="EYES">
	<g id="LINER">
		<path id="R" style="fill:#051C33;" d="M281.45,280.84c0.54-3.73,1.11-7.49,1.71-11.28c0.57-3.64,1.16-7.23,1.76-10.79
			c2.13,0.73,12.5,4.06,21.15-0.99c4.37-2.55,7.73-6.9,8.41-7.78c2.47-3.19,3.86-6.29,4.13-6.88c0.4-0.9,0.7-1.68,0.9-2.24
			c1.03,0.38,2.7,1.02,4.71,1.93c8.89,4.04,10.61,7.26,16.07,7.73c1.11,0.1,3.2-0.12,7.38-0.54c3.61-0.37,6.57-0.81,8.59-1.14
			c-8.81-3.27-17.61-6.53-26.42-9.8c1.43-1.98,2.86-3.96,4.29-5.94c-1.48,0.72-3.79,1.67-6.72,2.2c-4.74,0.85-8.32,0.08-10.35-0.22
			c-7.69-1.15-14.44,1.21-21.52,3.69c-8.02,2.81-13.38,4.68-17.23,10.07c-4.82,6.75-4.17,14.66-3.74,17.72
			c0.43,2.13,1.22,4.93,2.75,7.98C278.65,277.22,280.16,279.31,281.45,280.84z"/>
	</g>
	<g id="IRIS">
		<path style="fill:#116CB5;" d="M301.72,251.56c4.12-2.41,6.4-7.3,5.7-12.3c-1.73,0.19-3.47,0.39-5.2,0.58
			c1.13,3.07-0.34,6.52-3.3,7.84c-2.99,1.34-6.57,0.08-8.08-2.85c-1.52,1.28-3.04,2.56-4.55,3.84c3.98,4.62,10.57,5.74,15.44,2.89
			L301.72,251.56z"/>
		<path id="R-2" style="fill:#051C33;" d="M218.74,280.84c-0.54-3.73-1.11-7.49-1.71-11.28c-0.57-3.64-1.16-7.23-1.76-10.79
			c-2.13,0.73-12.5,4.06-21.15-0.99c-4.37-2.55-7.73-6.9-8.41-7.78c-2.47-3.19-3.86-6.29-4.13-6.88c-0.4-0.9-0.7-1.68-0.9-2.24
			c-1.03,0.38-2.7,1.02-4.71,1.93c-8.89,4.04-10.61,7.26-16.07,7.73c-1.11,0.1-3.2-0.12-7.38-0.54c-3.61-0.37-6.57-0.81-8.59-1.14
			c8.81-3.27,17.61-6.53,26.42-9.8c-1.43-1.98-2.86-3.96-4.29-5.94c1.48,0.72,3.79,1.67,6.72,2.2c4.74,0.85,8.32,0.08,10.35-0.22
			c7.69-1.15,14.44,1.21,21.52,3.69c8.02,2.81,13.38,4.68,17.23,10.07c4.82,6.75,4.17,14.66,3.74,17.72
			c-0.43,2.13-1.22,4.93-2.75,7.98C221.54,277.22,220.03,279.31,218.74,280.84z"/>
		<path style="fill:#116CB5;" d="M198.47,251.56c-4.12-2.41-6.4-7.3-5.7-12.3c1.73,0.19,3.47,0.39,5.2,0.58
			c-1.13,3.07,0.34,6.52,3.3,7.84c2.99,1.34,6.57,0.08,8.08-2.85c1.52,1.28,3.04,2.56,4.55,3.84c-3.98,4.62-10.57,5.74-15.44,2.89
			L198.47,251.56z"/>
	</g>
</g>
</svg>
