<svg viewBox="0 0 200 200" style="enable-background:new 0 0 200 200" xml:space="preserve" id="Cincinnati" xmlns="http://www.w3.org/2000/svg"><path d="M79.64 190.04a16.24 16.24 0 0 1-13.87-7.23c-1.27-2-2.12-4.2-2.54-6.54a26.3 26.3 0 0 1-.75.27 40.96 40.96 0 0 1-2.86.77 6.9 6.9 0 0 1-7.92-5.56l-.2-1.02a24.97 24.97 0 0 1 .12-8.91l-.28.09c-.5.15-1 .22-1.52.22h-.07a5.2 5.2 0 0 1-1.44.73 135.4 135.4 0 0 0-6.22 2.16 5.2 5.2 0 0 1-3.38.09 17.56 17.56 0 0 1-5.09 3.9 10.83 10.83 0 0 1-4.97 1.3c-1.2 0-2.37-.24-3.46-.72l-.56-.24-.05-.02-.1-.04a9.7 9.7 0 0 1-.15-.07l-.33-.14-1.62-.68-.16-.07-.4-.17-1.23-.53-.2-.08-2.13-.9-.23-.1-3.82-1.62a9.8 9.8 0 0 1-3.23-2.2c-4.49-4.56-5.28-13.19-5.1-24.75v-.01l.01-1.55-.01-1.36V135c-.12-9.94.46-20.84 5.55-26.83V102.16h.29c.22-.4.54-.71.94-.92v-.59c0-.26.04-.51.12-.75a2.33 2.33 0 0 1-.83-1.11l-.11-.33c-.09-.24-.13-.5-.13-.77v-.34c0-.1 0-.2.02-.3a2.3 2.3 0 0 1-.2-.92v-.33c0-.09 0-.17.02-.25l-.65-.6H8.6c-.99 0-1.87-.63-2.2-1.56l-.1-.33c-.1-.25-.14-.5-.14-.76v-.35c0-.1 0-.2.02-.3a2.3 2.3 0 0 1-.19-.92v-.33c0-.63.27-1.23.7-1.66-.21-.55-.4-1.1-.56-1.67a2.32 2.32 0 0 1-1.68-1.5l-.11-.33c-.08-.23-.13-.5-.13-.77v-.34c0-.1 0-.2.02-.3a2.3 2.3 0 0 1-.2-.92v-.33c0-.96.61-1.84 1.51-2.18.12-1.19.36-2.36.72-3.5v-.1c0-.1 0-.2.02-.3a2.3 2.3 0 0 1-.19-.92v-.33c0-.96.6-1.84 1.5-2.18l.27-.1c.17-.3.41-.57.7-.77a17.73 17.73 0 0 1 3.5-3.77 2.3 2.3 0 0 1 1.04-.79l.06-.02.27-.19a2.32 2.32 0 0 1 1.87-1.09V54.6h1.66l3.52-9.3h7.93l1.82 4.81c.29-.11.58-.2.88-.27l.05-.03c.34-.65.8-1.2 1.38-1.64l-.21-.95c-.08-.35-.12-.7-.12-1.05v-.54c0-.97.29-1.9.83-2.71l.39-.58c.04-.39.12-.76.24-1.14a5 5 0 0 1 1.4-6.3c.24-.27.52-.52.83-.74a4.96 4.96 0 0 1 7.51 1.29l.13.19c.21.23.4.49.56.76.56.76.88 1.64.95 2.55a87.1 87.1 0 0 1 56.1-20.34 87.6 87.6 0 0 1 26.59 4.1 18.62 18.62 0 0 1 1.82-4.15 16.28 16.28 0 0 1 7.23-6.6l1.02-.46.66.28h.02l.29.12 1.42.6v.12a15.4 15.4 0 0 1 3.23 2.46c2.7 2.67 4.5 6.24 5.15 10.2h1.11v.43h1.18v.15h.37v4.47h1.09v.12h.35v3.28h1.76v.12h.42v3.17c.8.62 1.6 1.27 2.4 1.93.07-.92.4-1.8.95-2.55.16-.27.34-.52.54-.75l.16-.23a4.97 4.97 0 0 1 7.5-1.27c.3.22.58.47.83.75a4.94 4.94 0 0 1 1.4 6.28c.12.37.2.76.24 1.16l.38.58c.55.8.83 1.74.83 2.71v.54c0 .35-.04.7-.11 1.05l-.21.95c.57.43 1.04 1 1.37 1.64.02 0 .03.02.05.03 1.85.38 3.3 1.79 3.74 3.61.47.77.72 1.65.72 2.56v.53c0 .89-.25 1.75-.7 2.5a86.61 86.61 0 0 1 8.87 18.2c2.23.33 4.55.69 6.93 1.08h.24l.28.1a2.18 2.18 0 0 1 .5.21l.17.1.1.07a2.94 2.94 0 0 1 .34.29l.11.1.12.15a2.47 2.47 0 0 1 .37.62l.05.12.04.13a2.58 2.58 0 0 1 .13 1v.23l-.05.17a4.6 4.6 0 0 1-1.08 2.3c.15.33.23.7.23 1.09v.1l-.23 5.02h-.06l-.83 14.28a5.68 5.68 0 0 1 5.3 5.66v52.72a5.7 5.7 0 0 1-3.86 5.36l-.3.11-.27.1-.3.11c-.18.08-.35.14-.53.2a5.64 5.64 0 0 1-.54.2c-.13.05-.25.1-.37.13a5.7 5.7 0 0 1-.53.2h-.03l-.27.1-.1.04-.25.09-.08.03-.27.1-.08.03c-.15.06-.3.12-.47.17l-.21.08c-.2.08-.38.15-.57.2l-.28.11a111.62 111.62 0 0 1-1.34.5l-.2.07-.22.08a4.59 4.59 0 0 1-.5.18l-.19.07-.24.09-.4.15-.27.1a5.03 5.03 0 0 1-.62.22 5.98 5.98 0 0 1-.65.24 129.97 129.97 0 0 1-1.35.5 5.17 5.17 0 0 1-4.34-.16 128.3 128.3 0 0 0-5.94-2.84 5.22 5.22 0 0 1-2.23-1.92 5.16 5.16 0 0 1-2.93-.3 134.01 134.01 0 0 0-6.13-2.39 5.25 5.25 0 0 1-1.24-.65 5.12 5.12 0 0 1-1.4-.29c-2.96-1.02-4.44-1.49-7.5-2.39a5.18 5.18 0 0 1-1.8-.94c-.19.03-.37.04-.56.04-1.13 1.91-2.25 3.7-3.33 5.34a53.2 53.2 0 0 1-3.13 4.2l-.1.13c-3.18 3.7-6.46 5.77-10.04 6.32a10.2 10.2 0 0 1-6.08-.85 9.48 9.48 0 0 1-2.02 1.44 13.75 13.75 0 0 1-4.6 1.39h-.1l-3.14.47a6.9 6.9 0 0 1-4.48-.85 13.34 13.34 0 0 1-5.43 2.2l-.25.05c-.67.1-1.34.15-2 .15-1.29 0-2.57-.21-3.77-.63a24.39 24.39 0 0 1-3.74 4.1 23.1 23.1 0 0 1-11.94 5.82c-1.14.18-2.26.26-3.34.26zM12.05 84.76c.05.23.11.45.18.67l.3-.18-.13-.48h-.35zm.4-5.3-.17.09h.15l.02-.1z" style="fill:#fff"/><path d="M184.49 106.12A83.32 83.32 0 1 0 18.7 118.14h164.92a84 84 0 0 0 .87-12.02" style="fill:#fff"/><path d="M20.47 116.13h161.39c.4-3.33.61-6.68.61-10 0-44.84-36.47-81.32-81.3-81.32s-81.32 36.47-81.32 81.31c0 3.32.2 6.68.62 10m164.9 4.03H16.97l-.26-1.72a86.27 86.27 0 0 1-.88-12.31c0-22.8 8.87-44.23 25-60.34 16.11-16.12 37.54-25 60.33-25s44.23 8.88 60.35 25a84.77 84.77 0 0 1 25 60.34c0 4.1-.3 8.23-.9 12.3l-.25 1.73z" style="fill:#002773"/><path d="M191.03 80.99v-.06l-.02-.05-.02-.06-.03-.04-.02-.05-.03-.04-.04-.05-.04-.02-.05-.04-.04-.03-.05-.02-.05-.02-.05-.01h-.01c-14.05-2.32-25.78-3.45-37.88-3.39V36.03h-.43v-.12h-1.76v-3.28h-.35v-.12h-1.09v-4.48h-.37v-.14h-1.18v-.44h-.56v-.32c0-.14-.14-.26-.32-.26h-.04a16.5 16.5 0 0 0-4.69-10.24 13.9 13.9 0 0 0-3.87-2.68l-.18-.08-.16.08a14.2 14.2 0 0 0-6.25 5.72 17.28 17.28 0 0 0-2.3 7.2h-.05c-.18 0-.33.12-.33.26v.32h-.56v.44h-1.18v.14h-.36v4.48h-1.1v.12h-.35v3.28h-1.77v.12h-.41v43.34c-1.67.22-3.37.46-5.1.72h-1V60.83a.27.27 0 0 0-.26-.27h-1.56v-.85h.04c.14 0 .27-.13.27-.27v-.84a.27.27 0 0 0-.27-.27h-1.62v-.85h.1c.14 0 .26-.12.26-.27v-.84a.27.27 0 0 0-.27-.27h-1.58v-.85h.06c.14 0 .27-.12.27-.27v-.84a.27.27 0 0 0-.27-.26h-1.62v-.86h.1c.14 0 .26-.12.26-.27v-.84a.26.26 0 0 0-.27-.26h-1.55v-.85h.03c.15 0 .27-.13.27-.27v-.84a.27.27 0 0 0-.27-.27h-1.53v-1.05c.12-.02.22-.12.22-.25V46a.27.27 0 0 0-.26-.27H94.6V80.1h-1.06V104.34h-.03v-20.4h-2.36V70.88h-1.18v-4.03l-5.4-6.26h-.9l-5.39 6.26v4.03h-1.18v13.08h-2.35v-1.6H72.4V49.02h-2.2V46.6h-4.12v-3.95c0-.7-2.7-1.26-5.99-1.26-3.3 0-5.99.57-5.99 1.26v3.95h-4.12v2.43h-2.19v33.33h-2.36v13.68h-.07v8.3H34.23l.02-.04v-1a.15.15 0 0 0-.15-.14h-.98v-9.13a15.74 15.74 0 0 0 1.72-1.67l.11.33c.02.06.08.1.14.1h2.53c.06 0 .12-.04.14-.1l.11-.33.01-.05v-.35a.15.15 0 0 0-.14-.14l-.01-.93h.18c.08 0 .14-.07.14-.15v-.33a.14.14 0 0 0-.09-.13l-1.13-.44-.13-.19a15.96 15.96 0 0 0 1.65-4.7h1.22c.07 0 .12-.03.14-.09l.12-.33v-.39a.14.14 0 0 0-.14-.15l-.01-.93h.18c.08 0 .15-.06.15-.14v-.33a.15.15 0 0 0-.1-.14l-1.13-.43-.2-.3a15.4 15.4 0 0 0-.81-4.5V76.8a.15.15 0 0 0-.14-.15v-.93h.18c.08 0 .14-.07.14-.14v-.33a.14.14 0 0 0-.1-.14l-1.13-.43-.25-.38v-.2a.14.14 0 0 0-.14-.15h-.12a15.56 15.56 0 0 0-3.77-4.1v-.04a.14.14 0 0 0-.1-.13l-.3-.12-.62-.4V56.78h-.98l-3.52-9.3h-4.93l-3.52 9.3h-.98v11.01l-.4.16c-.47.2-.94.42-1.39.67a.14.14 0 0 0-.13-.1h-.16a.14.14 0 0 0-.14.14v.17a.13.13 0 0 0-.05.06c-.35.2-.7.43-1.03.67l-.3.12a.14.14 0 0 0-.1.13v.04a15.82 15.82 0 0 0-3.77 4.1H9.9a.14.14 0 0 0-.15.15v.2l-.24.38-1.14.43a.14.14 0 0 0-.1.14v.32c0 .09.07.15.15.15h.18v.93a.15.15 0 0 0-.15.15v.39l.01.01c-.5 1.45-.77 2.97-.82 4.52l-.19.29-1.13.43a.14.14 0 0 0-.1.14v.32c0 .08.07.15.15.15h.18v.93h-.01a.14.14 0 0 0-.14.15v.39l.12.33c.02.06.07.1.14.1h1.22a15.29 15.29 0 0 0 1.65 4.69l-.12.2-1.14.43a.15.15 0 0 0-.1.13v.33c0 .08.07.14.15.14h.19v.94h-.02a.15.15 0 0 0-.14.14V92.35l.12.33c.02.06.08.1.14.1h2.53c.06 0 .12-.04.14-.1l.11-.33v-.02a15.42 15.42 0 0 0 3.42 2.95l-1 .38a.15.15 0 0 0-.1.14v.33c0 .08.06.14.14.14h.19v.94h-.01a.14.14 0 0 0-.15.14V97.74l.12.33c.02.06.08.1.14.1h1.66v2.34h-.82a.14.14 0 0 0-.15.15v2.49h-1.09a.14.14 0 0 0-.14.14v1l.01.05v18.07h174.61v-13.92h.55l1.09-18.7.05-.87.06-1h.02l.12-2.45v-.03l.02-.44c0-.32-.25-.58-.54-.58l-1.27-.06a.63.63 0 0 0 .02-.16c0-.42.18-.55.86-.88.68-.33 1.61-.78 1.83-2.15v-.18zM38.57 83.05h.68v.63h-.72l.04-.63zm-31.6.63v-.63h.69c0 .2.03.42.04.63h-.73zm7.57-13.4h1.27c-.32.2-.63.4-.93.63h-.34v-.63zm1.55.37.14.26h-.55l.41-.26zm-2.08-.37h.1v.94a.15.15 0 0 0-.15.14v.28a14.37 14.37 0 0 0-2.75 3.24l-.9-.48c.97-1.6 2.21-2.98 3.7-4.12zM9.6 82.52l4.68.14a8.74 8.74 0 0 0 .92 3.5l-4 2.47a13.36 13.36 0 0 1-1.59-5.71v-.33l-.01-.07zm-.02-.7c.05-1.44.31-2.85.8-4.2h.85c.06 0 .12-.03.14-.09l.11-.33.01-.05v-.34a.15.15 0 0 0-.14-.15l-.01-.88 3.9 2.4c-.1.2-.2.4-.28.6-.39.93-.61 1.9-.67 2.9l-4.7.14zm0-6.09h1.14c-.1.2-.21.41-.3.63H9.3l.28-.63zm-.56 0h.03l-.03.06v-.06zm-.2 1.9H9.9a13.91 13.91 0 0 0-.77 4.2l-.86.02-.13-.2v-.21l-.02-.06c.07-1.28.3-2.54.7-3.75zm-.7 5.43h.74v.63h-.7l-.04-.63zm.23 1.9h.83c.06 0 .12-.04.14-.1l.03-.1a13.86 13.86 0 0 0 1.46 4.11l-.72.44v-.04a.15.15 0 0 0-.15-.15H9.8a14.84 14.84 0 0 1-1.43-4.16zm.57 6.55v-.62h1.36l.44.62h-1.8zm2.32-.1v-.52h.18c.08 0 .14-.07.14-.15v-.32a.14.14 0 0 0-.09-.14l-1.08-.41.75-.41a13.98 13.98 0 0 0 4.64 4.67l-.22.41a.14.14 0 0 0-.09-.02h-.15a.15.15 0 0 0-.14.14v.2l-.05.07c-1.5-.94-2.8-2.13-3.9-3.53zm4.55 5.5h-1.34v-.63h1.34v.63zm0-3.32a13.66 13.66 0 0 1-4.24-4.35L15.69 87l.1.15v6.43zm0-7.8-.26.16a8.34 8.34 0 0 1-.86-3.28l1.12.04v3.09zm0-4.16-1.11.04c.07-1.15.37-2.25.9-3.28l.2.13v3.11zm1.68-8.1H15.8v3.74l-.04.07-4.14-2.23c.68-1.1 1.52-2.1 2.5-2.97.02.03.07.05.11.05h2.54c.05 0 .1-.02.12-.07l.6 1.13v.27zm0-1.95-.62-1.02v-.26h.18c.08 0 .15-.07.15-.15v-.09l.3-.14v1.66zm0-2.16-.49.23-.9-.35-.17-.26c.51-.27 1.03-.52 1.56-.73v1.11zm17.27 20.86a.15.15 0 0 0-.1.14v.32c0 .08.07.15.15.15h.18v.51c-.56.73-1.19 1.4-1.86 2v-1.42c.72-.74 1.36-1.56 1.9-2.43l.68.36-.95.37zm-.02-13.08.12.33c.02.06.07.1.14.1h.85c.5 1.37.77 2.82.8 4.29l-3.52-.1v-4.83l1.76-1.1v.77a.15.15 0 0 0-.15.15v.34a.2.2 0 0 0 0 .05zm1.88 5.42v.3l.01.06a13.33 13.33 0 0 1-1.64 5.74l-1.86-1.15v-4.84l3.49-.1zm-1.99 6.7c-.44.72-.94 1.38-1.5 2v-2.8l1.5.8zm2.68 1.57v.62h-1.8l.44-.62h1.36zm-.86-1.77h-.16a.15.15 0 0 0-.15.15v.16l-.76-.47a14.22 14.22 0 0 0 1.5-4.2l.03.1c.02.06.08.1.14.1h.83a14.91 14.91 0 0 1-1.43 4.16zm1.61-5.43h-.69v-.63h.74l-.05.63zm.05-2.32a.14.14 0 0 0-.02.07v.2l-.2.31-.79-.02a13.89 13.89 0 0 0-.77-4.3h1.09c.39 1.2.62 2.47.7 3.74zm-.9-5.64v.06l-.03-.06h.03zm-.55 0c.1.2.2.42.28.63h-1.12l-.31-.63h1.15zm-4.43-5.43a15.05 15.05 0 0 1 3.73 4.14l-.08.11-.64.35-.16.06a14.04 14.04 0 0 0-2.8-3.3v-.29a.15.15 0 0 0-.15-.14l-.01-.93h.11zm-.8 0h.27v.62h-.26v-.62zm0 1.9h.59c.04 0 .09-.03.11-.07a13.6 13.6 0 0 1 2.51 3 .15.15 0 0 0-.08.13l-1.43.77v-2.51h-1.7v-1.33zm143.3 7.27c2.42.26 4.89.57 7.42.92l-.44.75c-2.5-.34-4.94-.63-7.34-.9l.35-.77zm-7.48-.69c2.08.16 4.19.34 6.33.57l-.36.78c-2.08-.21-4.15-.4-6.19-.54l.22-.8zm5.48 2.45-1.07 2.4-1.48-.07-.36 1.31h-4.22l1.13-4.17c1.98.15 3.97.32 6 .53zm-50.15 1.14.47-.06v.96l-.47-.9zm18.31-62.53a9.92 9.92 0 0 0-2.84-1.97l-.18-.08-.16.08a10.35 10.35 0 0 0-4.59 4.2 12.13 12.13 0 0 0-1.17 2.66h-.49a13.91 13.91 0 0 1 1.48-3.58 11.65 11.65 0 0 1 4.94-4.61 10.37 10.37 0 0 1 2.97 2.1c1.6 1.58 2.76 3.7 3.4 6.09h-.5c-.59-1.9-1.55-3.6-2.86-4.9zm-.99 3.06a6.64 6.64 0 0 0-1.85-1.28l-.18-.08-.16.08a6.78 6.78 0 0 0-3 2.73 5.5 5.5 0 0 0-.74.38c.05-.12.07-.26.13-.38a8 8 0 0 1 3.78-4 6.77 6.77 0 0 1 1.98 1.4c.82.8 1.5 1.83 1.97 2.98h-.04c-.24-.15-.5-.28-.79-.4a7.37 7.37 0 0 0-1.1-1.43zm.07 1.1a9.03 9.03 0 0 0-4.22 0 6 6 0 0 1 2.13-1.81 5.68 5.68 0 0 1 1.49 1.07c.22.22.4.48.6.73zm.42-2.6a8.24 8.24 0 0 0-2.34-1.63l-.18-.08-.16.08a8.55 8.55 0 0 0-4.27 4.38c-.08.18-.12.4-.2.58h-.51c.15-.45.26-.92.45-1.34.18-.37.36-.73.57-1.08a9.86 9.86 0 0 1 4.13-3.87 9.13 9.13 0 0 1 2.47 1.75 11.25 11.25 0 0 1 2.7 4.54h-.5a9.54 9.54 0 0 0-2.16-3.34zm19.55 56.99c2.06.07 4.12.18 6.2.32l-.21.8a197 197 0 0 0-6.13-.32l.14-.8zm-.32 1.91c1.99.08 3.99.18 6 .32l-1.15 4.25h-5.62l.77-4.57zm-6.91-2.01c2.05-.01 4.1 0 6.14.07l-.14.79c-2-.07-4-.1-6-.1v-.76zm0 1.89c1.94 0 3.87.03 5.81.09l-.49 2.9h-5.33v-3zM131.29 21.4c.24-.52.5-1.01.78-1.5 1.44-2.4 3.45-4.29 5.8-5.4a12.1 12.1 0 0 1 3.5 2.47 15.95 15.95 0 0 1 4.53 9.89h-.57a14.2 14.2 0 0 0-3.95-8.6 11.62 11.62 0 0 0-3.34-2.31l-.18-.08-.16.07a12.31 12.31 0 0 0-6.1 6.28 14.78 14.78 0 0 0-1.27 4.64h-.49c.19-1.95.68-3.8 1.44-5.46zm-8.25 59.13v.6l-1.04.13-.29-.55 1.33-.18zm-1.09 3.01h-2.7v-.73l2.16-.3.54 1.03zm-3.14-2.42 1.75-.25.28.55-2.03.28v-.58zm61.24 2.75a.5.5 0 0 0-.05.11l-7.17-.32 1.04-2.33c2.34.25 4.73.54 7.18.87l-1 1.67zm7.22.44-6.03-.27 1-1.67c1.73.24 3.5.5 5.3.78a1.83 1.83 0 0 0-.27 1.16zm1.61-2.12c-2.04-.33-4.03-.63-6-.9l.45-.75c2.1.3 4.23.63 6.43.98-.19.3-.49.47-.88.67z" style="fill:#c70f2e"/><path d="M66.46 92.66h.04v.24h-.04v-.24zm69.37.15v-.15h.04v.15h-.04m-6.3.11v-1.04h.03v1.04h-.04m-56.75-1.04h.03v1.11h-.03v-1.1zm50.45 1.13v-1.77h.03V93h-.03m-44.15-1.77h.04v1.82h-.04v-1.82zm37.84 1.83v-2.33h.04v2.33h-.04m-31.53-2.33h.04v2.36h-.04v-2.36zm6.3-.35h.04v2.73h-.03V90.4zm18.92 2.72V90.4h.04v2.72h-.04M98 90.21h.03v2.92h-.04v-2.91zm6.3 2.92v-2.91h.04v2.91h-.04m58.9-57.98a2.8 2.8 0 0 0-2.46 1.47 2.43 2.43 0 0 0-.23.35c-.19.19-.35.4-.48.63a2.8 2.8 0 0 0 .2 3.72l-.14.3-.02.06a4.47 4.47 0 0 0-.3 2.03c-.23.21-.43.46-.57.73l-.4.78c-.21.39-.32.81-.32 1.25v.95c0 .38.08.74.23 1.08l.04.09.01 1.99-.05.02c-.54.27-.96.71-1.21 1.23l-2.3.86c-.83.3-1.44.98-1.66 1.8l-1.42.5.12-.56c.05-.19.07-.38.07-.58v-.47c0-.53-.16-1.06-.46-1.5l-.4-.6a2.88 2.88 0 0 0-.19-.24v-.15a3.61 3.61 0 0 0-.43-1.6 2.8 2.8 0 0 0-.52-4.18c-.18-.23-.4-.43-.64-.6a2.78 2.78 0 0 0-4.3.76c-.07.08-.13.17-.18.27-.17.17-.32.37-.44.58a2.8 2.8 0 0 0 .07 3.53l-.03.07-.02.05a4.09 4.09 0 0 0-.17.52v.02a3.9 3.9 0 0 0-.13 1.25c-.18.19-.33.4-.46.62l-.36.69c-.2.38-.3.81-.3 1.25v.84c0 .37.07.74.22 1.08v.02l.01.32c-.57.3-1 .79-1.23 1.36a2.7 2.7 0 0 0-1.11 1.48c-.52.5-.83 1.19-.83 1.94v.4c0 1.1.67 2.06 1.64 2.47l.3.57v10.86l-.71.97a2.69 2.69 0 0 0-.51 1.58v5.9c-14.44-2.36-27.56-3.5-40.03-3.5-12.42 0-25.5 1.14-39.88 3.48v-5.88c0-.56-.18-1.12-.52-1.58l-.7-.97V64.6l.3-.57a2.68 2.68 0 0 0 1.64-2.47v-.4c0-.75-.32-1.45-.83-1.94a2.68 2.68 0 0 0-1.13-1.49 2.69 2.69 0 0 0-1.23-1.35v-.34c.16-.34.23-.7.23-1.08v-.84c0-.44-.1-.87-.3-1.25l-.37-.69a2.71 2.71 0 0 0-.45-.62 4.24 4.24 0 0 0-.13-1.25v-.02l-.04-.15a4.44 4.44 0 0 0-.13-.36c0-.03-.02-.05-.03-.08l-.02-.05a2.82 2.82 0 0 0 .06-3.53 2.88 2.88 0 0 0-.43-.58l-.18-.28a2.8 2.8 0 0 0-4.31-.74c-.24.16-.45.36-.63.58-.57.38-.99.97-1.16 1.68v.02a2.8 2.8 0 0 0 .64 2.49 3.63 3.63 0 0 0-.43 1.75 2.7 2.7 0 0 0-.19.24l-.4.6c-.3.44-.46.97-.46 1.5v.47c0 .2.02.4.07.58l.12.56-1.42-.5a2.68 2.68 0 0 0-1.65-1.8l-2.3-.86a2.68 2.68 0 0 0-1.22-1.23l-.05-.02.01-1.99.04-.08c.15-.35.23-.71.23-1.09v-.95c0-.43-.1-.86-.31-1.25l-.41-.77a2.7 2.7 0 0 0-.57-.74 4.34 4.34 0 0 0-.3-2.03l-.02-.06-.14-.3a2.8 2.8 0 0 0 .2-3.72c-.13-.23-.3-.45-.48-.64a2.95 2.95 0 0 0-.22-.33 2.8 2.8 0 0 0-4.35-.75c-.26.17-.49.39-.67.64a2.79 2.79 0 0 0-.37 4.43 3.63 3.63 0 0 0-.62 2.16c-.1.1-.19.22-.27.34l-.46.68c-.3.45-.46.97-.46 1.5v.54c0 .2.03.39.07.58l.27 1.25v1.45a2.68 2.68 0 0 0-1.84 1.94c-.34.11-.65.3-.91.52l-.2.03a2.68 2.68 0 0 0-2.34 2.37c-.38.47-.6 1.06-.6 1.7v.53c0 .89.44 1.7 1.14 2.2l.68 1.88v14.5l-.5 1.65c-.08.25-.12.52-.12.78V90.7l-.57 1.54c-.11.3-.17.62-.17.94v1.55l-5 1.08a2.68 2.68 0 0 0-2.12 2.62v1.71c0 1.36 1.02 2.5 2.38 2.67l4.32.5v8.03l-.5 1.74c-.08.24-.11.5-.11.75v39c0 1.24.85 2.32 2.05 2.6l.06.02c.27.88.98 1.58 1.91 1.8l4.39 1.1a2.64 2.64 0 0 0 2.1-.35l.59-.38 3.37.82a2.7 2.7 0 0 0 2.18-.42l4.9-3.45a2.69 2.69 0 0 0 1.15-2.2v-.98l4.15-2.9 1.11.2a2.65 2.65 0 0 0 2.03-.45l3.47-2.44a2.68 2.68 0 0 0 1.14-2.2v-36.42c0-.4-.08-.77-.25-1.13l-.48-1.04v-2.56c11.8.27 25.21.41 39.02.41 13.8 0 27.23-.14 39.03-.41V105l-.48 1.04a2.7 2.7 0 0 0-.25 1.13v41.96c0 .87.42 1.69 1.14 2.2l3.47 2.43a2.68 2.68 0 0 0 2.03.44l1.11-.2 5.3 3.71a2.68 2.68 0 0 0 3.34-.2l1.55 1.08a2.69 2.69 0 0 0 2.17.42l3.38-.82.58.38a2.68 2.68 0 0 0 2.1.35l4.4-1.1a2.69 2.69 0 0 0 1.9-1.8l.06-.01a2.68 2.68 0 0 0 2.06-2.61v-39.58c0-.26-.04-.5-.11-.75l-.5-1.74v-8.03l4.32-.5a2.68 2.68 0 0 0 2.37-2.67v-1.71c0-1.26-.88-2.36-2.12-2.62l-5-1.08v-1.55c0-.32-.05-.64-.17-.94l-.57-1.54V77.55c0-.26-.04-.53-.12-.78l-.5-1.65v-14.5l.68-1.88c.7-.5 1.15-1.31 1.15-2.2V56c0-.64-.23-1.24-.6-1.7a2.69 2.69 0 0 0-2.34-2.38l-.2-.02c-.27-.23-.57-.4-.91-.52a2.68 2.68 0 0 0-1.85-1.94V48l.28-1.26c.04-.19.06-.38.06-.58v-.53c0-.53-.16-1.05-.46-1.5l-.46-.68a2.75 2.75 0 0 0-.27-.34 3.92 3.92 0 0 0-.58-2.19 2.79 2.79 0 0 0-.4-4.4 2.76 2.76 0 0 0-.68-.65 2.8 2.8 0 0 0-1.88-.72m-4.25 80.95-4.9-2.6 4.9 2.6m-115.57 0 4.91-2.61-4.91 2.6m-10.43-.64.88-2.31-.43 1.12-.45 1.2m136.43 0-.45-1.2-.44-1.12.9 2.31M34.14 101.2l-1.46-.17 1.14.14.32.03m134.03 0 .32-.03 1.14-.14-1.46.17M54.55 95.3l1.47-.4-1.47.4m92.92-.08-1.15-.32 1.16.31m5.87-.5 2.39-.23v-.03l-2.4.25m-102.75.2v-.04l-4-.42v.04l4 .42m99.65.08v-2.85V95m-98.14.07v-2.93 2.93M33.83 93.6l.55-2.1-.48 1.83-.07.27m134.67 0-.07-.27-.48-1.84.55 2.1M62.87 95.53v-5.07l-3.42.5.01 3.01v1.49l3.41.07m76.58-.1 3.43-.08v-4.38c-1.12-.18-2.27-.35-3.43-.51v4.97m10.8-4.68V90v.75m-98.15 0v-.77.77m.19-.03.25-.83-.25.83m16.9 4.92V89.6c-1.84.23-3.64.47-5.41.72v5.22l5.4.09m63.97-.08 5.4-.1v-5.13c-1.77-.25-3.57-.49-5.4-.71v5.94m-57.66.16v-6.82c-1.83.19-3.63.4-5.4.6V95.66l5.4.05m51.35-.05 5.4-.09V89.5c-1.77-.21-3.57-.42-5.4-.6V95.65m-6.3.07 5.4-.06V88.8a272.7 272.7 0 0 0-5.4-.5v7.42m-38.75.04V88.3c-1.82.15-3.62.31-5.4.49v6.91l5.4.05m61.58-6.12.44-.72v-.11a337 337 0 0 0-4.36-.74v1l3.92.57m-84.4 0c1.28-.2 2.58-.39 3.9-.57v-1.02l-4.34.73v.14l.44.72m29.13 6.15v-7.9c-1.82.1-3.62.21-5.4.35v7.53l5.4.02m26.13-.01 5.4-.05v-7.49c-1.78-.14-3.58-.26-5.4-.36v7.9m-19.82.03v-8.2c-1.82.05-3.62.13-5.4.22v7.97l5.4.01m13.51 0 5.4-.03V87.83c-1.78-.1-3.58-.17-5.4-.22v8.2m-7.2 0v-8.3c-1.82 0-3.62.03-5.41.08v8.22h5.4m.9 0h5.4v-8.22c-1.78-.05-3.58-.08-5.4-.08v8.3m36.94-6.87v-1c-1.77-.29-3.57-.56-5.4-.82v1.12c1.83.22 3.63.45 5.4.7m-74.77 0c1.77-.24 3.57-.48 5.4-.7V87.1c-1.83.25-3.63.52-5.4.8v1.03m68.47-.81V87c-1.78-.24-3.58-.47-5.41-.68v1.2l5.4.6m-62.16 0 5.4-.6V86.3c-1.82.21-3.62.44-5.4.68v1.15m55.86-.7v-1.22c-1.78-.2-3.58-.38-5.4-.54v1.28c1.82.15 3.62.31 5.4.49m-49.55 0c1.78-.18 3.58-.34 5.4-.49v-1.3c-1.82.17-3.62.35-5.4.55v1.24m43.24-.56v-1.3a229.7 229.7 0 0 0-5.4-.4v1.35c1.82.1 3.62.22 5.4.35m-36.94 0c1.79-.13 3.6-.25 5.41-.35v-1.36c-1.82.12-3.62.25-5.4.4v1.31m30.63-.4v-1.36c-1.79-.1-3.6-.18-5.41-.24v1.38c1.82.06 3.62.13 5.4.22m-24.32 0c1.79-.09 3.59-.16 5.4-.22v-1.39c-1.81.06-3.61.14-5.4.25v1.36m18.02-.24v-1.4c-1.79-.04-3.6-.07-5.4-.08v1.4c1.81 0 3.61.04 5.4.08m-11.71 0c1.79-.04 3.59-.07 5.4-.08v-1.4c-1.81 0-3.61.03-5.4.08v1.4m-60.93-8.63 3.35-.02v-.07l-3.35.02v.07m133.57 0v-.07l-3.35-.02v.07l3.35.02M52.1 88.24V76.27v11.97m98.14.03v-12 11.99M52.1 75.92V76v-.18.1m98.16.01V76v-.17.1m-98.18-.54v.02-.07.05m98.2-.02v.04-.07.03M53.02 63.24v12.94V63.24m.18-3.46h.03-.03m95.92 0h-.02.03m-103-2.59-.1.28-.1.28-.07.18-.06.18-.84 2.29.9-2.47.02-.04.05-.14.2-.55m-11.11 2.5v.07l2.5-.24v-.07l-2.5.24-1.17-3.43h-.01l.1.3 1.08 3.13m132.29 0-2.5-.24v.07l2.5.24v-.07l1.08-3.13.1-.3h-.02l-1.16 3.43m-129.79-.24.19-3.62-.2 3.62h.01m127.29 0-.2-3.62.2 3.62M41.67 55.37l2.49.86 2.5.87-4.99-1.73m-3.1-.18v.54-.54l-.84-.25.78.23.06.02m125.18 0v.54-.54l.07-.02.78-.23-.85.25M37.58 53.5v-1.71h-.04v1.7h.04m127.17 0h.03v-1.7h-.03v1.7m-1.55-15.64c.06 0 .11.05.11.11v.2l.19-.05h.02c.05 0 .1.03.11.08a.11.11 0 0 1-.08.14l-.24.05v.6l.46-.1v-.27c0-.06.05-.1.12-.1.06 0 .1.04.1.1v.22l.23-.05h.03c.05 0 .1.03.1.08a.11.11 0 0 1-.07.14l-.28.06v.22c0 .06-.05.11-.11.11a.11.11 0 0 1-.12-.1v-.18l-.46.11v2.09l.1.54c.08.04.12.1.12.17 0 .04-.03.06-.06.07.32.06.57.38.59.83.01.49-.25.96-.61 1.14.05 0 .08.03.08.08 0 .06-.05.14-.12.2v.51l.5-.07.87.18.46.68v.54l-.34 1.54v3.8l1.92.52v1.69l1.76.22v.46l1.63.2v1.34l.58.07v.53l-.58.24h-.02l-1.22 3.37v15.37l.62 2.03v13.63l.74 2v3.7l7.12 1.54v1.71l-6.7.78v10.8l.61 2.1v39.59l-1.98.48v1.34l-4.39 1.1-1.55-1.01-4.5 1.08-4.9-3.43v2.55l-6.2-4.36v-51.6 51.6l-2.23.41-3.47-2.44v-41.95l.73-1.58v-5.9c-11.99.3-26.3.47-41.71.47-15.4 0-29.71-.17-41.7-.48v5.9l.73 1.59v36.42l-3.47 2.44-2.22-.4-6.21 4.35v2.38l-4.91 3.45-4.5-1.08-1.55 1-4.39-1.1v-1.34l-1.98-.47v-39l.6-2.12v-10.8l-6.69-.77v-1.71L32 96.88v-3.7l.74-2V77.55l.62-2.03V60.15l-1.22-3.38h-.02l-.59-.23V56l.6-.07V54.6l1.62-.2v-.46l1.76-.22v-1.7l1.92-.52v-3.8l-.34-1.53v-.54l.46-.68.87-.18.5.07-.12-.71c0-.05-.54-.73-.52-1.22.01-.45.52-.86.52-.9 0-.07.22-.72.22-.72v-2.08l-.46-.1v.16a.11.11 0 1 1-.23 0v-.22l-.27-.06a.11.11 0 1 1 .05-.22l.22.05v-.22c0-.06.05-.11.12-.11.06 0 .1.05.1.11v.27l.47.1v-.6l-.24-.05a.11.11 0 0 1-.08-.14.11.11 0 0 1 .1-.08h.03l.19.04v-.2a.11.11 0 1 1 .22 0v.25l.17.04c.06.02.1.08.09.14a.11.11 0 0 1-.14.08l-.12-.03v.61l.48.11v-.2a.11.11 0 1 1 .23 0v.25l.19.05a.11.11 0 0 1-.03.22h-.02l-.14-.03v.17c0 .07-.05.12-.11.12a.11.11 0 0 1-.12-.12v-.23l-.48-.1v2.13l.1.47c.05.03.08.06.1.1.03.04.23.47.32.69l.01.02a1.98 1.98 0 0 1 .1.3c.03.2.03.38.02.48a3.1 3.1 0 0 1-.53.88l-.02.02v.54l.54.07.88.73.4.77v.96l-.25.59-.03 4.2 1.54.78v.8l3.79 1.4v1.22l-3.79-1.33 4.26 1.5 4.73 1.66v-.35l1.6-.44V55.2l-.3-1.36v-.47l.4-.6.78-.16.44.06-.1-.62c0-.05-.48-.65-.47-1.08.01-.4.23-.67.52-.72-.04-.02-.06-.04-.06-.08 0-.05.04-.1.1-.14l.08-.41v-1.9l-.38-.08v.13c0 .06-.05.1-.11.1a.11.11 0 0 1-.11-.1v-.19l-.24-.05a.11.11 0 0 1-.08-.14.11.11 0 0 1 .13-.08l.19.04v-.17c0-.07.05-.12.1-.12.07 0 .12.05.12.12v.22l.38.09V47l-.2-.05a.11.11 0 0 1-.08-.14.11.11 0 0 1 .13-.08l.15.03v-.15c0-.06.05-.11.11-.11.07 0 .12.05.12.11v.2l.14.04a.11.11 0 0 1-.03.22h-.03l-.09-.02v.5l.4-.07c0-.06.05-.11.12-.11.06 0 .1.05.1.11v.22l.16.03a.11.11 0 0 1-.02.22l-.13-.02v.14a.11.11 0 1 1-.23 0v-.2l-.4-.09v1.93l.08.35c.04.03.07.06.08.1.03.03.04.06.01.1-.01.02-.03.03-.07.03v.01c.15.1.27.27.35.46v.01c.03.05.04.1.05.14l.02.05.02.09c.03.17.03.32.02.42a.8.8 0 0 1-.22.42l-.01.01a.43.43 0 0 1-.1.08h-.02c-.02.02.02.18-.1.25l-.03.02v.48l.47.06.78.64.36.69v.84l-.23.52-.02 2.55 1.44.73v.85l1.04.38v.92l-1.04-.37 1.76.62v.4l-.72.05-1.22 2.33v12.4L58.53 78v9.05c12.73-2.2 27.21-3.98 42.57-3.98 15.42 0 29.95 1.8 42.7 4v-9.07l1.23-1.67v-12.4l-1.22-2.33-.72-.05v-.4l1.74-.6-1.02.35V60l1.02-.38v-.86l1.45-.73-.02-2.55-.23-.52v-.84l.36-.68.77-.64.48-.07v-.48h-.02v-.02c-.13-.07-.13-.2-.06-.21-.02 0-.03-.02-.05-.03l-.02-.01a.46.46 0 0 1-.1-.08l-.01-.01a.8.8 0 0 1-.22-.42c-.01-.1-.01-.25.02-.42l.02-.09.01-.05a1.41 1.41 0 0 1 .06-.15c.08-.2.2-.36.34-.46h.01c-.04 0-.06-.02-.07-.05-.03-.02-.02-.06 0-.1a.26.26 0 0 1 .09-.08v-.01l.07-.35v-1.92l-.4.09v.2c0 .05-.04.1-.1.1a.11.11 0 0 1-.12-.1v-.15l-.1.02h-.03a.11.11 0 0 1-.02-.22l.15-.03v-.22c0-.06.05-.11.11-.11s.12.05.12.11v.16l.4-.09v-.5l-.1.02h-.02a.11.11 0 0 1-.11-.09.11.11 0 0 1 .08-.13l.14-.04v-.2a.11.11 0 1 1 .23 0v.15l.15-.03h.02c.05 0 .1.03.11.08a.11.11 0 0 1-.08.14l-.2.04v.51l.38-.09v-.22c0-.07.05-.12.11-.12s.11.05.11.12v.17l.18-.04h.03c.05 0 .1.03.11.08a.11.11 0 0 1-.08.14l-.24.05v.18c0 .07-.05.12-.11.12a.11.11 0 0 1-.11-.12v-.13l-.38.1v1.89l.08.41c.06.04.1.1.1.14 0 .05-.03.06-.06.08.29.05.5.33.52.73.01.42-.21.84-.53 1 .04 0 .07.02.07.07s-.05.12-.11.17v.45l.44-.06.77.16.4.6v.47l-.3 1.36v2.25l1.6.44v.36l4.74-1.66 4.25-1.5-3.78 1.33V55.2l3.78-1.4V53l1.55-.78-.03-4.2-.26-.6v-.95l.4-.78.88-.73.54-.07v-.54l-.02-.02c-.15-.09-.15-.24-.07-.25-.18-.03-.43-.37-.46-.63-.01-.1 0-.28.03-.47l.02-.1.02-.06.05-.15v-.02c.1-.22.23-.4.4-.52h.01c-.04-.01-.07-.03-.08-.06-.03-.03-.02-.07 0-.1a.31.31 0 0 1 .1-.1v-.02l.1-.46v-2.14l-.48.11v.23c0 .06-.05.11-.11.11s-.12-.05-.12-.1v-.19l-.13.03h-.03a.11.11 0 0 1-.1-.08.11.11 0 0 1 .08-.14l.18-.04v-.26c0-.06.05-.1.12-.1s.1.04.1.1v.2l.49-.1v-.6l-.12.02h-.02a.11.11 0 0 1-.03-.22l.17-.04v-.24a.1.1 0 0 1 .11-.11" style="fill:#002773"/><path d="M147.64 52.76h.37v-.73h-.37v.73zM147.82 51.72a.07.07 0 0 1-.06-.06v-5.08a.07.07 0 0 1 .13 0v5.08c0 .03-.03.06-.07.06" style="fill:#a8e3fb"/><path d="M146.96 47.88a.07.07 0 0 1-.07-.05c0-.04.02-.08.06-.08l1.78-.42c.04 0 .07.02.08.06.01.03-.01.07-.05.08l-1.78.4h-.02M147.6 47a.07.07 0 0 1-.07-.06c0-.03.02-.07.05-.08l.51-.12c.04 0 .08.02.08.05.01.04-.01.08-.05.08l-.5.12h-.02" style="fill:#a8e3fb"/><path d="M147.2 48.1a.07.07 0 0 1-.07-.06v-.59a.07.07 0 0 1 .14 0v.59c0 .04-.03.07-.07.07M148.43 47.81a.07.07 0 0 1-.07-.07v-.58a.07.07 0 0 1 .13 0v.58c0 .04-.03.07-.06.07M147.64 50.25l.18-1.25.24 1.23c.29.05.5.33.52.72.01.5-.3.97-.68 1.06-.4.1-.73-.23-.74-.72-.02-.4.19-.87.48-1.04" style="fill:#a8e3fb"/><path d="M147.53 50.2c0 .1.13.06.3.05.15-.01.28 0 .28-.1s-.13-.2-.29-.19c-.16.01-.29.13-.29.23M149.62 53.35l-.4-.6-.77-.16-1.29.18-.77.64-.36.68" style="fill:#a8e3fb"/><path d="M149.62 53.35v.47l-.3 1.36v3.56l-.87.17v-3.84l.14-1.25-.01-.47h1.04z" style="fill:#a8e3fb"/><path d="m147.16 53.52 1.42-.17.01.47-.14 1.25v3.84l-1.29.29.12-3.85-.12-1.17v-.66z" style="fill:#86bde0"/><path d="m146.26 55.45-.23-.52v-.84l1.13-.57.12 1.84v3.84l-.99.35-.03-4.1z" style="fill:#6598c5"/><path d="M147.53 52.06c0 .1.13.22.3.21.15-.01.28-.14.28-.25s-.13-.07-.29-.06c-.16.02-.29 0-.29.1" style="fill:#a8e3fb"/><path d="m147.16 53.52-.1-.38.1-.37-.77.64-.36.68 1.13-.57zM147.75 49.51l.07.45c-.07.06-.08.24.01.29-.3.03-.55 1.55-.09 1.73-.25.05-.02.29.03.3v.4l-.13.02v-.47c-.16-.07-.16-.23-.08-.24-.16-.03-.38-.32-.4-.55-.03-.23 0-.81.46-1.17-.18-.05-.06-.16.02-.24l.1-.52" style="fill:#86bde0"/><path d="M149.13 60.02h1.8v-2.15l-1.8-.5v2.65z" style="fill:#a8e3fb"/><path d="m144.83 60.88 1.71-.87v-2.14l-1.7.86v2.15z" style="fill:#6598c5"/><path d="m146.54 60.5 2.56-.48v-2.64l-2.56.48v2.64z" style="fill:#86bde0"/><path d="m156.31 57.44-.19-.53-.45.16v-.5l-5.98 2.1v.98l6.62-2.21z" style="fill:#6598c5"/><path d="m149.32 59.77-1.48-.13V58.5l1.85.17v.99l-.37.12z" style="fill:#86bde0"/><path d="m147.84 59.64-.36-.04-3.67 1.28v-.91l4.03-1.48v1.15zM156.47 57.86l-.16-.42-6.99 2.33v.4l7.15-2.31z" style="fill:#6598c5"/><path d="m149.32 60.16-1.84-.16v-.4l1.84.17v.4z" style="fill:#86bde0"/><path d="m147.48 60-4.39 1.53v-.4l4.39-1.53v.4z" style="fill:#6598c5"/><path d="m145.03 63.9-1.22-2.32 3.82-1.34.21 2.86-2.8.8z" style="fill:#4372a9"/><path d="m147.63 60.24 1.7.14v2.83l-1.49-.1-.21-2.87z" style="fill:#6598c5"/><path d="M145.03 63.9v12.4l2.81-.16V63.1l-2.8.8z" style="fill:#6598c5"/><path d="m147.84 63.1 1.48.1v12.95l-1.48-.01V63.1z" style="fill:#86bde0"/><path d="m149.32 76.16.37 1.7h-1.85v-1.72l1.48.02z" style="fill:#a8e3fb"/><path d="M147.84 76.14v1.72l-4.03.13 1.22-1.68 2.81-.17z" style="fill:#86bde0"/><path d="M147.84 77.86V89.6l-4.03-.7V77.98l4.03-.13zM149.69 77.87V89.5l-1.85.1V77.85h1.85z" style="fill:#86bde0"/><path d="m147.84 77.86-4.03.13v10.9l4.03.7V77.86z" style="fill:#6598c5"/><path d="m149.69 89.5.55 1.79-2.4.14V89.6l1.85-.1z" style="fill:#a8e3fb"/><path d="m147.84 89.6-4.03-.7-.92 1.51 4.95 1.02V89.6z" style="fill:#86bde0"/><path d="m142.89 90.41-.01 3.53 3.44.93 1.52.42v-3.86l-4.95-1.02z" style="fill:#6598c5"/><path d="m147.84 91.43 2.4-.15v3.75l-2.4.26v-3.86z" style="fill:#86bde0"/><path d="M150.24 76.3c0-1.13.08-3.05.9-4.46.84-1.4 2.85-2.02 3.76-2.02.92 0 2.03.3 2.37 1.72l.11.97v-5.04l-8.06 1.45v7.23l.37 1.72V89.5l.55 1.78.02-.05h-.02V76.31z" style="fill:#6598c5"/><path d="M154.65 71.39c-1.57.44-3.12 2.14-3.27 4.75v18.74l5.17-.54.97-18.81-.16-3.16c0-.24-.1-.86-.1-.86-.43-.25-1.24-.5-2.6-.12" style="fill:#002773"/><path d="M154.9 69.79c-.9 0-2.92.62-3.75 2.02-.8 1.35-.9 3.16-.9 4.32v18.9l1.13-.12V76.14c.15-2.6 1.7-4.3 3.27-4.75 1.37-.38 2.18-.12 2.62.12-.34-1.42-1.45-1.73-2.37-1.72" style="fill:#86bde0"/><path d="M142.88 93.94v11.62l3.44 1.7V94.86l-3.44-.94z" style="fill:#4372a9"/><path d="m142.88 105.56-.73 1.58 3.47 1.84.7-1.73-3.44-1.7z" style="fill:#6598c5"/><path d="M142.15 107.14v14.4h3.47v-12.56l-3.47-1.84zM149.32 63.2V60.4l7.23-2.3.83 2.28v.6l-8.06 2.24zM143.1 61.53l.7.05 3.83-1.34 1.7.15 7.22-2.3-.08-.23-7.15 2.3-1.84-.16-4.39 1.53z" style="fill:#4372a9"/><path d="M149.32 63.2v5.72l8.06-1.45v-6.5l-8.06 2.24zM142.88 93.94l4.96 1.35V97h-4.95l-.01-3.06zM146.32 97h1.52v24.54h-2.22v-12.56l.7-1.73V97z" style="fill:#6598c5"/><path d="m147.84 121.54 6.21-.07v-8.01l.73-2.03v-10.98l-6.94-2.5v23.59z" style="fill:#002773"/><path d="M54.69 52.76h-.37v-.73h.37v.73zM54.5 51.72a.07.07 0 0 1-.06-.06v-5.08a.07.07 0 0 1 .13 0v5.08c0 .03-.03.06-.07.06" style="fill:#a8e3fb"/><path d="M55.37 47.88h-.02l-1.79-.42a.07.07 0 0 1-.05-.08c.01-.03.05-.05.08-.05l1.8.42a.07.07 0 0 1-.02.13M54.73 47h-.01l-.52-.13a.07.07 0 0 1 .03-.13l.52.12c.03 0 .06.04.05.08-.01.03-.04.05-.07.05" style="fill:#a8e3fb"/><path d="M55.13 48.1a.07.07 0 0 1-.07-.06v-.59a.07.07 0 0 1 .13 0v.59c0 .04-.03.07-.06.07M53.9 47.81a.07.07 0 0 1-.07-.07v-.58a.07.07 0 0 1 .14 0v.58c0 .04-.03.07-.07.07M54.68 50.25 54.51 49l-.24 1.23c-.3.05-.5.33-.52.72-.02.5.29.97.68 1.06.4.1.72-.23.74-.72.02-.4-.2-.87-.49-1.04" style="fill:#a8e3fb"/><path d="M54.8 50.2c0 .1-.14.06-.3.05-.16-.01-.29 0-.29-.1s.13-.2.3-.19c.16.01.29.13.29.23M52.7 53.35l.4-.6.78-.16 1.28.18.78.64.36.68" style="fill:#a8e3fb"/><path d="M52.7 53.35v.47l.3 1.36v3.56l.88.17v-3.84l-.15-1.25.02-.47H52.7z" style="fill:#a8e3fb"/><path d="m55.16 53.52-1.41-.17-.01.47.14 1.25v3.84l1.28.29-.11-3.85.12-1.17v-.66z" style="fill:#86bde0"/><path d="m56.07 55.45.23-.52v-.84l-1.14-.57-.11 1.84v3.84l.99.35.03-4.1z" style="fill:#6598c5"/><path d="M54.8 52.06c0 .1-.14.22-.3.21-.16-.01-.29-.14-.29-.25s.13-.07.3-.06c.16.02.29 0 .29.1" style="fill:#a8e3fb"/><path d="m55.16 53.52.1-.38-.1-.37.78.64.36.68-1.13-.57zM54.58 49.51l-.08.45c.08.06.08.24 0 .29.3.03.55 1.55.08 1.73.26.05.03.29-.02.3v.4l.13.02v-.47c.15-.07.16-.23.08-.24.15-.03.38-.32.4-.55.03-.23 0-.81-.46-1.17.17-.05.06-.16-.02-.24l-.11-.52" style="fill:#86bde0"/><path d="M53.2 60.02h-1.8v-2.15l1.8-.5v2.65z" style="fill:#a8e3fb"/><path d="M57.5 60.88 55.77 60v-2.14l1.71.86v2.15z" style="fill:#6598c5"/><path d="m55.78 60.5-2.55-.48v-2.64l2.55.48v2.64z" style="fill:#86bde0"/><path d="m46.03 57.44.2-.53.44.16v-.5l5.98 2.1v.98l-6.62-2.21z" style="fill:#6598c5"/><path d="m53.02 59.77 1.48-.13V58.5l-1.85.17v.99l.37.12z" style="fill:#86bde0"/><path d="m54.5 59.64.36-.04 3.67 1.28v-.91l-4.03-1.48v1.15zM45.88 57.86l.15-.42 6.99 2.33v.4l-7.14-2.31z" style="fill:#6598c5"/><path d="m53.02 60.16 1.84-.16v-.4l-1.84.17v.4z" style="fill:#86bde0"/><path d="m54.87 60 4.38 1.53v-.4l-4.38-1.53v.4z" style="fill:#6598c5"/><path d="m57.31 63.9 1.22-2.32-3.82-1.34-.2 2.86 2.8.8z" style="fill:#4372a9"/><path d="m54.71 60.24-1.7.14v2.83l1.5-.1.2-2.87z" style="fill:#6598c5"/><path d="M57.31 63.9v12.4l-2.8-.16V63.1l2.8.8z" style="fill:#6598c5"/><path d="m54.5 63.1-1.48.1v12.95l1.48-.01V63.1z" style="fill:#86bde0"/><path d="m53.02 76.16-.37 1.7h1.85v-1.72l-1.48.02z" style="fill:#a8e3fb"/><path d="M54.5 76.14v1.72l4.03.13-1.22-1.68-2.8-.17z" style="fill:#86bde0"/><path d="M54.5 77.86V89.6l4.03-.7V77.98l-4.03-.13zM52.65 77.87V89.5l1.85.1V77.85h-1.85z" style="fill:#86bde0"/><path d="m54.5 77.86 4.03.13v10.9l-4.03.7V77.86z" style="fill:#6598c5"/><path d="m52.65 89.5-.55 1.79 2.4.14V89.6l-1.85-.1z" style="fill:#a8e3fb"/><path d="m54.5 89.6 4.03-.7.92 1.51-4.95 1.02V89.6z" style="fill:#86bde0"/><path d="m59.45 90.41.01 3.53-3.44.93-1.52.42v-3.86l4.95-1.02z" style="fill:#6598c5"/><path d="m54.5 91.43-2.4-.15v3.75l2.4.26v-3.86z" style="fill:#86bde0"/><path d="M52.1 76.3c0-1.13-.08-3.05-.9-4.46-.84-1.4-2.85-2.02-3.76-2.02-.92 0-2.03.3-2.37 1.72l-.1.97v-5.04l8.05 1.45v7.23l-.37 1.72V89.5l-.55 1.78-.02-.05h.02V76.31z" style="fill:#6598c5"/><path d="M47.7 71.38c1.56.44 3.12 2.14 3.26 4.75v18.74l-5.16-.54-1.53-21.34c0-.24.38-1.22.8-1.5.44-.24 1.25-.5 2.62-.11" style="fill:#002773"/><path d="M47.44 69.79c.91 0 2.92.62 3.75 2.02.8 1.35.9 3.16.9 4.32v18.9l-1.13-.12V76.14c-.14-2.6-1.7-4.3-3.27-4.75-1.37-.38-2.18-.12-2.62.12.34-1.42 1.46-1.73 2.37-1.72" style="fill:#86bde0"/><path d="M59.46 93.94v11.62l-3.44 1.7V94.86l3.44-.94z" style="fill:#4372a9"/><path d="m59.46 105.56.73 1.58-3.47 1.84-.7-1.73 3.44-1.7z" style="fill:#6598c5"/><path d="M60.2 107.14v14.36h-3.48v-12.52l3.47-1.84zM53.02 63.2V60.4l-7.22-2.3-.84 2.28v.6l8.06 2.24zM59.25 61.53l-.71.05-3.82-1.34-1.7.15-7.22-2.3.08-.23 7.14 2.3 1.85-.16 4.38 1.53z" style="fill:#4372a9"/><path d="M53.02 63.2v5.72l-8.06-1.45v-6.5l8.06 2.24zM59.46 93.94l-4.96 1.35V97h4.95l.01-3.06zM56.02 97H54.5v24.5h2.22v-12.52l-.7-1.73V97z" style="fill:#6598c5"/><path d="M54.5 121.5h-6.2v-8.04l-.74-2.03v-10.98l6.94-2.5v23.55z" style="fill:#002773"/><path d="M101.1 83.7c-10.48 0-20.42-2.15-28.75-6.2-8.03-3.9-13.86-9.34-16.42-15.32a.27.27 0 0 1 .5-.21c2.5 5.86 8.24 11.2 16.15 15.05 8.26 4.01 18.12 6.13 28.52 6.13s20.26-2.12 28.52-6.13c7.91-3.84 13.65-9.19 16.16-15.05a.27.27 0 0 1 .5.2c-2.57 5.99-8.4 11.43-16.42 15.33-8.33 4.05-18.28 6.2-28.76 6.2" style="fill:#224d8e"/><path d="M101.1 96.19c-21.3 0-39.88-14-45.18-34.05a.27.27 0 0 1 .19-.33c.14-.03.29.05.33.2 5.24 19.8 23.6 33.64 44.66 33.64S140.53 81.82 145.77 62a.27.27 0 1 1 .52.14C140.99 82.2 122.4 96.2 101.1 96.2" style="fill:#224d8e"/><path d="M42.93 90.05c15.85-3.32 36.1-7 58.17-7s42.33 3.68 58.17 7l-.56 1.62c-15.69-3.3-35.75-6.94-57.6-6.94s-41.92 3.65-57.61 6.94l-.57-1.62z" style="fill:#6598c5"/><path d="M101.43 87.47h-.54v-3.3h.54v3.3zM95.13 87.56h-.54v-3.23h.54v3.23zM88.82 87.82h-.54v-3.48h.54v3.48zM82.51 88.24h-.53v-3.42h.53v3.42zM76.2 88.81h-.53v-3.58h.54v3.58zM69.9 89.52h-.54v-3.44h.54v3.44zM63.6 90.41h-.54v-3.56h.53v3.56zM57.29 91.3h-.54v-3.23h.54v3.23zM51.3 92.34h-.53v-3.25h.53v3.25zM151.57 92.34h-.54V89.2h.54v3.13zM145.58 91.3h-.54v-3.06h.54v3.06zM139.27 90.41h-.54v-3.56h.54v3.56zM132.96 89.52h-.53v-2.67h.53v2.67zM126.66 88.9h-.54v-3.3h.54v3.3zM120.35 88.24h-.54v-3.42h.54v3.42zM114.04 87.82h-.53v-3.65h.53v3.65zM107.74 87.56h-.54v-3.39h.54v3.4z" style="fill:#6598c5"/><path d="M101.16 98.57c-19.34 0-37-.27-50.45-.73v1.56c13.45.46 31.1.73 50.45.73s37-.27 50.45-.73v-1.56c-13.44.45-31.1.73-50.45.73" style="fill:#86bde0"/><path d="m46.59 94.46 7.91.83c12.9.38 29.09.5 46.66.5 17.59 0 33.78-.23 46.68-.61l8.13-.75-.23 3.01-4.13.4c-13.44.46-31.1.73-50.45.73s-37-.27-50.45-.73l-4.12-.4v-2.98z" style="fill:#a8e3fb"/><path d="M46.05 91.76c15.01-2.68 34.2-5.63 55.11-5.63 20.92 0 40.1 2.95 55.11 5.63l-.53 1.3c-14.86-2.65-33.87-5.59-54.58-5.59s-39.7 2.94-54.57 5.59l-.54-1.3z" style="fill:#86bde0"/><path d="M101.43 98.57h-.54v-11.1h.54v11.1zM95.13 98.57h-.54v-11h.54v11zM88.82 98.57h-.54V87.82h.54v10.75zM82.51 98.57h-.53V88.24h.53v10.33zM76.2 98.57h-.53v-9.76h.54v9.76zM69.9 98.57h-.54v-9.05h.54v9.05zM63.6 98.57h-.54v-8.16h.53v8.16zM57.29 98.57h-.54V91.3h.54v7.27zM51.3 98.57h-.53v-6.23h.53v6.23zM151.57 98.57h-.54v-6.23h.54v6.23zM145.58 98.57h-.54V91.3h.54v7.27zM139.27 98.57h-.54v-8.16h.54v8.16zM132.96 98.57h-.53v-9.05h.53v9.05zM126.66 98.57h-.54V88.9h.54v9.68zM120.35 98.57h-.54V88.24h.54v10.33zM114.04 98.57h-.53V87.82h.53v10.75zM107.74 98.57h-.54v-11h.54v11zM39.33 44.93h-.41v-.83h.41v.83z" style="fill:#86bde0"/><path d="m37.08 45.6.46-.68.87-.18 1.47.2.87.73.41.77" style="fill:#a8e3fb"/><path d="M37.08 45.6v.54l.35 1.54v4.04l.99.19v-4.36l-.17-1.41.02-.54h-1.19z" style="fill:#a8e3fb"/><path d="m39.88 45.8-1.61-.2-.02.54.17 1.41v4.36l1.46.33-.13-4.37.13-1.33v-.74z" style="fill:#86bde0"/><path d="m40.9 47.99.26-.6v-.95l-1.28-.64-.13 2.07v4.37l1.12.4.03-4.65z" style="fill:#6598c5"/><path d="M37.54 54.44H35.5V52l2.04-.56v3z" style="fill:#a8e3fb"/><path d="m42.41 55.41-1.94-.97V52l1.94.97v2.44z" style="fill:#6598c5"/><path d="m40.47 54.98-2.9-.54v-3l2.9.55v3zM39.46 44.14c0 .12-.15.25-.33.24-.19-.02-.34-.17-.34-.28 0-.12.15-.08.34-.07.18.01.33 0 .33.11M39.88 45.8l.1-.44-.1-.42.87.73.41.77-1.28-.64z" style="fill:#86bde0"/><path d="M39.34 44.93h-.42v-.83h.42v.83zM39.13 43.75a.07.07 0 0 1-.07-.07v-5.76a.07.07 0 0 1 .13 0v5.76c0 .04-.03.07-.06.07" style="fill:#a8e3fb"/><path d="m40.1 39.38-2.04-.47a.07.07 0 1 1 .03-.13l2.03.47c.04.01.06.05.05.08 0 .03-.03.05-.06.05M39.38 38.38h-.01l-.58-.14a.07.07 0 0 1-.05-.08c0-.03.04-.05.08-.05l.58.14c.03 0 .06.04.05.08 0 .03-.04.05-.07.05" style="fill:#a8e3fb"/><path d="M39.83 39.64a.07.07 0 0 1-.06-.06v-.67a.07.07 0 0 1 .13 0v.67c0 .03-.03.06-.07.06M38.44 39.3a.07.07 0 0 1-.07-.06v-.67a.07.07 0 0 1 .14 0v.67c0 .04-.03.07-.07.07M39.33 42.08l-.2-1.41-.27 1.39c-.33.05-.58.37-.59.82-.02.56.33 1.1.77 1.2.45.1.83-.26.84-.82.02-.46-.22-.98-.55-1.18" style="fill:#a8e3fb"/><path d="M39.46 42.02c0 .12-.15.07-.33.06-.19-.01-.34.01-.34-.1 0-.12.15-.23.34-.22.18.01.33.15.33.26M39.46 44.14c0 .12-.15.25-.33.24-.19-.02-.34-.17-.34-.28 0-.12.15-.08.34-.07.18.01.33 0 .33.11" style="fill:#a8e3fb"/><path d="m39.21 41.25-.08.5c.08.07.09.28-.01.33.34.04.62 1.76.1 1.96.29.06.02.34-.04.34v.47l.15.02v-.54c.18-.08.18-.26.1-.27.17-.03.43-.37.45-.63.03-.26 0-.92-.53-1.33.2-.06.07-.18-.02-.27-.01-.13-.12-.58-.12-.58M37.52 53.44v1.5l-3.78.44v-1.47l3.77-.47z" style="fill:#86bde0"/><path d="m37.52 53.44.98.35v1.35l-.77-.23-.21.03v-1.5zM33.74 54.36l-1.62.2v1.54l1.24-.14v-.53l.38-.05v-1.02z" style="fill:#6598c5"/><path d="m37.73 54.91.84.25v.54l-.84-.24v-.55z" style="fill:#6598c5"/><path d="m38.57 55.7 3.1-.36v-.54l-3.1.36v.54z" style="fill:#86bde0"/><path d="m41.67 54.8 5 1.76v.5l-5-1.72v-.54z" style="fill:#6598c5"/><path d="m38.5 53.78 2.97-.36v1.4l-2.9.34-.06-.02v-1.36z" style="fill:#86bde0"/><path d="m41.47 53.42 4.73 1.75v1.22l-4.53-1.59-.2.03v-1.4zM33.35 55.77l-1.82.2v.54l.59.2v-.26l1.72-.2v-.54l-.49.06z" style="fill:#6598c5"/><path d="m33.74 55.92 1.28 3.75 2.5-.24.2-3.97-3.98.46z" style="fill:#6598c5"/><path d="m37.73 54.91-4.37.52v.53l.44.15-.06-.2 3.99-.45v-.55z" style="fill:#86bde0"/><path d="m33.84 56.25 1.18 3.42V60l-1.66.13-1.34-3.68 1.82-.2zM37.52 59.44l.84.23.21-3.97-.84-.24-.21 3.98z" style="fill:#4372a9"/><path d="m38.36 59.67 3.11-.3.2-4.02-3.1.35-.21 3.97zM33.35 60.12v15.37l1.67-.03V60l-1.67.13z" style="fill:#6598c5"/><path d="M37.52 59.5v16l-2.5.03V59.74l2.5-.24z" style="fill:#86bde0"/><path d="m37.52 59.43.84.24V75.4l-.84.01v-16z" style="fill:#6598c5"/><path d="m35.02 75.46-.64 2.05 3.35-.02-.22-2.07-2.5.04z" style="fill:#a8e3fb"/><path d="m35.02 75.46-.64 2.05-1.65.01.62-2.03 1.67-.03zM38.36 75.4l.24 2.1h-.87l-.21-2.08.84-.01z" style="fill:#86bde0"/><path d="m38.36 59.67 3.11-.3v15.99l-3.11.05V59.67z" style="fill:#86bde0"/><path d="m41.47 75.36.6 2.15-3.47-.02-.24-2.08 3.11-.05z" style="fill:#a8e3fb"/><path d="m46.22 56.91-1.26 3.46-3.49-1 .2-4.03 4.55 1.57z" style="fill:#4372a9"/><path d="M44.96 60.37v15.2l-3.49-.21V59.37l3.5 1z" style="fill:#6598c5"/><path d="m41.47 75.36 3.5.2.82 2.04-3.73-.08-.59-2.16z" style="fill:#86bde0"/><path d="M45.8 77.6v13.5l-3.74.66V77.5l3.73.1z" style="fill:#6598c5"/><path d="m42.06 77.52-3.46-.03v14.04l3.46.23V77.5z" style="fill:#86bde0"/><path d="M38.6 77.5h-.87v14.17l.87-.14V77.5z" style="fill:#6598c5"/><path d="m37.73 77.56-3.35.02v13.94l3.35.22V77.57z" style="fill:#86bde0"/><path d="M34.38 77.52h-1.65v13.63l1.65.1V77.53z" style="fill:#6598c5"/><path d="m42.06 91.76.3 2.17-3.76-.29v-2.1l3.46.22z" style="fill:#a8e3fb"/><path d="m37.73 91.67-.18 2.18 1.05-.2v-2.12l-.87.14z" style="fill:#86bde0"/><path d="m34.38 91.45-.55 2.1 3.71.3.19-2.18-3.35-.22z" style="fill:#a8e3fb"/><path d="m32.73 91.15 1.65.1v.2l-.48 1.84-1.91-.15.75-1.99zM45.8 91.1l.79 1.96-4.23.87-.3-2.17 3.73-.65z" style="fill:#86bde0"/><path d="M42.37 93.93v4.66l-3.77-.37v-4.58l3.77.29z" style="fill:#86bde0"/><path d="m38.6 98.22-1.05.31v-4.69l1.05-.2v4.58z" style="fill:#6598c5"/><path d="m37.55 98.53-3.72-.37v-4.6l3.72.29v4.68z" style="fill:#86bde0"/><path d="m33.9 93.29-.07.27v4.2L32 97.56v-4.42l1.91.14zM46.59 93.06l-4.23.87v4.66l4.23-1.15v-4.38z" style="fill:#6598c5"/><path d="m46.59 97.44 4.12.38-8.35 2.48-17.49-1.91L32 96.86v.71l1.84.19v.4l3.72.37 1.05-.3 3.77.36 4.22-1.15z" style="fill:#a8e3fb"/><path d="M50.71 97.82v1.6l-8.34 2.7v-1.82l8.34-2.48z" style="fill:#6598c5"/><path d="M42.37 100.3v1.83l-17.5-2.03v-1.71l17.5 1.91z" style="fill:#86bde0"/><path d="M37.55 101.57v12.18l-3.72-.64v-11.97l3.72.43z" style="fill:#6598c5"/><path d="m37.55 113.75-.22 2.48-4.38-.8.88-2.32 3.72.64z" style="fill:#86bde0"/><path d="m38.88 112.94-1.34.81-.2 2.48 1.54-.99v-2.3z" style="fill:#6598c5"/><path d="m37.55 101.57 1.33.15v11.22l-1.34.81v-12.18z" style="fill:#4372a9"/><path d="m38.88 101.72 3.48.4.7-.22v11.75l-4.18-.71v-11.22z" style="fill:#6598c5"/><path d="m43.05 113.65.33 2.42-4.5-.83v-2.3l4.17.71z" style="fill:#86bde0"/><path d="m33.83 101.14-2.26-.26v10.8l2.26.4v-10.94z" style="fill:#4372a9"/><path d="m31.57 111.68-.61 2.1 2.44.45.43-1.12v-1.03l-2.26-.4z" style="fill:#6598c5"/><path d="M30.96 113.79v7.71l1.99-.02v-6.06l.45-1.19-2.44-.44z" style="fill:#4372a9"/><path d="M32.95 115.42v6.06h4.38v-5.25l-4.38-.8z" style="fill:#6598c5"/><path d="M37.33 121.48h1.55v-6.24l-1.55.99v5.25z" style="fill:#4372a9"/><path d="m38.88 121.48 4.5.02v-5.43l-4.5-.83v6.24z" style="fill:#6598c5"/><path d="m43.38 121.5 4.91-.02v-8.02l-4.91 2.6v5.44z" style="fill:#4372a9"/><path d="m43.38 116.07 4.91-2.61-.73-2.03-4.5 2.22.32 2.42z" style="fill:#6598c5"/><path d="M47.56 111.43v-10.98l-4.5 1.45v11.75l4.5-2.22zM46.67 57.07l-.54.1-4.46-1.5-3.1.35-.84-.21-3.89.44-.48-.29 4.37-.5.84.24 3.1-.36 5 1.73zM31.53 56.51l2.3-.26.11.3-1.82.2-.6-.24z" style="fill:#4372a9"/><path d="M163 44.93h.4v-.83h-.4v.83z" style="fill:#86bde0"/><path d="m165.24 45.6-.46-.68-.87-.18-1.46.2-.87.73-.41.77" style="fill:#a8e3fb"/><path d="M165.24 45.6v.54l-.34 1.54v4.04l-.99.19v-4.36l.16-1.41-.01-.54h1.18z" style="fill:#a8e3fb"/><path d="m162.45 45.8 1.6-.2.02.54-.16 1.41v4.36l-1.46.33.13-4.37-.13-1.33v-.74z" style="fill:#86bde0"/><path d="m161.43 47.99-.27-.6v-.95l1.29-.64.13 2.07v4.37l-1.12.4-.03-4.65z" style="fill:#6598c5"/><path d="M164.78 54.44h2.04V52l-2.04-.56v3z" style="fill:#a8e3fb"/><path d="m159.91 55.41 1.95-.97V52l-1.95.97v2.44z" style="fill:#6598c5"/><path d="m161.86 54.98 2.9-.54v-3l-2.9.55v3zM162.87 44.14c0 .12.15.25.33.24.18-.02.33-.17.33-.28 0-.12-.15-.08-.33-.07-.18.01-.33 0-.33.11M162.45 45.8l-.1-.44.1-.42-.87.73-.41.77 1.28-.64z" style="fill:#86bde0"/><path d="M163 44.93h.4v-.83h-.4v.83zM163.2 43.75a.07.07 0 0 1-.07-.07v-5.76a.07.07 0 0 1 .14 0v5.76c0 .04-.03.07-.07.07" style="fill:#a8e3fb"/><path d="M162.22 39.38a.07.07 0 0 1-.07-.05c0-.03.02-.07.05-.08l2.03-.47c.04 0 .08.02.08.05.01.04-.01.08-.05.09l-2.03.46h-.01M162.94 38.38a.07.07 0 0 1-.06-.05c-.01-.04.01-.07.05-.08l.58-.14c.04 0 .07.02.08.06 0 .03-.01.07-.05.08l-.58.13h-.02" style="fill:#a8e3fb"/><path d="M162.5 39.64a.07.07 0 0 1-.07-.06v-.67a.07.07 0 0 1 .13 0v.67c0 .03-.03.06-.07.06M163.89 39.3a.07.07 0 0 1-.07-.06v-.67a.07.07 0 0 1 .13 0v.67c0 .04-.03.07-.06.07M163 42.08l.2-1.41.27 1.39c.32.05.57.37.59.82.02.56-.33 1.1-.78 1.2-.44.1-.82-.26-.84-.82-.01-.46.22-.98.56-1.18" style="fill:#a8e3fb"/><path d="M162.87 42.02c0 .12.15.07.33.06.18-.01.33.01.33-.1 0-.12-.15-.23-.33-.22-.18.01-.33.15-.33.26M162.87 44.14c0 .12.15.25.33.24.18-.02.33-.17.33-.28 0-.12-.15-.08-.33-.07-.18.01-.33 0-.33.11" style="fill:#a8e3fb"/><path d="m163.12 41.25.08.5c-.09.07-.09.28.01.33-.34.04-.62 1.76-.1 1.96-.29.06-.03.34.03.34v.47l-.15.02v-.54c-.17-.08-.18-.26-.09-.27-.18-.03-.43-.37-.46-.63-.03-.26 0-.92.53-1.33-.2-.06-.06-.18.02-.27l.13-.58M164.81 53.44v1.5l3.78.44v-1.47l-3.78-.47z" style="fill:#86bde0"/><path d="m164.81 53.44-.99.35v1.35l.78-.23.21.03v-1.5zM168.59 54.36l1.62.2v1.54l-1.24-.14v-.53l-.38-.05v-1.02z" style="fill:#6598c5"/><path d="m164.6 54.91-.85.25v.54l.85-.24v-.55z" style="fill:#6598c5"/><path d="m163.76 55.7-3.1-.36v-.54l3.1.36v.54z" style="fill:#86bde0"/><path d="m160.66 54.8-5 1.76v.5l5-1.72v-.54z" style="fill:#6598c5"/><path d="m163.82 53.78-2.96-.36v1.4l2.9.34.06-.02v-1.36z" style="fill:#86bde0"/><path d="m160.85 53.42-4.72 1.75v1.22l4.53-1.59.2.03v-1.4zM168.97 55.77l1.83.2v.54l-.59.2v-.26l-1.72-.2v-.54l.48.06z" style="fill:#6598c5"/><path d="m168.59 55.92-1.28 3.75-2.5-.24-.21-3.97 3.99.46z" style="fill:#6598c5"/><path d="m164.6 54.91 4.37.52v.53l-.44.15.06-.2-4-.45v-.55z" style="fill:#86bde0"/><path d="m168.49 56.25-1.18 3.42V60l1.66.13 1.33-3.68-1.81-.2zM164.8 59.44l-.83.23-.21-3.97.84-.24.2 3.98z" style="fill:#4372a9"/><path d="m163.97 59.67-3.11-.3-.2-4.02 3.1.35.21 3.97zM168.97 60.12v15.37l-1.66-.03V60l1.66.13z" style="fill:#6598c5"/><path d="M164.81 59.5v16l2.5.03V59.74l-2.5-.24z" style="fill:#86bde0"/><path d="m164.81 59.43-.84.24V75.4l.84.01v-16z" style="fill:#6598c5"/><path d="m167.3 75.46.65 2.05-3.35-.02.21-2.07 2.5.04z" style="fill:#a8e3fb"/><path d="m167.3 75.46.65 2.05 1.64.01-.62-2.03-1.66-.03zM163.97 75.4l-.24 2.1h.87l.21-2.08-.84-.01z" style="fill:#86bde0"/><path d="m163.97 59.67-3.11-.3v15.99l3.11.05V59.67z" style="fill:#86bde0"/><path d="m160.85 75.36-.58 2.15 3.46-.02.24-2.08-3.12-.05z" style="fill:#a8e3fb"/><path d="m156.1 56.91 1.26 3.46 3.5-1-.2-4.03-4.55 1.57z" style="fill:#4372a9"/><path d="M157.36 60.37v15.2l3.5-.21V59.37l-3.5 1z" style="fill:#6598c5"/><path d="m160.85 75.36-3.49.2-.83 2.04 3.74-.08.58-2.16z" style="fill:#86bde0"/><path d="M156.53 77.6v13.5l3.74.66V77.5l-3.74.1z" style="fill:#6598c5"/><path d="m160.27 77.52 3.46-.03v14.04l-3.46.23V77.5z" style="fill:#86bde0"/><path d="M163.73 77.5h.87v14.17l-.87-.14V77.5z" style="fill:#6598c5"/><path d="m164.6 77.56 3.35.02v13.94l-3.35.22V77.57z" style="fill:#86bde0"/><path d="M167.95 77.52h1.64v13.63l-1.64.1V77.53z" style="fill:#6598c5"/><path d="m160.27 91.76-.3 2.17 3.76-.29v-2.1l-3.46.22z" style="fill:#a8e3fb"/><path d="m164.6 91.67.18 2.18-1.05-.2v-2.12l.87.14z" style="fill:#86bde0"/><path d="m167.95 91.45.55 2.1-3.72.3-.18-2.18 3.35-.22z" style="fill:#a8e3fb"/><path d="m169.6 91.15-1.65.1v.2l.48 1.84 1.9-.15-.74-1.99zM156.53 91.1l-.79 1.96 4.22.87.3-2.17-3.73-.65zM159.96 93.93v4.66l3.77-.37v-4.58l-3.77.29z" style="fill:#86bde0"/><path d="m163.73 98.22 1.05.31v-4.69l-1.05-.2v4.58z" style="fill:#6598c5"/><path d="m164.78 98.53 3.72-.37v-4.6l-3.72.29v4.68z" style="fill:#86bde0"/><path d="m168.43 93.29.07.27v4.2l1.84-.19v-4.42l-1.91.14zM155.74 93.06l4.22.87v4.66l-4.22-1.15v-4.38z" style="fill:#6598c5"/><path d="m155.74 97.44-4.13.38 8.35 2.48 17.5-1.91-7.12-1.53v.71l-1.84.19v.4l-3.72.37-1.05-.3-3.77.36-4.22-1.15z" style="fill:#a8e3fb"/><path d="M151.61 97.82v1.6l8.35 2.7v-1.82l-8.35-2.48z" style="fill:#6598c5"/><path d="M159.96 100.3v1.83l17.5-2.03v-1.71l-17.5 1.91z" style="fill:#86bde0"/><path d="M164.78 101.57v12.18l3.72-.64v-11.97l-3.72.43z" style="fill:#6598c5"/><path d="m164.78 113.75.22 2.48 4.38-.8-.88-2.32-3.72.64z" style="fill:#86bde0"/><path d="m163.44 112.94 1.34.81.21 2.48-1.55-.99v-2.3z" style="fill:#6598c5"/><path d="m164.78 101.57-1.34.15v11.22l1.34.81v-12.18z" style="fill:#4372a9"/><path d="m163.44 101.72-3.48.4-.69-.22v11.75l4.17-.71v-11.22z" style="fill:#6598c5"/><path d="m159.27 113.65-.32 2.42 4.5-.83v-2.3l-4.18.71z" style="fill:#86bde0"/><path d="m168.5 101.14 2.26-.26v10.8l-2.26.4v-10.94z" style="fill:#4372a9"/><path d="m170.76 111.68.6 2.1-2.43.45-.43-1.12v-1.03l2.26-.4z" style="fill:#6598c5"/><path d="M171.37 113.79v7.68h-1.99v-6.05l-.45-1.19 2.44-.44z" style="fill:#4372a9"/><path d="M169.38 115.42v6.05H165v-5.24l4.38-.8z" style="fill:#6598c5"/><path d="M165 121.47h-1.56v-6.23l1.56.99v5.24z" style="fill:#4372a9"/><path d="M163.44 121.47h-4.5v-5.4l4.5-.83v6.23z" style="fill:#6598c5"/><path d="M158.95 121.47h-4.91v-8.01l4.9 2.6v5.4z" style="fill:#4372a9"/><path d="m158.95 116.07-4.91-2.61.73-2.03 4.5 2.22-.32 2.42z" style="fill:#6598c5"/><path d="M154.77 111.43v-10.98l4.5 1.45v11.75l-4.5-2.22zM155.66 57.07l.54.1 4.46-1.5 3.1.35.84-.21 3.89.44.48-.29-4.37-.5-.84.24-3.1-.36-5 1.73zM170.8 56.51l-2.31-.26-.1.3 1.82.2.59-.24z" style="fill:#4372a9"/><path d="M100.89 98.84c-27.23 0-50.98-16.82-57.76-40.9a.27.27 0 0 1 .51-.15C50.36 81.65 73.9 98.3 100.9 98.3s50.53-16.65 57.25-40.5a.27.27 0 1 1 .52.15c-6.8 24.07-30.54 40.9-57.77 40.9" style="fill:#224d8e"/><path d="M59.97 75.84a.27.27 0 0 1-.14-.04c-8.09-5.03-13.86-11.2-16.7-17.83a.27.27 0 0 1 .5-.2c2.79 6.53 8.49 12.6 16.48 17.57a.27.27 0 0 1-.14.5M141.8 75.84a.27.27 0 0 1-.14-.5c8-4.96 13.7-11.04 16.49-17.58a.27.27 0 0 1 .5.21c-2.84 6.64-8.61 12.8-16.7 17.83a.27.27 0 0 1-.14.04" style="fill:#333"/><path d="M100.89 86.8c-13.25 0-25.97-2.97-36.78-8.57-10.2-5.3-17.66-12.49-20.97-20.26a.27.27 0 0 1 .49-.21c3.27 7.65 10.63 14.75 20.73 20 10.73 5.56 23.36 8.5 36.53 8.5s25.8-2.94 36.53-8.5c10.1-5.25 17.46-12.35 20.72-20a.27.27 0 0 1 .5.21c-3.32 7.77-10.77 14.96-20.98 20.26-10.8 5.6-23.52 8.57-36.77 8.57" style="fill:#224d8e"/><path d="m190.83 106.57-7.07-.04c-.4 0-.8.07-1.19.2a3.46 3.46 0 0 0-1.2-.2c-6.4-.04-9.54-.05-15.88-.07a3.5 3.5 0 0 0-2.12.7 3.48 3.48 0 0 0-2.12-.72l-10.28-.03a3.5 3.5 0 0 0-3.13 1.93l-.06.12-.07.13-.04.1-.07.12-.06.12-.06.1-.06.14-.06.1-.06.12-.06.13-.06.1-.02.05a3.5 3.5 0 0 0-3.47-3.28l-5.8-.01c-.83 0-1.62.29-2.25.82a3.47 3.47 0 0 0-2.25-.83l-10.45-.01a3.5 3.5 0 0 0-1.74.46 3.47 3.47 0 0 0-1.75-.46h-6.74c-.71 0-1.41.21-2 .61a3.52 3.52 0 0 0-1.97-.61h-10.3c-.68 0-1.32.18-1.89.55a3.47 3.47 0 0 0-1.88-.56h-7.82a3.47 3.47 0 0 0-3.37 2.64c-1.93-2-4.76-2.98-8.64-2.98a10.82 10.82 0 0 0-8.57 3.8v-.02l-.04-.09-.05-.14-.05-.12-.04-.11-.05-.11-.04-.13-.05-.11-.04-.11-.05-.12-.04-.12a3.5 3.5 0 0 0-3.26-2.24l-5.63.02c-.74 0-1.45.23-2.04.66a3.5 3.5 0 0 0-2.03-.65c-2.11 0-3.85 0-5.6.02h-.15l-4.93.01c-.63 0-1.25.18-1.79.5a3.47 3.47 0 0 0-1.8-.5l-7.37.03c-1.5 0-2.81.97-3.29 2.34a10.16 10.16 0 0 0-7.3-2.81 9.62 9.62 0 0 0-6.96 2.93c-5.16 5.22-5.74 16.1-5.62 26.06v.03a96.76 96.76 0 0 1 0 2.94v.04c-.15 9.54.3 18.94 4.48 23.2.74.75 1.6 1.33 2.52 1.71l.12.05.07.04.14.06.1.04.11.05.12.05.11.04.1.04.1.05.13.05.12.06.09.03.13.06c.03 0 .06.02.08.03l.13.06.11.04.13.06.08.03.12.05.1.05.13.05.12.05.09.04.13.05.09.04.12.05.1.04.12.06.1.04.12.05.12.05.1.04.1.04.12.06.1.04a5 5 0 0 0 .12.05l.07.03a10.23 10.23 0 0 0 .6.25l.11.05.1.04.1.05.12.04a5.87 5.87 0 0 0 .33.15l.13.05.1.04a5.59 5.59 0 0 0 .33.14l.1.05.12.05.1.04.08.03.15.07.1.04.12.05.11.05.13.05.07.03.14.06.1.04.14.06.06.03.15.06a2.37 2.37 0 0 0 .22.1l.1.03.05.03.16.07.13.05.1.04.1.05.1.04.16.07.07.02.11.05.15.07.06.02.14.06.1.04.1.05.12.05.13.05.1.04.1.04.12.06.06.02.17.07.14.06.06.03a5.87 5.87 0 0 0 .22.1l.13.05.1.04.09.04c.8.35 1.67.54 2.58.54 1.26 0 2.6-.36 3.97-1.07a14.83 14.83 0 0 0 5.48-4.7l.11.07.28.16c.02 0 .03.02.05.03a3.02 3.02 0 0 0 2.8.36c2.5-.93 3.74-1.36 6.3-2.2a3 3 0 0 0 1.39-.94 3.05 3.05 0 0 0 1.68-.02c2.25-.7 3.36-1 5.64-1.62.78-.2 1.44-.7 1.84-1.4a3.02 3.02 0 0 0 2.29.36 141.1 141.1 0 0 1 7.65-1.66 3.05 3.05 0 0 0 2.46-2.96l.01-1.33.5.56a8.33 8.33 0 0 0 6.05 2.45c.64 0 1.3-.07 1.99-.19 2.11-.37 4.76-1.08 6.72-3.2a3.02 3.02 0 0 0 3.06 1.96c2.68-.19 3.99-.26 6.68-.34.58-.02 1.13-.2 1.6-.52.48.29 1.03.44 1.59.44h.04a171.85 171.85 0 0 1 5.89.02h.06c.71 0 1.4-.25 1.94-.7a3 3 0 0 0 1.91.78 161.1 161.1 0 0 1 8.45.59c.43 0 .87-.1 1.26-.28.43.3.93.5 1.45.56 2.36.24 3.5.39 5.84.71l.42.03c.66 0 1.3-.22 1.82-.6a3.04 3.04 0 0 0 1.98 1.21c3.1.52 4.62.8 7.7 1.45a2.99 2.99 0 0 0 1.1.03c.32.21.66.36 1.03.44 2.64.6 3.92.91 6.54 1.61a3.04 3.04 0 0 0 2.15-.22c.4.63 1.01 1.1 1.73 1.3 3.09.91 4.58 1.39 7.61 2.44a2.96 2.96 0 0 0 1.45.13c.33.36.75.64 1.2.81 2.53.92 3.75 1.4 6.23 2.41a3.02 3.02 0 0 0 2.54-.1l.08-.05.08-.04.14-.07.07-.04.1-.05.1-.05.1-.05.16-.09.06-.02v.06c0 1.18.7 2.27 1.8 2.76a130.5 130.5 0 0 1 6.01 2.88 3.07 3.07 0 0 0 2.6.06c.13-.03.25-.08.37-.13l.1-.03.08-.04.14-.05.37-.13.1-.04.12-.05.12-.04c.12-.03.23-.07.35-.12l.25-.1.2-.07.37-.13.13-.06.22-.07.35-.13.24-.09.1-.04.12-.04.24-.1.23-.07.12-.05.11-.04c.08-.03.16-.05.23-.09.12-.03.24-.08.36-.13l.1-.04.12-.04.13-.05.12-.04.1-.04.36-.13.11-.04.13-.05.1-.04.04-.01c.16-.05.31-.1.46-.17l.09-.03.13-.05.08-.03.39-.14.1-.04.25-.1.1-.03.24-.09.11-.04c.08-.03.17-.05.25-.09l.11-.04h.02c.15-.05.3-.1.45-.17.12-.04.24-.08.36-.14l.2-.07c.13-.04.26-.08.38-.14.16-.05.32-.1.47-.17l.1-.04.12-.04.11-.04.24-.1c.04 0 .08-.02.12-.04.04 0 .07-.02.1-.04l.12-.04c.09-.03.17-.05.25-.09a3.51 3.51 0 0 0 2.2-3.23v-52.72a3.5 3.5 0 0 0-3.48-3.5z" style="fill:#002773"/><path d="M11.56 136.42c0-5.41-1.08-26.92 9.08-26.92 8.45 0 7.98 10.93 7.92 15.8-.02 1.95 0 4.4 0 5.88-2.42.44-3.77.74-6.19 1.22-.08-1.53-.04-3.85-.01-5.96.1-7.88-.4-9.5-1.75-8.94-2.8 1.18-2.12 12.59-2.16 17.29-.03 3.86-.3 17.46 2.13 16.39.85-.37 1.7-1.88 1.8-9.31v-4.39c2.43-.6 3.74-.88 6.18-1.43.05 1.02.01 2.69 0 4.26-.03 6.66.5 14.58-7.74 18.84-10.55 5.46-9.26-17.33-9.26-22.73M31.23 109.97l7.36-.02v41.77a161.3 161.3 0 0 0-7.37 2.57v-44.32M42.2 109.95l10.66-.05c1.26 8.71 2.57 17.4 3.94 26.1l.13-.02V109.9l5.63-.02c0 11.89.07 23.78 0 35.67-3.6.69-5.39 1.08-8.95 1.93-1.8-9.6-3.1-19.22-4.7-28.85h-.12c.12 10.03 0 20.14 0 30.08-2.66.7-3.98 1.08-6.6 1.88v-40.64M65.8 127.52c.02-5.24-.57-18.02 9.04-18.02 6.56 0 8.32 2.96 8.32 11.49v4.26c-2.58.1-3.75.17-6.3.32v-4.17c-.02-5.5-.23-6.33-1.55-6.3-1.45.03-2.12 1.22-2.1 11.9.02 10.71.5 11.55 2.1 11.37 1.27-.14 1.6-1.07 1.58-6.23 0-.96-.04-2.11-.04-3.03 2.59-.18 3.78-.25 6.39-.39.07.74.14 1.88.14 3.02.04 8.37-2.1 11.04-8.13 12.11-9.8 1.74-9.47-11.62-9.45-16.33M86.86 109.85h7.8c.03 10.7-.02 21.42 0 32.13-3.12.1-4.68.18-7.8.4 0-10.85.03-21.7 0-32.53M98.44 109.84h10.3a1466.3 1466.3 0 0 0 3.83 22.92h.14v-22.92h6.74v32.83c-3.65-.32-5.89-.5-9.55-.67-1.88-8.36-2.53-16.65-4.45-25h-.13v24.9c-2.75-.05-4.13-.05-6.88-.01v-32.05M122.94 109.85l10.45.01c1.47 8.32 2.92 16.64 4.37 24.95l.13.02v-24.96l5.79.01v36.42c-3.58-.76-5.38-1.1-9-1.7-1.66-9.12-3.14-17.92-4.8-27.22h-.12v26.47c-2.73-.38-4.1-.55-6.82-.84v-33.16M157.3 136.5l-1.53-19.63c-.13 0-.2 0-.32-.02-.32 6.38-.64 12.75-.98 19.12 1.13.2 1.7.32 2.83.54m.4 5.28c-1.38-.33-2.08-.48-3.48-.79l-.4 7.72c-3.04-.8-4.57-1.18-7.64-1.88a2325.1 2325.1 0 0 0 4.78-36.94l10.28.03c2.08 14.3 4.08 28.6 6.03 42.9a163.14 163.14 0 0 0-8.91-2.84l-.65-8.2M170.37 117.24c-1.7-.1-3.19-.22-4.89-.32v-6.97l15.88.06v7.96l-3.71-.26v39.05a161.26 161.26 0 0 0-7.28-2.82v-36.7zM183.76 110.02l7.05.04v52.72c-2.79-1.41-4.2-2.09-7.05-3.38v-49.38z" style="fill:#fff"/><path d="M97.74 144.93c.96-1.12 2-1.77 3.12-1.94l.27-.04c.93-.08 1.4.05 1.4.38v.09c0 .1-.06.2-.17.34-.33.5-1.21.85-2.64 1.07-.43.06-1.1.13-2.05.2h-.02l.09-.1zm-2.23 8.04c0-1.54.14-2.94.43-4.21 1.1-.11 1.94-.2 2.48-.3h.1c1.3-.2 2.4-.47 3.27-.8a7.6 7.6 0 0 0 3.08-1.96 4.9 4.9 0 0 0 1.36-3.21v-.28c0-1.12-.45-2.16-1.36-3.11a5.71 5.71 0 0 0-5.01-1.24l-.05.01c-1.56.24-3.07.78-4.5 1.6a11.69 11.69 0 0 0-3.88 3.92 11.83 11.83 0 0 0-.93 1.83v.02c-3.46.11-6.5.36-9.09.76-4.61.7-8.74 2.02-12.36 3.95a29.55 29.55 0 0 0-3.78 2.44c-.67.53-1.48 1.29-2.44 2.27-3.2 3.54-4.8 7.5-4.8 11.9a17.96 17.96 0 0 0 .45 3.98c.64-.16 1.3-.34 1.96-.55a21.45 21.45 0 0 0 8.27-5.32c-.1-.5-.14-.98-.14-1.42 0-2.58 1.08-4.98 3.25-7.2.78-.75 1.55-1.4 2.33-1.92 3.38-2.23 7.45-3.72 12.2-4.45.91-.12 1.94-.25 3.08-.38l.04.02a24 24 0 0 0-.18 3.1v.34c0 .55 0 1.11.02 1.69.22 3.92.32 6.36.32 7.3 0 2.52-.78 4.85-2.34 6.99-1.3 1.55-2.69 2.44-4.2 2.67-1.28.2-2.4-.07-3.34-.79a4.06 4.06 0 0 1-1.34-3.1c0-1.36.44-2.6 1.32-3.72.9-1.08 2-1.72 3.25-1.92l.16-.02c.46-.07.95-.08 1.46-.02l.03-.03v-.25c0-1.35-.47-2.35-1.4-3a3.57 3.57 0 0 0-2.38-.42c-1.63.25-3.32 1.09-5.08 2.53a16.36 16.36 0 0 0-3.35 3.66 15.38 15.38 0 0 0-2.62 8.44c0 2.38.6 4.5 1.78 6.37.29.43.68.9 1.18 1.41 2.3 2.22 5.37 3.03 9.18 2.45a16.33 16.33 0 0 0 8.45-4.2c4.04-3.51 6.05-8.3 6.05-14.36 0-1.68-.12-3.51-.38-5.5-.37-2.5-.55-4.48-.55-5.97" style="fill:#fff"/><path d="M84.6 164.4c.74 0 1.45-.32 1.95-.89l.02-.02c.19-.22.34-.47.44-.74a9.1 9.1 0 0 1-1.75 4.4c-.85 1.01-1.7 1.59-2.55 1.72l-.42.03c-.35 0-.62-.08-.88-.25-.3-.32-.43-.65-.43-1.12 0-.78.23-1.46.74-2.12a2.6 2.6 0 0 1 1.65-.99l.16-.02a2.51 2.51 0 0 1 .79 0h.28m2.12-12.18v.54l.03 1.75v.07c.14 2.53.22 4.22.26 5.33a5.65 5.65 0 0 0-2.5-3.57 6.05 6.05 0 0 0-4.05-.74c-2.07.31-4.18 1.34-6.29 3.05a18.8 18.8 0 0 0-2.75 2.74 8.75 8.75 0 0 1 2.22-3.52c.65-.63 1.3-1.18 1.94-1.61a27.76 27.76 0 0 1 11.14-4.04m14.43-17.06a10.08 10.08 0 0 0-1.86.2 15.56 15.56 0 0 0-5.33 1.92c-1.13.7-2.2 1.6-3.16 2.68l-.05.05c-.66.78-1.16 1.46-1.52 2.07l-.04.06-.33.6c-2.92.13-5.55.37-7.84.72a41.51 41.51 0 0 0-13.2 4.23c-1.46.8-2.84 1.7-4.11 2.66l-.03.03c-.77.6-1.64 1.41-2.69 2.49l-.06.07c-3.63 4-5.47 8.59-5.47 13.61a20.69 20.69 0 0 0 .44 4.29 2.62 2.62 0 0 0 3.2 2.19c.68-.17 1.4-.37 2.1-.6.05 0 .09-.02.13-.04a24.67 24.67 0 0 0 6.33-3.4c-.29 1.24-.43 2.5-.43 3.77 0 2.87.73 5.48 2.17 7.75l.05.07a13.04 13.04 0 0 0 1.53 1.82 12.08 12.08 0 0 0 8.66 3.34c.86 0 1.76-.07 2.68-.21 3.5-.54 6.79-2.15 9.76-4.8 4.6-4.01 6.93-9.5 6.93-16.3 0-1.78-.14-3.74-.41-5.82v-.04a41.28 41.28 0 0 1-.53-5.6c0-.65.03-1.28.1-1.88l.64-.09h.1c1.49-.24 2.73-.54 3.79-.94 1.7-.63 3.07-1.52 4.07-2.64l.03-.04a7.4 7.4 0 0 0 2-4.9v-.27a7.02 7.02 0 0 0-2.25-5.05 8 8 0 0 0-5.4-2m-3.5 9.87h.02c.94-.07 1.63-.13 2.05-.2 1.43-.22 2.3-.57 2.64-1.07.1-.13.16-.25.16-.34v-.09c0-.27-.3-.4-.9-.4-.14 0-.3 0-.49.02l-.27.04a5.18 5.18 0 0 0-3.12 1.94l-.1.1m3.5-7.3a5.5 5.5 0 0 1 3.73 1.37c.9.95 1.36 1.99 1.36 3.11v.28a4.9 4.9 0 0 1-1.36 3.21 7.62 7.62 0 0 1-3.08 1.95c-.88.34-1.97.6-3.28.8l-.09.02c-.54.08-1.37.18-2.48.29a19.05 19.05 0 0 0-.43 4.2c0 1.5.18 3.49.55 5.98.25 1.98.38 3.81.38 5.5 0 6.06-2.02 10.85-6.05 14.36a16.33 16.33 0 0 1-8.45 4.2c-.8.12-1.56.18-2.3.18a9.56 9.56 0 0 1-6.88-2.63c-.5-.51-.9-.98-1.18-1.41-1.19-1.87-1.78-4-1.78-6.38a15.38 15.38 0 0 1 3.96-10.17c.8-.86 1.46-1.5 2-1.92 1.77-1.44 3.46-2.29 5.08-2.54a3.5 3.5 0 0 1 2.4.43c.92.65 1.38 1.65 1.38 3v.25l-.02.03a6.14 6.14 0 0 0-1.46.02l-.16.02c-1.26.2-2.34.83-3.25 1.91a5.9 5.9 0 0 0-1.32 3.74c0 1.23.45 2.26 1.34 3.1.74.56 1.59.84 2.54.84.26 0 .53-.02.8-.06 1.51-.23 2.9-1.12 4.2-2.67a11.59 11.59 0 0 0 2.34-6.99c0-.94-.1-3.38-.32-7.3l-.02-1.69v-.34c0-1.14.06-2.17.18-3.1l-.04-.02c-1.14.13-2.16.26-3.08.38-4.75.73-8.82 2.21-12.2 4.45-.78.53-1.55 1.17-2.32 1.93-2.18 2.21-3.26 4.61-3.26 7.19 0 .44.04.91.13 1.41a22.6 22.6 0 0 1-5.98 4.36c-.61.3-1.37.63-2.28.97-.67.2-1.32.39-1.96.55a17.99 17.99 0 0 1-.45-3.98c0-4.4 1.6-8.36 4.8-11.9.96-.99 1.77-1.74 2.44-2.27 1.17-.89 2.43-1.7 3.78-2.44A38.73 38.73 0 0 1 81.4 146c2.6-.4 5.63-.65 9.09-.76v-.02a13.52 13.52 0 0 1 2.2-3.55c.81-.9 1.68-1.63 2.6-2.2a12.92 12.92 0 0 1 4.51-1.6h.05l.16-.05c.39-.06.76-.1 1.13-.1" style="fill:#002773"/><path d="m107.94 148.9 2.4-.37c1.07-.17 2.06-.83 2.98-2 .25-.36.51-.9.77-1.6.35-.82.53-1.41.53-1.8 0-.42-.15-.74-.44-.97-.29-.25-.77-.33-1.45-.24l-2 .31c-.68.1-1.27.33-1.79.68-.37.27-.75.61-1.13 1.02a5.9 5.9 0 0 0-1 1.88 5.45 5.45 0 0 0-.55 1.84c0 .18.04.38.11.6.27.55.8.77 1.57.65" style="fill:#fff"/><path d="M113.23 139.32c-.26 0-.55.02-.84.06h-.06l-2 .31a6.83 6.83 0 0 0-2.88 1.13 10.27 10.27 0 0 0-1.66 1.51 8.5 8.5 0 0 0-1.39 2.57 7.19 7.19 0 0 0-.71 2.75 4.38 4.38 0 0 0 .38 1.74 3.75 3.75 0 0 0 3.48 2.1c.25 0 .52-.02.78-.06l2.4-.36c1.74-.27 3.29-1.27 4.61-2.97l.06-.08c.39-.54.74-1.24 1.08-2.15.48-1.14.7-1.99.7-2.73a3.73 3.73 0 0 0-3.95-3.82m0 2.57c.42 0 .74.09.95.27.3.23.43.55.43.98 0 .38-.17.97-.52 1.79a6.8 6.8 0 0 1-.77 1.6c-.91 1.17-1.9 1.83-2.99 2l-2.39.37-.39.03c-.56 0-.95-.23-1.18-.68a1.82 1.82 0 0 1-.11-.6c0-.38.18-.99.54-1.83.23-.7.56-1.33 1-1.89.39-.4.76-.75 1.14-1.02.52-.35 1.11-.58 1.78-.68l2-.3c.19-.03.36-.04.51-.04" style="fill:#002773"/><path d="M142.33 154.21c-.18-.35-.52-.57-1-.66-.03.03-.36.51-.98 1.44-3.75 5.73-6.44 8.71-8.06 8.96-.89.14-1.62-.31-2.21-1.35a16.7 16.7 0 0 1-1.4-4.04l9.53-13.12v-.05l-4.7.72-.77 1.06-5.12 7.07c-.3-1.08-.59-1.91-.85-2.5-.22-.58-.53-1.18-.9-1.79-1.09-1.61-2.42-2.3-4.02-2.05l-1.77.27a431.1 431.1 0 0 1-2.48 4.96 66.76 66.76 0 0 1-2.98 5.35l-1.08 1.58c-2.79 4.2-4.73 6.38-5.83 6.54l-.13.03h-.32c-.44-.13-.66-.52-.66-1.18 0-.59.18-1.45.55-2.59.25-.7 2-5.22 5.26-13.55l-.03-.02-7.3 1.12a3857.33 3857.33 0 0 0-5.28 13.54c-.95 2.2-1.42 4.03-1.42 5.5 0 1.4.43 2.48 1.3 3.26 1 .79 2.24 1.07 3.71.84l.25-.04c1.8-.27 3.76-1.65 5.85-4.13a44.7 44.7 0 0 0 2.49-3.34 78.51 78.51 0 0 0 2.02-3.11l.56-.93.6-.93c.87-1.47 1.6-2.73 2.2-3.78.58-1.04 1.1-1.99 1.52-2.83.9-.14 1.7.14 2.39.82.27.32.5.66.7 1 .46.9.9 2.2 1.32 3.93l-1.64 2.27-3.32 4.6c-.49.63-1.18 1.45-2.07 2.45a44.82 44.82 0 0 1-2.71 2.63l3.23-.48a7.63 7.63 0 0 0 2.44-.67 4.4 4.4 0 0 0 1.2-1.07c.57-.73 1.87-2.52 3.92-5.38h.02c.11.39.25.8.41 1.23.98 2.95 2.55 4.25 4.72 3.92 1.87-.29 3.82-1.62 5.85-4a47.88 47.88 0 0 0 2.73-3.65c1.48-2.23 2.96-4.66 4.47-7.29 0-.14-.08-.32-.21-.56" style="fill:#fff"/><path d="m116.73 163.36.2-.3.42-.65.02-.04a253.36 253.36 0 0 0 2.54-4.41c.17.4.37.96.59 1.73l-.94 1.3-3.3 4.55c-.43.57-1.07 1.32-1.9 2.24-.6.64-1.16 1.2-1.67 1.67a84.85 84.85 0 0 0 3.5-5.18v-.02c.2-.3.37-.6.55-.9m21.47-20.53-.4.03-4.68.72a2.78 2.78 0 0 0-1.89 1.29l-.59.81-2.38 3.3a16 16 0 0 0-.23-.38l-.04-.07c-1.8-2.67-4-3.23-5.53-3.23-.33 0-.67.02-1 .07l-1.78.28c-.83.12-1.54.65-1.91 1.4a425 425 0 0 1-2.47 4.92 64.61 64.61 0 0 1-2.85 5.12l-.78 1.17c.8-2.1 1.85-4.77 3.12-8.01.4-1.02.1-2.19-.74-2.9l-.02-.01a2.57 2.57 0 0 0-2.05-.58l-7.3 1.12c-.86.13-1.59.68-1.95 1.46a4275.9 4275.9 0 0 0-5.34 13.66c-1.07 2.52-1.6 4.63-1.6 6.46a6.68 6.68 0 0 0 2.29 5.28 6.86 6.86 0 0 0 4.35 1.47c.43 0 .88-.04 1.33-.1l.25-.05c2.34-.36 4.65-1.85 7.04-4.56a2.56 2.56 0 0 0 2.87 3.2l3.2-.47h.03a9.92 9.92 0 0 0 3.26-.94 6.78 6.78 0 0 0 2.03-1.77l1.38-1.87a6.05 6.05 0 0 0 6.04 2.6c2.52-.38 4.94-1.97 7.41-4.86l.05-.05a50.34 50.34 0 0 0 2.88-3.86c1.5-2.26 3.03-4.76 4.55-7.42.22-.39.34-.83.34-1.28 0-.58-.17-1.17-.53-1.8a3.88 3.88 0 0 0-3.25-1.99c-.73 0-1.44.32-1.93.88-.14.16-.16.18-1.18 1.7l-.01.03c-3.43 5.23-5.23 6.99-5.99 7.58-.16-.34-.42-.96-.73-2.08l8.8-12.14c.32-.44.49-.97.49-1.51v-.04a2.57 2.57 0 0 0-2.56-2.58m0 2.57v.05l-9.52 13.12c.45 1.87.91 3.22 1.39 4.04.52.92 1.16 1.37 1.9 1.37.1 0 .2 0 .3-.02 1.63-.25 4.32-3.24 8.07-8.96l.98-1.45c.48.1.82.32 1 .67.13.24.2.42.2.56-1.5 2.63-2.99 5.06-4.46 7.29a47.16 47.16 0 0 1-2.73 3.65c-2.04 2.38-3.99 3.71-5.86 4-.22.03-.43.05-.64.05-1.84 0-3.2-1.33-4.07-3.98-.17-.43-.3-.84-.41-1.23h-.02a233.01 233.01 0 0 1-3.92 5.39c-.49.56-.89.91-1.2 1.07-.48.27-1.29.5-2.44.67l-3.24.47c.76-.66 1.67-1.54 2.71-2.62.9-1 1.59-1.83 2.08-2.46l3.32-4.59 1.64-2.28a18.9 18.9 0 0 0-1.32-3.91 6.4 6.4 0 0 0-.7-1.01 2.66 2.66 0 0 0-2.4-.82c-.42.84-.93 1.78-1.52 2.83-.6 1.05-1.33 2.3-2.2 3.77-.19.32-.4.63-.6.94l-.55.93c-.58.94-1.25 1.97-2.03 3.1a44.97 44.97 0 0 1-2.48 3.35c-2.1 2.48-4.05 3.85-5.85 4.13l-.26.04a6.3 6.3 0 0 1-.95.07c-1.06 0-1.98-.3-2.76-.91a4.16 4.16 0 0 1-1.3-3.27c0-1.47.47-3.3 1.42-5.5a4067.98 4067.98 0 0 1 5.28-13.53l7.3-1.13.03.02c-3.25 8.34-5 12.86-5.26 13.56-.36 1.14-.54 2-.54 2.6 0 .65.22 1.04.66 1.17a2.6 2.6 0 0 0 .31 0l.14-.03c1.1-.16 3.04-2.34 5.83-6.54.29-.41.65-.95 1.07-1.58a66.9 66.9 0 0 0 2.98-5.35c.61-1.18 1.44-2.84 2.49-4.96l1.77-.27c.21-.03.42-.05.62-.05 1.32 0 2.45.7 3.39 2.1.38.61.68 1.21.91 1.8.26.58.54 1.41.84 2.49a3306.77 3306.77 0 0 0 5.9-8.13l4.7-.72z" style="fill:#002773"/><path d="M97.74 144.93c.96-1.12 2-1.77 3.12-1.94l.27-.04c.93-.08 1.4.05 1.4.38v.09c0 .1-.06.2-.17.34-.33.5-1.21.85-2.64 1.07-.43.06-1.1.13-2.05.2h-.02l.09-.1zm-2.23 8.04c0-1.54.14-2.94.43-4.21 1.1-.11 1.94-.2 2.48-.3h.1c1.3-.2 2.4-.47 3.27-.8a7.6 7.6 0 0 0 3.08-1.96 4.9 4.9 0 0 0 1.36-3.21v-.28c0-1.12-.45-2.16-1.36-3.11a5.71 5.71 0 0 0-5.01-1.24l-.05.01c-1.56.24-3.07.78-4.5 1.6a11.69 11.69 0 0 0-3.88 3.92 11.83 11.83 0 0 0-.93 1.83v.02c-3.46.11-6.5.36-9.09.76-4.61.7-8.74 2.02-12.36 3.95a29.55 29.55 0 0 0-3.78 2.44c-.67.53-1.48 1.29-2.44 2.27-3.2 3.54-4.8 7.5-4.8 11.9a17.96 17.96 0 0 0 .45 3.98c.64-.16 1.3-.34 1.96-.55a21.45 21.45 0 0 0 8.27-5.32c-.1-.5-.14-.98-.14-1.42 0-2.58 1.08-4.98 3.25-7.2.78-.75 1.55-1.4 2.33-1.92 3.38-2.23 7.45-3.72 12.2-4.45.91-.12 1.94-.25 3.08-.38l.04.02a24 24 0 0 0-.18 3.1v.34c0 .55 0 1.11.02 1.69.22 3.92.32 6.36.32 7.3 0 2.52-.78 4.85-2.34 6.99-1.3 1.55-2.69 2.44-4.2 2.67-1.28.2-2.4-.07-3.34-.79a4.06 4.06 0 0 1-1.34-3.1c0-1.36.44-2.6 1.32-3.72.9-1.08 2-1.72 3.25-1.92l.16-.02c.46-.07.95-.08 1.46-.02l.03-.03v-.25c0-1.35-.47-2.35-1.4-3a3.57 3.57 0 0 0-2.38-.42c-1.63.25-3.32 1.09-5.08 2.53a16.36 16.36 0 0 0-3.35 3.66 15.38 15.38 0 0 0-2.62 8.44c0 2.38.6 4.5 1.78 6.37.29.43.68.9 1.18 1.41 2.3 2.22 5.37 3.03 9.18 2.45a16.33 16.33 0 0 0 8.45-4.2c4.04-3.51 6.05-8.3 6.05-14.36 0-1.68-.12-3.51-.38-5.5-.37-2.5-.55-4.48-.55-5.97M107.94 148.9l2.4-.37c1.07-.17 2.06-.83 2.98-2 .25-.36.51-.9.77-1.6.35-.82.53-1.41.53-1.8 0-.42-.15-.74-.44-.97-.29-.25-.77-.33-1.45-.24l-2 .31c-.68.1-1.27.33-1.79.68-.37.27-.75.61-1.13 1.02a5.9 5.9 0 0 0-1 1.88 5.45 5.45 0 0 0-.55 1.84c0 .18.04.38.11.6.27.55.8.77 1.57.65" style="fill:#fff"/><path d="M113.23 137.2a8.72 8.72 0 0 0-1.22.09l-2 .3a8.9 8.9 0 0 0-3.71 1.45l-.08.05a12.3 12.3 0 0 0-2.08 1.92c-.75.93-1.32 1.99-1.72 3.14a9.02 9.02 0 0 0-.85 3.5 6.5 6.5 0 0 0 .6 2.69 5.87 5.87 0 0 0 5.38 3.28c.36 0 .73-.03 1.1-.09l2.4-.36c1.57-.25 3.9-1.1 5.97-3.77l.1-.14c.5-.68.93-1.54 1.33-2.6.59-1.4.85-2.5.85-3.52a5.9 5.9 0 0 0-6.07-5.94m0 4.69c.42 0 .74.09.95.27.3.23.43.55.43.98 0 .38-.17.97-.52 1.79a6.8 6.8 0 0 1-.77 1.6c-.91 1.17-1.9 1.83-2.99 2l-2.39.37-.39.03c-.56 0-.95-.23-1.18-.68a1.82 1.82 0 0 1-.11-.6c0-.38.18-.99.54-1.84.23-.7.56-1.33 1-1.88.39-.4.76-.75 1.14-1.02.52-.35 1.11-.58 1.78-.68l2-.3c.19-.03.36-.04.51-.04" style="fill:#002773"/><path d="M142.33 154.21c-.18-.35-.52-.57-1-.66-.03.03-.36.51-.98 1.44-3.75 5.73-6.44 8.71-8.06 8.96-.89.14-1.62-.31-2.21-1.35a16.7 16.7 0 0 1-1.4-4.04l9.53-13.12v-.05l-4.7.72-.77 1.06-5.12 7.07c-.3-1.08-.59-1.91-.85-2.5-.22-.58-.53-1.18-.9-1.79-1.09-1.61-2.42-2.3-4.02-2.05l-1.77.27a431.1 431.1 0 0 1-2.48 4.96 66.76 66.76 0 0 1-2.98 5.35l-1.08 1.58c-2.79 4.2-4.73 6.38-5.83 6.54l-.13.03h-.32c-.44-.13-.66-.52-.66-1.18 0-.59.18-1.45.55-2.59.25-.7 2-5.22 5.26-13.55l-.03-.02-7.3 1.12a3857.33 3857.33 0 0 0-5.28 13.54c-.95 2.2-1.42 4.03-1.42 5.5 0 1.4.43 2.48 1.3 3.26 1 .79 2.24 1.07 3.71.84l.25-.04c1.8-.27 3.76-1.65 5.85-4.13a44.7 44.7 0 0 0 2.49-3.34 78.51 78.51 0 0 0 2.02-3.11l.56-.93.6-.93c.87-1.47 1.6-2.73 2.2-3.78.58-1.04 1.1-1.99 1.52-2.83.9-.14 1.7.14 2.39.82.27.32.5.66.7 1 .46.9.9 2.2 1.32 3.93l-1.64 2.27-3.32 4.6c-.49.63-1.18 1.45-2.07 2.45a44.82 44.82 0 0 1-2.71 2.63l3.23-.48a7.63 7.63 0 0 0 2.44-.67 4.4 4.4 0 0 0 1.2-1.07c.57-.73 1.87-2.52 3.92-5.38h.02c.11.39.25.8.41 1.23.98 2.95 2.55 4.25 4.72 3.92 1.87-.29 3.82-1.62 5.85-4a47.88 47.88 0 0 0 2.73-3.65c1.48-2.23 2.96-4.66 4.47-7.29 0-.14-.08-.32-.21-.56" style="fill:#fff"/><path d="M99.72 144.83c1.43-.22 2.3-.57 2.64-1.07.1-.13.16-.25.16-.34v-.09c0-.27-.3-.4-.9-.4-.14 0-.3 0-.49.02l-.27.04a5.18 5.18 0 0 0-3.12 1.94l-.09.1h.02c.94-.07 1.63-.13 2.05-.2z" style="fill:#002773"/><path d="M146.44 151.95a5.96 5.96 0 0 0-4.92-3.1l.48-.66c.58-.8.9-1.76.9-2.75v-.05a4.69 4.69 0 0 0-5.4-4.63l-4.7.72c-1.93.3-2.87 1.57-3.27 2.12l-.6.82-.75 1.05a8.25 8.25 0 0 0-7.04-2.2l-1.77.27a4.69 4.69 0 0 0-3.5 2.55l-.01.04a4.68 4.68 0 0 0-.43-.4l-.02-.03a4.68 4.68 0 0 0-3.74-1.05l-1.07.16a8.7 8.7 0 0 0 .32-2.32v-.28a9.1 9.1 0 0 0-2.98-6.65 10.2 10.2 0 0 0-6.8-2.53 12.12 12.12 0 0 0-2.3.25c-2.04.34-4.01 1.06-5.87 2.12l-.12.07c-1.3.8-2.53 1.83-3.63 3.07l-.1.1c-.62.74-1.12 1.4-1.52 2.03-2.54.14-4.85.38-6.9.69a43.58 43.58 0 0 0-13.85 4.44c-.02 0-.03.02-.05.03-1.56.85-3.03 1.8-4.38 2.83l-.06.05c-.84.66-1.78 1.53-2.9 2.67l-.11.13c-4 4.41-6.02 9.47-6.02 15.04a22.75 22.75 0 0 0 .49 4.73 4.76 4.76 0 0 0 5.8 3.8 39.52 39.52 0 0 0 2.45-.7c1.07-.4 1.97-.78 2.73-1.16l.3-.16a16.27 16.27 0 0 0 2.59 8.7 15.07 15.07 0 0 0 1.82 2.17 14.13 14.13 0 0 0 10.13 3.93c.97 0 1.98-.08 3-.24a21 21 0 0 0 10.84-5.3 21.86 21.86 0 0 0 4.38-5.2 9.15 9.15 0 0 0 4.58 1.2 11 11 0 0 0 1.66-.14l.25-.04c1.97-.3 3.88-1.21 5.77-2.78a4.7 4.7 0 0 0 4.13 1.42l3.19-.46h.05c1.72-.27 2.94-.64 3.93-1.18a8.82 8.82 0 0 0 2.64-2.26 7.94 7.94 0 0 0 6.13 1.46c3.05-.47 5.9-2.3 8.7-5.58l.09-.1a51.35 51.35 0 0 0 3-4.02c1.52-2.3 3.08-4.84 4.62-7.54.4-.71.62-1.52.62-2.33 0-.96-.25-1.88-.78-2.82zM90.39 178.8a16.31 16.31 0 0 1-8.45 4.2c-.8.11-1.56.17-2.3.17a9.56 9.56 0 0 1-6.88-2.62c-.5-.51-.9-.99-1.18-1.41-1.19-1.87-1.78-4-1.78-6.38a15.38 15.38 0 0 1 3.96-10.17c.8-.86 1.46-1.5 2-1.92 1.77-1.44 3.46-2.29 5.08-2.54a3.5 3.5 0 0 1 2.4.43c.92.65 1.38 1.65 1.38 3v.25l-.02.03a6.14 6.14 0 0 0-1.46.02l-.16.02c-1.26.2-2.34.83-3.25 1.91a5.9 5.9 0 0 0-1.32 3.74c0 1.22.45 2.26 1.34 3.1.74.56 1.59.84 2.54.84.26 0 .53-.02.8-.06 1.51-.23 2.9-1.12 4.2-2.67a11.59 11.59 0 0 0 2.34-7c0-.93-.1-3.37-.31-7.3a60.4 60.4 0 0 1-.03-1.68v-.34c0-1.14.06-2.17.18-3.1l-.04-.02c-1.14.13-2.16.26-3.07.38-4.76.73-8.83 2.21-12.21 4.45-.78.53-1.55 1.17-2.32 1.93-2.17 2.21-3.26 4.6-3.26 7.19 0 .44.04.91.14 1.41a22.6 22.6 0 0 1-6 4.36c-.6.3-1.36.63-2.27.96-.67.21-1.32.4-1.96.56a17.99 17.99 0 0 1-.45-3.98c0-4.4 1.6-8.36 4.8-11.9.96-.99 1.77-1.74 2.44-2.27a29.6 29.6 0 0 1 3.78-2.45A38.73 38.73 0 0 1 81.4 146c2.6-.4 5.63-.65 9.09-.76v-.02a13.45 13.45 0 0 1 2.2-3.55c.81-.9 1.68-1.63 2.6-2.2a12.92 12.92 0 0 1 4.51-1.6h.05l.16-.05c.39-.06.77-.1 1.13-.1 1.43 0 2.67.46 3.72 1.38.9.95 1.37 1.99 1.37 3.11v.27a4.9 4.9 0 0 1-1.36 3.21l-.52.08c-1.34.2-2.51.98-3.24 2.11-.74.23-1.61.42-2.6.57l-.1.02c-.54.08-1.37.18-2.48.29a19.1 19.1 0 0 0-.43 4.2c0 1.5.18 3.49.55 5.98l.15 1.28-.77 1.97c-1.18 2.77-1.75 5.14-1.75 7.26 0 1.61.34 2.94.84 4.01-1 2.02-2.38 3.8-4.14 5.34zm47.68-16.74a47.16 47.16 0 0 1-2.73 3.65c-2.04 2.38-3.99 3.71-5.86 4-.22.03-.43.05-.64.05-1.84 0-3.2-1.33-4.07-3.98-.17-.43-.3-.84-.41-1.23h-.02a233.01 233.01 0 0 1-3.92 5.39c-.49.56-.89.91-1.2 1.07-.48.27-1.3.5-2.45.67-1.47.2-2.55.37-3.23.47.76-.66 1.66-1.54 2.71-2.62.9-1 1.59-1.83 2.07-2.46l3.33-4.59 1.64-2.28a19 19 0 0 0-1.32-3.92 6.5 6.5 0 0 0-.7-1 2.66 2.66 0 0 0-2.4-.82c-.43.84-.93 1.78-1.53 2.83-.59 1.05-1.32 2.3-2.18 3.77l-.61.94-.55.93c-.58.93-1.26 1.97-2.03 3.1a44.7 44.7 0 0 1-2.48 3.35c-2.1 2.48-4.05 3.85-5.86 4.13l-.25.04a6.3 6.3 0 0 1-.95.07c-.99 0-1.85-.27-2.6-.8.86-2.55 1.3-5.35 1.3-8.38 0-1.12-.06-2.31-.16-3.55l3.55-9.1.1-.25c.86-.4 1.65-.88 2.34-1.43l5.42-.83.02.02c-3.25 8.33-5 12.85-5.26 13.56-.36 1.14-.55 2-.55 2.59 0 .65.22 1.04.66 1.17a2.6 2.6 0 0 0 .32 0l.14-.02c1.1-.17 3.04-2.35 5.83-6.54l1.07-1.58a66.76 66.76 0 0 0 2.98-5.35c.61-1.19 1.44-2.84 2.48-4.96l1.78-.27c.21-.04.42-.05.62-.05 1.32 0 2.45.7 3.39 2.1.38.6.68 1.2.91 1.8.26.58.54 1.4.84 2.48a3191.66 3191.66 0 0 0 5.9-8.12l4.7-.72v.05l-9.53 13.12c.46 1.87.92 3.22 1.4 4.04.52.91 1.15 1.37 1.9 1.37.1 0 .2 0 .3-.02 1.63-.25 4.31-3.24 8.06-8.96l.98-1.45c.49.1.82.32 1 .67.14.24.2.42.2.56-1.49 2.63-2.98 5.06-4.45 7.29z" style="fill:#002773"/><path d="M97.7 144.93c.96-1.11 2-1.76 3.13-1.93l.27-.04c.92-.09 1.39.04 1.39.37v.1c0 .09-.06.2-.16.34-.34.49-1.22.84-2.64 1.06-.43.07-1.11.14-2.05.2h-.03l.1-.1zm-2.23 8.04c0-1.53.15-2.93.44-4.2 1.1-.12 1.93-.21 2.48-.3l.09-.01c1.3-.2 2.4-.47 3.28-.8a7.6 7.6 0 0 0 3.07-1.95 4.9 4.9 0 0 0 1.37-3.22v-.27c0-1.12-.46-2.16-1.37-3.12a5.71 5.71 0 0 0-5-1.23h-.05c-1.57.25-3.07.78-4.51 1.6a11.69 11.69 0 0 0-3.87 3.93 11.83 11.83 0 0 0-.94 1.83v.02c-3.46.1-6.49.36-9.08.76-4.62.7-8.74 2.02-12.37 3.94a29.55 29.55 0 0 0-3.78 2.45c-.67.53-1.48 1.28-2.43 2.26-3.2 3.55-4.8 7.51-4.8 11.9a17.96 17.96 0 0 0 .45 3.98c.63-.15 1.29-.34 1.95-.55a21.45 21.45 0 0 0 8.27-5.32c-.09-.5-.14-.97-.14-1.41 0-2.58 1.09-4.98 3.26-7.2.78-.75 1.55-1.4 2.32-1.92 3.39-2.24 7.46-3.72 12.21-4.45.91-.13 1.94-.25 3.07-.38l.05.01c-.12.93-.18 1.97-.18 3.1v.35c0 .54 0 1.1.02 1.68.21 3.93.32 6.37.32 7.3 0 2.53-.78 4.86-2.35 7-1.29 1.54-2.68 2.43-4.19 2.66-1.29.2-2.4-.06-3.34-.78a4.06 4.06 0 0 1-1.35-3.1 5.9 5.9 0 0 1 1.32-3.73c.91-1.08 2-1.72 3.26-1.91l.16-.02c.46-.07.94-.08 1.46-.02l.02-.03v-.25c0-1.35-.46-2.35-1.39-3a3.57 3.57 0 0 0-2.39-.43c-1.62.25-3.32 1.1-5.08 2.53a16.36 16.36 0 0 0-3.35 3.66 15.38 15.38 0 0 0-2.61 8.44c0 2.38.59 4.5 1.77 6.38.29.42.68.9 1.19 1.4 2.3 2.22 5.36 3.03 9.17 2.45a16.33 16.33 0 0 0 8.45-4.19c4.04-3.52 6.06-8.3 6.06-14.36 0-1.69-.13-3.52-.39-5.5-.36-2.5-.55-4.49-.55-5.98M107.9 148.9l2.4-.37c1.08-.16 2.07-.83 2.98-2 .26-.36.52-.9.78-1.6.35-.81.52-1.4.52-1.79 0-.42-.14-.75-.43-.98-.29-.24-.78-.32-1.46-.23l-2 .3c-.67.1-1.26.34-1.78.69-.38.27-.76.6-1.14 1.02a5.9 5.9 0 0 0-1 1.88 5.45 5.45 0 0 0-.55 1.84c0 .18.04.38.12.6.27.55.8.76 1.57.64M142.3 154.22c-.19-.36-.52-.58-1-.67-.04.04-.36.52-.99 1.45-3.75 5.72-6.43 8.7-8.06 8.96-.88.13-1.61-.32-2.2-1.35a16.7 16.7 0 0 1-1.4-4.05l9.52-13.12v-.04l-4.69.72a3348.13 3348.13 0 0 1-5.9 8.12c-.3-1.08-.58-1.9-.84-2.49-.23-.58-.53-1.18-.91-1.8-1.08-1.6-2.41-2.29-4-2.04l-1.78.27a431.1 431.1 0 0 1-2.49 4.96 66.76 66.76 0 0 1-2.98 5.35l-1.07 1.58c-2.8 4.19-4.74 6.37-5.83 6.54l-.14.02h-.31c-.45-.13-.66-.52-.66-1.17 0-.6.18-1.46.54-2.6.26-.7 2.01-5.22 5.26-13.55l-.02-.02-7.3 1.12c-.07.13-.25.6-.56 1.38-3.08 7.9-4.66 11.95-4.73 12.16-.94 2.2-1.41 4.03-1.41 5.5 0 1.4.43 2.49 1.3 3.26 1 .8 2.23 1.07 3.7.85l.26-.04c1.8-.28 3.75-1.66 5.85-4.13a44.7 44.7 0 0 0 2.48-3.34 78.51 78.51 0 0 0 2.03-3.12l.55-.92.61-.94c.87-1.47 1.6-2.73 2.19-3.77.59-1.05 1.1-2 1.52-2.83.91-.14 1.71.13 2.4.81.27.33.5.66.7 1.01.45.89.9 2.2 1.32 3.92l-1.64 2.28-3.33 4.59c-.48.63-1.17 1.45-2.07 2.46a44.82 44.82 0 0 1-2.7 2.62l3.23-.47a7.63 7.63 0 0 0 2.43-.67 4.4 4.4 0 0 0 1.21-1.08c.56-.72 1.87-2.51 3.92-5.38h.02c.1.4.24.8.41 1.23.97 2.95 2.54 4.26 4.71 3.93 1.87-.3 3.82-1.62 5.86-4a47.88 47.88 0 0 0 2.73-3.65c1.47-2.23 2.96-4.66 4.46-7.3 0-.13-.07-.32-.2-.55" style="fill:#fff"/><path d="M87.25 168.74c-1.29 1.55-2.68 2.44-4.19 2.67-1.29.2-2.4-.06-3.34-.79a4.06 4.06 0 0 1-1.35-3.1c0-.72.14-1.41.39-2.07l-7.84 1.67a14.63 14.63 0 0 0-1.15 5.65c0 2.38.59 4.5 1.77 6.37.29.43.68.9 1.19 1.42 2.3 2.2 5.36 3.02 9.17 2.44a16.33 16.33 0 0 0 8.45-4.2c4.04-3.51 6.06-8.3 6.06-14.36 0-.87-.04-1.78-.1-2.73l-6.8 1.45a11.68 11.68 0 0 1-2.26 5.58M121.94 156.3c.45.88.9 2.18 1.32 3.91l-1.64 2.28-3.33 4.59c-.48.63-1.17 1.45-2.07 2.45a45.73 45.73 0 0 1-2.7 2.63l3.23-.47a7.63 7.63 0 0 0 2.43-.67 4.4 4.4 0 0 0 1.2-1.08c.57-.72 1.88-2.51 3.93-5.38h.02c.1.4.24.8.4 1.23.98 2.95 2.55 4.26 4.72 3.92 1.87-.28 3.82-1.61 5.86-4a47.35 47.35 0 0 0 2.73-3.64c1.47-2.23 2.96-4.66 4.46-7.3 0-.13-.07-.32-.2-.55-.19-.35-.52-.58-1-.67-.04.04-.36.52-.99 1.45-3.75 5.72-6.43 8.7-8.06 8.96-.88.13-1.61-.32-2.2-1.35-.48-.82-.94-2.17-1.4-4.05l3.23-4.44-9.97 2.13.03.04M98.34 169.45c0 1.4.44 2.49 1.3 3.26 1 .8 2.24 1.07 3.71.85l.26-.04c1.8-.28 3.75-1.66 5.85-4.13a44.7 44.7 0 0 0 2.48-3.34 78.51 78.51 0 0 0 2.58-4.04c.2-.31.41-.62.6-.94.88-1.47 1.6-2.73 2.2-3.77l.04-.09-2.3.5-.47.78a79.7 79.7 0 0 1-1.08 1.58c-2.8 4.19-4.73 6.37-5.83 6.54l-.13.02h-.32c-.44-.13-.66-.52-.66-1.17 0-.6.18-1.46.54-2.6l1.46-3.77-7.55 1.6-1.26 3.26c-.95 2.2-1.42 4.03-1.42 5.5" style="fill:#86bde0"/><path d="m79.64 163.88-7.98 1.68c-.5.94-.92 1.9-1.22 2.85l8-1.68a5.93 5.93 0 0 1 1.2-2.85M89.6 161.78c0 .92-.1 1.8-.32 2.67l7.1-1.5c-.04-.82-.1-1.67-.2-2.56l-6.58 1.4zM109.12 157.67l-7.54 1.59-1.1 2.83 7.54-1.59 1.1-2.83M132.94 152.65l-4.96 1.05-.4.54-.12-.43-6.39 1.34.16.13c.27.33.5.66.7 1.01.17.33.34.73.5 1.18l8.28-1.75 2.23-3.07zM118.16 155.77l-2.25.47a49.5 49.5 0 0 1-1.82 2.98l2.41-.5a214.68 214.68 0 0 0 1.66-2.95" style="fill:#c70f2e"/></svg>