<svg version="1.1" id="Denver" xmlns:serif="http://www.serif.com/"
	 xmlns="http://www.w3.org/2000/svg" xmlns:xlink="http://www.w3.org/1999/xlink" x="0px" y="0px" viewBox="0 0 951.193 1080"
	 style="enable-background:new 0 0 951.193 1080;" xml:space="preserve">
<g>
	<rect id="Artboard2" x="-60.587" style="fill:none;" width="1080" height="1080"/>
	<path style="fill-rule:evenodd;clip-rule:evenodd;fill:#91D0EF;" d="M165.774,459.167c11.584-22.727,32.391-43.534,32.391-43.534
		l19.156-18.165l7.927-17.505l-17.835-8.587l-11.902-9.578l7.609-12.22c0,0-3.963-12.55-4.294-13.541
		c-0.33-0.991-14.862-11.89-17.174-12.22c-2.312-0.33-20.147,9.908-20.807,12.22c-0.661,2.312-6.606,31.706-6.606,31.706
		l-19.486,21.138l-22.128,23.45l-17.011,21.138l-2.145,4.954l29.064,27.083l-10.899,12.891l19.926,23.77l2.533,110.973
		l10.569,74.642l66.716,113.615h27.743l22.128-31.706l13.541-42.743l-23.78-38.505l-91.817-65.725l-0.661-104.367l3.303-55.486
		L165.774,459.167z"/>
	<g>
		<defs>
			<rect id="SVGID_1_" x="-60.587" width="1080" height="1080"/>
		</defs>
		<clipPath id="SVGID_00000163752924492706191810000006940087990052710052_">
			<use xlink:href="#SVGID_1_"  style="overflow:visible;"/>
		</clipPath>
		<g style="clip-path:url(#SVGID_00000163752924492706191810000006940087990052710052_);">
			<g>
				<path style="fill-rule:evenodd;clip-rule:evenodd;fill:#91D0EF;" d="M478.21,55.127
					c147.987,8.657,284.136,47.503,408.235,117.08c30.902,476.783-138.779,722.147-408.235,852.396
					C208.754,894.354,39.072,648.99,69.974,172.207C194.073,102.63,330.223,63.784,478.21,55.127L478.21,55.127z"/>
				<path style="fill-rule:evenodd;clip-rule:evenodd;fill:#F3A238;" d="M479.934,25.658
					c152.602,8.928,292.978,49.054,420.947,120.8l13.985,7.841l1.037,15.998c31.976,493.366-146.019,746.104-424.846,880.883
					l-12.847,6.21l-12.847-6.21C186.535,916.401,8.54,663.663,40.517,170.297l1.037-15.998l13.984-7.841
					c127.97-71.746,268.345-111.872,420.948-120.8l1.724-0.1L479.934,25.658L479.934,25.658z M478.21,55.127
					c-147.987,8.657-284.137,47.503-408.236,117.08C39.072,648.99,208.754,894.354,478.21,1024.603
					C747.666,894.354,917.347,648.99,886.445,172.207C762.346,102.63,626.197,63.784,478.21,55.127L478.21,55.127z"/>
				<path style="fill:none;stroke:#700531;stroke-width:29.52;stroke-linecap:round;stroke-miterlimit:5;" d="M478.21,55.127
					c147.987,8.657,284.136,47.503,408.235,117.08c30.902,476.783-138.779,722.147-408.235,852.396
					C208.754,894.354,39.072,648.99,69.974,172.207C194.073,102.63,330.223,63.784,478.21,55.127L478.21,55.127z"/>
				<g>
					<polygon style="fill:#87BEDA;" points="184.583,651.862 219.913,683.768 183.468,718.661 148.211,682.661 					"/>
					<polygon style="fill:#87BEDA;enable-background:new    ;" points="149.202,479.294 131.119,497.624 115.183,478.427 
						131.367,459.167 					"/>
					<polygon style="fill:#87BEDA;" points="131.119,469.468 167.505,436.44 133.046,401.211 95.613,437.596 					"/>
					<polygon style="fill:#87BEDA;" points="220.211,391.358 182.725,426.284 148.128,390.284 184.17,359.073 					"/>
					<polygon style="fill:#87BEDA;" points="183.347,657.396 165.774,638.848 171.393,633.812 189.232,651.862 					"/>
					<polygon style="fill:#87BEDA;" points="165.798,346.523 183.138,328.44 200.477,346.523 183.798,365.761 					"/>
					<polygon style="fill:#87BEDA;" points="270.919,729.136 234.771,760.22 199.156,729.394 236.147,693.67 					"/>
					<polygon style="fill:#87BEDA;" points="253.046,773.431 233.174,789.45 217.927,772.771 235.037,752.789 					"/>
					<g>
						<polygon style="fill:#87BEDA;" points="774.454,651.532 737.725,682.826 772.514,719.156 810.59,684.943 						"/>
						<polygon style="fill:#87BEDA;" points="773.339,657.78 790.239,639.339 777.468,626.899 756.44,640.881 						"/>
					</g>
					<g>
						<polygon style="fill:#87BEDA;" points="790.973,346.912 772.927,365.935 755.498,346.427 773.009,328.193 						"/>
						<polygon style="fill:#87BEDA;" points="774.293,358.403 809.892,391.427 772.672,425.632 737.67,390.202 						"/>
						<polygon style="fill:#87BEDA;" points="860.477,436.22 825.248,468.037 788.697,436.55 826.128,400.771 						"/>
						<polygon style="fill:#87BEDA;" points="842.862,480.257 823.046,497.101 807.853,479.541 825.138,460.661 						"/>
					</g>
					<g>
						<polygon style="fill:#87BEDA;" points="720.578,761.514 757.321,729.477 722.815,694.458 686.312,729.89 						"/>
						<polygon style="fill:#87BEDA;" points="737.972,771.846 720.495,790.165 705.385,771.092 721.678,752.927 						"/>
					</g>
				</g>
				<path style="fill-rule:evenodd;clip-rule:evenodd;fill:#FFFFFF;" d="M479.981,759.305l-72.227,77.89l-20.536-14.279
					l-93.162,75.13l185.925,126.557l182.383-126.557l-105.35-94.164l-16.028,19.034L479.981,759.305z"/>
				<path style="fill-rule:evenodd;clip-rule:evenodd;fill:#B8E0F5;" d="M330.462,227.935v96.328l-48.534,22.827l21.858-43.68
					l-101.477,57.757l125.284-131.83C328.356,228.539,329.375,228.045,330.462,227.935z"/>
				<path style="fill-rule:evenodd;clip-rule:evenodd;fill:#B8E0F5;" d="M630.952,161.555v96.327l-48.534,22.827l21.858-43.679
					l-101.477,57.757l125.284-131.83C628.846,162.158,629.866,161.665,630.952,161.555z"/>
				<path style="fill-rule:evenodd;clip-rule:evenodd;fill:#70C2EB;" d="M632.91,122.744l7.758,46.654l81.306,95.168l32.871-32.665
					l119.828,121.892l8.851-33.134L754.845,185.051h-35.521C719.324,185.051,632.91,122.744,632.91,122.744z"/>
				<path style="fill-rule:evenodd;clip-rule:evenodd;fill:#FFFFFF;" d="M196.012,265.154L74.097,376.017l-1.3-208.932
					C198.181,91.703,335.011,58.669,479.413,53.653c149.726,9.374,287.549,45.103,410.65,113.432l8.06,159.332L758.217,178.163
					l-26.105,28.515l-92.269-105.097L486.105,238.269l-7.895,8.28l-36.718,33.628l-111.03-97.31l-101.653,97.31L196.012,265.154z"/>
				<path style="fill-rule:evenodd;clip-rule:evenodd;fill:#F3A238;" d="M481.137,24.185
					c152.602,8.927,292.978,49.053,420.947,120.8l13.985,7.84l1.037,15.999c31.976,493.365-146.019,746.103-424.846,880.882
					l-12.847,6.21l-12.847-6.21C187.739,914.927,9.744,662.189,41.72,168.824l1.037-15.999l13.985-7.84
					c127.969-71.747,268.345-111.873,420.947-120.8l1.724-0.101L481.137,24.185L481.137,24.185z M479.413,53.653
					c-147.987,8.657-284.137,47.503-408.236,117.08c-30.901,476.783,138.78,722.147,408.236,852.396
					C748.869,892.88,918.55,647.516,887.649,170.733C763.55,101.156,627.4,62.31,479.413,53.653L479.413,53.653z"/>
				<path style="fill-rule:evenodd;clip-rule:evenodd;fill:#5A0C1E;" d="M480.275,38.919
					c150.295,8.792,288.557,48.278,414.591,118.94l6.993,3.92l0.518,7.999c31.439,485.074-142.399,734.125-416.541,866.64
					l-6.423,3.105l-6.423-3.105C198.848,903.903,25.01,654.852,56.449,169.778l0.518-7.999l6.993-3.92
					C189.994,87.197,328.256,47.711,478.551,38.919l0.862-0.05L480.275,38.919L480.275,38.919z M622.223,87.216
					c-46.284-9.624-93.89-15.876-142.81-18.778c-142.567,8.458-273.975,45.363-394.01,111.28
					c-3.948,65.409-4.046,126.359-0.562,183.164l114.043-120.656c1.447-1.568,3.849-1.777,5.545-0.482l18.293,13.969
					c1.622,1.238,3.904,1.108,5.374-0.306l101.015-97.21c0.792-0.763,1.856-1.178,2.956-1.154c1.099,0.024,2.144,0.485,2.902,1.282
					l47.924,50.332c28.542-55.66,93.9-77.612,93.9-77.612s32.461,10.903,61.62,36.823
					C538.413,167.868,622.223,87.216,622.223,87.216z M876.379,297.202c0.475-37.471-0.489-76.607-2.957-117.484
					c-70.498-38.714-144.92-67.421-223.221-86.235l73.376,77.064c1.591,1.67,4.148,1.966,6.078,0.701l26.507-17.368
					c1.963-1.287,4.57-0.956,6.15,0.78L876.379,297.202L876.379,297.202z M703.632,836.834
					c103.489-120.693,166.443-288.071,172.4-521.406l-113.19-113.375c-1.863-1.566-4.606-1.481-6.369,0.198l-26.513,25.25
					c-0.948,0.903-2.224,1.377-3.53,1.312c-1.307-0.064-2.53-0.662-3.384-1.653l-85.901-99.722
					c-0.879-1.021-2.149-1.623-3.496-1.658c-0.203-0.005-0.405,0.003-0.605,0.023c-1.125,0.114-2.181,0.625-2.972,1.452
					L563.7,196.708c11.955,18.091,20.192,40.366,20.065,67.36c-0.194,40.91-0.224,63.633-0.194,76.232
					c4.771-1.765,10.289-2.773,16.168-2.773c16.865,0,30.768,8.301,32.546,18.95c28.431,3.317,131.098,22.794,146.22,131.744
					l-15.494-4.127l46.729,129.492l-41.361,37.052c0,0-36.622,41.792-85.738,10.341L703.632,836.834L703.632,836.834z
					 M311.683,894.683c49.547,44.652,105.875,81.502,167.73,112.021c59.122-29.17,113.195-64.125,161.123-106.147l-79.401-88.09
					l-22.168,12.397l-61.191-75.917l-65.94,79.317l-32.83-7.707L311.683,894.683L311.683,894.683z M85.748,376.456
					c14.347,198.57,73.242,345.606,164.853,454.959l20.344-170.436c-49.117,31.451-85.738-10.341-85.738-10.341l-41.361-37.052
					l46.729-129.492l-15.495,4.127c17.582-126.672,153.506-132.396,153.506-132.396l0.46,0.443
					c1.924-10.549,15.755-18.741,32.51-18.741c2.926,0,5.763,0.25,8.463,0.718c0.022-12.964-0.014-35.4-0.198-74.177
					c-0.036-7.695,0.607-15.006,1.822-21.946l-36.566-42.45c-0.761-0.883-1.859-1.404-3.025-1.434
					c-0.175-0.004-0.35,0.002-0.523,0.02c-0.973,0.099-1.887,0.541-2.571,1.256l-93.502,97.844
					c-1.204,1.259-3.038,1.607-4.588,0.955c-0.273-0.115-0.538-0.261-0.789-0.438l-26.121-18.503
					c-1.495-1.059-3.508-1.007-4.947,0.127L85.748,376.456L85.748,376.456z"/>
				<path style="fill-rule:evenodd;clip-rule:evenodd;fill:#3D0814;fill-opacity:0.5;" d="M325.358,364.986
					c29.374,43.749,57.269,49.17,102.811,73.286l-9.195,8.794c-21.814-1.822-37.766-3.234-54.958-14.299l22.508,27.269
					c-32.286-10.709-48.684-21.791-61.166-36.405c9.276-1.414,20.445-3.878,29.53-3.959c-11.96-7.962-28.214-14.5-40.761-24.467
					c-16.533-13.134-15.726-20.858-15.726-20.858C302.845,370.185,314.326,365.306,325.358,364.986L325.358,364.986z
					 M379.596,481.022c-35.916,3.219-55.019,2.478-90.935-19.568c-14.703-8.082-26.635-8.45-42.991-10.747
					c19.401-10.51,39.53-20.444,61.905-25.336c23.954,23.004,48.019,37.076,77.016,50.911L379.596,481.022z M627.825,366.651
					c11.032,0.321,22.512,5.199,26.957,9.362c0,0,0.806,7.724-15.727,20.858c-12.546,9.967-28.8,16.504-40.761,24.467
					c9.086,0.08,20.255,2.544,29.531,3.958c-12.483,14.615-28.88,25.696-61.167,36.406l22.508-27.27
					c-17.191,11.066-50.425,16.974-72.238,18.796c0.093-4.755,2.77-9.187,8.085-13.29C570.556,415.822,598.45,410.4,627.825,366.651
					L627.825,366.651z M568.997,485.747c19.418-3.006,37.523-8.261,54.016-16.28c-35.135,10.873-69.462,11.737-102.487,16.28
					c43.377-11.388,101.128-35.706,125.082-58.711c22.374,4.893,42.503,14.826,61.904,25.336
					c-16.355,2.298-28.288,2.666-42.991,10.747C628.606,485.166,604.913,488.966,568.997,485.747L568.997,485.747z M592.397,345.625
					c14.714-4.958,25.376-1.815,32.293,8.822c-9.973,20.761-48.713,50.052-71.985,53.994c9.641-7.85,37.38-27.55,38.004-42.54
					C612.809,364,614.41,345.625,592.397,345.625L592.397,345.625z M371.081,345.625c-22.014,0-20.412,18.375,1.688,20.276
					c0.623,14.99,28.362,34.69,38.003,42.54c-23.272-3.942-62.012-33.233-71.984-53.994
					C345.704,343.81,356.367,340.667,371.081,345.625L371.081,345.625z"/>
				<path style="fill-rule:evenodd;clip-rule:evenodd;fill:#197FB3;" d="M479.325,697.908v62.494l29.562,16.263v-76.408
					L479.325,697.908z"/>
				<path style="fill-rule:evenodd;clip-rule:evenodd;fill:#91D0EF;" d="M449.763,700.257v76.408l29.562-16.263v-62.494
					L449.763,700.257L449.763,700.257z"/>
				<path style="fill-rule:evenodd;clip-rule:evenodd;fill:#B8E0F5;" d="M478.308,793.424v63.294l-31.89,14.998l14.362-28.7
					l-66.677,37.95l82.32-86.621C476.924,793.82,477.594,793.496,478.308,793.424L478.308,793.424z"/>
				<path style="fill-rule:evenodd;clip-rule:evenodd;fill:#70C2EB;" d="M479.594,767.923l5.098,30.654l53.424,62.532l21.598-21.463
					l69.425,70.781l15.126-12.461l-84.551-89.104h-23.34L479.594,767.923L479.594,767.923z"/>
				<path style="fill-rule:evenodd;clip-rule:evenodd;fill:#5A0C1E;" d="M405.559,847.092c-0.2-0.085-0.394-0.192-0.578-0.322
					l-19.153-13.566c-1.096-0.777-2.572-0.739-3.627,0.093l-88.145,75.454c-1.241,0.979-3.026,0.839-4.1-0.321
					c-1.074-1.161-1.075-2.951-0.003-4.113l92.155-98.35c1.061-1.15,2.822-1.303,4.066-0.354l13.413,10.243
					c1.188,0.908,2.862,0.812,3.94-0.225l74.067-71.277c0.581-0.559,1.361-0.863,2.167-0.846c0.806,0.018,1.572,0.356,2.128,0.94
					l54.902,57.661c1.009,1.059,2.631,1.247,3.855,0.445l16.813-11.017c1.245-0.816,2.899-0.606,3.901,0.495l99.646,120.006
					c1.074,1.18,1.05,2.99-0.056,4.14c-1.105,1.15-2.913,1.246-4.134,0.219l-95.12-94.304c-1.182-0.994-2.922-0.94-4.04,0.125
					l-16.817,16.016c-0.601,0.573-1.41,0.873-2.239,0.832c-0.829-0.041-1.605-0.42-2.146-1.048l-54.486-63.253
					c-0.558-0.647-1.363-1.029-2.217-1.051c-0.129-0.003-0.257,0.001-0.384,0.014c-0.714,0.073-1.384,0.397-1.885,0.921
					l-68.559,71.742C408.041,847.315,406.696,847.57,405.559,847.092L405.559,847.092z"/>
				<path style="fill-rule:evenodd;clip-rule:evenodd;fill:#F3A238;" d="M336.54,417.617
					c-51.393-1.011-95.123,22.979-130.535,45.497c19.577-44.891,45.148-70.681,92.579-70.865
					C304.344,401.489,317.532,409.884,336.54,417.617L336.54,417.617z M616.25,417.617c14.947-6.073,27.749-14.024,36.673-25.368
					c45.828,0.184,76.976,26.063,86.979,67.601C705.687,437.331,665.906,416.606,616.25,417.617L616.25,417.617z M448.662,419.885
					c-30.876-18.202-50.681-39.072-50.328-64.799l-3.254-91.325l39.08-55.981l7.957,8.265l34.676-48.02l34.676,48.02l7.957-8.265
					l39.08,55.981l-3.255,91.325c0.354,25.727-19.451,46.597-50.327,64.799v-4.303c0-16.654-8.127-26.459-17.751-30.426
					l-0.049-79.633l-20.672-0.002l-1.521,80.298c-8.962,4.337-16.269,13.971-16.269,29.763L448.662,419.885L448.662,419.885z
					 M460.469,415.582c0-27.574,32.648-27.574,32.648,0C482.08,414.195,471.197,414.193,460.469,415.582z M365.411,515.125
					l-4.033,22.082c-0.369,2.02-1.829,3.668-3.789,4.278l-110.801,34.468C249.908,542.166,289.348,521.853,365.411,515.125
					L365.411,515.125z M569.492,582.032l93.055-7.743c5.061-0.421,9.789,2.56,11.589,7.309l5.976,15.761l-107.72,5.105
					L569.492,582.032L569.492,582.032z M543.296,694.985c-43.129-3.615-85.777-3.614-127.942,0L402.93,679.13
					c51.414-3.147,102.34-3.118,152.79,0L543.296,694.985L543.296,694.985z"/>
				<path style="fill-rule:evenodd;clip-rule:evenodd;fill:#F2F2F2;" d="M234.7,471.54l-14.118,43.677h55.589
					c0,0-73.237,11.215-55.589,113.384c-19.333-4.072-35.669-11.996-46.766-26.657c1.487-25.817,14.249-47.124,39.266-63.53
					l-29.118,8.824C191.137,509.223,208.703,484.848,234.7,471.54L234.7,471.54z"/>
				<path style="fill-rule:evenodd;clip-rule:evenodd;fill:#DDDDDE;" d="M712.336,485.383l14.118,43.677l-58.347,32.021
					c0,0,56.693,13.661,50.764,83.431c19.333-4.072,43.252-14.064,54.348-28.725c-1.487-25.817-14.248-47.124-39.265-63.53
					l29.118,8.824C755.899,523.066,738.333,498.691,712.336,485.383L712.336,485.383z"/>
				<path style="fill-rule:evenodd;clip-rule:evenodd;fill:#F2F2F2;" d="M383.002,482.241l3.618,65.611l26.788-11.736
					c27.867,4.066,56.448,2.12,82.836,0.318c2.625-0.178,4.663-2.358,4.663-4.989c0-2.922,0-6.648,0-9.443
					c0-2.358-1.647-4.395-3.953-4.889c-9.098-1.949-30.745-6.585-30.745-6.585h35.155c1.326,0,2.598-0.527,3.535-1.465
					c0.938-0.937,1.465-2.209,1.465-3.535c0-3.286,0-7.526,0-10.574c0-2.313-1.587-4.324-3.836-4.863
					c-9.394-2.249-32.789-7.85-32.789-7.85h31.388c1.326,0,2.598-0.527,3.535-1.465c0.938-0.937,1.465-2.209,1.465-3.535
					c0-4.51,0-11.053,0-15.196c0-2.302-1.573-4.308-3.81-4.856c-9.332-2.287-32.578-7.986-32.578-7.986h31.625c2.761,0,5-2.238,5-5
					c0-4.697,0-11.66,0-16.161c0-2.54-1.904-4.676-4.427-4.967c-17.391-1.938-34.782-1.87-52.174-0.518
					c-3.782,0.294-11.348,6.548-11.348,6.548c-5.226,27.549-6.825,49.064,0,74.805c-8.904-16.74-13.087-34.955-12.353-54.707
					C416.02,461.855,394.249,473.204,383.002,482.241L383.002,482.241z"/>
				<path style="fill-rule:evenodd;clip-rule:evenodd;fill:#F2F2F2;" d="M555.72,580.041l5.415,64.195l-29.231,18.156
					c-27.852,4.064-51.309,2.122-77.108,0.321c-2.622-0.181-4.656-2.36-4.656-4.988c0-2.923,0-6.651,0-9.447
					c0-2.358,1.647-4.395,3.953-4.889c9.098-1.949,30.745-6.585,30.745-6.585h-35.155c-1.326,0-2.598-0.527-3.535-1.465
					c-0.938-0.937-1.465-2.209-1.465-3.535c0-3.286,0-7.526,0-10.574c0-2.313,1.586-4.324,3.836-4.862
					c9.394-2.25,32.789-7.851,32.789-7.851H449.92c-1.326,0-2.598-0.527-3.535-1.465c-0.938-0.937-1.465-2.209-1.465-3.535
					c0-4.51,0-11.053,0-15.195c0-2.303,1.573-4.308,3.81-4.857c9.332-2.287,32.578-7.986,32.578-7.986h-31.625c-2.761,0-5-2.238-5-5
					c0-4.697,0-11.66,0-16.161c0-2.54,1.904-4.676,4.426-4.967c17.693-1.971,35.386-1.867,53.079-0.446l11.156,9.516
					c4.215,19.704,6.138,30.778,4.181,50.096c4.763-10.444,7.324-21.438,7.46-33.038L555.72,580.041L555.72,580.041z"/>
				<path style="fill-rule:evenodd;clip-rule:evenodd;fill:#F6B765;" d="M476.235,186.929l0.558,45.272l-19.297,11.758l9.813-21.263
					L438.237,236.7C438.237,236.7,475.67,186.991,476.235,186.929z"/>
				<path style="fill-rule:evenodd;clip-rule:evenodd;fill:#5A0C1E;" d="M411.836,277.851v25.66l44.908,27.966l13.82-10.594
					l-4.102-15.36L411.836,277.851L411.836,277.851z"/>
				<path style="fill-rule:evenodd;clip-rule:evenodd;fill:#5A0C1E;" d="M541.749,277.851v25.66l-44.907,27.966l-13.05-10.003
					l3.332-15.951L541.749,277.851L541.749,277.851z"/>
				<g>
					<defs>
						<path id="SVGID_00000152980988963259707340000016048063132681251216_" d="M569.492,582.032l2.9,20.432l107.72-5.105
							c0,0-4.809-12.686-7.403-19.527c-0.956-2.519-3.464-4.101-6.148-3.877C646.836,575.596,569.492,582.032,569.492,582.032
							L569.492,582.032z"/>
					</defs>
					<clipPath id="SVGID_00000085235072027898697470000017382888121177215922_">
						<use xlink:href="#SVGID_00000152980988963259707340000016048063132681251216_"  style="overflow:visible;"/>
					</clipPath>
					<g style="clip-path:url(#SVGID_00000085235072027898697470000017382888121177215922_);">
						<path style="fill-rule:evenodd;clip-rule:evenodd;fill:#AE670A;" d="M664.963,573.553c0,0-16.97,25.99-40.161,28.911
							c-23.191,2.921,21.124,0,21.124,0h34.186l7.037-7.037v-15.945L664.963,573.553z"/>
					</g>
				</g>
				<g>
					<defs>
						<path id="SVGID_00000006671293759683270460000014397047271743660469_" d="M616.25,417.617
							c14.947-6.073,27.749-14.024,36.673-25.368c45.828,0.184,76.976,26.063,86.979,67.601
							C705.687,437.331,665.906,416.606,616.25,417.617L616.25,417.617z"/>
					</defs>
					<clipPath id="SVGID_00000038405957279067106200000012838787003911992465_">
						<use xlink:href="#SVGID_00000006671293759683270460000014397047271743660469_"  style="overflow:visible;"/>
					</clipPath>
					<g style="clip-path:url(#SVGID_00000038405957279067106200000012838787003911992465_);">
						<path style="fill-rule:evenodd;clip-rule:evenodd;fill:#AE670A;" d="M661.205,387.095c-3.235,8.107-7.64,15.97-19.757,22.227
							l19.757-7.139c10.128-5.349,57.748,12.405,78.697,50.325c20.445,37.005-16.679-43.186-16.679-43.186L661.205,387.095z"/>
					</g>
				</g>
				<g>
					<defs>
						<path id="SVGID_00000087384536034284920640000008248553798792605599_" d="M476.793,434.498
							c-46.433-21.584-78.911-46.53-78.459-79.412l-3.254-91.325l39.08-55.981l7.957,8.265l34.676-48.02l34.676,48.02l7.957-8.265
							l39.08,55.981l-3.255,91.325C555.704,387.968,523.226,412.914,476.793,434.498z"/>
					</defs>
					<clipPath id="SVGID_00000010288235492465909720000010674076020464636078_">
						<use xlink:href="#SVGID_00000087384536034284920640000008248553798792605599_"  style="overflow:visible;"/>
					</clipPath>
					<g style="clip-path:url(#SVGID_00000010288235492465909720000010674076020464636078_);">
						<path style="fill-rule:evenodd;clip-rule:evenodd;fill:#AE670A;" d="M476.793,156.136v23.468l32.858,49.882l7.78-9.148
							l31.301,45.574v82.154c0,0,5.634,35.561-44.098,61.862c0.269,3.74,0.122,4.532,0.468,15.194l48.667-28.658l11.997-42.57
							l5.419-46.441v-47.601L476.793,156.136L476.793,156.136z"/>
					</g>
				</g>
				<path style="fill-rule:evenodd;clip-rule:evenodd;fill:#DDDDDE;" d="M557.154,596.483c0,0-13.048,53.165-43.195,67.791
					c6.467-0.373,12.935-1.036,19.402-2.001l27.774-16.966L557.154,596.483L557.154,596.483z"/>
				<path style="fill-rule:evenodd;clip-rule:evenodd;fill:#AE670A;" d="M476.793,394.902c6.97,6.408,8.902,13.185,7.022,19.859
					c3.142,0.148,6.25,0.4,9.302,0.821C493.068,402.491,486.227,395.309,476.793,394.902L476.793,394.902z"/>
				<path style="fill-rule:evenodd;clip-rule:evenodd;fill:#5A0C1E;" d="M526.746,354.75v34.662l6.602-4.918v-34.662L526.746,354.75
					z"/>
				<path style="fill-rule:evenodd;clip-rule:evenodd;fill:#5A0C1E;" d="M516.183,363.122v34.661l6.602-4.918v-34.661
					L516.183,363.122z"/>
				<path style="fill-rule:evenodd;clip-rule:evenodd;fill:#5A0C1E;" d="M505.076,370.728v34.662l6.602-4.918V365.81
					L505.076,370.728z"/>
				<path style="fill-rule:evenodd;clip-rule:evenodd;fill:#5A0C1E;" d="M426.824,354.75v34.662l-6.602-4.918v-34.662
					L426.824,354.75z"/>
				<path style="fill-rule:evenodd;clip-rule:evenodd;fill:#5A0C1E;" d="M437.387,363.122v34.661l-6.602-4.918v-34.661
					L437.387,363.122z"/>
				<path style="fill-rule:evenodd;clip-rule:evenodd;fill:#5A0C1E;" d="M448.494,370.728v34.662l-6.602-4.918V365.81
					L448.494,370.728z"/>
				<path style="fill-rule:evenodd;clip-rule:evenodd;fill:#F3A238;" d="M505.157,512.987c29.476-13.858,46.68-16.365,79.819-8.49
					c22.641,5.38,57.667-7.61,78.079-14.55c0.041,22.367-10.57,69.179-10.57,69.179c-16.357,8.32-92.539,11.141-112.673,8.581
					c-8.733-1.11-8.873-13.928-26.199-19.626C502.857,544.544,506.181,526.919,505.157,512.987L505.157,512.987z"/>
				<path style="fill-rule:evenodd;clip-rule:evenodd;fill:#F3A238;" d="M636.537,676.56
					c-4.247,52.166,11.945,101.266,40.083,148.575c-21.981-1.079-40.5,6.155-54.385,24.507
					c-19.42-30.834-48.155-51.841-78.909-82.675v-43.433l38.587-46.974L636.537,676.56L636.537,676.56z"/>
				<path style="fill-rule:evenodd;clip-rule:evenodd;fill:#F3A238;" d="M316.064,630.414
					c12.992,62.853-3.686,147.412-31.825,194.721c21.982-1.079,40.5,6.155,54.386,24.507c19.42-30.834,48.155-51.841,78.909-82.675
					v-43.433l-34.906-43.293l20.302-17.186h14.604v-55.833C385.869,621.965,351.616,631.217,316.064,630.414L316.064,630.414z"/>
				<path style="fill-rule:evenodd;clip-rule:evenodd;fill:#F3A238;" d="M316.064,630.413c33.318,0.054,66.853-3.368,101.47-24.091
					c-5.723-12.763-4.642-24.676,0-36.143C382.416,583.135,348.592,603.208,316.064,630.413z"/>
				<path style="fill-rule:evenodd;clip-rule:evenodd;fill:#AE670A;" d="M636.564,676.78
					c-4.963,52.444-13.894,105.023,3.022,156.373c11.143-5.254,23.238-8.602,37.034-8.55
					C649.919,781.218,637.465,731.202,636.564,676.78z"/>
				<path style="fill-rule:evenodd;clip-rule:evenodd;fill:#AE670A;" d="M338.546,849.642
					c28.924-40.562,55.253-57.102,78.988-83.214v-43.525l-35.004-42.965c10.869,23.013,21.517,48.877,15.3,86.49
					c-27.153,16.804-50.484,44.841-59.284,73.77V849.642L338.546,849.642z"/>
				<path style="fill-rule:evenodd;clip-rule:evenodd;fill:#AE670A;" d="M417.534,570.179c-2.756,9.637,0,36.051,0,36.051v56.819
					h-14.619l-9.006,7.693C394.441,653.483,408.141,583.893,417.534,570.179L417.534,570.179z"/>
				<g>
					<defs>
						<path id="SVGID_00000054248685426755932480000006271979679434138547_" d="M334.792,418.278
							c-14.947-6.073-27.749-14.024-36.673-25.369c-45.828,0.184-76.976,26.063-86.979,67.601
							C245.355,437.991,285.136,417.266,334.792,418.278z"/>
					</defs>
					<clipPath id="SVGID_00000038376318760082789720000009912538069896106112_">
						<use xlink:href="#SVGID_00000054248685426755932480000006271979679434138547_"  style="overflow:visible;"/>
					</clipPath>
					<g style="clip-path:url(#SVGID_00000038376318760082789720000009912538069896106112_);">
						<path style="fill-rule:evenodd;clip-rule:evenodd;fill:#F6B765;" d="M289.837,387.755c3.235,8.107,7.64,15.97,19.757,22.227
							l-19.757-7.139c-10.128-5.348-57.748,12.405-78.697,50.325c-20.445,37.005,16.679-43.186,16.679-43.186L289.837,387.755z"/>
					</g>
				</g>
				<path style="fill-rule:evenodd;clip-rule:evenodd;fill:#F6B765;" d="M290.513,530.823
					c-21.319,17.862-37.239,33.875-15.944,37.149l-27.779,8.641C248.92,557.318,261.229,541.321,290.513,530.823z"/>
				<path style="fill-rule:evenodd;clip-rule:evenodd;fill:#F6B765;" d="M284.242,825.524
					c33.648-53.411,42.049-141.625,31.822-195.11l13.061-10.036c11.946,33.967,0.086,185.088-11.589,211.179
					C307.001,827.107,295.925,825.002,284.242,825.524z"/>
				<path style="fill-rule:evenodd;clip-rule:evenodd;fill:#F6B765;" d="M434.193,208.214l4.211,4.211l-37.333,53.838l3.414,99.842
					c10.881,19.464,25.647,34.018,44.59,43.523c-0.363,3.419-0.501,6.838-0.407,10.257c-14.472-6.475-40.787-24.224-49.874-53.78
					L395.082,264.2L434.193,208.214L434.193,208.214z"/>
				<path style="fill-rule:evenodd;clip-rule:evenodd;fill:#B8E0F5;fill-opacity:0.5;" d="M203.392,498.743
					c-8.715,13.886-16.633,29.464-19.51,49.189l27.847-8.076c-25.489,17.047-36.703,38.519-37.91,63.093
					c2.345,2.856,4.641,5.214,6.906,7.275c1.976-29.786,17.843-52.12,42.644-76.321l-29.719,2.648
					C193.762,523.53,198.653,511.147,203.392,498.743L203.392,498.743z"/>
				<path style="fill-rule:evenodd;clip-rule:evenodd;fill:#B8E0F5;fill-opacity:0.5;" d="M426.297,449.368
					c-6.455,8.678-21.491,18.471-43.292,33.309c25.254-13.354,39.562-12.774,46.389-0.819
					C426.68,471.252,425.681,460.418,426.297,449.368L426.297,449.368z"/>
				<path style="fill-rule:evenodd;clip-rule:evenodd;fill:#F6B765;" d="M476.793,677.441c-24.884,2.374-48.073,6.496-61.438,18.204
					l-12.422-15.96C428.406,678.084,453.104,677.258,476.793,677.441L476.793,677.441z"/>
				<path style="fill-rule:evenodd;clip-rule:evenodd;fill:#AE670A;" d="M663.055,489.947
					c-8.059,31.702-18.212,59.026-33.967,74.636c7.692-0.47,16.124-1.981,23.816-5.316
					C658.351,535.178,662.423,511.743,663.055,489.947L663.055,489.947z"/>
				<path style="fill-rule:evenodd;clip-rule:evenodd;fill:#4C0A19;" d="M476.793,378.566l-7.729-58.545l-11.107,4.649
					l-35.386-19.63v-15.093l44.995,21.694h18.453l44.996-21.694v15.093l-35.386,19.63l-11.107-4.649L476.793,378.566
					L476.793,378.566z"/>
			</g>
		</g>
	</g>
</g>
</svg>
