<svg xmlns="http://www.w3.org/2000/svg" xml:space="preserve" style="enable-background:new 0 0 553.762 442.972" viewBox="0 0 553.76 442.97"><path d="M381.62 330.92c-4.55 2.69-10.55 2.64-15.35.19a73.28 73.28 0 0 1-9.42-5.71 15.48 15.48 0 0 1-13.19.35A40.5 40.5 0 0 1 333 319.5l-6.52 12.73c-1.53 3-4.26 5.03-7.58 5.63a105.16 105.16 0 0 1-51.2-3.4c-8.09-2.64-16.54-6.57-23.66-11.7-3.83 4.16-9.64 5.46-15.72 5.82l-9.01.53c-1.94.75-4.36 2.46-5.56 3.3a10.6 10.6 0 0 1-11.33.5 61.14 61.14 0 0 1-9.07-6.04 44.19 44.19 0 0 1-5.8 10.6l-3.1 4.27-5.29.12c-7.71.18-14.32-3.36-19.7-8.66l-5.3-5.21.22-8.29c.1-3.62-1.03-7.25-3.25-10.13l-2.84-3.65.73-4.57c.13-.81.28-1.62.45-2.42-2.3-.17-4.58-.65-6.78-1.48a10.2 10.2 0 0 1-6.51-8.12c-6.62.49-13.64-.22-18.33-4.43-5.1-4.58-5.34-10.76-2.26-15.4-4.5-.8-8.94-1.9-13.3-3.24l-.72-.22-.67-.32c-7.24-3.48-10.13-12.03-5.48-18.85.6-.88 1.3-1.68 2.08-2.38a79.3 79.3 0 0 1-13.1-8.89l-.1-.09-.1-.09c-6.12-5.37-10.15-14.27-4.56-21.63a13 13 0 0 1 3.1-2.94 49.2 49.2 0 0 1-4.76-6.55c-4.04-6.69-6.28-14.63-4.35-22.38a13.2 13.2 0 0 1 6.1-8.32 164.1 164.1 0 0 1-4.16-11.15c-1.46-4.36.3-9.14 4.16-11.62a9.84 9.84 0 0 1 12.33 1.2c9.64 9.6 19.95 18.28 31.8 24.9l3.27-5.78c-1.44-7.88.57-15.37 6.84-20.73 2.04-3.65 4.37-7 7.48-9.68-1.33-6.06-.52-12.08 3.4-17.42A31.64 31.64 0 0 1 150 118c3.57-3.04 6.54-7.22 9.41-10.91a6.02 6.02 0 0 1 9.96.7 44.53 44.53 0 0 1 5.78-5.7 38.38 38.38 0 0 1 7.65-4.87c-2.38-3.43-4.7-7.25-5.65-10.62-3.4-12.01 1.22-25.88 3.38-37.79.65-3.6 1.11-7.2 2.12-10.74l.03-.13.04-.12a17.57 17.57 0 0 1 9.13-10.51 16.4 16.4 0 0 1 14.45.2c8.12 4.2 10.1 13.27 7.23 21.39-1.38 5.03-2.96 10.01-4.34 15.05l-.34 1.25-.4 1.6c-.62 2.48-1.16 5-1.54 7.53l-.2 1.29-.12 1.21c-.36 3.44-.38 7 .4 10.39.47 2.09 2.02 4.63 3.44 6.81 6.74.97 13.3 2.74 19.92 4.37 2.3.57 4.08 2.3 4.77 4.46 3.97.56 7.91 1.34 11.83 2.28a6.66 6.66 0 0 1 4.31 3.31c1.43-.36 2.87-.76 4.34-1.15a6.68 6.68 0 0 1 6.08 1.43 24.53 24.53 0 0 1 16.11-1.5c2.2-.9 4.5-1.35 6.78-1.28a14.58 14.58 0 0 1-8.2-10.46 9.46 9.46 0 0 1-.18-2.8 16.24 16.24 0 0 1-2.02-7.37c-4.82-6.28-5.27-14.16-4.3-21.95a9.31 9.31 0 0 1 6.12-7.63 34.74 34.74 0 0 1 2.25-4.8 9.3 9.3 0 0 1 8.56-4.74 25.96 25.96 0 0 1 6.04-5.4 9.31 9.31 0 0 1 11.56 1.16 9.3 9.3 0 0 1 1.5 11.52c-1.9 3.19-3.62 7.24-2.83 11.03.33 1.58 1.3 3.24 2.32 4.74 4.01-2.3 8.01-3.8 12.75-4.42 3.32-4.57 8.5-7.8 14.35-6.25 5.69 1.51 8.73 6.65 9.64 12.12a25.56 25.56 0 0 1 9.22 12.54 15.52 15.52 0 0 0 3.9-3.33c2.44-3.3 3.03-7.95 3.03-11.95a9.35 9.35 0 0 1 17.88-3.81 26.1 26.1 0 0 1 2.02 7.14 9.32 9.32 0 0 1 4.2 8.02 38.3 38.3 0 0 1-.49 5.4 9.35 9.35 0 0 1 1.27 8.79l-.5 1.35c20.23-4.34 42.74-.39 54.67 18.25a5.87 5.87 0 0 1-7.76 8.34 39.08 39.08 0 0 0-17.02-4.9c4.14 3.8 7.11 8.92 9.06 15.2.15.46.23.95.25 1.43 5.99 7.19 8.7 16.96 6 26.11a25.61 25.61 0 0 1-12.26 15.2c-10.55 5.91-22.6 5.72-33.36.44a5.86 5.86 0 0 1 1.9-11.07c3.22-.4 6.46-.9 9.6-1.67 1.45-.36 6.02-1.67 7.36-2.95-.57-1.9-3.77-2.97-5.4-3.31-3.29-.7-8.82.32-12.18.8a77.5 77.5 0 0 1-9.85.87v.53c0 .7-.08 1.4-.23 2.08a9.1 9.1 0 0 1-.17 1.81c4.85 11.31 14.26 24.27 22.5 33.84a73.1 73.1 0 0 1 3.54-1.08c8.55-2.4 17.27-3.72 26.07-4.84 7.02-.9 14.08-1.7 21.03-3.08 7.36-1.46 14.57-3.6 21.47-6.57 22.12-9.48 39.93-24.23 56.5-41.39a10.99 10.99 0 0 1 13.64-1.78 11 11 0 0 1 4.78 12.9 209.26 209.26 0 0 1-5.57 15.01l.32.16a14.53 14.53 0 0 1 7.63 9.67c2.34 9.3-.48 18.93-5.22 26.99a64.16 64.16 0 0 1-6.8 9.39c1.78.92 3.4 2.2 4.73 3.91 6.62 8.46 1.54 18.96-5.35 25.3l-.12.12-.12.1a102.5 102.5 0 0 1-17.91 12.6c1.5 1 2.8 2.28 3.85 3.77 5.44 7.75 1.94 17.49-6.1 21.68l-.73.39-.79.27a139.81 139.81 0 0 1-18.75 5.15c4.83 5.26 5.17 13.23-1.17 19.18-5.78 5.42-14.83 6.39-23.17 5.95a11.72 11.72 0 0 1-7.21 10.6c-6.44 2.72-13.4 2.82-20.12 1.48-.3 1.3-.84 2.58-1.61 3.8-2.87 4.55-8.03 6.5-13.25 6.17a47.14 47.14 0 0 1-12.77-2.66 13 13 0 0 1-1.35 2.29c-4.13 5.61-11.56 6.74-17.91 4.86l-.17-.05-.16-.05a56.46 56.46 0 0 1-11.36-5.17" style="fill-rule:evenodd;clip-rule:evenodd;fill:silver"/><path d="m285.63 265.61 99.05-203.85c3.5-7.2 6.7-16.24 3.46-24.12-3.34-8.1-13.46-14.7-20.58-19.2l-15.53-9.86h164.94l-27.8 10.35c-5.69 2.11-10.9 4.84-15.46 8.89-4.69 4.15-8.28 9.31-11.45 14.67-4.52 7.66-8.4 15.93-12.29 23.93L276.13 424.95 100.73 66.44c-13.23-27.05-19.77-36.9-48.7-47.5L23.78 8.58h197.56l-19 10.06c-7.38 3.9-18.5 10.26-21.25 18.78-2.48 7.7 1.65 17.5 4.99 24.33l99.54 203.86z" style="fill-rule:evenodd;clip-rule:evenodd"/><path d="m285.61 253.42 94.27-194c2.73-5.62 5.87-13.57 3.32-19.74-3.9-9.49-23.26-21.1-31.91-26.59l-15.53-9.85h194.78l-21.91 10.18a232.24 232.24 0 0 0-16.21 8.35c-4.96 2.8-10.92 6.28-15.17 10.05a40.13 40.13 0 0 0-4.42 4.63 69.68 69.68 0 0 0-5.97 8.76c-4.48 7.59-8.24 15.61-12.08 23.54l-178.63 368.4L95.95 68.77c-4.88-9.95-10.92-22.02-18.68-30.05C63.54 24.55 28.65 11.68 8.5 3.24h228.42l-16.97 9.95c-8.08 4.73-15.84 9.95-23.64 15.14-3.69 2.46-8.73 6.39-10.13 10.73-1.93 5.97 2.11 15.03 4.7 20.34l94.73 194.02z" style="fill-rule:evenodd;clip-rule:evenodd;fill:silver"/><path d="m285.63 265.61 99.05-203.85c3.5-7.2 6.7-16.24 3.46-24.12-4.53-11-23.4-22.34-34-29.06h152.24c-9.05 4.2-25.34 12.75-32.67 19.24a45.2 45.2 0 0 0-5 5.25 75.01 75.01 0 0 0-6.45 9.42c-4.52 7.66-8.4 15.93-12.29 23.93L276.13 424.95 100.73 66.44C93.38 51.38 87.7 41.84 81.1 35.02 69.3 22.82 44.9 14 32.22 8.58h185.03c-8.37 4.91-16.08 10.1-23.9 15.3-5.39 3.6-10.5 8.13-12.25 13.54-2.48 7.7 1.65 17.5 4.99 24.33l99.54 203.86z" style="fill-rule:evenodd;clip-rule:evenodd;fill:#3a003a"/><path d="M487.31 13.92H370.42c20.57 13.04 31.6 24.08 19.06 50.17L285.64 277.8 181.29 64.1c-12.04-25.09-7.03-36.62 18.56-50.17H53.86C83.96 24.96 91.5 35.5 105.53 64.1l170.58 348.66L445.17 64.1c14.05-29.1 20.57-42.14 42.14-50.17" style="fill-rule:evenodd;clip-rule:evenodd;fill:#008b8b"/><path d="M280.84 345.6 126.19 19.93H80.06c13.75 9.25 20.93 21.2 30.87 41.52l165.15 337.59 4.76-53.44 150.5-325.67h-42.58c4.18 3.84 7.75 8.24 9.87 13.39 4.62 11.22 1.32 22.97-3.74 33.4l-109.24 224.8-4.81 54.08z" style="fill-rule:evenodd;clip-rule:evenodd;fill:#006363"/><path d="M233.06 218.77c-6.8-3.54-13.42-7.67-20.04-11.4-7.17-4.05-14.02-7.76-22.17-9.7-6.7-1.59-13.45-2.33-20.36-2.92-5.76-.49-11.52-.91-17.21-1.8a87.62 87.62 0 0 1-18.14-4.8c-18.77-7.27-33.5-19.04-46.85-32.32a4.5 4.5 0 0 0-5.67-.5 4.7 4.7 0 0 0-1.98 5.44 148.66 148.66 0 0 0 6.52 16.4 8.03 8.03 0 0 0-4.47.9 7.84 7.84 0 0 0-3.88 5.15c-1.6 6.45.51 12.99 3.74 18.33A50.9 50.9 0 0 0 93.9 214.3l-.25-.1-.51-.19-.55-.07c-3.2-.43-6.6.32-8.7 3.09-3.81 5.02.09 11.1 3.83 14.39l.06.05.05.04c7.55 6.22 16.04 11.02 25.55 13.71-2.84.47-5.68.92-8.53 1.34l-.45.06-.44.15a8.15 8.15 0 0 0-4.12 3.11c-2.9 4.24-.78 9.05 3.37 11.03l.31.15.33.1c9.64 2.95 19.15 4.58 28.54 4.36-2.55 1.16-5.11 2.3-7.69 3.42-5.86 2.11-7.77 7.97-3.28 12 5.09 4.56 15.51 3.25 22.05 2.02l1.26-.24-.86.6a5.53 5.53 0 0 0-2.43 5.03 4.87 4.87 0 0 0 3.15 4.11c6.15 2.35 13.23 1.03 19.6-1.55-1.18 2.12-1.54 4.52-.15 6.66 1.43 2.21 4.1 2.96 6.76 2.68a37.2 37.2 0 0 0 14.15-4.66c-.5 1.9-.3 3.85.93 5.48 2.19 2.88 6.33 3.08 9.74 1.94l.07-.03.07-.03a42.7 42.7 0 0 0 10.82-5.86c2.22 2.86 6.7 3.11 10.06 1.25a55.15 55.15 0 0 0 9.56-6.61c1.83 2.22 5.4 3.06 8.94 1.38a28.98 28.98 0 0 0 10.88-8.14c2.58 1.38 4.3.64 6.88-.92 2.61-1.58 4.82-4 6.48-6.49a30.3 30.3 0 0 0 3.65-7.7c.66.1 1.35.1 2.05.04 3.9-.4 6.89-3.1 8.43-6.54 1.97-4.38 1.7-9.74.96-14.19l-.18-1.04c3.98-4.15 5.17-10.68 4.58-16.4 1.9-2.4 4.03-1.9 6.59-.3-2.41-3-9.32-7.02-9.53-7.03-15.35-.73-31.06.53-42.87-5.63" style="fill-rule:evenodd;clip-rule:evenodd;fill:#3a003a"/><path d="M275.76 235.29c2.22-3.34 5.84-7 8.05-10.34-1.5-3.18-5.3-3.6-8.8-1.22-33.73 15.05-46.4 1.2-64.47-9.46-42.5-25.07-64.73 3.87-123.64-53.65a.8.8 0 0 0-1-.1.76.76 0 0 0-.31.92c23.13 61.1 66.58 46.13 102.67 58.71 9.4 3.28 17.47 10.2 26.59 15.27 16.82 9.37 36.97 15.99 60.91-.13" style="fill-rule:evenodd;clip-rule:evenodd;fill:#fff"/><path d="M91.6 217c20.25 8.33 41.02 13.06 62.73 11.3a12.72 12.72 0 0 0 4.34 2.7c-16.76 4.48-32.97 4.3-48.61-.61a.23.23 0 0 0-.29.13c-.04.11.02.23.13.28 15.13 6.31 32.14 7.45 51.57 2a6.4 6.4 0 0 0 1.24 3.83c-27.08 10.09-51.01 6.72-71.66-10.66-5.33-4.78-5.17-9.93.56-8.96m73.06 34.23c-19.75 11.29-39.48 9.92-59.2 3.25-3.3-1.67-2.47-4.7-.28-5.33 19.96-2.07 39.72-5.18 59-10.8.96.92 2.16 1.7 3.51 2.33-12.85 6.21-26.45 9.8-40.57 11.56a.22.22 0 0 0-.2.25c0 .11.11.2.23.2 15.64-.36 30.58-3.23 44.23-10.67.42.12.84.23 1.27.33a46.97 46.97 0 0 0-4.83 3.87c-1.47 1.39-2.85 3.12-3.16 5.01zm-38.57 20.17c13.04-5.03 26.07-10.34 38.91-17.47l.08.15c.48 1 1.28 1.81 2.3 2.34l.26.14.28.1c.38.14.77.27 1.16.39a137.18 137.18 0 0 1-21.5 12.41.22.22 0 0 0-.1.29c.04.1.17.16.28.12 8.9-3.1 17.27-7 24.82-12.08 3.05.4 6.32.26 9.65-.25-7.17 7.01-15.04 12.28-23.7 15.63-6.77 2.62-28.22 7.35-33.9 2.17-1.5-1.37-1.59-3.07 1.46-3.94zm20.15 14.2c12.47-7.89 24.99-16.41 36.54-26.62a5.76 5.76 0 0 0 2.45 2.48 134.55 134.55 0 0 1-16.78 16 .22.22 0 0 0-.04.31c.08.1.21.12.31.05 7-4.55 13.41-9.6 19.01-15.4a18.18 18.18 0 0 0 5.78.47c-16.28 18.29-36.04 28.26-47.18 23.68a.54.54 0 0 1-.35-.46c-.02-.2.07-.4.26-.52zm22.63 5.47c9.25-8.54 18.14-17.51 25.98-27.7a15.18 15.18 0 0 0 3.47 1.8 136.32 136.32 0 0 1-10.23 15.73c-.07.1-.06.23.04.3.1.08.23.06.31-.02 4.52-4.88 8.6-9.98 12.1-15.4 2.18.43 4.33.32 6.42-.18-6.3 12.96-20.82 28.25-36.73 29.21-2.38.15-3.73-1.16-1.36-3.74zm20.77 4.32c7.19-9.9 14.14-19.85 19.1-30.31l1.18-.45c.11.85.41 1.69.95 2.47.35.5.73.95 1.15 1.35a138.45 138.45 0 0 1-5.37 12.9c-.05.1 0 .23.1.28.11.06.25.02.3-.08a117.4 117.4 0 0 0 6.46-11.99 10.03 10.03 0 0 0 6.25 1.22c-5 13.93-13.17 23.81-25.92 27.89-2.95.85-6.05-.12-4.2-3.28zm20.29-2.27c4.69-7.42 9.44-14.83 11.79-22.74.62-.18 1.22-.42 1.8-.71a51.4 51.4 0 0 0 3.74-2.03c-.8 3.36-1.73 6.7-2.79 10.03-.04.12.03.24.14.28.12.03.24-.02.29-.13 1.66-3.78 3.13-7.6 4.36-11.45a39.25 39.25 0 0 0 4.24-3.3c.41.87 1 1.66 1.8 2.3-1.36 14.87-9.47 24.03-21.39 29.96-2.5 1.24-5.15-.21-3.98-2.2zm19.6-4.63c3.46-7.12 6.63-14.3 7.66-22.03 1.57.59 3.22.53 4.82.1-.32 2.7-.73 5.39-1.21 8.08-.02.12.05.23.17.25.12.03.24-.04.27-.15a121.6 121.6 0 0 0 2.2-8.66c.83-.34 1.64-.76 2.4-1.22l.12-.07.1-.07c1-.68 1.9-1.4 2.75-2.15-.47 14.78-5.75 24.3-16.11 28.28-2.06.9-4.37 0-3.17-2.36zm17.85-8.02c2.03-6.65 3.48-13.42 3.82-20.38.51-.62 1-1.27 1.44-1.93.86.27 1.75.38 2.64.36.1 3.14.1 6.3-.01 9.46 0 .12.09.22.2.23.13 0 .24-.08.25-.2.46-3.22.8-6.43.99-9.63a12.5 12.5 0 0 0 3.48-1.2c3.43 23.9-15.69 31.96-12.8 23.3zm14.9-14.14c.43-3.6.46-7.12.16-10.59l.35-.27c.79-.64 1.5-1.34 2.15-2.1.4.27.81.5 1.23.7.16 1.81.28 3.63.37 5.45.01.12.11.21.23.21.13 0 .22-.1.23-.2.1-1.7.16-3.37.18-5.05a8.2 8.2 0 0 0 3.2.4c1.83 10.68-1.8 14.2-4.79 14.37-1.97.11-3.65-1.22-3.3-2.92zm-156.93-66.27c9.53 8.05 20.4 12.49 32.8 15.21a220.65 220.65 0 0 0 17.06 2.86 9.39 9.39 0 0 0-2.04 2.45c-18.34.33-34.68-4.07-49-13.3a.23.23 0 0 0-.3.06c-.07.1-.05.23.04.3 12.69 9.93 28.55 15.47 48.47 15.42a6.33 6.33 0 0 0 .62 3.39c-62.28 5.86-83.44-55.47-62.39-43.71a73.2 73.2 0 0 0 14.74 17.32z" style="fill-rule:evenodd;clip-rule:evenodd;fill:#fff"/><path d="M262.6 262.6a21.7 21.7 0 0 0 3.63-2.28c1.53.4 3.1.52 4.64.4.05-1.65-.1-3.58-.48-5.83a8.19 8.19 0 0 1-3.2-.4 125.5 125.5 0 0 1-.18 5.04c0 .12-.1.21-.22.21a.23.23 0 0 1-.24-.2c-.09-1.83-.21-3.65-.37-5.46-.42-.2-.83-.43-1.23-.7a16.54 16.54 0 0 1-2.5 2.37c.2 2.26.25 4.54.15 6.84m-6.4 1.78c1.5-.1 2.98-.43 4.4-.94.04-1.95-.08-4.03-.4-6.25-1.1.57-2.28 1-3.48 1.21-.12 1.99-.3 3.98-.52 5.98zm-6.02 4.7a30.39 30.39 0 0 0 5.14-4.66h.03c.02-1.97 0-3.92-.06-5.88-.9.02-1.78-.09-2.64-.36-.44.66-.93 1.31-1.44 1.93a71.8 71.8 0 0 1-1.03 8.98zm-8.32 3.53a19 19 0 0 0 6.17-2.16c.44-2.43.7-5.05.79-7.86a25.8 25.8 0 0 1-2.75 2.14l-.1.08-.12.07c-.76.46-1.57.88-2.4 1.22-.47 2.17-1 4.35-1.6 6.51zm-5.83-.35c1.68.5 3.4.62 5.11.45.34-2.04.63-4.09.88-6.13a7.8 7.8 0 0 1-4.82-.1 46.03 46.03 0 0 1-1.17 5.78zm-9.92 2.75.1-.05a54.06 54.06 0 0 0 6.87-4.02c.4.24.8.46 1.2.65.48-1.95.83-4 1.03-6.2a6.53 6.53 0 0 1-1.8-2.3 39.5 39.5 0 0 1-4.24 3.3 114.6 114.6 0 0 1-3.16 8.62zm-6.77 1.72a17.3 17.3 0 0 0 5.84-1.3c.77-2.58 1.47-5.17 2.08-7.77-1.2.72-2.44 1.4-3.72 2.03-.59.29-1.2.53-1.81.71a49.86 49.86 0 0 1-2.4 6.33zm-8.41-1.91a15.61 15.61 0 0 0 6.41 1.88 67.2 67.2 0 0 0 2.43-5.9c-2.2.26-4.42-.14-6.25-1.22a109.3 109.3 0 0 1-2.6 5.24zm-5.7-2.94c.6-.05 1.2-.13 1.79-.23.84.98 1.8 1.81 2.83 2.51.78-1.88 1.5-3.78 2.19-5.7-.43-.4-.81-.84-1.15-1.34a5.7 5.7 0 0 1-.96-2.48c-.4.17-.79.32-1.19.46a112.1 112.1 0 0 1-3.5 6.78zm-8.22-.96a20.74 20.74 0 0 0 6.33 1.04 56.1 56.1 0 0 0 3.63-6.34c-2.09.5-4.24.6-6.43.19a98.68 98.68 0 0 1-3.53 5.11zm-6.48-2.15c.67.05 1.33.07 1.99.06.9.56 1.85 1.05 2.82 1.47 1.04-1.68 2.03-3.38 2.99-5.1a15.13 15.13 0 0 1-3.47-1.81 165.25 165.25 0 0 1-4.33 5.38zm-7.43-1.86c1.57.77 3.3 1.28 5.08 1.58 1.81-1.76 3.6-3.62 5.34-5.58-.38.03-.75.04-1.12.05-1.46.02-3.12-.12-4.66-.51a93.7 93.7 0 0 1-4.64 4.46zm-6.1-3c.66 0 1.34-.03 2.01-.07.65.76 1.4 1.42 2.23 1.99 1.37-1.42 2.7-2.87 4-4.35a5.75 5.75 0 0 1-2.45-2.48 206.57 206.57 0 0 1-5.8 4.92zm-11.38-1.85.34.12a29.08 29.08 0 0 0 9 1.71 79.52 79.52 0 0 0 7.28-6.33c-3.33.51-6.6.65-9.65.25a91.42 91.42 0 0 1-6.97 4.25zm-5.76-5.35a11.09 11.09 0 0 0 3.58 4.14 125.3 125.3 0 0 0 5.65-3.78c-.4-.12-.78-.25-1.15-.39l-.28-.1-.27-.14a5.16 5.16 0 0 1-2.37-2.5c-1.72.96-3.44 1.88-5.16 2.77zm0-9.53a10.89 10.89 0 0 0-.9 6.99 68.5 68.5 0 0 0 5.71-2.92c.31-1.89 1.7-3.62 3.17-5.01a46.96 46.96 0 0 1 4.82-3.87c-.42-.1-.85-.2-1.27-.32a80.38 80.38 0 0 1-11.53 5.13zm-1.86-7.1a17.06 17.06 0 0 0 3.29 3.48c2.15-.88 4.3-1.83 6.41-2.86a13.11 13.11 0 0 1-3.5-2.33c-2.07.6-4.13 1.17-6.2 1.71zm-4.86-5.3c.92.55 1.9 1.05 2.95 1.49.25.79.57 1.55.97 2.3a103.3 103.3 0 0 0 5.66-1.93 6.4 6.4 0 0 1-1.25-3.83c-2.83.79-5.6 1.44-8.33 1.96zm-5.6-6.13c.7 1.61 1.73 3 3 4.18a98.7 98.7 0 0 0 8.13-1.82 12.73 12.73 0 0 1-4.34-2.7c-2.27.18-4.54.3-6.8.34zm-1.06-5.73c1.93.11 3.9.16 5.9.16a6.33 6.33 0 0 0 .62 3.39c-2.08.2-4.1.3-6.1.36a13.31 13.31 0 0 1-.42-3.9zm1.86-5.77c2.28.35 4.58.68 6.88 1a9.37 9.37 0 0 0-2.04 2.45c-2.14.04-4.25.01-6.33-.08.32-1.2.83-2.33 1.49-3.37z" style="fill-rule:evenodd;clip-rule:evenodd;fill:#e1e5e5"/><path d="M263.66 245.09c-.72 8.08-13.3 13.67-11.03 3.09a55.07 55.07 0 0 0 11.03-3.1m-12.16 3.28a18.79 18.79 0 0 1-8.2 12.7c-9.02 5.48-5.26-7.91-4.15-12.44 4.21.43 8.33.32 12.35-.26zm-13.65.11c-2.68 7.85-8.55 13.3-16.48 17.2-2.45 1.22-5.18.74-6.43-1.08-1.86-2.7 6.78-13.25 10.91-19.02 1.53.54 3.08 1.03 4.66 1.45 2.48.67 4.93 1.15 7.34 1.45zm-13.28-3.37c-11.42 15.41-20.13 19.03-26.6 14.75-1.04-.53 3.9-2.49 4.51-4.3-7.72 4.75-18.2 2.74-14.72.01 3.69-2.88 18.6-8.72 26.1-15.38a87.6 87.6 0 0 0 10.7 4.92zm-12.46-5.89c-12.85 10.25-32.4 16.94-42.33 13.24-2.36-1.23 7.66-8.04 12.18-10.73 7.5-1.81 14.8-4.28 21.87-7.64 1.15.76 2.3 1.51 3.44 2.23 1.59 1 3.2 1.98 4.84 2.9zm-10-6.27c-6.58 3.59-13.07 5.65-18.54 5.87-2.63.1-12.25-.12-15.92-3.67-4.72-4.56 4.08-3.91 6.81-4.21 6.12-.68 12.98-1.5 18.5-3.62 3.14 1.69 6.18 3.67 9.15 5.63zm-11.48-6.82c-18.19 6.34-44.74.22-28.3-7 8.26 1.19 16.45 2.6 24.18 5.3a40.3 40.3 0 0 1 4.12 1.7zm83.13 13.95c2.42 11.06-6.37 14.15-9.02 4.58a69.39 69.39 0 0 0 9.02-4.58z" style="fill-rule:evenodd;clip-rule:evenodd;fill:#fff"/><path d="M263.66 245.09c-.72 8.08-13.3 13.67-11.03 3.09a55.07 55.07 0 0 0 11.03-3.1m-25.88 9.7c3.7.55 7.38.78 11.06.63a19.88 19.88 0 0 0 2.66-7.05c-4.02.58-8.14.69-12.35.26-.35 1.45-.97 3.8-1.37 6.15zm-15.56-4.28a74.94 74.94 0 0 0 12.8 3.79 26.08 26.08 0 0 0 2.83-5.81c-2.41-.31-4.86-.8-7.34-1.46a63.57 63.57 0 0 1-4.66-1.45c-1.01 1.42-2.3 3.12-3.63 4.93zm-13.5-6.5.81.45c3.78 2.1 7.52 3.93 11.24 5.47a94.55 94.55 0 0 0 3.8-4.82 87.69 87.69 0 0 1-10.7-4.92 42.73 42.73 0 0 1-5.15 3.81zm-11.2-7.18c3.19 2.07 6.34 4.23 9.4 6.11a64.52 64.52 0 0 0 5.2-3.72 113.21 113.21 0 0 1-8.3-5.13c-2.07.99-4.17 1.9-6.3 2.74zm-13.67-7.14.8.27c3.76 1.31 7.57 3.5 11.36 5.9 2-.82 4.05-1.79 6.1-2.9a120 120 0 0 0-9.15-5.64 49.03 49.03 0 0 1-9.11 2.37zm-26.55-5.41c7.66 1.05 15.3 2.17 22.53 4.18a48.65 48.65 0 0 0 10.8-2.33 40.3 40.3 0 0 0-4.12-1.7c-7.73-2.7-15.92-4.11-24.18-5.3-4.22 1.85-5.6 3.63-5.03 5.15zm116.46 15.8c1.02 4.64.06 7.88-1.6 9.36-.65.32-1.3.62-1.96.91-2.03.2-4.32-1.56-5.46-5.7a69.39 69.39 0 0 0 9.02-4.57z" style="fill-rule:evenodd;clip-rule:evenodd;fill:#e1e5e5"/><path d="M240.3 235.68c2.74.34 5.71.46 8.99.29 4.12-.21 8.71-.87 13.9-2.1l.3-.06.34-.09c1.45-.37 2.9-.83 4.31-1.33 1.37-.48 2.72-1 4.01-1.49l2.36-.89a66.13 66.13 0 0 1 1.66-.59c1.95-.65 3.68-1.09 5.05-1.03 2.78.1 4.12 2.19 3.01 8.4-1.46-1.62-3.97-3.46-5.98-4.81l-.5.62a38 38 0 0 0-1.99 2.7 75.36 75.36 0 0 1-4.72 2.9 61.35 61.35 0 0 1-3.83 2l-.43.2a54.28 54.28 0 0 1-8.59 3.11c-1.63.43-3.25.77-4.84 1.01l-.2.03a45.58 45.58 0 0 1-5.47.5c-6.97.2-13.55-1.22-19.74-3.49a78.53 78.53 0 0 1-7.69-3.3c-1.59-.78-3.15-1.6-4.68-2.44l-.72-.4c-9.12-5.07-17.19-12-26.59-15.27-32.7-11.4-71.45-.17-95.65-43.44 23.82 33.07 67.56 27.63 101.78 39.97.2.07.4 0 .5-.16a.4.4 0 0 0-.04-.51c-.44-.46-.89-.86-1.36-1.23a.4.4 0 0 1-.11-.5.43.43 0 0 1 .48-.23 47.08 47.08 0 0 1 13.6 5.48c2.42 1.42 4.72 2.95 6.99 4.5 2.34 1.6 4.66 3.2 7.1 4.7 5.28 3.26 11.08 6 18.75 6.95" style="fill-rule:evenodd;clip-rule:evenodd;fill:#e1e5e5"/><path d="m329.14 90.85-.58-4.66a.52.52 0 0 0-.52-.45c-.27 0-.5.2-.54.45l-.37 2.18a.54.54 0 0 1-.35.42.52.52 0 0 1-.53-.08l-1-.81a.54.54 0 0 0-.7.02.53.53 0 0 0-.1.68l1.97 3.11c.07.11.1.24.08.37l-2.68 15.75c-2.1 12.38 4.23 19.92 16.05 22.7l2.75.64c.26.06.53-.08.63-.33l.02-.05 1.02.67c.18.12.4.12.6 0a.53.53 0 0 0 .23-.55l-.08-.49a.53.53 0 0 1 .2-.51.53.53 0 0 1 .54-.08c1.24.5 2.5.92 3.8 1.24.08.02.15.05.2.1l3.55 2.82.75.57c.2.15.27.4.16.64a.55.55 0 0 1-.58.32l-2.64-.42a.54.54 0 0 0-.55.25c-.12.2-.11.42.02.6l3.56 4.7a.54.54 0 0 1-.52.85l-9.74-1.39a.55.55 0 0 0-.6.38.5.5 0 0 0 .27.63l20.32 9.29c5.86 2.68 12.73 1.88 19 1.01 4.22-.58 9.9-1.6 14.04-.72 4.4.94 9.28 3.57 9.68 8.52.56 6.77-15.17 9.14-21.71 9.93a.54.54 0 0 0-.46.42.5.5 0 0 0 .26.56c9.26 4.53 19.42 4.66 28.4-.3a20.5 20.5 0 0 0 9.75-12.05c2.4-8.14-.59-16.7-6.18-22.54-.51-.56-1.03-1.08-1.55-1.6l.76.34c.2.08.42.04.58-.1a.53.53 0 0 0 .16-.56c-3.35-10.78-9.82-17.12-20.79-18.74a.51.51 0 0 1-.44-.48.54.54 0 0 1 .39-.55c13.08-3.95 24.9-3.05 36.44 3.19.22.12.48.07.65-.11.17-.18.2-.45.07-.65-11.81-18.46-35.97-20.67-56.4-13.91-4.8 1.58-9.67 3.6-14.63 4.5-8.32 1.51-14.63-.94-21-6.08l-11.46-9.28a.5.5 0 0 1-.16-.23l-.01-.02a.58.58 0 0 1-.03-.1" style="fill-rule:evenodd;clip-rule:evenodd;fill:#3a003a"/><path d="M338.83 126.34c-8.35-2.54-12.34-7.83-11.54-16.15a.28.28 0 0 1 .26-.24c.13-.01.25.08.28.2 1.34 6.9 5.25 12.01 11.23 15.71.12.07.16.21.1.34a.27.27 0 0 1-.33.14m1.32-4.78c6.49 6.53 15.45 7.73 25.27 6.04a.27.27 0 0 0 .23-.27c0-.13-.1-.24-.23-.25-9.48-.93-17.53-3.94-22.65-9.22a.27.27 0 0 0-.34-.02.27.27 0 0 0-.1.33 31.21 31.21 0 0 0 2.55 4.3c.08.1.06.24-.03.34-.1.1-.24.1-.34.03-6.15-4.2-10.99-9.34-13.67-15.98a.26.26 0 0 0-.3-.15.27.27 0 0 0-.21.26c-.23 6.76 2.86 12.35 9.23 16.78.1.06.2.06.3 0 .1-.06.14-.17.12-.28l-.29-1.67a.27.27 0 0 1 .14-.28c.1-.06.23-.04.32.04zm24.88 2.32c-3-.34-5.44-.92-7.6-1.6a.26.26 0 0 1-.19-.3.27.27 0 0 1 .27-.23c19.34-.6 42.34-11.96 53.54 7.55a.3.3 0 0 1-.07.35.27.27 0 0 1-.36-.02c-13.86-14.28-28.92-6.44-45.55-5.75h-.04zm48.72 13.92c-8.5-9.23-20.27-12.17-32.78-11.77a.27.27 0 0 0-.27.26c0 .14.1.26.24.27 8.86.7 17.28 2.39 23.76 7.15.11.08.14.22.07.34a.27.27 0 0 1-.35.11c-14.48-6.76-31.78 1.5-47.21-2.67a.27.27 0 0 0-.32.14.26.26 0 0 0 .09.33c8.84 6 20.12 3.52 30.5 3.28 9.97-.23 19.4.6 26.2 9.22.08.1.08.25-.02.35a.27.27 0 0 1-.35.04c-18.41-12.48-35.89-2.04-54.22-4.65a.27.27 0 0 0-.27.13c-.06.1-.05.22.03.3 4.7 5.32 14.7 4.23 21.9 3.4.13 0 .25.08.28.2a.27.27 0 0 1-.17.32c-4.47 1.68-9.2 2.8-13.48 2.63a.27.27 0 0 0-.28.22c-.03.13.05.26.18.3 9.12 2.75 21.5-2.56 30.41-.66 7 1.49 12.08 5.76 12.57 11.78.3 3.56-.86 8.79-12.27 10.64a.27.27 0 0 0-.23.3c.01.14.13.24.27.23 23.35-1.01 26.76-20.64 15.72-32.19zm-70.31-28.07a36.92 36.92 0 0 1-4.12-4.92.26.26 0 0 1 .04-.35c.1-.09.24-.1.35-.02 20.22 15.18 33.84-1.75 52.2-1.53.14 0 .25.1.27.23a.27.27 0 0 1-.2.3 144.01 144.01 0 0 0-21.19 7.87.27.27 0 0 0-.14.32c.03.13.15.2.29.19 13.28-1.92 34.48-15.65 51.83-2.49.1.08.13.23.07.34a.27.27 0 0 1-.35.12c-18.58-8.19-44.8 10.6-71.54 5.45a.28.28 0 0 0-.3.18c-.05.13.01.27.13.32a28.63 28.63 0 0 0 7.6 2.26c.14.02.23.13.23.27 0 .13-.11.24-.24.26-11.26 1.4-16.7-3.22-19.44-10.66a.27.27 0 0 1 .1-.31c.1-.07.24-.07.33.02a17.69 17.69 0 0 0 3.76 2.58c.11.06.26.03.34-.08a.26.26 0 0 0-.02-.35z" style="fill-rule:evenodd;clip-rule:evenodd;fill:#5d0d5d"/><path d="m380.89 217.02-.91.46c-3 1.52-5.92 3.15-8.85 4.77l.03.05-4.78 2.56-.64.35c-1 .59-2.01 1.55-2.85 2.33-2.16 2-4.2 3.85-6.97 4.98-1.46.59-3.15 1.8-4.42 2.71-2.15 1.56-4.23 3.21-6.34 4.81-4.87 3.7-11.75 8.82-18.16 8.3-11.16-.9-22.01-5.4-31.73-10.76l-.35-.2-.32-.24a10.4 10.4 0 0 0-.72-.5l-2.95-1.93 16.12-92.06 5.06.64 48.52 6.18 4 .51.6 3.98c2.34 15.23 19.64 38.04 29.93 49.25l5.45 5.93-7.58 2.7a111.89 111.89 0 0 0-11.25 4.75l-.9.43z" style="fill-rule:evenodd;clip-rule:evenodd;fill:#3a003a"/><path d="m311.44 148.59 48.52 6.18c2.23 14.52 17.14 36.66 31.27 52.05-4 1.43-7.92 3.09-11.78 4.96-6.92-6.52-13.51-13.78-16.1-18.18a.3.3 0 0 0-.4-.11.3.3 0 0 0-.13.39c2.14 4.7 8.16 12.04 14.74 18.84-4.36 2.21-8.66 4.7-13 7.06-2.36-3.04-4.19-5.8-5.09-7.88a.3.3 0 0 0-.38-.17.3.3 0 0 0-.18.37c.7 2.25 2.33 5.13 4.49 8.3-3.46 1.86-5.9 5.71-9.49 7.17-6.98 2.82-18.95 16.06-26.49 15.45-10.34-.83-20.57-5.16-29.57-10.11-.35-.27-.7-.51-1.06-.75l14.64-83.57z" style="fill-rule:evenodd;clip-rule:evenodd;fill:#5d0d5d"/><path d="M322.76 199.04a85.35 85.35 0 0 1 8.46-2.66l.49-.13h.5c.77-.02 1.55 0 2.31.05-.35-2.33-.77-4.61-1.12-6.86-.8 1.65-1.55 3.32-2.32 5a4.2 4.2 0 0 1-2.6 2.28c-2.27.68-4.08 1.12-5.76 1.96v.04l.01.02.01.13v.04l.01.08v.05zm-14.24 22.78-.12-.67a9.38 9.38 0 0 0-1.49-3.53 12.77 12.77 0 0 0-1.69-2.03l-1.12 1.67-3.17-1.66c-.81-.42-2.35-1.02-3.23-.5-.1.06-.2.13-.27.22l-.96 1.11 8.39 6.46.01.01-18.59-4.7-.15-.04-.04-.01-.04-.01-.04-.01H286l-.02-.01-.04-.01-.92-.25H285l-.02-.01-.04-.01-.42-.12h-.01l-.03-.01-.04-.02-.2-.05-.03-.01-.04-.02h-.04l-.04-.02-3.9 6h-.01l4.6-3.9-8.14 2.64-4.52.03 4.49-.04-4.52.03 4.46-.05c-.15-.06-4.8-.09-4.94-.15l-.03-.01-.03-.01-.03-.01-.03-.02h-.02l-.03-.02-.03-.01-.03-.01-.23-.1-.02-.01-.03-.01-.03-.02h-.03l-.03-.02-.03-.01-.02-.01-.03-.02h-.03l-.2-.1h-.03l-.02-.02h-.03l-.03-.02-.02-.01-.04-.01-.03-.02-.02-.01-1.99 1.9-.03-.02-.03-.01-.02-.02h-.03l-.17-.08-.5-.22-.52-.52-.35-.35h-.01l-.47-.49h-.01l-.53-.58-.02-.02h-.01l-.03-.04-.36-.4-.02-.02-.38-.43-8.4-6.32 2.44-3.2.52-.67c.29-.37 2.59-2.59 2.96-2.84l.01-.02.01-.02v-.02l.01-.01.01-.03.01-.02.01-.02v-.02l.02-.02v-.02l.01-.02.01-.02.01-.02.01-.02.01-.02v-.02l.02-.01v-.02l.02-.02v-.02l.02-.02v-.02l.02-.02v-.02l.02-.02v-.02l.02-.02v-.01l.01-.01.01-.01.01-.02.01-.02.01-.02.01-.02.01-.02.01-.01.02-.02v-.02l.02-.02.01-.02.01-.02.02-.01v-.02l.02-.02.01-.02.01-.01.02-.02v-.02l.01-.01h.01l.01-.03.02-.02v-.01l.02-.02.01-.02.02-.02.01-.01.01-.02.02-.02.01-.01v-.01l.01-.01.02-.02.01-.02.02-.01.01-.02.01-.02c.27-.31 10.63-9.1 11.4-9.9 1.84-1.93 2-4.85.38-6.96a4.2 4.2 0 0 1-.82-1.94l-1.34-8.85a4.24 4.24 0 0 1-.03-.95c.1-1.4-.27-2.64-1.15-3.74-3.57-4.5-4.96-10.58-4.08-16.25.23-1.5.61-2.93 1.12-4.29-4.28.04-9.24 1.2-14.94 3.63l-2.78-4.5 6.5-18.7 27.72 5.66-1.21 1.54c.25.09.5.2.73.34l12.65 7.46a4.23 4.23 0 0 1 1.72 1.94l2.64 6.03 17.53-10.34h.01l-.05-.1.1.07a4.23 4.23 0 0 1 4.6.27c.48.36.96.7 1.44 1.04l.86.6.45.94c.65 1.34 1.3 2.78 2 4.23l5.77 4.36a27.05 27.05 0 0 0 4.5 2.76c6.48 3.14 14.02 3.74 21.02 2.27l6.63-1.4-1.97 6.48a32.1 32.1 0 0 1-2.02 4.98c3.48 12.78 3.86 21.25.84 34.56a9 9 0 0 1-3.56 5.4c-17.05 12.4-25.59 17.68-48.26 17.71l-6.2.01 2.55-5.66.17-.43.1-.24.06-.26c.13-.48.2-.96.21-1.46l.02-.64z" style="fill-rule:evenodd;clip-rule:evenodd;fill:#3a003a"/><path d="m272.64 204.57-.49.64 1.6 1.2a14.4 14.4 0 0 1-.75-1.78.2.2 0 0 0-.16-.13.2.2 0 0 0-.2.07m8.36 7.13a.95.95 0 0 0 .93-.97.93.93 0 0 0-.96-.92.95.95 0 0 0-.92.97c0 .52.44.93.95.92zm-4.11-5.1a.95.95 0 0 0 .92-.97.93.93 0 0 0-.95-.92.95.95 0 0 0-.93.97c.01.52.44.93.96.92zm10.22 7.68a47.72 47.72 0 0 1-6.67-6.1c-1.85-2.09-3.54-4.57-4.27-7.3a.2.2 0 0 0-.15-.16.2.2 0 0 0-.2.07c-.52.57-1.04 1.16-1.56 1.78a.2.2 0 0 0-.04.18c.48 2.46 1.9 4.73 3.5 6.64l.69.52-.1.17a32.1 32.1 0 0 0 1.61 1.7 45.34 45.34 0 0 0 7.19 2.5zm5.33.67c-7.16-6.58-12.07-12.4-13.38-17.02a.2.2 0 0 0-.14-.14.2.2 0 0 0-.2.05l-1.15 1.1a.2.2 0 0 0-.06.18c.38 3 2.23 5.75 4.18 7.95a41.3 41.3 0 0 0 4.5 4.32 74.77 74.77 0 0 0 4.82 3.68l1.19.16.24-.28zm26.4-13.05a6.44 6.44 0 0 1-.09-2.6.2.2 0 0 0-.38-.14 5.37 5.37 0 0 0-.74 3.32 67.48 67.48 0 0 1 1.22-.58zm-34.08-22.19h-.04l-.06-.02a14.66 14.66 0 0 1-7.56-2 .2.2 0 0 0-.22.01.2.2 0 0 0-.09.2l1.34 8.86c0 .06.03.1.08.13a17.36 17.36 0 0 1 6.25 8.53 6.88 6.88 0 0 1-1.71 3.57.2.2 0 0 0-.03.24c.35.7.78 1.42 1.27 2.15.04.06.1.1.17.09a.2.2 0 0 0 .18-.1c.91-1.5 1.85-2.87 2.08-5.19a.2.2 0 0 0 0-.07c-.91-3.53-2.21-5.45-4.58-8.77a.2.2 0 0 1 .02-.28.2.2 0 0 1 .28 0c3.36 2.71 5.41 5.6 6.5 9.96.02.04.02.08 0 .12-.67 1.88-1.97 4.67-2.73 6.67a.2.2 0 0 0 .04.2 85.74 85.74 0 0 0 8.41 8.73l.02-.02c.36-.42.8-.78 1.28-1.07 2.24-1.33 4.96-.73 7.12.4l-.48-.42 3.37-2.12c1.47-.93 2.95-1.86 4.44-2.78-.23-2.92-.11-6.11.14-8.72a.2.2 0 0 1 .09-.14c3.72-2.76 7.54-4.13 11.71-5.4a.2.2 0 0 1 .26.13c.03.1-.02.22-.12.26-3.23 1.4-6.11 2.86-8.77 5.56a12.13 12.13 0 0 0-.35 6.54c.85-.5 1.7-.97 2.56-1.44a10.3 10.3 0 0 1 .49-4.76c3.52-3.8 6.44-4.44 11.19-5.88a.2.2 0 0 0 .13-.11c1.89-4.15 3.48-7.67 5.8-11.4a.2.2 0 0 0-.32-.25c-5.38 5.52-10.81 8.06-19.36 7.19a.2.2 0 0 0-.15.05c-5.05 4.4-12.12 10.8-17.2 15.23a.2.2 0 0 1-.15.05.2.2 0 0 1-.15-.07c-4.24-5.37-9.81-17.1-11-23.7a.2.2 0 0 0-.15-.16zm23.96 2c14.32 5.85 21.46-.97 25.71-12.9-3.5-2.9-5.96-6.9-8.06-11.02a36.7 36.7 0 0 1-13.36 1.64c-2.9 3.15-7.1 4.94-11.58 3.9l-.7-.19c-2.35 6.27-.5 12.4 7.99 18.56zm-26.23-37.03-1.28 1.5-.61-.61a17.07 17.07 0 0 0-7.72 8.07c-4.93 10.81 2.18 25.42 16.06 22.23l.03-.01a21.74 21.74 0 0 0 8.15-4.67c-.96-3.1-.53-6.13.8-9.34-3.74-2.4-5.7-6.9-5.62-11.48l-9.63-5.68c-.05-.03-.14-.05-.18 0z" style="fill-rule:evenodd;clip-rule:evenodd;fill:silver"/><path d="m272.64 204.57-.49.64 1.6 1.2c-.3-.58-.54-1.17-.75-1.78a.2.2 0 0 0-.16-.13.2.2 0 0 0-.2.07m8.36 7.13a.95.95 0 0 0 .93-.97.93.93 0 0 0-.96-.92.95.95 0 0 0-.92.97c0 .52.44.93.95.92zm-4.11-5.1a.95.95 0 0 0 .92-.97.93.93 0 0 0-.95-.92.95.95 0 0 0-.93.97c.01.52.44.93.96.92zm10.22 7.68a47.72 47.72 0 0 1-6.67-6.1c-1.85-2.09-3.54-4.57-4.27-7.3a.2.2 0 0 0-.15-.16.2.2 0 0 0-.2.07c-.52.56-1.04 1.16-1.56 1.78a.2.2 0 0 0-.04.18c.48 2.46 1.9 4.73 3.5 6.64l.69.52-.1.17a32.1 32.1 0 0 0 1.61 1.7 45.32 45.32 0 0 0 7.19 2.5zm5.33.67c-7.17-6.58-12.07-12.4-13.38-17.02a.2.2 0 0 0-.14-.14.2.2 0 0 0-.2.05l-1.15 1.1a.2.2 0 0 0-.06.18c.38 3 2.23 5.75 4.18 7.95a41.3 41.3 0 0 0 4.5 4.32 74.77 74.77 0 0 0 4.82 3.68l1.19.16.24-.28zm26.4-13.05a6.44 6.44 0 0 1-.09-2.6.2.2 0 0 0-.38-.14 5.37 5.37 0 0 0-.74 3.32 67.48 67.48 0 0 1 1.22-.58zm-34.08-22.19h-.04a14.66 14.66 0 0 1-7.61-2 .2.2 0 0 0-.23 0 .2.2 0 0 0-.09.2l1.34 8.85c0 .06.03.1.08.13a17.36 17.36 0 0 1 6.25 8.53 6.88 6.88 0 0 1-1.71 3.57.2.2 0 0 0-.03.24c.35.7.78 1.42 1.27 2.15.04.06.1.1.18.09a.2.2 0 0 0 .17-.1c.91-1.5 1.85-2.87 2.08-5.19v-.07c-.91-3.53-2.21-5.45-4.58-8.77a.2.2 0 0 1 .02-.28.2.2 0 0 1 .28 0c3.36 2.71 5.41 5.6 6.5 9.96.02.04.02.08 0 .12-.67 1.88-1.97 4.67-2.73 6.67a.2.2 0 0 0 .04.2 85.74 85.74 0 0 0 8.41 8.73l.02-.02c.36-.42.8-.79 1.28-1.07 2.24-1.33 4.96-.74 7.12.4l-.48-.42 3.37-2.12c1.47-.93 2.95-1.86 4.44-2.78-.23-2.92-.11-6.11.14-8.72a.2.2 0 0 1 .09-.15c3.72-2.75 7.54-4.13 11.71-5.39a.2.2 0 0 1 .26.13c.03.1-.02.22-.12.26-3.23 1.4-6.11 2.86-8.77 5.56a12.13 12.13 0 0 0-.35 6.54 80 80 0 0 1 2.56-1.44 10.3 10.3 0 0 1 .49-4.76c3.52-3.8 6.44-4.44 11.19-5.88a.2.2 0 0 0 .13-.11c1.89-4.15 3.48-7.68 5.8-11.4a.2.2 0 0 0-.33-.26c-5.37 5.53-10.8 8.07-19.35 7.2a.2.2 0 0 0-.16.05c-5.05 4.4-12.12 10.8-17.2 15.23a.2.2 0 0 1-.15.05.2.2 0 0 1-.14-.07c-4.24-5.37-9.82-17.1-11-23.7a.2.2 0 0 0-.15-.16z" style="fill-rule:evenodd;clip-rule:evenodd;fill:#7e7e7e"/><path d="M277.04 143.13a14.11 14.11 0 0 1-6.3-3.76.3.3 0 0 0-.4-.04c-.13.1-.07.25-.09.4-.1.89.21 1.9.73 2.4.07.06.08.15.07.24a.3.3 0 0 1-.14.2c-5.55 3.75-10.24 1.36-15.76-1.16a.3.3 0 0 0-.28.01.3.3 0 0 0-.15.25l-.11 2.32a.3.3 0 0 1-.24.29.3.3 0 0 1-.34-.15c-2-3.58-3.16-5.82-6.97-8.2a.3.3 0 0 1-.14-.3.3.3 0 0 1 .2-.26c2.18-.75 2.63-1.99 4.86-2.73a.3.3 0 0 1 .3.07c.09.08.12.2.08.3l-.05.2c-.04.14-1.4 1.68-1.27 1.75a.3.3 0 0 0 .37-.05c3.7-4.13 9.6-7.6 15.06-9.97.43.82.79 1.57 1.02 1.97 2.02 3.5 3.7 7.17 5.79 10.67a53.3 53.3 0 0 0 3.76 5.55" style="fill-rule:evenodd;clip-rule:evenodd;fill:#e49988"/><path d="M332.01 160.94a28.51 28.51 0 0 0 7.63 8.48c.13.1.17.28.08.42-5.32 8.37-2.56 16.4-1.03 27.25a.3.3 0 0 0 .13.2.3.3 0 0 0 .24.05c1.09-.29 2.1-.5 3.07-.65a.3.3 0 0 1 .34.21.3.3 0 0 1-.17.37c-.58.26-1.26.6-2 1 2.9.7 5.69 1.76 8.4 3.12a3.2 3.2 0 0 1 1.69 3.43c-.2 1.11-.41 2.15-.63 3.13.95-.61 2.27-1.41 2.84-1.82a4.4 4.4 0 0 0 1.76-2.68c1.4-6.12 2.73-10.94 3.18-15.86a.3.3 0 0 1 .3-.28.3.3 0 0 1 .3.27c.66 5.8.18 11.13-1.44 18.26-.25 1.12-.83 2-1.76 2.68-1.5 1.08-4.39 2.93-6.5 4.34-.38 1.2-.8 2.38-1.3 3.62a251.1 251.1 0 0 0 10.38-6.93 5 5 0 0 0 2-3.04c2.97-13.04 2.56-20.8-1.18-34a.3.3 0 0 1 .03-.23 30.24 30.24 0 0 0 2.4-5.59c-7.9 1.67-16.32.94-23.58-2.58a30.9 30.9 0 0 1-5.18-3.17" style="fill-rule:evenodd;clip-rule:evenodd;fill:#ffc4ad"/><path d="M293.1 117.93a10.6 10.6 0 0 1 2.75 7.13c-.08 4.25-2.9 8-6 10.68a8.46 8.46 0 0 1-3.76 1.8c-6.47 1.4-13.55 1.64-19.91-.2-4.94-1.42-9.9-4.31-12.16-9.12-1.42-3.01 1.17-5.36 3.58-6.7 7.36-4.11 15.38-7.18 23.85-7.43 4.17-.13 8.8.5 11.66 3.84" style="fill-rule:evenodd;clip-rule:evenodd;fill:#3a003a"/><path d="M257.38 125.01c3.05 6.51 13.73 10.29 26.95 7.36a4.8 4.8 0 0 0 2.18-1.05c4.74-4.22 6.64-9.13 2.75-13.3 5.28 4.8 3.92 10.35-1.55 15.2-.59.53-1.37.9-2.3 1.11-14 3.1-25.3-.92-28.45-7.84-.2-.45-.04-.98.43-1.48" style="fill-rule:evenodd;clip-rule:evenodd;fill:#fff"/><path d="M269.95 131.46c-5.27-1.18-8.99-3.83-10.53-7.13l-.24-.52c1.4-.8 2.82-1.56 4.23-2.26h.14c.14 0 .27 0 .4.05 1.28.41 2.91 4.23 3.54 5.3.86 1.5 1.66 3.03 2.46 4.56m-42.45 30.69a20 20 0 0 1-.32 3.47l16.48-6.44c6.5-2.55 9.07-3.52 9.02-6.36v-.35a64.73 64.73 0 0 1-25.19 9.68m14.12-25.77c-7.93 2.56-14.64 7.25-20.25 13.87 3.57 2.69 5.62 6.1 6.05 10.26 12.43-2.36 21.36-7.7 25.2-10.59-1.95-7.48-5.07-10.86-11-13.54zm25.59-4.1a13 13 0 0 1-2.94.83c2.2.99 4.77 1.69 7.63 2.04l-1.11-2.1a26.99 26.99 0 0 1-3.58-.77" style="fill-rule:evenodd;clip-rule:evenodd;fill:silver"/><path d="M343.21 194.36c-1.47-4.07-4.37-23.85 4.3-21.3 3.47 1.02 7.05 4.43 9.77 3.06a.3.3 0 0 1 .29 0c1.1.62 1.91 1.96 2.6 3.67-.48-2.27-1.1-4.67-1.83-7.28a.3.3 0 0 1 .02-.23 30.24 30.24 0 0 0 2.42-5.59c-1.56.33-3.13.56-4.7.7a7.25 7.25 0 0 1-5.65 3.16c-2.94.08-5.83-1.72-7.7-4.34a33.44 33.44 0 0 1-5.55-2.1 31.06 31.06 0 0 1-5.17-3.17 28.51 28.51 0 0 0 7.63 8.48c.13.1.17.28.08.42-5.32 8.37-2.55 16.4-1.03 27.25a.3.3 0 0 0 .13.2.3.3 0 0 0 .24.05c1.09-.29 2.1-.5 3.07-.65a.3.3 0 0 1 .34.21.3.3 0 0 1-.17.37c-.58.26-1.26.6-1.99 1 .96.23 1.9.5 2.85.81l5.84-4.46a.3.3 0 0 0 .1-.33.3.3 0 0 0-.26-.22c-1.88-.11-3.75.68-5.63.29" style="fill-rule:evenodd;clip-rule:evenodd;fill:#e49988"/><path d="M224.03 156.65a5.18 5.18 0 0 1-1.63 2.98c.99 2.46 1.12 5.26.13 8.6-.14.5-.31 1-.5 1.5.42-.29.8-.6 1.13-.96 2.92-3.03 2.82-8.15.87-12.13" style="fill-rule:evenodd;clip-rule:evenodd;fill:#00685e"/><path d="M194.64 157.82c-.33.31-.82.49-1.37.6.18.3.26.7.15 1.24 0 .02-.02.03-.03.04-.14.1-.33.2-.56.26-.34.1-.77.18-1.2.23l-.63.08-.66.07c-.05 0-.1-.01-.13-.05-.03-.03-.02-.08.03-.1.27-.07.8-.12 1.32-.2.57-.1 1.13-.23 1.34-.49l.02-.04c.02-.3-.07-.63-.26-.93-1.26.18-2.68.2-3.35.79-.62.55-1.54 2.32 1.43 3.33 4.67.02 8.47-1.36 11.86-3.4l-.09 1.27 12.42 8.85c5.15-7.74-6.73-10.6-11.75-13.48-5.28-2.04-5.95.57-8.54 1.94" style="fill-rule:evenodd;clip-rule:evenodd;fill:#fff"/><path d="M312.16 224.98c10.54-.82 19.29-2.85 28.67-7 1.07-.46 2.12-.95 3.15-1.46.4-1 .77-2 1.12-3.02-1.85.82-3.75 1.6-5.68 2.35a109.97 109.97 0 0 1-26.91 6.72 10.2 10.2 0 0 1-.35 2.4m-.55 1.54c13.12-.02 19.74-.73 31.2-7.25.2-.43.38-.87.57-1.3a70.58 70.58 0 0 1-31.48 7.84c-.09.24-.19.47-.3.7zm20.64-26.26c-10.81 2.86-15.34 5.6-25.05 11.72a17 17 0 0 1 3.04 3.43 13.3 13.3 0 0 1 2.1 5.06c9.69-1.75 17.03-3.4 25.59-6.83a91.68 91.68 0 0 0 8.33-3.83c.5-1.78.93-3.61 1.27-5.48a.3.3 0 0 0-.16-.33c-4.8-2.4-9.8-3.8-15.12-3.74z" style="fill-rule:evenodd;clip-rule:evenodd;fill:silver"/><path d="m202.51 160.51 12.42 8.86.2-.3c1.72-2.8 1.2-4.94-.4-6.68a12.91 12.91 0 0 0-2.89-2.24l.29.3c2.93 3.12 1.06 4.19-2.18 2.81-1.96-.83-4.44-2.52-6.35-3.54-.36-.18-.45-1.47-.76-1.6a9.44 9.44 0 0 0-2.73.44c-3.98 1.12-8.94 3.85-11.3 1.47-1.99 5.5 11.04 1.25 12.96-.3l.83-.49-.07 1.01-.02.26z" style="fill-rule:evenodd;clip-rule:evenodd;fill:#d6d6f1"/><path d="M292.11 178.59c1.38 2 2.42 4 3.82 6a.2.2 0 0 1 .04.11c0 2.65.26 5.3.36 7.95 0 .1.08.18.19.2.1 0 .2-.07.22-.18 2.4-11.85-.74-4.8 6.06-11.5l-.13.26a.2.2 0 0 0 .07.27l2.36 1.5c.85.53 1.7 1.01 2.54 1.45l.22.11c1.1.56 2.2 1.04 3.27 1.44h.03l-3.76 3.58c-3.56 3.17-7.1 6.35-10.66 9.5a.2.2 0 0 1-.17.05.2.2 0 0 1-.15-.09c-3.55-5.48-7.52-14.2-8.6-19.57a.2.2 0 0 1 .04-.16.2.2 0 0 1 .14-.08l.05-.01.19-.03.3-.06.16-.03.32-.06.14-.03.37-.08.08-.01.42-.1.06-.02.44-.1.03-.01.47-.13h.01l.5-.15.35-.1a.2.2 0 0 1 .22.08" style="fill-rule:evenodd;clip-rule:evenodd;fill:silver"/><path d="m293.63 180.97 2.7 11.68c-.1-2.65-.36-5.3-.36-7.95a.2.2 0 0 0-.04-.12c-.84-1.2-1.56-2.4-2.3-3.62m5.85 4.72 2.9-2.07a64.14 64.14 0 0 0 7.38 3.93l1.4-1.33c-3.56-1.35-5.18-2.47-8.42-4.51l.06-.54c-1.07 1.06-3.4 2.5-4.5 3.58l-1.53 7.8 2.71-6.85zm-2.54 10.65a74.53 74.53 0 0 1-6.96-16.52.82.82 0 0 0-.95-.57l-.8.15-.18.03-.05.01a.2.2 0 0 0-.14.09.2.2 0 0 0-.03.16c1.07 5.36 5.04 14.08 8.6 19.57a.2.2 0 0 0 .14.09.2.2 0 0 0 .16-.05c3.57-3.15 7.1-6.34 10.67-9.5l.14-.14c-3.55 2.34-7 4.12-10.6 6.68z" style="fill-rule:evenodd;clip-rule:evenodd;fill:silver"/><path d="M293.63 156.82c-3.06 4.4-7.68 6.62-14.12 6.28 3.36 8.21 9.84 9.57 17.61 8.09-.96-3.1-.53-6.13.8-9.33-1.9-1.23-3.35-3-4.3-5.04m28.08 8.36c-1.88 4.76-6.26 7.88-12.68 9.67l-.5.14.56.1c10.48 1.95 17.88-.77 22.26-7.8l.01-.06a.2.2 0 0 1 .23-.14c.1.02.18.1.18.2-.57 10.33-7.81 16.88-20.92 14.45a36.8 36.8 0 0 1-1.96-.42.21.21 0 0 0-.25.12.2.2 0 0 0 .09.26c.8.4 1.6.76 2.39 1.07 11.38 4.46 20.71-.85 23.32-13.95-3.5-2.9-5.96-6.92-8.06-11.03-1.21.39-2.43.7-3.66.96.08 2.41-.27 4.55-1.01 6.43" style="fill-rule:evenodd;clip-rule:evenodd;fill:#7e7e7e"/><path d="M282.14 187.05c3.36 2.72 5.41 5.61 6.5 9.97.02.04.02.08 0 .12-.49 1.37-1.31 3.22-2.01 4.9-.26.63-.51 1.23-.72 1.78a.2.2 0 0 0 .04.2 64.57 64.57 0 0 0 3.86 4.32l.13-.04-1.23-5.36.58-1.28 2.26-4.95c-3.04-5.6-5.84-12.39-6.65-16.83a.2.2 0 0 0-.14-.17h-.04l-.06-.02a14.66 14.66 0 0 1-7.55-2 .2.2 0 0 0-.23.01.2.2 0 0 0-.09.2l1.34 8.86c0 .06.04.1.08.13a17.35 17.35 0 0 1 6.25 8.53 6.89 6.89 0 0 1-1.71 3.57.2.2 0 0 0-.03.24c.35.7.78 1.42 1.27 2.15.04.06.1.1.18.1a.2.2 0 0 0 .17-.1c.91-1.5 1.85-2.88 2.08-5.2a.2.2 0 0 0 0-.07c-.9-3.53-2.21-5.45-4.58-8.77a.2.2 0 0 1 .03-.27.2.2 0 0 1 .27-.02" style="fill-rule:evenodd;clip-rule:evenodd;fill:silver"/><path d="M311.82 213.47a129.35 129.35 0 0 1 21.05-9.03c2.93-.97 5.93-1.88 9-2.7a32.3 32.3 0 0 0-3.2-.85 115.4 115.4 0 0 0-8.03 2.44l-.1.04c-2.75.94-5.46 2-8.14 3.14-5.18 2.21-8.33 4.08-13.19 6.96.28.31.54.64.79.97l1.82-.97" style="fill-rule:evenodd;clip-rule:evenodd;fill:#fff"/><path d="M320.95 250.33a4.7 4.7 0 0 1 3.55 1.84l1.7 2.22a4.73 4.73 0 0 1-.88 6.63l-5.4 4.14a4.74 4.74 0 0 1-6.63-.87l-1.7-2.22a4.72 4.72 0 0 1-.84-3.99l-.37-.49 6.24-13.06 4.33 5.8zm-33.2-40.15.09.02c2.7.6 5.07 2.22 6.52 4.57l2.96 3.96-6.24 13.07-3.97-5.3-7.05-9.38-2.1-2.8.05-.04-.48-.65c-21.1-28.08-34.39-44.66-55.47-72.75l-.99-1.32.22-1.6a1.43 1.43 0 0 0-.72-1.32l-2.51-1.2.24-2.76a1.34 1.34 0 0 0-.6-1.26l-15.85-10.1 6.24.93-1.64-2.2-16-21.38c-2.58-3.46-7.02-9.49-8.16-13.52a27.14 27.14 0 0 1-1.04-9.85l.2-1.66c1.11-7.83 2.9-15.94 4.33-23.87.62-3.42 1.06-6.91 2-10.25 1.08-3.2 3.2-5.9 6.34-7.38a11.06 11.06 0 0 1 9.73.12c5.75 2.97 6.63 9.43 4.58 15.03-1.4 5.1-3 10.15-4.4 15.25l-.35 1.31-.41 1.66a88.34 88.34 0 0 0-1.64 8.02l-.22 1.4-.14 1.34c-.42 4.04-.4 8.16.5 12.13.95 4.17 4.18 8.32 6.39 12l15.1 20.19-7.62.3a.7.7 0 0 0-.22.03.97.97 0 0 0-.26.14l-2.24 1.68-1.97-1.3-2.32.89 11.81 1.74c3.23.48 8.58 3.84 10.42 6.69l6.67 8.91 52.22 68.74-2 1.77z" style="fill-rule:evenodd;clip-rule:evenodd;fill:#3a003a"/><path d="m317.38 252.24 2.13 2.84.8-.6a.73.73 0 0 1 1.01.12l1.7 2.23a.7.7 0 0 1-.13 1.01l-5.4 4.14a.73.73 0 0 1-1.02-.13l-1.7-2.22a.73.73 0 0 1 .13-1.02l.79-.6-.65-.87 2.34-4.9zM291.03 217l1.63 2.19-2.35 4.91-7.04-9.38c1.42-1.4 5.87-.98 7.76 2.28zm-63.47-83.98 6.77 9.06 50 65.77c-1.23 1.1-2.44 2.25-3.6 3.37-16.59-22.06-38.89-50.66-55.47-72.75l.03-.3a5.47 5.47 0 0 0-3-5.14 5.35 5.35 0 0 0-2.43-5c1.38.21 6.35 2.66 7.7 5zm-36.47-90.1.2-1.13c2.6-10.94 17.89-7.8 13.33 4.27a260 260 0 0 1-1.37 4.8l-12.16-7.94zm13.73 59.71 10.66 14.25a4.7 4.7 0 0 0-2.71.97 3.01 3.01 0 0 0-2.14-.45c-.33.05-.66.14-.97.26-5.34-7.12-10.67-14.25-16-21.39-2.06-2.76-6.6-8.99-7.52-12.2a22.68 22.68 0 0 1-.78-9.41l11.93 1.2c-.48 4.58-.4 9.1.58 13.43 1.11 4.9 4.4 9.05 6.95 13.34z" style="fill-rule:evenodd;clip-rule:evenodd;fill:#fff"/><path d="m187.42 63.17 5.12 3.66-5.74-.26-.93 5.17 11.8 1.19c.42-2.8 1.02-5.6 1.71-8.39l-6.24-4.27 7.04 1.21c.64-2.36 1.51-5.35 2.2-7.65l-11.87-7.74-.96 5.31 6 3.44-6.5-.7-1.63 9.03z" style="fill-rule:evenodd;clip-rule:evenodd;fill:#008b8b"/><path d="M225.91 136.22c2.16.2 4.45 1.45 6.91 3.84l-5.26-7.04c-1.35-2.33-6.33-4.78-7.7-4.98a5.25 5.25 0 0 1 2.3 3.18c.14.58.19 1.2.13 1.8a5.47 5.47 0 0 1 2.97 5.44c9.15 12.2 2.4 2.67 11.55 14.84l7.57 10.06 2.88 3.84 3.18 4.21 3.57 4.76c1.7 2.27 25.01 32.78 26.72 35.05l1.37-1.32-30.22-39.7-3.12-4.15-2.85-3.8-2.65-3.51-7.11-9.46-14-18.06 3.76 5zm61.5 80.83c1.51.06 3.24.81 5.19 2.27l.06-.14-1.63-2.18c-2.54-3.41-4-3.21-5.93-3.02-.35.04-.68.11-.97.22-.34.12-.64.3-.86.52l7.04 9.38.93-1.95-.62-.83-3.21-4.27zm-76.78-99.65c-6.44-8.95-24.59-33.7-24.49-33.34.91 3.22 5.46 9.45 7.52 12.21 5.33 7.14 10.66 14.27 16 21.39.31-.12.63-.21.97-.26z" style="fill-rule:evenodd;clip-rule:evenodd;fill:silver"/><path d="M223.9 107.22c7.32.22 14.52 1.37 21.8 3.12.57.13.97.59 1.02 1.17.06.57-.25 1.1-.78 1.34l-4.51 2.04c5.47.4 9.3-.8 15.52-2.42.48-.13.96 0 1.3.37.35.36.46.85.31 1.32-2.4 7.62-7.94 11.76-15.14 13.51 1.33.83 2.67 1.65 4.03 2.36 1.4.72 3.19 1.53 4.8 1.34 3.22-.37 5.65-5.08 6.89-7.6.23-.49.7-.77 1.23-.75.54.01.99.32 1.2.81 1.62 3.85 3.5 8.39 2.84 12.64-.55 3.6-2.77 6.2-5.72 8.18l-.08.04-2.69 1.55c2.83 3.36 6.51 4.54 11.04 4.5.55 0 1.02.3 1.24.8.22.5.12 1.05-.25 1.45-4.7 5-6.9 7.86-13.1 8.93.29.3.56.61.84.93.84.97 1.66 1.88 2.58 2.78 5.5 5.4 11.58 7.62 18.25 11.08.4.21.65.57.7 1.02.06.45-.1.87-.43 1.17-4.68 4.14-10.03 4.88-15.58 3.53 1.9 2.88 3.5 5.93 5.24 8.92 3.3 5.63 4.57 6.79 10.1 9.97.64.37.87 1.18.5 1.82-4.89 5.64-11.76 4.65-18.57 4.96a1.28 1.28 0 0 1-.35-.27c-1.1-1.19-2.26-3.06-3.16-4.43-1.73-2.63-3.43-5.28-5.17-7.9a248.9 248.9 0 0 0-15.06-20.76c-4.69-5.7-10.08-11.55-16.05-15.92-4.48-3.3-10.23-6.39-15.97-5.88-7.11.64-11.92 6.65-15.1 12.48-.3.52-.87.79-1.45.66s-1-.6-1.06-1.2l-.89-11.13c-.03-.33.06-.63.26-.9.43-.58 1.63-2.2 2.84-3.96a108.77 108.77 0 0 0-5.84 7.03c-.39.5-1.06.66-1.64.39l-18.34-8.88a1.32 1.32 0 0 1-.73-1.47l3.43-16.86c0-.03 0-.05.02-.08 2.27-8.65 7.34-17.1 14.3-22.79a32.78 32.78 0 0 1 16.1-7.1c11.4-1.76 23.43 1.74 34.45 4.46.62.15 1.04.7 1.02 1.34a1.32 1.32 0 0 1-1.1 1.27c-1.7.3-3.4.64-5.09 1.02" style="fill-rule:evenodd;clip-rule:evenodd;fill:#3a003a"/><path d="M195.08 114.91c3.82-4.74 9.16-7.62 14.99-9.27.25-.07.4-.3.39-.55a.53.53 0 0 0-.46-.49c-19.77-2.83-31.3 4.44-37.21 18.58l.13-.13.06-.06.07-.06.04-.05.02-.02.07-.06.06-.06.07-.06.06-.07.07-.06.06-.06.02-.02.05-.04.07-.06.06-.07.13-.12.07-.06.06-.05v-.01l.07-.06.07-.06.07-.06v-.01l.06-.05.07-.06.06-.06.04-.03.03-.03.07-.06.06-.06.06-.05.01-.01.07-.06.06-.06.07-.06.07-.06.06-.06.07-.06.02-.02.05-.04.06-.06.07-.06.04-.04.03-.02.06-.06.07-.06.06-.05.07-.06.07-.06.06-.06.02-.01.05-.05.07-.05.06-.06.04-.03.03-.03.07-.06.06-.06.06-.04.01-.01.07-.06.06-.06.07-.05v-.01l.06-.05.07-.06.07-.06.02-.02.04-.03.07-.06.06-.05.05-.04.02-.02.07-.06.06-.05.07-.06c5.4-4.65 7.9-6.5 10.43-11.9.1-.2.26-.33.49-.37.22-.04.42.03.58.19l.12.11.04.05.07.07.1.09.02.02.11.12.02.01.1.1.06.06.05.05.1.1.02.02.11.1.04.04.07.08.08.08.04.03.11.12h.01l.1.11.06.05.06.06.1.1.01.02.12.11.02.03.09.08.07.07.04.05.11.1.11.12.05.04.07.07.08.1.03.02.1.11.12.11.06.06.05.06.1.1v.01l.12.12.03.03.08.08.07.08.04.03.1.12h.01l.1.11.05.06.06.06.1.12.11.11.1.12.07.07.04.04.1.12.1.12.05.04.06.08.1.11.1.12.02.02.08.1.1.12.1.11v.01l.1.12.1.12v.01l.09.11.1.13v.01l.1.11.18.25.1.13.07.1.03.04.07.11.17.25.01.01.07.1.03.06.07.1.09.13.24.4.08.13.07.12.02.03.06.12zm33.33 17.55c-7.33-1.3-15.49.61-23.1 4.5a.51.51 0 0 1-.42.02l-.7-.23a.52.52 0 0 1-.35-.38.52.52 0 0 1 .12-.49c8.58-9.51 17.45-10.24 26.4-8.64 9.3 1.67 19.65 15.94 28.05 6.74a.53.53 0 0 1 .64-.12c.22.12.33.36.27.6-3.77 15.98-26.47 0-45.3 6.5a.52.52 0 0 1-.43-.04 51.8 51.8 0 0 0-1.33-.73.52.52 0 0 1-.28-.42.52.52 0 0 1 .2-.46c4.57-3.75 10.12-5.49 16.16-5.8a.53.53 0 0 0 .07-1.05zm26.67 22.47c-12.29 2.23-20.84-8.29-33.1-8.34a.51.51 0 0 1-.34-.12l-1.15-.92a.52.52 0 0 1-.2-.5c.03-.2.15-.36.34-.43 14.13-5.25 23.06 7.51 34.44 9.26.26.04.45.26.45.52s-.18.48-.44.53zm7.12 21.7c-13.55-1.32-19.45-13.8-30.87-20.32a.5.5 0 0 1-.15-.12c-.5-.62-1.02-1.23-1.54-1.83a.53.53 0 0 1-.07-.61c.11-.2.33-.3.55-.27 16.32 2.48 22.04 16.8 32.38 22.15.23.12.34.38.26.63-.07.25-.3.4-.56.38zm4.23 25.26c-11.04-4.42-13.2-16.36-21.4-24.56a.53.53 0 0 1-1.08-2.62.5.5 0 0 1 .61-.13c13.38 5.87 15 19.34 22.44 26.43a.53.53 0 0 1-.57.88zm-65.49-76.14a26.95 26.95 0 0 0-4.32 8.43c-.05.15-.03.3.05.44s.2.22.36.25l1.25.26c.2.04.4-.03.53-.2 14.4-18.38 34.32-7.16 48.52-14.19a.53.53 0 0 0 .27-.64.53.53 0 0 0-.6-.36c-9.02 1.52-18.5-2.5-26.98-2.09a.53.53 0 0 1-.55-.4.53.53 0 0 1 .29-.6 50.14 50.14 0 0 1 8.47-3.12.53.53 0 0 0 .39-.58.53.53 0 0 0-.51-.47c-13.28-.51-24.45 2.27-31.18 12.36l-.02.26-.03.22v.11l-.01.05-.01.06v.05l-.02.05v.11l-.03.16v.06l-.02.05-.02.16v.05l-.02.06-.02.16v.05l-.01.02v.04l-.03.16-.01.05v.03l-.01.03-.01.05-.03.16v.06l-.02.05v.05l-.03.11v.05l-.02.06v.05l-.02.05v.06h-.01l-.02.1-.01.06-.01.05-.01.06-.01.05-.01.02v.03l-.02.06-.02.1-.01.06v.03l-.01.02-.01.05a27.3 27.3 0 0 1 3.83-3.28.53.53 0 0 1 .7.07c.18.19.2.48.03.7z" style="fill-rule:evenodd;clip-rule:evenodd;fill:#5d0d5d"/><path d="M213.18 268.28a19.72 19.72 0 0 1-3.02 2.66c-1.1.78-2.25 1.46-3.44 2.06 0-.05.01-.1.04-.14 1-1.4 1.83-2.91 2.54-4.5a50.5 50.5 0 0 0 2.06-5.52c1.25-3.93 2.24-7.98 3.66-11.57-.69 4.92-1.46 9.77-2.77 14.23-.11.4-.23.78-.35 1.16l.55-.58a29.43 29.43 0 0 0 4.83-7.84 30.43 30.43 0 0 1-2.63 6.85.22.22 0 0 0 .02.25c.06.07.15.07.2 0 .43-.4.85-.82 1.27-1.26a19.86 19.86 0 0 1-2.96 4.2" style="fill-rule:evenodd;clip-rule:evenodd;fill:#fff"/><path d="M168.33 133.46c1-.18 2-.08 2.89.26.62-.36 1.32-.6 2.08-.69 18.33-2.2 35.36.7 49.73 12.87 18.81 15.93 27.4 42.28 41.45 62.28a69.72 69.72 0 0 1 8.99 17.33 6.15 6.15 0 0 1 5.43-1.43c3.52.79 7.21 1.54 10.84 1.43 1.8-.05 3.61-.3 5.4-.56 2.81-.42 5.61-.9 8.43-1.32a5.18 5.18 0 0 1 4.38 1.33 5.18 5.18 0 0 1 1.74 4.24l-.58 10.72c-.08 7.33 1.62 14.08 6.04 20.02a5.25 5.25 0 0 1 .26 6 5.23 5.23 0 0 1-4.29 2.53c1.2 3.1 2.18 6.31 3.11 9.62 1.73 6.12 3.39 13.42 6.84 18.8a20.22 20.22 0 0 0 7.87 7.24 5.35 5.35 0 0 1 2.27 7.16l-9.48 18.51a5.18 5.18 0 0 1-3.79 2.82 99.81 99.81 0 0 1-48.6-3.24c-9.09-2.96-19.36-7.92-26.86-14.7l-.27.87c-2.21 6.28-8.32 7.36-14.2 7.7l-7.3.16c-3.48.08-7.34 2.77-10 4.61a5.23 5.23 0 0 1-5.66.26c-7-3.95-12.3-7.87-15.5-14.66 1.34 6.94-1.6 14.22-6.31 20.71l-1.56 2.14-2.64.06c-6.24.15-11.5-2.85-15.84-7.13l-1.74-1.71-1.9-1.87.04-1.72.11-4.25a21.18 21.18 0 0 0-4.36-13.54l-1.42-1.83.36-2.28c.24-1.49.56-2.92.96-4.37.11-.4.32-1 .4-1.43-.11-.62-.67-1.86-.9-2.4-1.62-3.76-4.02-7.58-6.17-11.08-2.93-4.76-7.57-11.68-8.98-17-1.6-5.97-.01-11.94 4.74-16.02 5.85-5.02 14.98-10.56 22.11-13.3 2.59-1 4.82-2.5 7.05-4.11 2.31-1.69 4.72-3.6 7.45-4.54l3.04-1.03c1.08-3.98 2.43-7.81 3.35-11.92l2.34-4.65c.97-1.92.73-4.1-.63-5.77a5.24 5.24 0 0 0-5.52-1.79c-6.76 1.81-13.21-.72-19.77 4.46a20.19 20.19 0 0 1-4.88 3.4c-3.37 1.77-5.36 2.18-6.06 6.3-1.05 10.91-7.94 16.36-18.84 14.27a5.27 5.27 0 0 1-3.52-2.38c-2.77.73-5.62.33-8.11-1.13-4.69-2.76-6.53-7.3-6.38-12.37-1.59-2.03-3.14-3.94-3.32-6.8-.22-3.67 1.74-5.52 3.88-7.79l16.26-28.74c-1.81-6.94-.54-13.53 5.36-18.1 2.35-4.36 5.12-8.49 9.48-11.04-2.05-5.57-2.23-11.27 1.52-16.38a26.38 26.38 0 0 1 4.3-4.43c3.88-3.3 7.03-7.65 10.18-11.7a.64.64 0 0 1 .62-.24c.25.03.44.19.53.42l3.44 9.12c.51 1.38-3.06 4.44.1 13.8M176 266.81a11.69 11.69 0 0 1-.71 10.87l.36.1.17 3.97c.35 8.72.94 10.44 5.68 17.63l1.02 1.56-.09 1.04 1.8 1.86a21.44 21.44 0 0 1 3.54 4.8c-.17-1.2.07-2.37.73-3.47 4.4-7.29 7.1-15.62 10.38-23.51-2.07-.56-3.49-2.24-4.3-4.33-.61-1.57-2.13-2.85-3.4-3.9-2.43-2-4.77-3.75-6.33-6.58-.4-.73-.72-1.48-.96-2.25a9.85 9.85 0 0 1-2.28-1.64 15.5 15.5 0 0 1-5.6 3.85z" style="fill-rule:evenodd;clip-rule:evenodd;fill:#3a003a"/><path d="M262.56 256.1c-6.13-1.88-13.45-1.7-20.41-3.95-11.01-3.57-18.33-9.37-27.09-2.63-3.34 2.59-6.23 5.38-7.27 9.47-1.71 6.77 2.57 9.81-2.89 22.16-3.91 8.85-6.71 18.22-11.7 26.58a.52.52 0 0 0-.06.43c2.36 7.56 7.09 11.23 14.24 15.3.18.1.4.1.57-.02 4.04-2.79 8.73-5.74 13.83-5.34.15 0 .28-.04.4-.13.1-.1.17-.22.18-.37.02-.34.08-.7.17-1.04a15 15 0 0 0 .4-6.15l-.01-.1c-.1-.7-.28-1.4-.51-2.07-.29-.83-.64-1.62-1.07-2.38-.1-.2-.3-.3-.52-.28a.52.52 0 0 0-.45.38c-.7 2.35-1.73 4.61-3.47 6.2a.53.53 0 0 1-.62.08.53.53 0 0 1-.27-.56c.72-4-.83-8.21-3.55-11.26a.52.52 0 0 1-.12-.5c1.6-6.2 3.74-12.1 7.8-16.82a.79.79 0 0 0 .08-.92c-1.53-2.74-2.86-5.53-3.12-8.6a.79.79 0 0 1 .46-.8.79.79 0 0 1 .9.17c5.17 5.26 13.07.61 17.12-4.58a.8.8 0 0 1 .92-.25c.34.13.54.46.5.82l-.03.36a.8.8 0 0 0 .67.86c8.85 1.49 13.56 4.77 18.1 9.27.28.28.33.7.1 1.02a.8.8 0 0 1-.98.28c-7.12-3.18-11.94-8.45-18.51-5.72a.79.79 0 0 0-.5.75c0 .34.2.62.52.74 6.3 2.35 12.63 8.9 18.66 15.12 2.8 2.9 5.63 5.18 8.41 6.47 5.97 2.78 11.7.96 16.25-9.37a.52.52 0 0 0-.1-.6.52.52 0 0 0-.6-.1 11 11 0 0 1-6.23.8.53.53 0 0 1-.44-.4.53.53 0 0 1 .22-.57c6.6-4.45 11.67-9.61 11.48-16.22a.8.8 0 0 1 .65-.8c.4-.08.9.12.9.52.64 24.7-8.4 34.04-17.76 32.3-23.58-4.39-29.31-35.07-44.5-15.64a.53.53 0 0 0-.03.6 16.26 16.26 0 0 0 3.3 3.89c.07.05.13.08.2.1 4.56 1.37 8.4 3.4 11.6 7.27l.07.04.01.06c.39.47.76.97 1.12 1.49a19.41 19.41 0 0 1 2.53 5.04.5.5 0 0 0 .1.17c10.79 13.32 41.08 26.76 74.5 20.74a.52.52 0 0 0 .39-.28l9.12-17.8a.53.53 0 0 0-.22-.72c-17.48-9.58-13.51-31.4-24.9-48.07a.53.53 0 0 1 .05-.67.53.53 0 0 1 .66-.1c2.6 1.5 5.17 2.49 7.71 3.08.22.05.44-.03.57-.22a.52.52 0 0 0 0-.6c-4.58-6.66-6.42-14.17-6.32-22.28v-.02l.55-10.17a.52.52 0 0 0-.17-.42.51.51 0 0 0-.44-.13c-12.47 1.89-14.36 2.87-25.97.28a.8.8 0 0 0-.92.48c-1.87 4.63-1.16 12.24-.1 18.71a.8.8 0 0 1-.56.9.8.8 0 0 1-.96-.44 67.5 67.5 0 0 1-4.47-13.38 63.75 63.75 0 0 0-10.62-24.31c-23.12-32.93-30.96-79.58-86.17-72.92l-.49 2.48a.52.52 0 0 1-.26.36.49.49 0 0 1-.44.04 7.3 7.3 0 0 1-3.29-2.25.52.52 0 0 0-.51-.18c-7.98 1.55-13.34 7.15-17.94 13.93-.14.21-.4.3-.63.2a.53.53 0 0 1-.34-.56l.47-3.96a.52.52 0 0 0-.25-.52.52.52 0 0 0-.58.01c-3.2 2.16-5.36 5.72-7.33 9.51a.5.5 0 0 1-.18.2c-4.87 3.29-5.96 8.29-3.68 14.81.05.15.04.3-.04.44l-17.56 31.04a.52.52 0 0 1-.07.1c-1.2 1.29-2.94 2.61-2.84 4.23.1 1.59 1.96 3.45 3.35 5.36.09.11.12.24.1.38-.6 4.65.82 7.5 3.63 9.15 1.32.78 2.76.96 4.23.52 10.05-3 10.84-13.63 16.58-16.3a.53.53 0 0 1 .66.17c.15.21.12.5-.06.69-5.09 5.07-3.05 12.64-10.14 17.06a.53.53 0 0 0-.24.57c.05.22.23.38.46.41 6.5.75 10.28-2.25 10.97-9.94v-.03c1.5-9.47 8.41-8.66 12.63-12.95a.95.95 0 0 1 .07-.06c8.99-7.29 17.44-3.47 23.59-6.2 15.84-7 25.75-15.67 11.6-37.94a.8.8 0 0 1 .14-1.03.8.8 0 0 1 1.04-.01c8.94 7.53 12.23 17.82 13.63 31.38.04.37.3.65.67.7a.8.8 0 0 0 .86-.46 60.01 60.01 0 0 0 4.64-16.3.8.8 0 0 1 .72-.68.8.8 0 0 1 .83.55c4.35 13.38-2.1 38.46-9.76 53.6a.8.8 0 0 1-.96.4.8.8 0 0 1-.54-.9c1.8-11.44 1.37-22.45-1.84-32.94a.79.79 0 0 0-.72-.56.79.79 0 0 0-.78.49c-.28.66-.6 1.3-.97 1.92a.77.77 0 0 0-.11.38 75.44 75.44 0 0 1-6.13 27.1.8.8 0 0 1-.91.47.8.8 0 0 1-.63-.82c.1-2.14-.05-4.21-.47-6.21a.8.8 0 0 0-.78-.64.8.8 0 0 0-.79.62c-1.32 5.9-3.67 11.68-4.67 18.17-.7 4.55.16 9.02-.75 9.52-8.21 4.43-4.94 15.48.92 16.58a.8.8 0 0 1 .65.77c.14 6.29 8.33 7.68 10.86 14.2.16.42.4 1.15.98 1.12.21-.02 1.37-3.33 1.47-3.68 1.86-7.22-1.57-16.43 3.47-22.98.16-.2.2-.45.13-.7a.78.78 0 0 0-.5-.54 9.13 9.13 0 0 1-3-1.76.78.78 0 0 1-.23-.8c.08-.3.3-.51.61-.58 4.53-.9 8.41-3.29 13.37-5.05 5.1-1.82 11.04-3.14 15.09-6.56 5.17-4.37 7.62-11.8 8.07-23.97a.8.8 0 0 1 1.6-.09c1.28 9.03.36 22.6 3.52 29.1 4.45 9.2 14.4 8.94 19.32 15.97.2.28.2.65-.01.93a.8.8 0 0 1-.89.3" style="fill-rule:evenodd;clip-rule:evenodd;fill:#fff"/><path d="M173.6 143.12c-9.12-12.05 9.35-19.08 15.1-27.99 7.68 7.9-1.72 19.97-2.58 29.96l-4.76-3.16c2.36-5.75 4.8-11.49 4.32-17.41-4.96 3.93-5.42 13.87-12.08 18.6" style="fill-rule:evenodd;clip-rule:evenodd;fill:#fff"/><path d="M127.55 209.16c-.41 2.8 1.2 4.37 4.27 5.04.05 0 .1 0 .13-.04.97-1 1.92-2.62 2.31-3.95a.13.13 0 0 0-.06-.15.13.13 0 0 0-.16.03c-.37.4-.86.9-1.37 1.25a.13.13 0 0 1-.18-.2 10.75 10.75 0 0 0 2.17-3.7.13.13 0 0 1 .07-.07c1.1-.6 1.64.47 2.44.48.06 0 .12-.04.13-.1.5-2.6-2.2-3.85-4.49-3.73-2.43.12-4.43 1.95-5.26 5.13v.01" style="fill-rule:evenodd;clip-rule:evenodd;fill:#3a003a"/><path d="M132.81 204.02c2.29-.12 5 1.13 4.5 3.72a.13.13 0 0 1-.14.11c-.8 0-1.35-1.07-2.44-.48a.13.13 0 0 0-.07.08 10.75 10.75 0 0 1-2.17 3.7.13.13 0 0 0 0 .17c.05.05.13.06.18.02.5-.35 1-.84 1.37-1.25.04-.05.1-.06.16-.03s.08.1.06.15a10.72 10.72 0 0 1-2.32 3.95.13.13 0 0 1-.12.04c-3.07-.67-4.68-2.24-4.27-5.04v-.01c.83-3.18 2.83-5 5.26-5.13m30.68-9.25c-7.19 2.38-17.15.05-20.84 11.28-1.7-3.37-5.3-6.65-9.4-6.34-2.9.22-5 2.42-7.24 4.21-1.94 1.56-2.27 4.91-2.61 7.78-1.5-4.34-3.75-5.32-5.35-3.06.37 1.54 2.13 3.31 3.41 5.1-.67 4.77.75 7.7 3.6 9.37 1.32.78 2.76.95 4.23.51 10.05-3 10.84-13.63 16.58-16.3a.53.53 0 0 1 .66.17c.15.22.12.5-.06.69-5.39 5.37-2.79 13.53-11.48 17.8 7.46 1.43 11.79-1.42 12.53-9.72 1.5-9.5 8.45-8.66 12.67-13a20.82 20.82 0 0 1 10.64-4.6c4.89-.68 9.34 0 12.98-1.6 15.93-7.05 25.86-15.79 11.34-38.35l-.54-.83.13.97c2.66 20.04-5.75 31.4-26.94 33.62a74.28 74.28 0 0 1-6 .37l1.3 1.12.78.68-.39.14zm-1.11-57.85c-4.03-5.63 2.59-11.3.5-17.28-3.14 7.21-15.98 8.46-9.61 22.92.08-5 1.34-9.06 3.88-12.08-1.12 5.34-.94 6.24 1.94 8.62a24.01 24.01 0 0 1 3.3-2.18m24.93-16.73c-.46 1.45-1 2.9-1.65 4.33.36 4.47-.93 8.84-2.6 13.18 1.62-.01 3.2.01 4.73.1v-.02c1.21-3.7 2.72-7.47 3.45-11.06l.01-.04c.18-.85.3-1.7.38-2.52.11-1.4.06-2.76-.22-4.05a10.1 10.1 0 0 0-2.73-4.98l-.08.13-.13.57a59.05 59.05 0 0 1-1.07 4.07l-.1.29" style="fill-rule:evenodd;clip-rule:evenodd;fill:#e1e5e5"/><path d="M157.15 130.48c1.9-3.61 5.7-6.11 5.72-10.84-3.13 7.21-15.97 8.46-9.6 22.92.08-5 1.34-9.06 3.88-12.08m8.63 148.19c7.71-3.13 7.68-10.09.99-14.5a.53.53 0 0 1-.22-.6.53.53 0 0 1 .5-.39c6.54-.24 9.77-2.31 11.6-5.08.08-.13.1-.26.07-.4-1.18-5.4 1.31-11.82 3.68-16.33l.02-.05c.17-.56.1-1.7.08-2.29-.07-1.8-.12-3.4.06-5.13a.52.52 0 0 0-.22-.49.52.52 0 0 0-.54-.04c-3.42 1.62-7.34 5.87-13.44 8.22-8.67 3.33-17.84 10.04-20.55 12.37-3.5 3-4 7.07-3.06 10.59 1.7 6.4 11.25 18.85 14.9 27.35 2.44 5.65.99 4.65-.05 10.9-.02.16.01.3.1.42a26.39 26.39 0 0 1 5.36 15.9c0 .19.1.35.26.45.16.1.35.1.52.02 5.98-3.15 10.34-8.13 11.18-17.08a.51.51 0 0 0-.08-.34c-4.97-7.54-6.02-10.08-6.45-19.8a.52.52 0 0 0-.4-.5c-1.6-.42-3.17-.97-4.5-2.33a.52.52 0 0 1-.13-.48.53.53 0 0 1 .32-.39" style="fill-rule:evenodd;clip-rule:evenodd;fill:#fff"/><path d="M178.92 331.2c-4.46.1-8.38-2.06-11.97-5.6 6.65-4.47 10.52-10.84 13.44-18.05 5.9 6.12 5.57 13.96-1.47 23.65" style="fill-rule:evenodd;clip-rule:evenodd;fill:#5d0d5d"/><path d="M149.97 172.74c4.54 1.24 7.36-7.43 9.08-10.72 3.48-6.67 7.84-10.89 18.55-3.88.05.03.08.1.06.15a.13.13 0 0 1-.14.08c-10.78-1.07-3.17 8.9-14.38 12.42-6.94 2.17-10.84 6.38-14.19 12.35a.25.25 0 0 1-.31.11.25.25 0 0 1-.16-.3c.62-2.45 1.4-4.83 2.9-6.8a.25.25 0 0 0 .04-.21.25.25 0 0 0-.14-.17c-1.02-.52-1.53-1.1-1.47-2.9 0-.05.02-.08.05-.1a.12.12 0 0 1 .1-.03" style="fill-rule:evenodd;clip-rule:evenodd;fill:#3a003a"/><path d="M148.49 182.96c.62-2.46 1.4-4.84 2.88-6.81a.25.25 0 0 0 .05-.21.25.25 0 0 0-.13-.17c-.76-.38-1.23-.8-1.41-1.7a.13.13 0 0 0-.11-.11c-.06 0-.11.03-.13.08-2.49 6.26-7.54 9.99-9.53 16.97-.01.06.01.13.07.15.06.03.12.01.16-.04a26.17 26.17 0 0 1 6.2-6.4.12.12 0 0 1 .12 0c.04.01.07.05.07.1l.27 3.26c0 .06.06.11.12.12.07 0 .12-.04.13-.1a19.58 19.58 0 0 1 2.13-5.7l-.01.01a50 50 0 0 0-.42.73c-.06.11-.2.16-.31.11a.25.25 0 0 1-.15-.3m8.18-15.86c.97-1.91 1.75-3.86 2.38-5.07a24.67 24.67 0 0 1 2.48-3.95c.38-.48.78-.91 1.2-1.3a8.44 8.44 0 0 1 2.43-1.64c1.65-.7 3.6-.83 6.02-.14 1.4.4 2.94 1.08 4.67 2.07.57.33 1.15.69 1.76 1.08.04.04.07.1.05.15a.13.13 0 0 1-.14.08c-2.28-.22-3.74.04-4.73.64l-.14.1c-3.41 2.28-.86 8.79-9.2 11.58l-.3.1c-1.42.44-2.71.97-3.9 1.58a20.77 20.77 0 0 0-4.71 3.32.13.13 0 0 0-.01.17c.03.05.1.07.16.03.3-.16.59-.32.9-.47a27.77 27.77 0 0 1 4.37-1.6c.88-.26 1.76-.5 2.62-.74a29.1 29.1 0 0 0 4.4-1.5c7.78-3.63 4.12-12.43 12.93-12a.13.13 0 0 0 .06-.24l-1.9-.9a25.56 25.56 0 0 0-5.14-4.23c-8.34-5.25-13.43.22-16.3 6.62-.49 1.1-.94 2.23-1.38 3.34a37.35 37.35 0 0 1-2.53 5.41 9.33 9.33 0 0 1-2.67 2.97.13.13 0 0 0-.05.13c0 .05.04.09.1.1 1.33.31 2.52-.24 3.58-1.25a16.76 16.76 0 0 0 3-4.44z" style="fill-rule:evenodd;clip-rule:evenodd;fill:#e1e5e5"/><path d="M227.46 306.51c.36 1.05.61 2.07.75 3.1.42 2.69.24 5.48-.52 8.32 5.61-.33 8.44-1.2 9.48-4.15.9-2.55.28-6.04-1.97-9.27-3.52-5.06-8.16-6.55-13.88-7.76l2.96 3.87a20.47 20.47 0 0 1 3.18 5.9" style="fill-rule:evenodd;clip-rule:evenodd;fill:#5d0d5d"/><path d="M333.03 149.53c.22-.21.46-.4.74-.57a46.65 46.65 0 0 0 4.72-3.36c2.86-2.3 5.48-4.89 8.31-7.22a20.1 20.1 0 0 1 4.17-2.82c2.5-1.17 5.6-.86 8.19-.12.66.19 1.19.5 1.67.99 5.78 5.83 7.52 13.7 7.5 21.68 0 .53-.1 1.04-.3 1.5.14.72.06 1.47-.24 2.2a6.84 6.84 0 0 1-3.93 3.75c-12.4 4.66-27.46 2.31-36.1-8.27a3.75 3.75 0 0 1-.76-3.38 3.74 3.74 0 0 1 2.25-2.62c1-.42 1.98-.9 2.94-1.41.27-.15.55-.27.84-.35" style="fill-rule:evenodd;clip-rule:evenodd;fill:#3a003a"/><path d="M364.23 160.3c-10.64 3.94-23.22 1.76-30.2-7.04a34.83 34.83 0 0 1-3.29 1.59c7.43 9.09 20.63 11.28 31.77 7.1.8-.3 1.41-.9 1.72-1.64" style="fill-rule:evenodd;clip-rule:evenodd;fill:silver"/><path d="M342.2 157.45c6.48 3.42 14.5 3.53 21.36.99l.92-.34c.02-7.65-1.69-14.22-6.38-18.96-1.83-.52-3.84-.73-5.26-.18-.55.42-1.02.82-1.32 1.07-3.43 2.93-6.52 6.19-10.01 9.09a58.06 58.06 0 0 1-5.13 3.81 20.68 20.68 0 0 0 5.81 4.52" style="fill-rule:evenodd;clip-rule:evenodd;fill:#7e7e7e"/><path d="M353.44 138.78a20.2 20.2 0 0 1 2.62 1.93 1.35 1.35 0 0 0-1 .1c-1.34.78-.75 4.34 1.31 7.94 2.07 3.6 4.83 5.89 6.17 5.1.2-.12.37-.3.48-.55.36 1.61.6 3.3.77 5.06l.7-.26c.24-7.3-1.87-14.25-6.4-18.96-.93-.46-3.66-.58-4.65-.36" style="fill-rule:evenodd;clip-rule:evenodd;fill:silver"/><path d="M345.4 163.34c1.04-.44 2-1 2.88-1.67a23.85 23.85 0 0 1-13.62-7.66 42.87 42.87 0 0 1-3.16 1.72 23.55 23.55 0 0 0 .84.88 25.4 25.4 0 0 0 12.94 6.77l.11-.04" style="fill-rule:evenodd;clip-rule:evenodd;fill:#7e7e7e"/><path d="M301.8 155.37a4 4 0 0 1-2.04.33c-12.39-1.12-20.34-7.78-26.48-18.12-2.08-3.5-3.77-7.17-5.8-10.67-.62-1.08-2.25-4.9-3.53-5.3a1.19 1.19 0 0 0-.4-.06c-2.15.05-6.37.69-6.31.17 1.02-8.68 13.88-11.8 20.95-8.72.21-.16.44-.3.68-.41 2.97-1.45 6.21-1.85 9.27-.4 1.85.86 3.31 2.23 4.5 3.9-1.63-4.3-1.92-8.8-1.14-13.68-4.71-.56-8.8-2.84-9.91-8.04-.2-.96-.07-1.9.36-2.7a10.68 10.68 0 0 1-2.46-7.23c0-.33.05-.66.12-.97-5.07-5.25-5.3-12.55-4.44-19.43a3.98 3.98 0 0 1 4.9-3.4 26.7 26.7 0 0 1 2.82-7.07 3.97 3.97 0 0 1 4.61-1.88 4 4 0 0 1 1.47.78 20.3 20.3 0 0 1 6.76-7.17 3.97 3.97 0 0 1 4.95.5 3.97 3.97 0 0 1 .65 4.93c-2.66 4.44-4.58 9.65-3.48 14.88.7 3.34 2.81 6.26 4.8 8.97l1.38 1.9c5.74-4.03 10.57-6.28 17.56-6.59.1-.57.32-1.13.68-1.65 1.99-2.87 5.1-5.5 8.85-4.5 3.67.98 5.31 4.77 5.8 8.2.09.62.15 1.24.17 1.87.2.08.39.19.57.3 6.46 4.06 9.59 10.49 9.86 17.7 4.16-2.83 9.1-4.8 12-8.71 3.2-4.3 4.1-9.9 4.1-15.14 0-1.91 1.3-3.52 3.17-3.92 1.87-.4 3.71.54 4.49 2.28a21.1 21.1 0 0 1 1.8 8.78 3.97 3.97 0 0 1 3.96 4.1c-.06 2.68-.4 5.16-1.02 7.42a3.98 3.98 0 0 1 2.13 5.04c-2.26 6.16-5.48 12.61-11.74 15.2-.07.33-.18.66-.34.98a11.42 11.42 0 0 1-5.02 5.28c.03.9-.24 1.78-.81 2.55-3.42 4.57-8.28 4.61-12.8 2.27-.14.2-.28.4-.44.6a22.1 22.1 0 0 1-3.48 6.85c.88.5 1.7 1.12 2.48 1.83 7.82-2.3 18.97 3.74 15.92 10.91-.77 1.6-3.69-.64-5.46-.9-1.38-.2-4 2-4.94 2.8-3.43 2.93-6.52 6.19-10.02 9.08-4.52 3.75-9.39 6.83-15.03 8.65-7.07 2.27-14.3 2.2-21.55.43l-3.14-.77.02-2.05z" style="fill-rule:evenodd;clip-rule:evenodd;fill:#3a003a"/><path d="M316.14 143.97c5.83-3.44 10.23-8.1 14.07-11.51.2-.02.4.02.61.1a4 4 0 0 0 2.43.21l.58-.12a3.8 3.8 0 0 0 1.8-.9c.1-.1.22-.18.35-.24 1.82-.8 3.44-1.82 4.87-3.03a9.5 9.5 0 0 1 2.63 1.81c.05.04.07.1.05.16a.16.16 0 0 1-.11.12c-7.6 2.18-14.82 13.41-21.98 16.84a.16.16 0 0 0-.08.21c.03.08.11.13.2.1 8.19-1.78 17.02-14.17 24.28-16.2h.02c4.02-1.68 8.95-.79 11.24 1.46.06.05.07.13.04.2-.03.06-.1.1-.17.09-9.15-1.34-18.3 21.91-41.33 22.2a15.14 15.14 0 0 0 .5-11.5m-18.73-4.7a18 18 0 0 1-3.82-8.21c-.9-4.78-3.37-19.55-12.97-14.87a.16.16 0 0 0-.1.14c0 .07.03.12.1.15 5.03 2.7 3.2 16.73 9.1 22.32.06.05.07.15.02.22a.17.17 0 0 1-.21.05c-5.25-2.82-6.79-12.51-8.34-17.2-2.43-7.37-11.6-7.43-17.83-3.56a.17.17 0 0 0-.07.18c.02.08.08.13.16.12 9.54-.23 10.27 24.25 28.86 31.35a15.17 15.17 0 0 1 5.1-10.69z" style="fill-rule:evenodd;clip-rule:evenodd;fill:#5d0d5d"/><path d="M302.47 159.01c4.33 1 8.82-2.27 10.03-7.31 1.22-5.05-1.3-9.95-5.63-10.96-4.33-1-8.82 2.27-10.03 7.32-1.22 5.04 1.3 9.95 5.63 10.95" style="fill-rule:evenodd;clip-rule:evenodd;fill:#fff"/><path d="M302.88 157.34c3.53.82 7.2-1.86 8.19-5.98a8.6 8.6 0 0 0-.15-4.6c-1.61 3.85-5.36 6.17-8.98 5.33a6.8 6.8 0 0 1-3.87-2.54c-.39 3.69 1.6 7.04 4.8 7.79" style="fill-rule:evenodd;clip-rule:evenodd;fill:silver"/><path d="m300.22 146.04 2.21.49.5-2.22 3.13-2.02 1.98 3.13-.51 2.22 2.21.48 1.98 3.12-3.14 2.01-2.2-.48-.51 2.22-3.13 2.02-1.97-3.13.5-2.22-2.21-.48-1.98-3.13z" style="fill-rule:evenodd;clip-rule:evenodd;fill:#3a003a"/><path d="M303.8 152.3c1.46.31 2.9-.62 3.24-2.08A2.68 2.68 0 0 0 305 147a2.73 2.73 0 0 0-3.23 2.07 2.68 2.68 0 0 0 2.03 3.23" style="fill-rule:evenodd;clip-rule:evenodd;fill:#008b8b"/><path d="M348.3 228.3c8.43-4.75 16.67-10.22 24.9-15.2 8.9-5.4 17.42-10.36 27.55-13.2 8.33-2.32 16.71-3.58 25.3-4.68 7.17-.9 14.33-1.73 21.4-3.14 7.82-1.55 15.34-3.8 22.54-6.89 23.34-10.01 41.63-25.4 58.23-42.6a5.65 5.65 0 0 1 7.05-.91 5.65 5.65 0 0 1 2.46 6.66 192.7 192.7 0 0 1-8.1 20.73 9.2 9.2 0 0 1 10.38 7.08c2 7.94-.64 16.17-4.65 22.98-3.6 6.13-8.6 11.67-14.11 16.43l.31-.13.64-.27.68-.12c3.98-.69 8.2.06 10.8 3.4 4.75 6.04-.1 13.8-4.75 18.08l-.07.06-.07.06c-9.38 8.12-19.94 14.52-31.75 18.36 3.53.44 7.06.84 10.6 1.22l.56.06.54.16c2.09.61 3.9 1.9 5.13 3.65 3.59 5.11.97 11.2-4.2 13.89l-.38.2-.41.14c-11.99 4.16-23.8 6.69-35.47 6.9 3.17 1.3 6.35 2.58 9.55 3.84 7.28 2.33 9.67 9.5 4.09 14.74-6.33 5.95-19.29 4.85-27.42 3.66a129 129 0 0 1-1.56-.24l1.07.7a6.58 6.58 0 0 1 3.03 6.13 6.38 6.38 0 0 1-3.93 5.28c-7.64 3.23-16.44 1.96-24.36-.92 1.47 2.58 1.92 5.54.2 8.27-1.79 2.83-5.11 3.9-8.41 3.69a44.7 44.7 0 0 1-17.59-5.07 7.84 7.84 0 0 1-1.16 6.86c-2.71 3.7-7.87 4.16-12.1 2.9l-.09-.02-.09-.03a50.44 50.44 0 0 1-13.44-6.72c-2.77 3.66-8.32 4.2-12.5 2.07a64.7 64.7 0 0 1-11.89-7.73c-2.27 2.86-6.7 4.08-11.11 2.18a34 34 0 0 1-13.53-9.55c-3.2 1.85-5.34 1.01-8.54-.79-3.25-1.83-6-4.72-8.06-7.73a35.9 35.9 0 0 1-4.54-9.38c-.82.15-1.68.2-2.55.15-4.84-.29-8.55-3.5-10.47-7.7-2.44-5.33-2.11-12.01-1.19-17.58l.22-1.3c-4.94-4.95-6.43-13-5.7-20.15-2.35-2.88-5-2.15-8.18-.03 3-3.86 11.58-9.2 11.84-9.23 19.08-1.7 38.62-.95 53.3-9.22" style="fill-rule:evenodd;clip-rule:evenodd;fill:#3a003a"/><path d="M294.25 244.21c-2.77-4.28-7.28-8.97-10.05-13.26 1.89-4.07 6.61-4.6 10.98-1.55 42.1 19.28 57.92 1.52 80.46-12.14 53.04-32.15 80.78 4.96 154.28-68.8a.99.99 0 0 1 1.26-.13 1 1 0 0 1 .39 1.18c-28.87 78.36-83.09 59.15-128.13 75.3-11.73 4.2-21.8 13.06-33.17 19.57-21 12.01-46.14 20.5-76.02-.17" style="fill-rule:evenodd;clip-rule:evenodd;fill:#fff"/><path d="M524.05 220.77c-25.26 10.67-51.17 16.74-78.27 14.48a15.83 15.83 0 0 1-5.42 3.46c20.93 5.76 41.15 5.53 60.67-.79a.29.29 0 0 1 .2.54c-18.88 8.09-40.1 9.55-64.35 2.56a8.36 8.36 0 0 1-1.56 4.92c33.8 12.92 63.66 8.6 89.42-13.68 6.66-6.12 6.46-12.73-.69-11.49m-91.17 43.9c24.65 14.47 49.27 12.71 73.87 4.17 4.13-2.15 3.08-6.03.35-6.84-24.9-2.65-49.56-6.64-73.62-13.85a16.35 16.35 0 0 1-4.38 2.99c16.04 7.97 33 12.57 50.63 14.83a.29.29 0 0 1-.04.57c-19.52-.46-38.16-4.14-55.2-13.68-.52.15-1.05.29-1.58.42a58.78 58.78 0 0 1 6.02 4.96c1.84 1.78 3.56 4 3.95 6.43zM481 290.53c-16.28-6.45-32.52-13.25-48.56-22.4l-.09.2a6.54 6.54 0 0 1-2.87 3l-.33.17-.35.13c-.48.18-.96.35-1.44.5a170.08 170.08 0 0 0 26.81 15.92.28.28 0 0 1-.22.52c-11.1-3.98-21.54-8.98-30.97-15.5-3.8.52-7.88.34-12.03-.31 8.94 9 18.77 15.74 29.56 20.04 8.46 3.37 35.22 9.43 42.3 2.78 1.88-1.75 2-3.93-1.8-5.05zm-25.14 18.2c-15.56-10.1-31.19-21.03-45.6-34.13a7.28 7.28 0 0 1-3.06 3.18 171.56 171.56 0 0 0 20.95 20.53c.11.1.13.28.04.4a.28.28 0 0 1-.39.06 136.56 136.56 0 0 1-23.72-19.74 22.11 22.11 0 0 1-7.2.6c20.3 23.44 44.96 36.23 58.86 30.36a.7.7 0 0 0 .44-.59.7.7 0 0 0-.32-.67zm-28.25 7.03c-11.54-10.96-22.63-22.46-32.41-35.53a18.7 18.7 0 0 1-4.32 2.32 175.5 175.5 0 0 0 12.76 20.16.3.3 0 0 1-.05.39.28.28 0 0 1-.4-.03 142.91 142.91 0 0 1-15.08-19.73c-2.73.53-5.42.4-8.02-.24 7.85 16.62 25.98 36.22 45.84 37.46 2.95.18 4.65-1.5 1.68-4.8zm-25.91 5.54c-8.97-12.7-17.64-25.46-23.83-38.87-.5-.18-.98-.37-1.47-.59a7.4 7.4 0 0 1-1.2 3.18c-.43.64-.9 1.21-1.43 1.72 1.94 5.6 4.19 11.11 6.7 16.54a.29.29 0 0 1-.5.27c-3-5.03-5.71-10.15-8.06-15.38a12.24 12.24 0 0 1-7.8 1.57c6.23 17.86 16.44 30.54 32.35 35.76 3.68 1.09 7.54-.15 5.24-4.2zm-25.32-2.91c-5.85-9.52-11.78-19.02-14.71-29.17-.77-.23-1.53-.54-2.26-.9a63.55 63.55 0 0 1-4.65-2.6c1 4.3 2.16 8.6 3.48 12.85a.28.28 0 0 1-.54.2c-2.07-4.86-3.9-9.75-5.44-14.7a49.22 49.22 0 0 1-5.3-4.21 8.36 8.36 0 0 1-2.24 2.95c1.7 19.06 11.82 30.8 26.7 38.41 3.11 1.59 6.42-.27 4.96-2.83zm-24.46-5.94c-4.32-9.13-8.27-18.35-9.56-28.25a9.48 9.48 0 0 1-6.01.13 186 186 0 0 0 1.51 10.36.28.28 0 0 1-.55.12c-1.05-3.7-1.97-7.4-2.74-11.1a20.85 20.85 0 0 1-3-1.56l-.14-.1-.14-.09a32.89 32.89 0 0 1-3.42-2.75c.58 18.95 7.17 31.16 20.1 36.26 2.56 1.15 5.45 0 3.95-3.02zm-22.28-10.28c-2.52-8.54-4.33-17.21-4.75-26.14a28.7 28.7 0 0 1-1.8-2.48 9.8 9.8 0 0 1-3.3.47 185 185 0 0 0 .01 12.13.29.29 0 0 1-.56.05c-.57-4.14-1-8.26-1.23-12.36a15 15 0 0 1-4.35-1.55c-4.28 30.65 19.58 41 15.98 29.88zm-18.59-18.14c-.53-4.6-.57-9.13-.2-13.58l-.44-.35a20.92 20.92 0 0 1-2.68-2.7c-.5.36-1 .66-1.52.92a201 201 0 0 0-.48 6.98.29.29 0 0 1-.57 0 175 175 0 0 1-.23-6.46c-1.3.45-2.66.6-3.98.5-2.28 13.7 2.25 18.22 5.97 18.44 2.45.14 4.56-1.57 4.13-3.75zm195.83-84.98c-11.89 10.32-25.45 16.01-40.93 19.5a267.22 267.22 0 0 1-21.29 3.67 11.7 11.7 0 0 1 2.55 3.14c22.88.43 43.27-5.22 61.14-17.05a.28.28 0 0 1 .33.46c-15.84 12.73-35.62 19.84-60.48 19.77a8.26 8.26 0 0 1-.77 4.35c77.7 7.51 104.11-71.13 77.85-56.05-5.01 8.24-11.04 15.83-18.4 22.21z" style="fill-rule:evenodd;clip-rule:evenodd;fill:#fff"/><path d="M310.68 279.22a25.7 25.7 0 0 1-4.53-2.91c-1.91.5-3.87.67-5.8.51-.05-2.12.12-4.6.6-7.48a10 10 0 0 0 4-.5c.03 2.15.1 4.3.22 6.46a.28.28 0 0 0 .57 0c.12-2.34.27-4.67.47-6.99.52-.25 1.03-.55 1.53-.9a20.98 20.98 0 0 0 3.12 3.04 69.2 69.2 0 0 0-.18 8.77m7.99 2.28a20.36 20.36 0 0 1-5.51-1.2c-.04-2.5.11-5.17.5-8.01a15.1 15.1 0 0 0 4.36 1.55c.15 2.55.37 5.1.65 7.66zm7.5 6.04a38.3 38.3 0 0 1-6.41-5.99h-.04c-.03-2.52 0-5.03.08-7.53a9.8 9.8 0 0 0 3.3-.47 28.7 28.7 0 0 0 1.8 2.48 93.8 93.8 0 0 0 1.28 11.51zm10.39 4.52a23.27 23.27 0 0 1-7.7-2.77 70.7 70.7 0 0 1-.98-10.08 32.9 32.9 0 0 0 3.42 2.75l.14.1.14.09a20.8 20.8 0 0 0 3 1.56 155.4 155.4 0 0 0 1.98 8.35zm7.27-.45c-2.1.64-4.24.8-6.38.57-.42-2.61-.78-5.23-1.1-7.85 2 .55 4.07.62 6.02-.13a60.6 60.6 0 0 0 1.46 7.41zm12.38 3.53-.12-.06a67.22 67.22 0 0 1-8.58-5.16 16 16 0 0 1-1.5.83c-.6-2.5-1.03-5.14-1.28-7.94 1-.84 1.73-1.84 2.25-2.95a49.44 49.44 0 0 0 5.3 4.22 148.6 148.6 0 0 0 3.93 11.06zm8.45 2.2a21.08 21.08 0 0 1-7.29-1.66 184.9 184.9 0 0 1-2.6-9.97c1.5.92 3.04 1.79 4.65 2.6.73.37 1.49.68 2.26.91.8 2.75 1.8 5.46 2.98 8.12zm10.5-2.45a19.1 19.1 0 0 1-8 2.42 86.5 86.5 0 0 1-3.03-7.57c2.74.33 5.5-.18 7.79-1.57 1.01 2.26 2.1 4.5 3.24 6.72zm7.1-3.77c-.75-.06-1.49-.16-2.23-.3a18 18 0 0 1-3.53 3.23 172 172 0 0 1-2.73-7.3c.53-.51 1.01-1.09 1.44-1.73a7.41 7.41 0 0 0 1.2-3.17c.49.2.98.4 1.47.58a150.6 150.6 0 0 0 4.38 8.7zm10.27-1.23a25.18 25.18 0 0 1-7.9 1.33 72.5 72.5 0 0 1-4.53-8.12c2.6.64 5.29.77 8.02.24 1.4 2.22 2.87 4.4 4.41 6.56zm8.08-2.75c-.83.05-1.66.08-2.48.07a26.4 26.4 0 0 1-3.53 1.88 161.87 161.87 0 0 1-3.72-6.54 18.69 18.69 0 0 0 4.33-2.32 209.6 209.6 0 0 0 5.4 6.9zm9.27-2.38a23.08 23.08 0 0 1-6.34 2.02 136.66 136.66 0 0 1-6.66-7.15l1.4.05c1.82.02 3.88-.15 5.8-.65a117.6 117.6 0 0 0 5.8 5.73zm7.62-3.85c-.83 0-1.67-.04-2.52-.1-.81.97-1.75 1.82-2.77 2.55a155.42 155.42 0 0 1-5-5.58 7.3 7.3 0 0 0 3.07-3.18 237.8 237.8 0 0 0 7.22 6.31zm14.2-2.39-.43.16a35.5 35.5 0 0 1-11.22 2.2 100.18 100.18 0 0 1-9.1-8.12c4.15.66 8.24.83 12.04.32 2.81 1.95 5.72 3.75 8.7 5.44zm7.19-6.85a14.11 14.11 0 0 1-4.48 5.31 156.51 156.51 0 0 1-7.04-4.85c.48-.15.96-.32 1.43-.5l.36-.13.33-.18a6.54 6.54 0 0 0 2.96-3.2c2.14 1.23 4.29 2.41 6.44 3.55zm0-12.22a14.31 14.31 0 0 1 1.12 8.96 83.03 83.03 0 0 1-7.13-3.74c-.39-2.42-2.11-4.65-3.95-6.43a59.02 59.02 0 0 0-6.02-4.96 38.2 38.2 0 0 0 1.58-.42 98.64 98.64 0 0 0 14.4 6.6zm2.31-9.1a21.85 21.85 0 0 1-4.1 4.46 147.28 147.28 0 0 1-8-3.67c1.68-.82 3.18-1.8 4.38-3 2.57.78 5.14 1.51 7.72 2.2zm6.07-6.81a27.04 27.04 0 0 1-3.68 1.92c-.31 1-.72 1.99-1.21 2.94-2.34-.74-4.69-1.56-7.06-2.46 1-1.5 1.62-3.17 1.56-4.92 3.52 1.01 6.99 1.85 10.4 2.52zm7-7.85a16.04 16.04 0 0 1-3.76 5.35 120.2 120.2 0 0 1-10.15-2.33c2.07-.85 4-1.97 5.42-3.46 2.84.24 5.67.38 8.48.44zm1.3-7.34c-2.4.13-4.85.2-7.36.2a8.26 8.26 0 0 1-.77 4.34c2.6.25 5.13.4 7.61.46a17.6 17.6 0 0 0 .52-5zm-2.3-7.41c-2.86.45-5.73.87-8.6 1.27a11.9 11.9 0 0 1 2.55 3.15c2.67.05 5.3.02 7.9-.1a15.7 15.7 0 0 0-1.86-4.32z" style="fill-rule:evenodd;clip-rule:evenodd;fill:#e1e5e5"/><path d="M309.36 256.77c.89 10.38 16.6 17.54 13.76 3.97a67.26 67.26 0 0 1-13.76-3.97m15.17 4.2c1.15 6.44 4.17 12.05 10.23 16.3 11.25 7.01 6.56-10.15 5.17-15.96a61.1 61.1 0 0 1-15.4-.34zm17.03.15c3.35 10.06 10.67 17.05 20.56 22.05 3.07 1.56 6.48.95 8.03-1.38 2.33-3.47-8.46-17-13.61-24.39-1.91.7-3.85 1.31-5.82 1.86a66.7 66.7 0 0 1-9.16 1.86zm16.58-4.32c14.24 19.76 25.12 24.4 33.2 18.9 1.29-.67-4.87-3.18-5.64-5.5 9.64 6.09 22.7 3.5 18.36.01-4.6-3.7-23.2-11.18-32.57-19.73-4.3 2.38-8.75 4.54-13.35 6.32zm15.54-7.56c16.04 13.15 40.42 21.72 52.82 16.98 2.96-1.58-9.56-10.31-15.2-13.76a136.26 136.26 0 0 1-27.28-9.8 266.6 266.6 0 0 1-4.3 2.86 128.68 128.68 0 0 1-6.04 3.72zm12.48-8.03c8.21 4.6 16.3 7.24 23.13 7.52 3.28.13 15.3-.16 19.87-4.7 5.89-5.86-5.09-5.02-8.5-5.41-7.63-.87-16.19-1.91-23.08-4.64a149.37 149.37 0 0 0-11.42 7.23zm14.33-8.75c22.7 8.12 55.82.28 35.31-8.98-10.3 1.52-20.53 3.33-30.18 6.78a49.65 49.65 0 0 0-5.13 2.2zm-103.74 17.88c-3.02 14.18 7.95 18.15 11.25 5.87a85.53 85.53 0 0 1-11.25-5.87z" style="fill-rule:evenodd;clip-rule:evenodd;fill:#fff"/><path d="M309.36 256.77c.89 10.38 16.6 17.54 13.76 3.97a67.26 67.26 0 0 1-13.76-3.97m32.29 12.43c-4.61.72-9.2 1-13.8.82a25.92 25.92 0 0 1-3.32-9.05c5.02.75 10.15.89 15.4.34.45 1.86 1.23 4.87 1.72 7.89zm19.42-5.49a91.53 91.53 0 0 1-15.98 4.87 33.87 33.87 0 0 1-3.53-7.46c3.01-.4 6.07-1 9.16-1.86 1.97-.55 3.9-1.17 5.82-1.86 1.26 1.81 2.86 4 4.53 6.31zm16.84-8.33-1.01.59c-4.71 2.7-9.38 5.04-14.02 7a121.75 121.75 0 0 1-4.74-6.17c4.6-1.78 9.05-3.94 13.35-6.32a53.56 53.56 0 0 0 6.42 4.9zm13.97-9.2c-3.97 2.65-7.9 5.42-11.73 7.83a80.07 80.07 0 0 1-6.47-4.76 135.8 135.8 0 0 0 6.05-3.73c1.41-.92 2.84-1.88 4.3-2.86 2.58 1.27 5.2 2.44 7.85 3.52zm17.07-9.16-1 .35c-4.7 1.68-9.45 4.47-14.18 7.55a72.95 72.95 0 0 1-7.6-3.71c3.7-2.52 7.5-5.07 11.4-7.23a59.72 59.72 0 0 0 11.38 3.04zm33.12-6.94c-9.56 1.35-19.08 2.78-28.11 5.36a59.23 59.23 0 0 1-13.47-2.98c1.69-.83 3.4-1.58 5.13-2.2 9.65-3.45 19.87-5.26 30.18-6.78 5.26 2.38 6.99 4.66 6.27 6.6zm-145.32 20.26c-1.27 5.95-.07 10.1 1.99 12 .81.41 1.63.8 2.45 1.17 2.54.27 5.39-2 6.81-7.3a85.53 85.53 0 0 1-11.25-5.87z" style="fill-rule:evenodd;clip-rule:evenodd;fill:#e1e5e5"/><path d="M339.22 108.36c.18 4.6-7.51 11.87-9.32 14.53-4.36 6.4-8.16 13-14.88 12.08-2.36-.33-4.58-1.79-6.48-3.79-3.62-3.82-2.23-15.54-2.16-20.87.33-2.06-3.71-5.32-3.38-7.38.21-1.33 1.38-2.43 2.54-3.46 5.24 4.22 10.55 7.44 16.4 10.74l.68.38.79-.04c5.3-.31 10.62-.98 15.8-2.19" style="fill-rule:evenodd;clip-rule:evenodd;fill:#ffc4ad"/><path d="M316.38 113.08a7.3 7.3 0 0 0 3.3-1.67c.08-.07.1-.18.07-.28a.26.26 0 0 0-.23-.18c-2.87-.21-7.63-5.52-11.4-8.02a.53.53 0 0 0-.65.05.53.53 0 0 0-.13.63c.2.41.31.87.31 1.37-1.06 4.5 2.74 7.12 8.18 7.38.1 0 .18.06.23.15.03.07.04.14 0 .21-.03.1-.01.2.05.28.07.08.17.1.27.08m5.93 4.82c-.07.33-.12 1.06.1 1.33.51.65.5 1.2.23 1.66-.21.36-.37.2-.68.34-.4.18-.53.73-1.51.55-.81-.14-1.11-.23-1.64-.7-.59-.52-1.22-.6-1.78-.99-.53-.35-.99-.84-1.03-.85-1.82-.5 1.6 2.68 1.78 2.86 1 1.01 2.7 1.73 3.9.88.48-.34.64-.32 1.07-.5.92-.53 1.3-1 1.36-1.76.05-.65-.2-1.36-.44-2.01-.43-1.23.4-2.94.6-4.24.22.26.27.45.53.69.07.06.17.08.26.03.1-.04.15-.12.17-.22 0-.07.04-.14.1-.19a.25.25 0 0 1 .26-.03c4.66 2.06 9.04 1.34 10.24-3.13.24-.45.55-.8.9-1.1.2-.15.27-.4.19-.61a.47.47 0 0 0-.52-.31c-3.43.5-8.21 2.61-11.28 2.54-1.67-.04-1.38-.69-2.81 5.75" style="fill-rule:evenodd;clip-rule:evenodd;fill:#3a003a"/><path d="M325.56 70.53c1.33 3.05 1.22 7.73-.5 12.92.77-.6 1.48-1.3 2.12-2.1l3.07-3.87 1.55 4.7c3.58-10.27-.72-19.6-6.24-11.65" style="fill-rule:evenodd;clip-rule:evenodd;fill:#fff"/><path d="M329.18 67.57c2.09 1.74 2.13 5.55 1.07 9.91l1.55 4.7c2.73-7.84.87-15.14-2.62-14.61m-6.65 15.05c.8-2.43 1.55-5.87 1.18-8.76-7.94-.08-12.51 2.34-18.55 6.72 1 1.68 1.82 3.45 2.27 5.4l.15.63c4.4.49 9.85.45 14.03-1.21l.92-2.78zm11.67.81-1 2.85c2.16 4.31 5.4 7.42 10.22 8.95.8-8.53-2.6-14.4-7.89-17.73a26.52 26.52 0 0 1-1.34 5.93" style="fill-rule:evenodd;clip-rule:evenodd;fill:silver"/><path d="m342.73 118.6-4.26 1.65c-2 2.63-3.86 6.15-5.86 8.78 4.73-1.34 8.55-4.62 10.12-10.44" style="fill-rule:evenodd;clip-rule:evenodd;fill:#7e7e7e"/><path d="m331.37 129.58-.88-.14a279.7 279.7 0 0 1 6.57-10.62c3.86-2.97 8.02-5.3 5-10.67l.4-1.61c4.96 4.1 2.98 9.19-3.77 13.76l-7.32 9.28zm-29.97-18.2c-2.23-4.05-5.51-8.3-5.48-10.65l-.2.8c-1.61 7.37.22 14.83 4.68 19.85l1.3-8.16c.1-.6 0-1.3-.3-1.84m4.9-22.36c11.16 1.52 18.69-.6 22.97-6 2.53 7.67 7.24 13.1 15.47 14.9l.11 6.08c-6.61 2.23-13.87 3.43-21.6 3.88-7.41-4.18-14.63-8.56-20.58-14.28l3.63-4.58" style="fill-rule:evenodd;clip-rule:evenodd;fill:silver"/><defs><filter id="a" width="34.93" height="21.95" x="304.33" y="85.74" filterUnits="userSpaceOnUse"><feColorMatrix values="1 0 0 0 0 0 1 0 0 0 0 0 1 0 0 0 0 0 1 0"/></filter></defs><mask id="c" width="34.93" height="21.95" x="304.33" y="85.74" maskUnits="userSpaceOnUse"><g style="filter:url(#a)"><linearGradient id="b" x1="27.28" x2="-12.77" y1="600.98" y2="639.69" gradientTransform="translate(324.71 -533.45)" gradientUnits="userSpaceOnUse"><stop offset="0" style="stop-color:#fff"/><stop offset="1" style="stop-color:#000"/></linearGradient><path d="M304.33 85.74h34.93v21.95h-34.93z" style="fill:url(#b)"/></g></mask><path d="m332.84 104.26-2.26 2.94c-.58.08-1.17.15-1.75.21l2.22-2.88 1.8-.27m5.32-8.96c.35.23.72.44 1.1.64l-1.63 2.1c-.36-.2-.73-.43-1.08-.66l1.6-2.08zm-9.21 9.5-2.18 2.82-.85.07 2.16-2.8.87-.1zm7.47-10.72.5.38-1.6 2.06a20.6 20.6 0 0 1-.49-.38l1.6-2.06zm-11.76 11.12-1.88 2.42-1.78-1.01 1.6-2.08 1.26.72.8-.05zm8.55-14.42c.43.55.87 1.08 1.35 1.58l-1.6 2.08c-.48-.5-.94-1-1.38-1.55l1.63-2.11zm-17.87 9.37-1.59 2.06-1.56-1.03 1.58-2.06c.52.35 1.04.7 1.57 1.03zm7.04-12.2a16.68 16.68 0 0 0 4.08-2.21l-3.78 4.9c-.97.33-1.98.6-3 .82l2.7-3.5zm-10.44 9.91-1.58 2.05-.76-.54 1.58-2.05.76.54zm5.51-8.67c.46-.06.92-.14 1.36-.22l-2.3 2.98-1.26.1 2.2-2.86zm-8.63.12c1.27.11 2.5.18 3.67.19l-2 2.57a53.12 53.12 0 0 1-3.19-.26l-1.17 1.48c.68.6 1.37 1.19 2.08 1.75l-1.58 2.05a64.28 64.28 0 0 1-2.3-1.95l4.5-5.83z" style="mask:url(#c);fill-rule:evenodd;clip-rule:evenodd;fill:#fff"/><path d="m340.2 101.6 1.01-.28v-.51l-.73-.26-.27 1.05zm-2.7.67c.66-.15 1.3-.3 1.95-.47l.38-1.5c-.56-.23-1.1-.48-1.64-.75l-.68 2.72zm-3.7.74a76.1 76.1 0 0 0 2.96-.57l.81-3.2c-.85-.47-1.66-.97-2.43-1.52l-1.34 5.3zm-8.13 1.03c2.22-.18 4.45-.44 6.66-.78l1.64-6.45a23.76 23.76 0 0 1-5.02-5.76l-3.28 12.99zm-5.13-1.95 1.22.71 3-11.82c-.52.23-1.04.43-1.57.62l-2.65 10.49zm-10.95-9-.35 1.4c-.55-.44-1.09-.88-1.62-1.33l.17-.22c.6.06 1.2.12 1.8.16zm2.48 3.54.87-3.43c.56 0 1.13-.01 1.7-.04l-1.13 4.48a76.6 76.6 0 0 1-1.44-1.01zm-4.76-4.82-1.17 1.48c5.34 4.71 11.56 8.47 17.73 11.96a82.3 82.3 0 0 0 18.43-3.13l-.04-2.1c-6.58-2.02-11.1-6.37-13.95-12.38-5.8 4.47-13.74 4.98-21 4.17zm60.31-23.85c0 7.97-1.94 13.56-4.88 17.52-4.3 5.8-10.96 7.35-15.35 11.53l.02.86.1 5.14c3.26-4.4 6.58-5.45 10.83-8.11 7.16-4.5 13.75-16.92 9.28-26.94" style="fill-rule:evenodd;clip-rule:evenodd;fill:#fff"/><path d="M355.63 99.54c10.86-2.34 17.15-8.73 17.41-20.44-4.15 9.52-10.32 15.73-17.42 20.44" style="fill-rule:evenodd;clip-rule:evenodd;fill:#fff"/><path d="M349.27 104.43c11.24-1.46 18.46 4 25.12-14.15-10.98 13.74-16.05 8.63-25.12 14.15m-1.3 3.55c7.62 3.7 12.25 2.76 14.5-1.88-5.03 2.4-12.75-2.02-14.5 1.88m.09 5.68c4.02 2.62 6.94 2.33 8.97-.39-2.86.61-6.21-1.54-8.66-2.11.01.86-.1 1.7-.31 2.5" style="fill-rule:evenodd;clip-rule:evenodd;fill:#fff"/><path d="M347.97 107.98c7.31.84 11.8.19 14.37-1.63-2.3 4.42-6.9 5.25-14.37 1.63m.35 4.31c2.8 1.02 5.25 3.22 8.71.98-2.03 2.72-4.95 3.01-8.97.39.12-.45.2-.9.26-1.37zm24.61-32.94.11-.24c-.26 11.64-6.48 18.02-17.23 20.39 10.1-4.96 14.76-8.1 17.12-20.15zm-13.5 12.17c7.12-5.11 9.8-14.52 8.2-23.56 4.46 10.02-2.13 22.45-9.29 26.94-4.25 2.66-7.57 3.7-10.84 8.1l-.05-3.04c3.18-3.78 7.54-5.25 11.99-8.44zm-9.56 12.84c4.7-2 9.58-.64 14.53-3.1 4.06-2.02 7.44-5.82 9.74-10.62l.09.07c-6.5 17.3-13.55 12.46-24.36 13.65z" style="fill-rule:evenodd;clip-rule:evenodd;fill:silver"/><path d="M297.9 48.67c-4.16 6.92-5.02 12.8-3.97 17.76 1.7 8.15 9.29 13.19 10.9 20.15l-.62.78-3.04 3.83c-.88-6.67-4.1-9.35-7.5-14.3-5.22-7.62-5.7-21.84 4.22-28.22" style="fill-rule:evenodd;clip-rule:evenodd;fill:#fff"/><path d="M294.13 82.33c-10.25-7.68-13.56-16.5-7.75-26.8-.56 10.42 2.71 19.03 7.75 26.8" style="fill-rule:evenodd;clip-rule:evenodd;fill:#fff"/><path d="M298.3 89.89c-11.1-7.11-21.57-6.13-19.15-25.35 4.44 17.64 12.44 15.84 19.15 25.35m-.48 3.76c-9.96-.76-14.36-3.98-14.32-9.18 4.06 4.7 14.5 4.88 14.32 9.18m-3.68 4.9c-5.2.04-7.94-1.74-8.64-5.02 2.57 1.91 6.87 1.9 9.77 2.55a7.3 7.3 0 0 0-1.13 2.47" style="fill-rule:evenodd;clip-rule:evenodd;fill:#fff"/><path d="M297.82 93.65c-8.15-3.07-12.55-5.98-14.32-8.89.12 5.03 4.55 8.15 14.32 8.89m-3.16 3.48c-3.33-.43-6.8-.05-9.16-3.6.7 3.29 3.45 5.06 8.65 5.02.12-.5.29-.97.5-1.42zm-1.07-15.64c-7.43-6.94-10.6-15.26-7.22-25.68l.01-.28c-5.78 10.25-2.54 19.02 7.58 26.67l-.37-.72zm.7-8.1c-4.86-8.14-2.8-17.7 3.6-24.72-9.92 6.38-9.44 20.6-4.21 28.22 3.38 4.95 6.6 7.63 7.5 14.3l1.77-2.23c-.8-6.04-5.25-9.83-8.67-15.57zm3.4 16.12c-3.91-4.17-9.77-5.53-13.72-10.25-3.23-3.86-4.81-8.92-4.75-14.28l-.13.01c-2.15 18.41 7.82 17.87 18.6 24.52z" style="fill-rule:evenodd;clip-rule:evenodd;fill:silver"/><path d="M331.8 119.7c-1.05 1.54-2.7 1.73-3.92.94-1.1-.72-1.77-2.31-2.4-3.2a.32.32 0 0 1 .01-.37.31.31 0 0 1 .35-.12c2.15.67 5.12.93 6.58.07a.32.32 0 0 1 .35.02c.11.08.15.21.11.34a9.22 9.22 0 0 1-1.08 2.33m-7.86-7.51c-1.15.29-1.43 2.28-1.73 3.7-.44 2.07-1.26 2.96-1.22 3.49.05.75.86.9.37 1.52-.15.18-.81.78-1.33.8l.41.07c.98.18 1.13-.37 1.52-.55.3-.14.46.02.67-.34.27-.45.29-1-.23-1.66-.21-.27-.17-1-.1-1.34.94-4.21 1.14-5.4 1.64-5.7zm-6.16 9.9c.39 2.9 3.87 1.16 2.53 2.9.1 0 .22.01.33.04.65.13 1.76 1.33 3.1 2.04.22.12.33.38.25.63a.53.53 0 0 1-.57.37 3.69 3.69 0 0 1-.4-.07c-.71 1.04-1.54 2.14-2.84 2.33.3 2.17-.09 2.62-2.74 3.33 5.6-.52 9.15-5.14 13-10.78 1.8-2.66 8.97-9.94 8.78-14.52a90.3 90.3 0 0 1-11.54 1.85 6.98 6.98 0 0 1-3.27 1.88c.2 0 .42.03.71.04 2.04.05 4.84-.87 7.5-1.63 1.33-.4 2.63-.74 3.78-.91.23-.03.44.09.52.3.07.23 0 .48-.19.63-.35.29-.66.64-.9 1.1-1.2 4.46-5.58 5.18-10.24 3.12a.25.25 0 0 0-.25.03.28.28 0 0 0-.11.2.28.28 0 0 1-.17.22.24.24 0 0 1-.26-.04c-.26-.23-.3-.43-.53-.7-.2 1.31-1.03 3.02-.6 4.25.23.65.49 1.36.44 2-.05.77-.44 1.24-1.37 1.77-.42.18-.58.16-1.06.5-1.2.85-2.9.13-3.9-.88z" style="fill-rule:evenodd;clip-rule:evenodd;fill:#e49988"/><path d="M332.5 112.85c-2.02.18-3.5.65-6.01.89-.2.02-.3.08-.39.2-.09.12-.1.23-.03.32 1.63 2.42 3.83 1.75 6.5-.82.14-.15.26-.27.25-.4-.02-.12-.14-.2-.33-.19m-22.21-5.68c1.95 1.12 3.19 2.3 5.61 3.72.19.11.26.22.28.4.02.17-.03.29-.14.35-3 1.82-4.87.1-6.14-3.88-.07-.23-.12-.42-.04-.54.08-.13.25-.16.43-.05m13.42-33.31a28.9 28.9 0 0 0-10.97 2.08 12.15 12.15 0 0 1 3.7 6.23c.4 1.53.53 3.04.42 4.43a19.9 19.9 0 0 0 4.76-1.2l.92-2.78c.8-2.43 1.55-5.87 1.18-8.76m-23 24.94c-.85.85-1.78 1.67-1.8 2.69-.06 3.23 4.28 8.46 4.22 11.69l-.03 10.98a24.8 24.8 0 0 1-1.72-2.07l.13-9.12a3.8 3.8 0 0 0-.46-1.97c-1.37-2.48-4.52-7.65-4.48-10.55.09-5.8 8.31-5.78 4.14-1.65" style="fill-rule:evenodd;clip-rule:evenodd;fill:#fff"/><path d="M318.14 125.06c-.82-.15-1.43-.81-2.25-.96-.78-.14-2.89.83-4.67.7a.32.32 0 0 0-.33.2.32.32 0 0 0 .1.37c1.43 1.1 3.55.14 5.37 1.32a4.13 4.13 0 0 0 1.24.6c.5.05.94-.01 1.36-.09a4.33 4.33 0 0 1 1.53.03c.12.03.21.1.25.22.03.12 0 .23-.08.32-1.18 1.21-3.03 1.48-5.8.46a.32.32 0 0 0-.26.58c2.73 1.49 6.6 1.62 8.3-.64a.3.3 0 0 1 .31-.12c.4.07.82.08 1.25-.03a.32.32 0 0 0 .24-.3.32.32 0 0 0-.21-.31c-1.66-.57-3.08-2.21-3.85-2.38-.8-.17-1.69.2-2.5.03" style="fill-rule:evenodd;clip-rule:evenodd;fill:#3a003a"/><path d="M336.53 91.05a20.46 20.46 0 0 1 4.7-7.63 16.65 16.65 0 0 0-5.7-5.92 26.52 26.52 0 0 1-1.34 5.93l-.99 2.85c.9 1.81 2 3.41 3.33 4.77" style="fill-rule:evenodd;clip-rule:evenodd;fill:#7e7e7e"/><path d="M170.2 267.37a12.87 12.87 0 0 0-3.43-3.21.53.53 0 0 1-.22-.59.53.53 0 0 1 .5-.39c6.54-.24 9.77-2.31 11.6-5.08.08-.13.1-.26.07-.41l-.09-.45c-.27-1.51-.27-3.1-.07-4.7a31.45 31.45 0 0 1 2.82-9.11 49.26 49.26 0 0 1 1.03-2.1l.02-.04.01-.06a.52.52 0 0 0-.18-.54.52.52 0 0 0-.56-.07c-.45.2-.9.44-1.35.7-5.78 3.31-11.06 9.98-18.74 11.54a16.7 16.7 0 0 1-5 .25.53.53 0 0 0-.53.31c-.1.21-.05.45.11.61.4.36.74.71 1.06 1.05.8.84 1.39 1.58 1.8 2.24 3.14 4.95-3.13 5.56-3.43 8.73-.03.38.09.8.35 1.28.73 1.3 2.56 2.99 5.2 5.34l1.46 1.3c.18.16.23.42.12.64-.58 1.14-1.78 1.68-3.98 1.25a.52.52 0 0 0-.54.2.52.52 0 0 0-.03.59l.85 1.48c1.55 2.76 3 5.46 4.31 8.14a103.2 103.2 0 0 1 5.8 14.01c1.4 4.35 2.4 8.7 2.93 13.11.03.22.18.4.4.46.2.05.42-.02.56-.2 2.11-2.82 3.53-6.43 3.97-11.15a.51.51 0 0 0-.08-.34 123.7 123.7 0 0 1-1.73-2.68 38.24 38.24 0 0 1-2.33-4.23 21.78 21.78 0 0 1-1.69-5.42c-.35-1.99-.55-4.3-.68-7.29l-.01-.18a.53.53 0 0 0-.4-.5c-1.6-.42-3.18-.96-4.5-2.33a.52.52 0 0 1-.14-.48.52.52 0 0 1 .32-.38c5.33-2.17 6.96-6.15 5.25-9.87-.22-.48-.5-.96-.83-1.43m115.32 10.2c-.92 20.05-9.18 27.67-17.7 26.09a30.41 30.41 0 0 1-8.24-2.82c-6.76-3.42-11.78-8.84-16.22-13.05a53.12 53.12 0 0 0-3.48-3.08c-2.53-2-4.95-3.25-7.52-3.06-1.46.1-2.96.67-4.56 1.83a23.72 23.72 0 0 0-4.7 4.83v.01a15.33 15.33 0 0 0 3.49 4.18.4.4 0 0 0 .2.11l.55.17c1.08.34 2.12.73 3.13 1.17a20.82 20.82 0 0 1 7.91 5.93l.06.04.02.06c.38.47.76.96 1.12 1.49a19.39 19.39 0 0 1 2.51 5c.04.09.09.16.16.23 20.14 17.25 58.23 16.6 78.15 14.15a.52.52 0 0 0 .41-.3l4.17-8.77a.53.53 0 0 0-.23-.7l-1.12-.6c-3.25-1.84-6-4.73-8.05-7.74a35.74 35.74 0 0 1-4.4-8.95.53.53 0 0 0-.58-.36 10.89 10.89 0 0 1-5.38-.6 13.1 13.1 0 0 1-7.21-7.01c-2.38-5.2-2.13-11.67-1.26-17.15l.07-.43.18-1.04a.52.52 0 0 0-.15-.45 18.11 18.11 0 0 1-3.38-5.06 25.95 25.95 0 0 1-2.1-7.9 33.07 33.07 0 0 1-.05-6.78.52.52 0 0 0-.12-.4 5.34 5.34 0 0 0-1.63-1.32c-1.7-.84-3.56-.3-5.65.98a.52.52 0 0 0-.26.43c0 .19.07.35.22.46 1.4 1.03 2.02 3.19 2.03 5.66 0 2.9-.84 6.24-2.27 8.73a8.62 8.62 0 0 1-2.65 3 .5.5 0 0 1-.47.05.52.52 0 0 1-.33-.34 22.83 22.83 0 0 0-5.71-9.3 37.15 37.15 0 0 0-3.05-2.76 82.4 82.4 0 0 0-2.68-2.07c-2.03-1.49-4.18-2.96-6.37-4.57a79.79 79.79 0 0 1-3.78-2.96 55.1 55.1 0 0 1-3.03-2.7 46.3 46.3 0 0 1-9.97-14.1 56.05 56.05 0 0 1-1.41-3.32 73.36 73.36 0 0 1-3.58-12.66c.5 3.56.67 7.81.88 12.07a201 201 0 0 0 .18 3.51c.33 5.3.89 10.29 2.46 13.53a16.34 16.34 0 0 0 4.78 5.84c.88.69 1.8 1.29 2.73 1.84.49.29.98.56 1.47.83 1.38.76 2.78 1.46 4.12 2.22 2.33 1.32 4.5 2.82 6.13 5.09l.1.14a.8.8 0 0 1 .13.59c-.04.23.07.45.28.56a16.27 16.27 0 0 1 6.32 6.4 15.9 15.9 0 0 1 1.53 3.8c1.18 4.66-.26 9.13-5.75 9.95a.52.52 0 0 1-.46-.14 28.67 28.67 0 0 0-3.65-3.06 25.99 25.99 0 0 0-2.91-1.77 34.7 34.7 0 0 0-8.58-2.97l-1.8-.39c-1.7-.35-3.43-.69-5.17-1.09l-.16-.04-.97-.23c-1-.26-2.02-.54-3.04-.88a.51.51 0 0 1-.33-.29l-.74-1.68-1.47-3.29a.52.52 0 0 0-.42-.31.52.52 0 0 0-.48.2l-.94 1.16a23.37 23.37 0 0 1-5.95 5.32c-.52.3-1.06.57-1.61.8a9.97 9.97 0 0 1-5 .7c-2.1-.25-4.35-1.2-6.75-3.09a13.7 13.7 0 0 1-.64-.52l-.15-.12a.52.52 0 0 0-.5-.11.52.52 0 0 0-.36.35 44.78 44.78 0 0 0-1.45 6.48 32.2 32.2 0 0 0-.15 7.57.5.5 0 0 1-.02.21l-.62 2-2.33 7.39-2.33 7.4-.41 1.3c-1.37 4.47-3.15 8.23-4.27 12.44a.52.52 0 0 0-.02.14c.04 4.57 2.52 9.25 5.12 13.47.08.13.2.2.34.24.15.03.29 0 .41-.08 2.98-2.05 6.3-4.15 9.89-4.92 1.22-.27 2.46-.37 3.74-.28.14.02.27-.03.39-.12.1-.1.17-.22.18-.37.03-.35.08-.7.18-1.05a14.68 14.68 0 0 0 .4-6.14l-.02-.1c-.1-.7-.28-1.4-.51-2.07a14.5 14.5 0 0 0-1.06-2.38.52.52 0 0 0-.53-.28.52.52 0 0 0-.45.38c-.3.97-.64 1.93-1.07 2.83a10.86 10.86 0 0 1-2.4 3.38.53.53 0 0 1-.62.07.53.53 0 0 1-.27-.56c.73-4-.83-8.21-3.55-11.27a.52.52 0 0 1-.12-.48l.11-.41a78.3 78.3 0 0 1 1.48-4.98c.58-1.67 1.22-3.3 1.97-4.86a30.44 30.44 0 0 1 4.24-6.59.79.79 0 0 0 .09-.9 35.38 35.38 0 0 1-1.93-3.9c-.33-.82-.61-1.64-.82-2.48-.18-.73-.32-1.47-.38-2.23a.79.79 0 0 1 .46-.8.79.79 0 0 1 .9.17l.2.18a7.57 7.57 0 0 0 7.12 1.93c3.32-.69 6.65-3.07 9.02-5.75.28-.31.54-.63.78-.94a.8.8 0 0 1 .93-.26.8.8 0 0 1 .5.83l-.03.35a.8.8 0 0 0 .66.87 42.36 42.36 0 0 1 4.46 1 30.91 30.91 0 0 1 5.12 1.94c.63.3 1.23.63 1.8.97 2 1.18 3.74 2.55 5.4 4.09.45.4.9.83 1.33 1.27.28.28.32.7.1 1.02a.8.8 0 0 1-.99.28 44.5 44.5 0 0 1-2.19-1.07c-1.5-.8-2.92-1.64-4.29-2.42l-.2-.11c-.7-.4-1.4-.79-2.08-1.14-3.16-1.6-6.2-2.46-9.75-.98a.79.79 0 0 0-.5.75c.02.33.22.62.53.74a27.8 27.8 0 0 1 7.08 4.18c1.9 1.47 3.8 3.17 5.67 4.98a241 241 0 0 1 6.26 6.32c2.68 2.72 5.4 4.87 8.06 6.11 5.97 2.78 11.7.96 16.25-9.37a.52.52 0 0 0-.11-.6.52.52 0 0 0-.6-.1 11 11 0 0 1-6.22.8.53.53 0 0 1-.44-.41.53.53 0 0 1 .22-.56c5.75-3.88 10.33-8.3 11.3-13.74.14-.8.2-1.63.17-2.48a.8.8 0 0 1 .66-.81c.4-.07.89.13.9.53.05 2.18.03 4.25-.06 6.2" style="fill-rule:evenodd;clip-rule:evenodd;fill:#e1e5e5"/><path d="M199.54 160.86c6.74 7.23 9.45 16.63 10.68 28.58.04.37.3.65.67.71a.8.8 0 0 0 .86-.47 60.1 60.1 0 0 0 4.37-14.56.53.53 0 0 0-.3-.57.53.53 0 0 0-.63.14l-2.6 3.13a.52.52 0 0 1-.53.18.52.52 0 0 1-.4-.4 30.52 30.52 0 0 0-11.7-16.9l-.05-.03c-.42-.26-.84-.5-1.28-.74l.89.91.02.02m3.03 98.95c.07-2.73.42-5.4 1.58-7.8a13 13 0 0 1 1.32-2.14.8.8 0 0 0 .14-.71.78.78 0 0 0-.5-.53 9.13 9.13 0 0 1-3-1.76.78.78 0 0 1-.24-.8.8.8 0 0 1 .62-.58l.97-.22c4.12-1.03 7.8-3.2 12.4-4.84.93-.33 1.89-.65 2.86-.96 2.24-.73 4.55-1.45 6.7-2.36 1.1-.47 2.16-.98 3.15-1.57.85-.5 1.64-1.05 2.37-1.67 2.7-2.27 4.64-5.36 5.96-9.52.35-1.1.66-2.29.92-3.55.31-1.48.56-3.07.76-4.79a.53.53 0 0 0-.4-.57.53.53 0 0 0-.62.3 29.3 29.3 0 0 1-2.25 4.1 26.83 26.83 0 0 1-9.92 8.99 37.36 37.36 0 0 1-8.9 3.35.52.52 0 0 1-.55-.18.52.52 0 0 1-.06-.57 67.14 67.14 0 0 0 5.18-14.6c.33-1.45.6-2.89.82-4.33 1.43-9.26.76-18.53-1.5-27.8a.53.53 0 0 0-.57-.4.53.53 0 0 0-.48.51c-.14 7.14-1.63 15.3-3.87 23.1a122.42 122.42 0 0 1-1.43 4.62 105.15 105.15 0 0 1-5.85 14.32.8.8 0 0 1-.96.4.8.8 0 0 1-.55-.9 80.61 80.61 0 0 0 .94-17.4 65.41 65.41 0 0 0-2.77-15.53.79.79 0 0 0-.72-.57.79.79 0 0 0-.78.49c-.28.66-.6 1.3-.97 1.92a.77.77 0 0 0-.11.38 72.23 72.23 0 0 1-1.1 10.35 77.49 77.49 0 0 1-5.03 16.75.8.8 0 0 1-.92.47.8.8 0 0 1-.62-.82 23.86 23.86 0 0 0-.48-6.21.8.8 0 0 0-.77-.64c-.5 0-.55 2.92-.68 3.41-1.32 4.88-.42 21.44.35 24.68.1.43-1.17 2.23-1.63 3.9-1.33 4.75 1.81 4.7 3.34 7.34 2.37 4.1 5.62 5.18 7.85 4.94z" style="fill-rule:evenodd;clip-rule:evenodd;fill:#e6ebeb"/><path d="M338.5 244.72c-3.41.43-7.13.58-11.21.36a95.44 95.44 0 0 1-17.73-2.77l-.42-.1a62.7 62.7 0 0 1-5.38-1.71c-1.7-.62-3.39-1.28-5-1.91a264 264 0 0 0-5.02-1.9c-2.44-.84-4.6-1.4-6.3-1.33-3.47.14-5.14 2.81-3.76 10.77 1.83-2.06 4.96-4.43 7.46-6.16l.62.79a50.1 50.1 0 0 1 2.49 3.46 89.67 89.67 0 0 0 5.89 3.73c1.6.93 3.2 1.78 4.78 2.55l.54.26a66.6 66.6 0 0 0 10.71 4c2.04.55 4.06.98 6.04 1.3l.25.04a55.5 55.5 0 0 0 6.83.62c8.7.26 16.91-1.55 24.64-4.46a96.15 96.15 0 0 0 9.59-4.24 138.73 138.73 0 0 0 6.74-3.64c11.38-6.5 21.45-15.37 33.18-19.58 40.81-14.62 89.16-.22 119.36-55.7-29.72 42.4-84.3 35.42-127.01 51.26-.24.08-.5 0-.63-.21a.53.53 0 0 1 .05-.66c.55-.58 1.12-1.1 1.7-1.57.2-.16.25-.43.14-.65a.53.53 0 0 0-.6-.29 57.87 57.87 0 0 0-16.96 7.03 137.3 137.3 0 0 0-8.73 5.77c-2.93 2.05-5.82 4.11-8.86 6.03-6.59 4.18-13.83 7.68-23.4 8.9" style="fill-rule:evenodd;clip-rule:evenodd;fill:#e1e5e5"/><path d="M294.48 214.78 321 250.23c1.41.1 2.74.8 3.62 1.94l1.7 2.22a5.02 5.02 0 0 1-.95 7.03l-5.4 4.14a5.03 5.03 0 0 1-7.04-.9l-1.7-2.23a4.98 4.98 0 0 1-.92-4.08c-10.19-13.64-20.4-27.26-30.61-40.87l-2.24-2.98 2.67-2.64c2-1.96 5.05-2.34 7.68-1.76a10.5 10.5 0 0 1 6.67 4.68" style="fill-rule:evenodd;clip-rule:evenodd;fill:#3a003a"/><path d="m293.96 221.27-1.95 4.08-.4.83.61.82 1.04 1.38 1.04 1.39.16.21.16-.31.97-2.04.97-2.05.25-.5-.78-1.04-2.07-2.77zm3.47 5.74-.98 2.06-1.04 2.18 2 2.66.85 1.14.8-1.7 1.54-3.2-1.49-1.99-1.02-1.37-.34-.45-.32.67zm3.55 5.69-1.74 3.65 2.84 3.8 2.34-4.89-2.23-3-.61-.8-.6 1.24zm4.39 3.83-2.34 4.9 2.85 3.8 2.34-4.9-2.85-3.8zm3.82 5.1-2.34 4.9 2.85 3.81 2.34-4.9-2.85-3.8zm6.38 16.56 3.82-2.92-2.13-2.85-2.35 4.9.65.87zm-2.59-11.48-2.34 4.9 2.85 3.8 2.34-4.9-2.85-3.8z" style="fill-rule:evenodd;clip-rule:evenodd;fill:#008b8b"/><path d="m319.38 255.27-3.82 2.92-.78.6a.73.73 0 0 0-.14 1.02l1.7 2.23c.25.31.7.37 1.02.13l5.4-4.14c.32-.25.38-.7.14-1.02l-1.7-2.22a.73.73 0 0 0-1.02-.13l-.8.6z" style="fill-rule:evenodd;clip-rule:evenodd;fill:#fff"/><path d="M338.84 220.08a68.97 68.97 0 0 1-21.09 5.38c-1.92.18-3.86.3-5.85.34-.09.24-.19.47-.3.7 2.04 0 3.92-.01 5.68-.07 7.96-.25 13.6-1.23 20.79-4.67 1.5-.72 3.07-1.55 4.74-2.5l.57-1.3a79.82 79.82 0 0 1-4.54 2.12m-26.68 4.9c2.11-.17 4.15-.38 6.14-.65a80.48 80.48 0 0 0 22.53-6.34c1.07-.47 2.12-.96 3.15-1.47.4-1 .77-2 1.12-3.02a135.25 135.25 0 0 1-5.68 2.35 106.41 106.41 0 0 1-19.72 5.6c-2.3.42-4.68.79-7.2 1.12a10.2 10.2 0 0 1-.34 2.4z" style="fill-rule:evenodd;clip-rule:evenodd;fill:#7e7e7e"/><path d="M324.9 221.32c-.1 3.09-.72 6.17-1.62 9.12a3.02 3.02 0 0 1-1.57 1.87c-2.81 1.43-5.87 1.34-8.78.35-.78.46-1.69.6-2.54.45a5.99 5.99 0 0 1-2.39 2.1c-2.24 1.1-4.63.53-6.99.96-.8.15-2.07 1.23-2.72 1.8-1.9 1.88-4.27 3.1-6.98 2.93a2.86 2.86 0 0 1-.73-.13c-2.91-.9-5.5-4.43-6.07-7.72a6.95 6.95 0 0 1-6.05-6.28c-5.29.76-9.48-4.28-6.09-10.29.17-.3.35-.52.6-.75l8.15-7.57.54-1.45c.3-.8.86-1.4 1.65-1.75a3 3 0 0 1 2.4-.05c.57.23 1.1.49 1.6.77.44-.53 1.04-.9 1.76-1.05a9.08 9.08 0 0 1 5.91.71c.5-.34 1.1-.52 1.74-.52 1.41 0 2.8.24 4.11.73a3.1 3.1 0 0 1 .3-1.5 3.05 3.05 0 0 1 2.7-1.79c1.78-.06 4.9-.35 6.34-1.56.88-.74 2-.93 3.07-.53 8.45 3.18 14.06 9.08 13.46 18.52a3.09 3.09 0 0 1-1.8 2.63" style="fill-rule:evenodd;clip-rule:evenodd;fill:#3a003a"/><path d="m284.54 207.77-.8 2.13-8.7 8.08c-2.63 4.67 1.73 7.79 6.01 4.34 1.32-1.05 2.44-2.27 3.82-3.41.72-.49 1.2-1.3 1.65-2.17.48 1.37-.06 2.85-1.9 4.47l-2.5 2.65c-1.96 3.3.92 6.84 4.14 6.03 1.5-1.26 3.8-2.79 4.69-4.47.17.95.04 1.88-.46 2.77l-2.97 3.03c-.45 2.5 2.14 6.04 4 6.61 1.63.1 3.19-.59 4.68-2.09 1.48-1.3 2.86-2.33 4.3-2.59 4.94-.9 7.71 1.6 8.64-6.44-1.24 3.21-3.2 4.7-5.74 3.1-2 2.9-6.98 1.7-7.43-1.76-.18-1.44-.35-3.1-3.27-4.05 1.17-5.3-.05-8.41-3.96-9.08.5-3.77-1.19-5.94-4.2-7.15" style="fill-rule:evenodd;clip-rule:evenodd;fill:#5d0d5d"/><path d="M298.45 212.45c-2.47-3.18-5.17-5.56-8.79-4.8a69.37 69.37 0 0 1 8.91 19.86c1.1 3.19 4.04 1 3.39-4.68.86 1.43 1.6 2.86 1.99 4.28.44 1.13 2.14 1.49 2.91-.2.95-2.05 1.05-6.16.88-7.26-1.11-7.37-5.68-11.74-11.06-11.75.61 1.35 1.62 2.8 1.77 4.55" style="fill-rule:evenodd;clip-rule:evenodd;fill:#5d0d5d"/><path d="M312.13 203.05c-1.82 1.53-4.82 2.16-8.22 2.29 5.35 6.95 7.7 15.03 6.7 24.43.13.41.74.46.98.03 1.54-4.7-.22-10.4 1.7-13.8 2.3-4.1 8.2-2.91 10.34 2.53.47-7.38-3.5-12.47-11.5-15.48" style="fill-rule:evenodd;clip-rule:evenodd;fill:#5d0d5d"/><path d="M313.87 229.72a30.11 30.11 0 0 0 1.3-6.87c.1-2.03-.76-4.96.93-6.36 1.8-1.5 5.18-.7 5.7 2.68.19 3.18-.31 6.65-1.46 10.4-1.96 1-4.14.96-6.47.15" style="fill-rule:evenodd;clip-rule:evenodd;fill:#5d0d5d"/><path d="M288.82 214.94a4.86 4.86 0 0 0-2.28 1.88c.44 1.35-.12 2.8-1.92 4.4l-.33.34c2.01-.62 2.79-1.66 3.33-3.43 1.58 2.6 5.03 1.43 4.5-1.3a4.95 4.95 0 0 0-3.3-1.9m-.84 15.83a11 11 0 0 1 1.38-1 5.6 5.6 0 0 1 2-.82 6.26 6.26 0 0 0 1.55.73c.75.21 1.41.18 1.95-.05a2.03 2.03 0 0 0 1.16-1.29l-.05-.28c-.1-.8-.2-1.65-.74-2.42a3.8 3.8 0 0 0-1.38-1.15 6.63 6.63 0 0 0-1.15-.49l-1.75 1.43a4.01 4.01 0 0 1-.46 2.77l-.28.28-2.23 2.29zm23.17-22.72c2 0 2.95-1.32 2.1-3.19a27.9 27.9 0 0 1 5.86 2.97c.76.5 1.48 1.05 2.17 1.63a14 14 0 0 0-1.91-2.17 21.81 21.81 0 0 0-7.24-4.23c-1.82 1.53-4.82 2.16-8.22 2.29a35.39 35.39 0 0 1 4.11 6.82 31.25 31.25 0 0 1 1.5 4.07 24.5 24.5 0 0 0-.8-5 23.32 23.32 0 0 0-1.8-4.6c1.1.66 2.12 1.07 3.01 1.27.44.1.85.14 1.22.14zm4.89 12.98c-.02-.27-.02-.55-.02-.81 0-1.18.2-2.28 1.06-3a3.05 3.05 0 0 1 .9-.51 3.48 3.48 0 0 1 2.75.17 3.53 3.53 0 0 0-3.58-.95 3.1 3.1 0 0 0-1.05.57 2.88 2.88 0 0 0-.95 1.75c-.1.46-.11.96-.1 1.47.01 1.08.17 2.2.12 3.14a30.16 30.16 0 0 1-1.3 6.87 12.13 12.13 0 0 0 1.09.32c.22-.76.42-1.54.6-2.32.3-1.38.51-2.78.58-4.15a5.2 5.2 0 0 0 0-.79c-.02-.56-.07-1.16-.1-1.76zm-14.87-2.8a49.07 49.07 0 0 0-2.72-5.77 19.17 19.17 0 0 0-2.47-2.73 9.61 9.61 0 0 0-1.76-1.3 6.39 6.39 0 0 0-4.56-.77l.52.79c.55 0 1.1.09 1.64.24 1.1.32 2.18.93 3.25 1.8 1.2 1 2.4 2.3 3.56 3.88.86 1.15 1.7 2.44 2.54 3.85zm-2.1-8.8c1.15.32 2.26.94 3.34 1.82.85.69 1.69 1.54 2.5 2.55a26.58 26.58 0 0 1 2.24 3.17 17.24 17.24 0 0 0-1.28-3.11 12.73 12.73 0 0 0-2.3-3.07l-.12-.12a9.9 9.9 0 0 0-5.24-2.64l-.2-.03h-.07a9.86 9.86 0 0 0-1.26-.1c.13.29.28.58.43.87l.2.4a7 7 0 0 1 1.76.26zm-14.53-1.65-.8 2.13-8.7 8.08c1.14.53 9.59-6.1 8.94-5.52 1.85 3.17 7.64-1.85.56-4.69z" style="fill-rule:evenodd;clip-rule:evenodd;fill:#7c467c"/><path d="M301.56 128.95c1.72 3.6.8 5.61.26 7.75 1.1-.36 2.24-.56 3.43-.57a20.7 20.7 0 0 0-.79-3.5l-2.9-3.68z" style="fill-rule:evenodd;clip-rule:evenodd;fill:#e49988"/></svg>