<svg version="1.1" id="Nashville" xmlns:serif="http://www.serif.com/"
	 xmlns="http://www.w3.org/2000/svg" xmlns:xlink="http://www.w3.org/1999/xlink" x="0px" y="0px" viewBox="0 0 949.093 1080"
	 style="enable-background:new 0 0 949.093 1080;" xml:space="preserve">
<g id="g1">
</g>
<rect id="Artboard2" x="6.402" y="0.433" style="fill:none;" width="936.289" height="1079.135"/>
<g>
	<path style="fill-rule:evenodd;clip-rule:evenodd;fill:#0E2C3F;" d="M474.819,968.828c-57.847,0-307.877-276.306-350.406-502.84
		C70.801,180.412,342.165,111.174,474.819,111.174s404.73,69.295,350.405,354.813C782.136,692.445,532.665,968.828,474.819,968.828
		L474.819,968.828z"/>
	<path style="fill-rule:evenodd;clip-rule:evenodd;fill:#C32922;" d="M474.819,1003.577c-9.341,0-21.818-2.893-36.221-10.497
		c-20.775-10.968-49.493-33.637-81.443-65.413C257.224,828.282,121.241,637.416,90.26,472.399
		c-18.005-95.904-2.271-169.879,31.192-226.637C197.908,116.075,373.031,76.425,474.819,76.425
		c101.781,0,277.27,39.693,353.684,169.368c33.457,56.778,49.108,130.771,30.857,226.689
		C827.98,637.41,692.172,828.251,592.396,927.635c-31.912,31.786-60.596,54.464-81.353,65.436
		C496.644,1000.683,484.165,1003.577,474.819,1003.577z M474.819,968.828c57.847,0,307.317-276.383,350.405-502.84
		c54.325-285.518-217.751-354.813-350.405-354.813S70.801,180.412,124.413,465.988C166.941,692.522,416.972,968.828,474.819,968.828
		L474.819,968.828z"/>
	<g>
		<g>
			<path style="fill:#062133;" d="M113.111,380.985c10.148-2.112,20.293-4.233,30.443-6.332c10.166-2.102,20.325-4.238,30.507-6.257
				c12.531-2.485,25.057-5.008,37.634-7.241c9.428-1.674,18.943-2.854,28.401-4.364c12.649-2.02,25.266-4.246,37.927-6.186
				c6.28-0.962,12.638-1.406,18.942-2.229c6.958-0.908,13.884-2.064,20.843-2.962c6.647-0.857,13.323-1.492,19.98-2.277
				c8.522-1.004,17.033-2.095,25.557-3.079c3.938-0.455,7.892-0.788,11.845-1.101c9.298-0.735,18.602-1.398,27.9-2.138
				c12.904-1.027,25.799-2.167,38.708-3.126c10.872-0.807,21.756-1.441,32.637-2.118c6.226-0.387,12.453-0.787,18.685-1.041
				c18.237-0.744,36.477-1.426,54.717-2.117c13.747-0.521,27.495-1.02,41.242-1.528c0.213,0.398,0.425,0.797,0.638,1.195
				c-4.977,5.888-9.953,11.776-15.73,18.611c54.254-2.536,106.446,3.562,158.355,15.251c-8.259,1.156-15.483,4.085-20.651,11.306
				c41.343,4.261,82.065,11.271,122.26,20.73c0,6.578,0,12.815,0,20.016c-7.509-0.5-14.543-0.98-21.58-1.424
				c-1.397-0.088-2.802-0.046-4.204-0.046c-31.712-0.005-63.425-0.114-95.137,0.038c-14.289,0.068-28.583,0.495-42.862,1.066
				c-10.716,0.429-21.415,1.299-32.114,2.079c-3.494,0.255-6.963,0.846-10.443,1.284c-0.145-0.368-0.29-0.735-0.436-1.103
				c2.909-3.651,5.819-7.302,8.965-11.25c-5.523-0.568-10.437-1.42-15.366-1.521c-23.571-0.482-47.147-1.075-70.72-0.992
				c-13.861,0.049-27.721,1.224-41.574,2.025c-4.295,0.248-8.564,0.933-12.846,1.418c-0.213-0.32-0.425-0.639-0.638-0.959
				c4.069-4.875,8.139-9.75,12.777-15.306c-2.081-0.39-3.601-0.869-5.139-0.933c-10.08-0.417-20.169-0.654-30.247-1.125
				c-12.987-0.608-25.963-1.431-38.949-2.064c-9.027-0.44-18.061-0.777-27.095-1.053c-13.235-0.405-26.472-0.884-39.711-1.035
				c-38.115-0.433-76.232-0.819-114.349-0.998c-11.308-0.053-22.62,0.606-33.928,0.999c-8.508,0.296-17.014,0.673-25.519,1.045
				c-7.456,0.326-14.914,0.634-22.364,1.062c-11.234,0.645-22.467,1.31-33.69,2.114c-7.9,0.566-15.783,1.375-23.674,2.076
				C113.111,386.592,113.111,383.789,113.111,380.985z"/>
			<path style="fill:#062133;" d="M522.161,897.217c3.361-4.693,6.723-9.385,10.557-14.738c-1.371,0-2.273,0.007-3.175-0.001
				c-36.189-0.343-72.378-0.82-108.568-0.965c-14.111-0.057-28.228,0.577-42.338,1.014c-5.883,0.182-11.754,0.799-17.637,0.932
				c-1.556,0.035-3.629-0.538-4.627-1.612c-7.152-7.692-14.095-15.58-21.071-23.435c-0.289-0.326-0.257-0.937-0.48-1.847
				c8.833-1.535,17.516-3.046,26.199-4.552c9.753-1.691,19.491-3.475,29.265-5.035c7.947-1.268,15.941-2.233,23.906-3.387
				c9.312-1.348,18.604-2.842,27.928-4.106c6.471-0.877,12.99-1.401,19.471-2.209c7.481-0.932,14.938-2.049,22.418-2.992
				c3.93-0.496,7.881-0.843,11.829-1.17c8.947-0.741,17.899-1.431,26.85-2.134c13.427-1.055,26.851-2.136,40.281-3.147
				c10-0.753,20.01-1.359,30.008-2.142c3.213-0.252,6.398-0.858,10.176-0.426c-4.426,5.591-8.852,11.182-13.575,17.149
				c12.49-0.786,24.628-1.551,36.767-2.315c0.203,0.336,0.405,0.672,0.608,1.009c-1.617,1.917-3.19,3.873-4.858,5.745
				c-12.342,13.861-24.712,27.697-37.05,41.563c-2.207,2.48-4.831,3.387-8.197,3.626c-10.99,0.779-21.948,2.002-32.922,3.018
				c-4.467,0.414-8.948,0.687-13.412,1.137c-1.055,0.106-2.065,0.667-3.095,1.019C525.666,897.217,523.914,897.217,522.161,897.217z
				"/>
			<path style="fill:#062133;" d="M616.507,649.827c-6.082,7.093-11.376,13.266-17.134,19.98
				c47.63-2.681,93.837,2.556,140.11,11.206c-0.656,1.377-1.069,2.523-1.702,3.531c-10.135,16.156-20.352,32.261-30.408,48.467
				c-1.971,3.177-4.509,4.343-8.114,4.423c-9.738,0.215-19.476,0.571-29.205,1.059c-5.648,0.284-11.277,0.931-16.914,1.415
				c-0.154-0.342-0.307-0.684-0.46-1.026c2.972-3.476,5.944-6.953,9.743-11.397c-12.263-0.582-23.723-1.253-35.193-1.637
				c-14.288-0.478-28.583-0.938-42.876-0.987c-10.085-0.035-20.18,0.483-30.256,1.02c-9.491,0.506-18.966,1.325-28.441,2.091
				c-1.784,0.144-3.536,0.682-5.856,0.227c4.504-5.12,9.008-10.239,13.661-15.528c-3.934-0.529-7.719-1.278-11.534-1.502
				c-8.675-0.508-17.365-0.74-26.048-1.116c-15.966-0.691-31.931-1.417-47.897-2.106c-8.683-0.375-17.365-0.808-26.052-1.03
				c-16.744-0.428-33.49-0.758-50.237-1.069c-20.426-0.378-40.852-0.944-61.279-0.961c-17.622-0.015-35.246,0.575-52.866,0.995
				c-10.264,0.245-20.527,0.59-30.781,1.091c-2.83,0.138-4.455-0.773-5.807-3.243c-2.589-4.73-5.505-9.281-8.633-14.484
				c6.017-1.19,11.452-2.343,16.917-3.328c9.909-1.786,19.821-3.565,29.76-5.172c7.606-1.229,15.267-2.115,22.884-3.288
				c8.104-1.248,16.168-2.759,24.278-3.961c6.283-0.93,12.62-1.495,18.917-2.341c7.126-0.957,14.23-2.078,21.352-3.065
				c3.236-0.448,6.489-0.788,9.742-1.103c11.147-1.079,22.298-2.102,33.444-3.191c10.452-1.02,20.891-2.177,31.349-3.126
				c12.547-1.139,25.103-2.18,37.664-3.156c10.174-0.79,20.357-1.485,30.544-2.105c12.631-0.769,25.267-1.473,37.907-2.099
				c9.03-0.447,18.067-0.742,27.102-1.066c10.436-0.374,20.875-0.665,31.309-1.067C595.387,650.8,605.272,650.322,616.507,649.827z"
				/>
			<path style="fill:#062133;" d="M167.729,233.166c2.28-6.572,7.516-6.684,11.791-7.635c18.433-4.099,36.92-7.975,55.454-11.591
				c10.892-2.125,21.919-3.551,32.866-5.4c9.756-1.648,19.459-3.624,29.237-5.125c8.645-1.327,17.373-2.107,26.042-3.294
				c9.323-1.277,18.597-2.922,27.934-4.08c7.865-0.976,15.8-1.372,23.681-2.232c8.184-0.893,16.334-2.087,24.511-3.048
				c4.11-0.483,8.242-0.82,12.373-1.087c6.574-0.424,13.156-0.712,19.733-1.096c11.756-0.686,23.511-1.389,35.265-2.109
				c5.179-0.317,10.35-0.792,15.532-1.019c9.729-0.427,19.464-0.705,29.196-1.083c8.157-0.317,16.309-0.814,24.468-0.999
				c7.587-0.172,15.181-0.037,23.204-0.037c-3.944,4.579-8.101,9.406-12.589,14.617c21.52,0.499,42.719-0.98,63.752,2.178
				c20.608,3.094,41.245,5.998,61.886,9.514c-5.681,2.564-12.161,3.131-16.283,9.306c4.829,0.771,9.39,1.516,13.956,2.225
				c13.51,2.099,27.013,4.247,40.536,6.259c21.743,3.235,43.099,8.262,64.374,13.684c2.958,0.754,5.938,1.878,8.929,1.952
				c6.209,0.153,8.338,4.598,11.558,10.04c-6.006-0.501-11.06-0.976-16.122-1.321c-2.439-0.166-4.895-0.112-7.343-0.117
				c-9.286-0.017-18.572,0.05-27.857-0.037c-33.21-0.312-66.418-0.778-99.628-0.953c-9.553-0.05-19.121,0.501-28.661,1.111
				c-8.929,0.571-17.83,1.584-26.744,2.402c-0.184-0.356-0.368-0.713-0.553-1.069c2.138-2.709,4.276-5.417,6.59-8.349
				c-18.979-2.727-37.523-2.994-56.062-2.52c-18.449,0.472-36.885,1.477-55.69,2.264c3.434-4.088,6.906-8.221,10.559-12.57
				c-8.09-0.453-15.821-0.954-23.558-1.306c-16.484-0.751-32.971-1.435-49.458-2.126c-8.856-0.371-17.71-0.9-26.57-1.014
				c-33.559-0.432-67.118-0.855-100.679-1.002c-12.884-0.057-25.773,0.582-38.657,1.007c-6.933,0.229-13.861,0.648-20.788,1.036
				c-12.107,0.677-24.219,1.296-36.316,2.129C187.796,231.344,178.011,232.296,167.729,233.166z"/>
			<path style="fill:#062133;" d="M573.777,520.917c41.836-1.415,82.977,3.708,123.763,12.808c-6.8,0.532-12.248,3.102-16.472,8.877
				c39.583,3.706,78.116,11.518,116.714,20.998c-1.405,3.577-2.858,7.276-4.258,10.84c-3.102,0-5.891,0.024-8.679-0.004
				c-34.086-0.345-68.172-0.804-102.259-0.984c-10.607-0.056-21.224,0.5-31.824,1.029c-10.363,0.518-20.713,1.33-31.062,2.087
				c-1.948,0.143-3.87,0.634-7.005,1.171c3.091-3.978,5.461-7.028,8.285-10.661c-1.809,0-3.267,0.048-4.721-0.007
				c-18.239-0.689-36.473-1.619-54.718-1.999c-9.196-0.191-18.425,0.414-27.616,1.016c-8.254,0.541-16.476,1.57-26.037,2.516
				c3.913-4.67,7.022-8.381,10.712-12.786c-2.61-0.529-4.638-1.212-6.693-1.309c-9.728-0.46-19.465-0.71-29.194-1.129
				c-15.262-0.657-30.516-1.521-45.782-2.053c-14.983-0.522-29.976-0.748-44.965-1.089c-15.514-0.353-31.029-0.971-46.544-0.955
				c-17.092,0.018-34.184,0.571-51.274,0.998c-9.035,0.226-18.068,0.599-27.095,1.05c-12.461,0.622-24.918,1.324-37.37,2.1
				c-9.834,0.612-19.67,1.246-29.482,2.128c-9.575,0.86-19.119,2.054-28.68,3.077c-0.681,0.073-1.383-0.05-2.278-0.901
				c4.067-1.087,8.106-2.296,12.206-3.24c19.87-4.572,39.713-9.279,59.655-13.523c12.006-2.555,24.181-4.31,36.267-6.498
				c8.887-1.609,17.734-3.447,26.635-4.974c5.739-0.984,11.545-1.581,17.318-2.368c7.809-1.065,15.615-2.148,23.422-3.223
				c7.464-1.028,14.93-2.036,22.391-3.09c7.117-1.005,14.221-2.106,21.344-3.068c3.582-0.484,7.19-0.797,10.793-1.106
				c8.596-0.737,17.196-1.434,25.796-2.132c8.775-0.712,17.549-1.432,26.328-2.099c9.65-0.733,19.299-1.489,28.957-2.088
				c12.627-0.783,25.258-1.525,37.896-2.092c11.127-0.499,22.269-0.665,33.4-1.102c10.603-0.416,21.199-0.991,31.798-1.496
				c0.247,0.374,0.495,0.748,0.742,1.123c-3.771,4.477-7.542,8.953-11.314,13.43c-0.326,0.475-0.652,0.95-0.978,1.425
				C572.525,521.381,573.151,521.149,573.777,520.917z"/>
		</g>
	</g>
	<path style="fill-rule:evenodd;clip-rule:evenodd;fill:#ECDCC5;" d="M474.819,990.547c-7.789,0-18.125-2.648-30.137-8.989
		c-20.009-10.563-47.567-32.525-78.339-63.129c-98.468-97.931-232.749-285.833-263.275-448.434
		c-17.284-92.068-2.514-163.128,29.609-217.616C206.618,126.96,376.38,89.455,474.819,89.455
		c98.434,0,268.556,37.543,342.457,162.953c32.115,54.499,46.802,125.569,29.283,217.639
		C815.636,632.57,681.522,820.465,583.199,918.402c-30.733,30.612-58.255,52.581-78.247,63.148
		C492.947,987.897,482.612,990.547,474.819,990.547L474.819,990.547z M474.819,968.828c57.847,0,307.317-276.383,350.405-502.84
		c54.325-285.518-217.751-354.813-350.405-354.813S70.801,180.412,124.413,465.988C166.941,692.522,416.972,968.828,474.819,968.828
		L474.819,968.828z"/>
	<path style="fill-rule:evenodd;clip-rule:evenodd;fill:#0E2C3F;" d="M474.546,608.247c-1.667,0.019-3.502-0.407-4.257-1.176v10.81
		l-12.152-7.296l4.485,9.116l-29.982-17.612c-15.454-9.078-25.008-26.906-28.187-52.725l-29.557-32.319l6.975,15.024l-16.383-10.522
		l-20.636,2.732c-14.219,1.882-28.13-1.837-41.675-9.923c-0.114,5.625-0.761,11.25-2.201,16.875l-13.769,18.021l-3.775,1.08
		l0.024,0.146c5.386,20.615-7.284,54.102-22.497,67.401c3.248-8.194-1.086-35.468-10.008-42.25c-0.493-0.592-0.965-1.18-1.417-1.763
		c0,0-23.329-10.533-25.438-13.777c-1.614,4.111-3.754,7.99-5.961,11.849l-7.942,13.882c1.663,4.339,7.23,28.618,10.234,32.06
		c-18.016-5.508-45.818-23.128-53.552-43.323l-4.794,1.82c0.902,3.195,13.282,46.318,18.982,51.162
		c-17.287-2.386-46.266-16.971-57.552-36.485l-0.373-0.57l-0.295-0.615c-2.719-5.648-9-10.361-9.375-16.747
		c-0.451-7.663,3.002-22.758,6.668-29.229c2.519-4.444,5.697-7.578,9.479-9.414c5.859-15.102,15.645-24.07,28.141-28.513
		l9.109-3.238c7.118-10.621,16.828-16.118,25.989-16.877c2.371-0.196,4.777-0.099,7.171,0.312l3.81-5.003
		c8.366-10.983,20.278-18.111,34.735-22.098l28.306-27.163l6.833-29.697c4.267-18.546,11.309-34.506,21.573-47.414l-36.783,5.65
		l32.413-24.78c10.462-7.999,19.905-16.902,27.874-27.115l-3.23-10.166c-0.665-2.094-1.126-4.224-1.198-6.448
		c-17.922-16.732-29.129-35.177-34.562-55.025l-6.744-24.634c-4.593-6.975-7.616-14.143-8.765-21.496l-3.331-21.315l18.77,10.636
		c7.391,4.189,14.888,7.748,22.797,9.162c26.961,4.449,48.599,16.125,69.149,29.348l0.949,0.61l0.795,0.799
		c0.978,0.982,1.991,1.936,3.041,2.862l14.461-1.621c32.85-3.681,62.656-0.694,83.626,11.777
		c20.971-12.471,50.776-15.458,83.626-11.777l14.461,1.621c1.051-0.926,2.063-1.88,3.041-2.862l0.796-0.799l0.948-0.61
		c20.55-13.223,42.188-24.898,69.15-29.348c7.908-1.415,15.405-4.974,22.796-9.162l18.77-10.636l-3.331,21.315
		c-1.149,7.353-4.171,14.521-8.764,21.496l-6.745,24.634c-5.433,19.848-16.64,38.293-34.561,55.025
		c-0.073,2.224-0.533,4.353-1.199,6.448l-3.23,10.166c7.97,10.213,17.412,19.116,27.874,27.115l32.412,24.78l-36.783-5.65
		c10.264,12.908,17.306,28.868,21.574,47.414l6.832,29.697l28.306,27.163c14.457,3.987,26.369,11.115,34.736,22.098l3.81,5.003
		c2.394-0.411,4.801-0.508,7.17-0.312c9.161,0.759,18.871,6.256,25.989,16.877l9.109,3.238c12.496,4.443,22.283,13.41,28.141,28.513
		c3.782,1.836,6.962,4.969,9.479,9.414c3.666,6.471,7.119,21.566,6.669,29.229c-0.376,6.386-6.657,11.099-9.375,16.747l-0.296,0.615
		l-0.373,0.57c-11.286,19.514-40.264,34.099-57.552,36.485c5.7-4.844,18.082-47.967,18.982-51.162l-4.794-1.82
		c-7.734,20.195-35.536,37.815-53.551,43.323c3.003-3.442,8.57-27.721,10.233-32.06l-7.94-13.882
		c-2.208-3.859-4.347-7.737-5.962-11.849c-2.109,3.244-25.438,13.777-25.438,13.777c-0.45,0.583-0.923,1.171-1.417,1.763
		c-8.921,6.782-13.256,34.057-10.008,42.25c-15.213-13.299-27.883-46.786-22.495-67.401l0.023-0.146l-3.775-1.08l-13.769-18.021
		c-1.439-5.625-2.087-11.25-2.201-16.876c-13.544,8.086-27.456,11.805-41.674,9.923l-20.636-2.732l-16.384,10.522l6.975-15.024
		l-29.557,32.319c-3.178,25.819-12.734,43.647-28.187,52.725l-29.981,17.612l4.485-9.116l-12.152,7.296v-10.81
		C478.048,607.841,476.213,608.266,474.546,608.247L474.546,608.247z"/>
	<path style="fill-rule:evenodd;clip-rule:evenodd;fill:#C32922;" d="M473.531,245.54c19.627-14.573,47.762-17.635,80.905-13.921
		l-14.579,17.197c17.818-3.94,30.76-11.536,40.627-21.439c19.404-12.485,39.779-23.639,65.24-27.833
		c9.103-1.616,17.738-5.575,26.205-10.373c-3.247,20.783-24.074,39.086-52.137,56.37c-18.409,10.03-28.435,22.365-34.121,35.893
		c10.736-6.237,18.628,0.665,24.022,19.107c10.118,17.201,23.737,31.291,39.581,43.402c-8.335-1.28-16.734-1.905-25.386,0
		c20.436,13.102,32.637,33.981,38.761,60.599c-7.457-7.047-15.074-12.339-22.929-15.013c13.15,38.829,10.212,60.544,0,74.52
		c-0.909-9.077-3.545-17.505-8.429-25.091c-7.674,31.966-22.469,52.359-42.07,64.945c4.461-9.606,7.421-19.587,7.906-30.188
		l-48.578,53.117c5.274-25.86,19.974-48.43,38.798-72.378c11.244-18.078,11.191-38.355,27.603-55.905
		c11.153-11.925,8.123-24.147,2.096-36.337c-4.012-8.119-8.825-15.768-15.024-22.536c4.45,12.735,6.441,26.207,5.591,40.53
		l-46.819,11.88c-6.135-5.96-11.185-10.835-15.199-14.675c23.9-8.703,25.395-27.465,23.236-47.868
		c10.024-4.094,20.287-7.118,30.747-9.258c-18.45-12.857-37.459-6.98-56.777,9.258c-21.174,21.174-34.926,35.058-45.247,11.88
		c-1.882,7.542-1.643,14.604,2.446,20.789c-10.89,3.302-17.517,7.883-20.265,13.627c27.96-8.042,39.427-5.588,43.5,1.572
		c-9.958,0.664-16.023,3.955-17.296,10.482c16.955-7.192,30.084-3.916,39.657,9.084c-8.337,2.7-15.227,6.665-20.091,12.404
		c6.697-0.189,13.394-1.829,20.091-4.84c22.808,28.025-0.705,59.687-33.192,52.533l-25.856-6.289c-13.5-3.859-11.941-9.325,0-15.898
		l5.766-12.928c4.629,3.619,8.053,2.939,10.307-1.922c3.831-7.475-0.044-15.245-5.066-23.06v12.404
		c-7.357-1.948-15.305-2.122-24.019,0c-8.714-2.122-16.662-1.948-24.019,0v-12.404c-5.023,7.815-8.898,15.586-5.066,23.06
		c2.254,4.861,5.678,5.542,10.307,1.922l5.765,12.928c11.943,6.573,13.501,12.038,0,15.898l-25.855,6.289
		c-32.488,7.153-56-24.508-33.193-52.533c6.697,3.012,13.394,4.652,20.091,4.84c-4.863-5.74-11.753-9.704-20.091-12.404
		c9.574-13,22.702-16.276,39.658-9.084c-1.273-6.527-7.339-9.818-17.296-10.482c4.072-7.16,15.54-9.614,43.5-1.572
		c-2.749-5.744-9.375-10.326-20.266-13.627c4.09-6.185,4.328-13.247,2.447-20.789c-10.322,23.178-24.075,9.294-45.247-11.88
		c-19.319-16.239-38.327-22.115-56.778-9.258c10.459,2.14,20.722,5.164,30.748,9.258c-2.159,20.403-0.665,39.166,23.235,47.868
		c-4.015,3.839-9.063,8.715-15.198,14.675l-46.819-11.88c-0.851-14.324,1.14-27.795,5.59-40.53
		c-6.2,6.768-11.011,14.417-15.024,22.536c-6.025,12.191-9.057,24.413,2.096,36.337c16.413,17.55,16.359,37.827,27.603,55.905
		c18.824,23.948,33.525,46.518,38.799,72.378l-48.579-53.117c0.485,10.601,3.446,20.582,7.906,30.188
		c-19.599-12.586-34.396-32.979-42.07-64.945c-4.884,7.586-7.52,16.014-8.429,25.091c-10.211-13.976-13.149-35.691,0-74.52
		c-7.854,2.674-15.471,7.966-22.929,15.013c6.125-26.617,18.326-47.497,38.762-60.599c-8.652-1.905-17.053-1.28-25.386,0
		c15.842-12.111,29.462-26.201,39.581-43.402c5.393-18.442,13.284-25.345,24.021-19.107c-5.686-13.528-15.712-25.864-34.121-35.893
		c-28.062-17.283-48.89-35.587-52.137-56.37c8.467,4.797,17.102,8.757,26.206,10.373c25.461,4.194,45.836,15.348,65.239,27.833
		c9.868,9.903,22.81,17.5,40.628,21.439l-14.58-17.197C425.769,227.905,453.903,230.968,473.531,245.54L473.531,245.54z
		 M663.99,427.686l32.348,31.042c-5.018,1.565-8.73,3.782-11.962,6.239c22.877,0.976,41.855,7.055,53.133,21.861l-5.882,4.574
		c-25.243-17.701-61.121,3.933-72.865,36.596c-3.121-12.198-1.915-24.397,0-36.596c-16.927,15.429-34.343,24.31-52.607,21.893
		c12.396-8.065,21.712-19.465,28.755-33.329v17.645C657.628,478.645,664.797,454.495,663.99,427.686L663.99,427.686z
		 M669.283,549.131c5.857-39.758,40.457-63.836,55.076-43.504c2.812,3.91,1.066,9.67,7.267,12.649
		c9.133-32.386,39.435-29.233,48.657,3.382c2.542,7.818,5.916,13.97,10.456,17.792c1.108-7.231,0.251-15.367-2.353-24.31
		c11.05,3.929,19.168,12.55,23.526,27.186c9.211,0.585,12.676,13.301,13.853,30.845c-7.227-24.589-29.384-19.7-40.517,0
		c11.355-52.891-40.55-51.699-44.699-7.057c-3.78-6.608-7.691-13.159-7.392-21.581c0.78-6.502-1.114-11.815-4.349-16.533
		c-3.957,12.484-9.818,24.014-18.236,34.266C710.73,525.48,682.623,518.551,669.283,549.131L669.283,549.131z M286.191,428.339
		c-0.809,26.808,6.361,50.958,29.081,69.924v-17.644c7.043,13.863,16.358,25.264,28.754,33.328
		c-18.264,2.417-35.682-6.463-52.607-21.892c1.915,12.198,3.121,24.397,0,36.596c-11.743-32.664-47.621-54.298-72.865-36.596
		l-5.882-4.574c11.277-14.806,30.256-20.885,53.132-21.861c-3.232-2.458-6.943-4.675-11.961-6.24L286.191,428.339L286.191,428.339z
		 M280.897,549.784c-13.339-30.581-41.447-23.652-41.29,13.132c-8.418-10.252-14.279-21.782-18.236-34.265
		c-3.235,4.717-5.13,10.031-4.349,16.533c0.299,8.421-3.612,14.972-7.392,21.58c-4.149-44.642-56.054-45.833-44.699,7.059
		c-11.133-19.701-33.289-24.59-40.518,0c1.178-17.545,4.643-30.261,13.854-30.846c4.359-14.635,12.476-23.257,23.526-27.186
		c-2.604,8.943-3.461,17.081-2.353,24.31c4.54-3.822,7.914-9.972,10.456-17.791c9.223-32.616,39.524-35.768,48.657-3.383
		c6.201-2.979,4.456-8.739,7.267-12.649C240.44,485.947,275.04,510.025,280.897,549.784z M290.396,234.157
		c12.301,13.249,25.146,23.224,38.559,29.804c-5.788-1.262-11.164-1.517-15.84,0l18.133,23.969c-2.323,1.612-4.026,4.091-5.21,7.295
		c-0.716-2.253-1.109-4.586,0-7.295C307.344,271.709,295.75,253.712,290.396,234.157L290.396,234.157z M651.739,234.157
		c-5.353,19.556-16.947,37.552-35.64,53.773c1.109,2.709,0.715,5.042,0,7.295c-1.185-3.205-2.888-5.684-5.211-7.295l18.134-23.969
		c-4.677-1.517-10.053-1.262-15.84,0C626.593,257.381,639.439,247.405,651.739,234.157z M474.546,561.617
		c6.599-0.445,12.827,1.088,18.592,5.088c19.538,4.844,30.964-5.166,32.439-33.392c2.623-26.263,8.933-47.733,20.036-62.97
		c-6.704,20.99-10.895,41.98-10.814,62.97c-0.703,29.734-8.201,50.409-24.17,59.79c2.555-5.195,3.404-10.389,3.18-15.584
		c-8.084,9.635-16.484,16.756-25.124,21.944v-11.767c-2.828,5.464-7.144,9.04-14.14,9.223c-6.996-0.182-11.312-3.759-14.139-9.223
		v11.767c-8.641-5.188-17.04-12.31-25.125-21.944c-0.224,5.195,0.625,10.389,3.181,15.584c-15.97-9.381-23.467-30.055-24.171-59.79
		c0.081-20.99-4.109-41.98-10.812-62.97c11.103,15.238,17.412,36.707,20.035,62.97c1.475,28.226,12.901,38.237,32.44,33.392
		C461.72,562.705,467.948,561.171,474.546,561.617L474.546,561.617z"/>
	<path style="fill-rule:evenodd;clip-rule:evenodd;fill:#ECDCC5;" d="M389.381,332.356l11.114,7.32
		c-1.307,21.04,9.448,26.262,17.446,15.941l6.721,5.944C410.197,381.209,385.101,371.476,389.381,332.356L389.381,332.356z
		 M559.447,332.356c4.279,39.12-20.816,48.852-35.28,29.206l6.721-5.944c7.998,10.32,18.753,5.099,17.446-15.941L559.447,332.356z
		 M421.678,467.343l20.39-2.44c-5.471,11.83-7.644,25.072-7.754,39.2C427.668,492.023,422.962,479.806,421.678,467.343z
		 M527.918,467.343c-1.284,12.463-5.99,24.681-12.636,36.76c-0.109-14.128-2.283-27.37-7.754-39.2L527.918,467.343z
		 M474.547,473.661c-1.026-1.569-2.396-2.793-4.048-3.733c-2.331,1.539-4.212,3.303-5.6,5.312c-1.066-1.846-2.823-3.624-5.456-5.312
		c-3.136,2.668-5.326,5.62-6.893,8.759c-3.476-4.006-5.306-8.835-6.893-13.785l28.89-5.6l28.89,5.6
		c-1.587,4.95-3.417,9.778-6.893,13.785c-1.567-3.139-3.756-6.091-6.892-8.759c-2.634,1.689-4.391,3.466-5.456,5.312
		c-1.39-2.01-3.27-3.774-5.6-5.312C476.942,470.869,475.572,472.092,474.547,473.661z M474.547,549.608
		c-5.436-0.256-11.151,0.6-17.09,2.352c-14.421,5.972-19.958,0.523-20.326-11.575c-0.29-6.565,2.198-12.667,4.937-18.728
		c2.157,8.718,5.39,16.975,11.061,24.186c3.508-3.663,5.684-6.564,7.434-9.223c0.928,2.937,2.333,5.753,5.27,8.188
		c2.598-0.904,4.523-2.986,6.117-5.646l2.598,4.422l2.598-4.422c1.594,2.66,3.519,4.742,6.117,5.646
		c2.938-2.434,4.342-5.251,5.27-8.188c1.75,2.658,3.926,5.56,7.434,9.223c5.671-7.212,8.904-15.468,11.061-24.186
		c2.74,6.061,5.227,12.162,4.937,18.728c-0.367,12.098-5.906,17.547-20.326,11.575C485.698,550.209,479.983,549.352,474.547,549.608
		L474.547,549.608z M684.07,599.463c-8.426-15.222-9.784-31.329-7.058-47.946c5.743-19.02,35.995-8.427,13.593,17.515
		C684.905,579.174,682.8,589.318,684.07,599.463L684.07,599.463z M740.846,603.694c7.229-8.286,11.446-18.6,12.456-31.073
		c-4.396-36.603,28.956-27.874,22.649-7.456C768.399,581.626,757.511,595.178,740.846,603.694z M781.518,614.326
		c7.547-6.414,12.684-15.039,15.252-26.015c0.979-33.194,29.522-20.958,21.174-3.613
		C809.014,598.352,797.502,608.969,781.518,614.326L781.518,614.326z M266.11,600.114c1.271-10.143-0.834-20.288-6.534-30.432
		c-22.403-25.942,7.85-36.534,13.593-17.513C275.894,568.786,274.537,584.892,266.11,600.114z M209.334,604.345
		c-16.664-8.515-27.553-22.067-35.104-38.529c-6.307-20.418,27.045-29.146,22.649,7.456
		C197.888,585.747,202.106,596.06,209.334,604.345z M168.663,614.978c-15.984-5.357-27.496-15.974-36.426-29.627
		c-8.348-17.346,20.195-29.582,21.174,3.612C155.979,599.94,161.115,608.563,168.663,614.978L168.663,614.978z M527.918,423.583
		c19.007-19.61,43.514-31.364,76.244-31.368C575.086,399.341,549.807,409.922,527.918,423.583z M531.379,432.159
		c43.859-20.835,81.042-28.586,108.562-17.399C623.292,411.154,583.322,418.774,531.379,432.159L531.379,432.159z M527.918,446.129
		c37.161-11.357,65.224-9.801,82.126,7.596C588.851,445.697,560.874,443.701,527.918,446.129L527.918,446.129z M421.514,421.514
		c-21.888-13.662-47.167-24.242-76.243-31.368C378.001,390.15,402.508,401.904,421.514,421.514z M418.054,430.091
		c-51.943-13.386-91.913-21.007-108.562-17.4C337.012,401.505,374.195,409.255,418.054,430.091z M421.514,444.059
		c-32.955-2.428-60.932-0.432-82.125,7.596C356.291,434.259,384.354,432.703,421.514,444.059z"/>
	<path style="fill-rule:evenodd;clip-rule:evenodd;fill:#ECDCC5;" d="M126.172,531.399l-6.927-5.853
		c0,0,19.468-26.635,34.147-31.855l5.313-1.888c9.434-12.026,21.678-17.991,33.074-18.934c0.695-0.057,1.392-0.098,2.089-0.121
		c9.391-12.087,22.298-20.393,37.973-25.285l23.207-22.27l5.962-25.909c2.26-9.821,5.247-18.977,8.989-27.424l-59.929,9.204
		L283,325.309c7.752-5.925,14.905-12.381,21.218-19.587l-1.079-3.395c-0.437-1.374-0.808-2.759-1.098-4.159
		c-17.883-17.688-29.138-37.093-34.811-57.818l-6.219-22.72c-5.025-8.069-8.273-16.372-9.596-24.839l-5.903-37.782
		c-0.643-4.115,3.75-7.153,7.373-5.1l33.268,18.853c6.047,3.428,12.122,6.486,18.59,7.659c28.812,4.772,52.012,17.093,73.982,31.229
		l2.133,1.373l0.224,0.224l8.387-0.939c32.72-3.667,62.618-0.819,85.077,9.963c22.459-10.782,52.357-13.63,85.077-9.963l8.387,0.939
		l0.224-0.224l2.133-1.373c21.971-14.137,45.173-26.458,74.027-31.238c6.452-1.178,12.512-4.231,18.546-7.651l34.843-19.745
		c2.987-1.693,6.608,0.812,6.078,4.204l-6.182,39.569c-1.324,8.468-4.572,16.77-9.595,24.837l-6.22,22.722
		c-5.674,20.724-16.93,40.13-34.811,57.815c-0.291,1.402-0.662,2.788-1.099,4.162l-1.078,3.396
		c6.312,7.203,13.466,13.66,21.217,19.586l72.928,55.753l-59.929-9.204c3.742,8.447,6.729,17.603,8.988,27.424l5.962,25.909
		l23.208,22.269c15.675,4.894,28.584,13.199,37.973,25.286c0.698,0.023,1.395,0.064,2.089,0.121
		c11.397,0.943,23.64,6.908,33.074,18.933l5.315,1.889c14.678,5.22,34.145,31.853,34.145,31.853l-6.927,5.854
		c0,0-16.927-24.828-30.128-29.522l-7.787-2.769c-7.904-11.114-18.485-16.76-28.407-17.581c-1.851-0.153-3.722-0.151-5.594,0.014
		l-2.29-3.008c-8.723-11.454-21.018-19.04-35.967-23.353l-26.587-25.513l-6.543-28.433c-3.524-15.317-8.897-28.922-16.318-40.588
		l43.438,6.671l-45.918-35.103c-9.551-7.303-18.234-15.374-25.671-24.554l2.528-7.96c0.599-1.886,1.049-3.797,1.267-5.763
		c17.849-17.029,29.038-35.77,34.543-55.879l6.564-23.978c4.741-7.342,7.838-14.897,9.047-22.628l4.718-30.197l-26.59,15.069
		c-6.936,3.93-13.95,7.32-21.37,8.657c-27.604,4.562-49.762,16.452-70.785,29.979l-1.344,0.864l-1.127,1.131
		c-0.469,0.471-0.947,0.934-1.432,1.392l-12.51-1.402c-32.781-3.674-62.598-0.732-84.11,11.091
		c-21.511-11.823-51.329-14.765-84.11-11.091l-12.509,1.402c-0.487-0.457-0.964-0.92-1.432-1.392l-1.128-1.131l-1.343-0.864
		c-21.027-13.529-43.189-25.422-70.772-29.976c-7.417-1.332-14.439-4.724-21.382-8.66l-26.591-15.069l4.718,30.197
		c1.208,7.731,4.305,15.285,9.048,22.629l6.563,23.977c5.505,20.108,16.694,38.85,34.544,55.88c0.217,1.964,0.666,3.876,1.266,5.762
		l2.529,7.959c-7.438,9.181-16.121,17.253-25.672,24.555l-45.917,35.103l43.437-6.671c-7.419,11.666-12.793,25.271-16.318,40.588
		l-6.543,28.433l-26.588,25.514c-14.947,4.313-27.243,11.9-35.966,23.352l-2.29,3.008c-1.872-0.165-3.742-0.167-5.593-0.014
		c-9.923,0.821-20.504,6.467-28.408,17.582l-7.787,2.768C143.1,506.57,126.173,531.399,126.172,531.399L126.172,531.399z"/>
	<path style="fill-rule:evenodd;clip-rule:evenodd;fill:#ECDCC5;" d="M232.268,745.078l-2.345-15.831h52.829v-10.71h17.795v9.533
		h4.989v-21.068h7.596V695.65h13.862v33.597h10.081v-13.112h8.46v-3.178h13.697v-7.278c0,0.443,18.865,0,18.865,0v5.183h6.392
		v-39.07l3.376-3.504v-42.474h1.714l3.163,14.109h18.926l2.207-14.109h2.006v42.474l3.161,3.282v44.565h8.273v-5.273h3.048v-5.183
		h17.068v5.183h3.019v6.572h3.251v-42.443h1.277v-1.25h1.915v-4.399h4.123v-4.263h11.437v4.263h3.483v4.399h1.451v1.929h1.568
		v38.432h7.395v-11.999h3.048v-27.112h2.104v-9.912h2.229v-2.276h3.085v-19.399h2.117v19.399h3.27v2.276h2.229v9.912h1.745v27.112
		h2.88v12.723h6.682v-11.421h1.386V669.87h4.678v-2.795h12.331v2.795h3.716v35.809h2.177v8.422h10.069v-28.383h3.266v-3.134h12.733
		v3.134h2.09v28.383h6.27v-9.822h2.032v-3.375h3.442v-2.02h14.786v4.52h1.905v14.03h14.696v7.156c0-0.47,6.259,0,6.259,0v-26.553
		h5.352v-5.161h5.08v-6.232h17.779v6.232h5.08v5.161h1.27v26.553h1.271v-4.143h16.691v5.744h6.176v8.217h43.076l-1.792,10.671
		l-62.176,0.063l-4.515,3.223l-9.606-7.514l-9.759,11.175l-11.269-11.175l-8.916,19.939l-16.6-24.464l-11.405,33.068L569.43,740.85
		l-9.843,21.592l-9.49-14.078l-12.246,50.538l-11.456-78.455l-13.797,45.447l-12.143-27.027l-11.057,66.572l-12.011-66.572
		l-14.529,27.027l-12.409-29.568l-8.833,35.196l-6.881-16.693l-5.817,16.693l-9.877-32.655l-14.807,82.229l-16.369-100.648
		l-11.505,66.618l-13.553-41.924l-9.958,41.924l-7.314-56.797l-11.141,41.254l-6.402-16.693l-6.032,16.693l-8.828-41.254
		l-12.586,27.159l-10.034-18.561l-8.476,10.848l-4.948-4.614L232.268,745.078L232.268,745.078z"/>
	<path style="fill-rule:evenodd;clip-rule:evenodd;fill:#ECDCC5;" d="M741.936,256.273l9.443,29.061h30.557l-24.721,17.961
		l9.443,29.062l-24.721-17.961l-24.72,17.961l9.443-29.062l-24.721-17.961h30.557L741.936,256.273z"/>
	<path style="fill-rule:evenodd;clip-rule:evenodd;fill:#ECDCC5;" d="M214.343,256.273l9.443,29.061h30.557l-24.721,17.961
		l9.443,29.062l-24.721-17.961l-24.721,17.961l9.443-29.062l-24.721-17.961H204.9L214.343,256.273L214.343,256.273z"/>
	<path style="fill-rule:evenodd;clip-rule:evenodd;fill:#ECDCC5;" d="M475.09,819.405l9.443,29.061h30.557l-24.721,17.961
		l9.443,29.062l-24.721-17.961l-24.72,17.961l9.442-29.062l-24.72-17.961h30.557L475.09,819.405L475.09,819.405z"/>
</g>
<g id="g11" serif:id="g1">
</g>
<g id="g12" serif:id="g1">
</g>
</svg>
