<svg xmlns="http://www.w3.org/2000/svg" xml:space="preserve" style="enable-background:new 0 0 1089.908 1230.605" viewBox="0 0 1089.908 1230.605"><path d="M1066.471 334.436c-.39-33.32-1.95-66.62-4.23-99.85-2.02-29.42-4.87-58.79-7.89-88.13-1.01-9.8-1.48-19.79-4.06-28.9-1.03-.6-1.39-.91-1.8-1.04-92.36-31.18-186.56-54.91-282.7-71.14-51.37-8.67-102.99-15.07-154.97-18.1-63.25-3.68-126.41-1.98-189.48 4.7-39.41 4.17-78.63 9.56-117.6 16.57-63.23 11.37-125.72 26.09-187.44 43.94-26.24 7.59-52.38 15.56-78.59 24.97-1.68 12.97-3.61 25.88-4.99 38.85-4.3 40.61-7.61 81.31-9.21 122.11-2.44 62.62-2.68 125.24.8 187.87 3.08 55.61 8.56 110.89 17.36 165.89 9.71 60.72 23.47 120.45 43.26 178.67 13.08 38.46 27.07 76.65 48.43 111.56 14.43 23.57 32.11 44.6 51.25 64.58 0 2.1.1 4.09-.02 6.07-.58 9.75-1.62 19.49-1.77 29.25-.26 17.16 7.01 27.15 22.98 32.46 5.25 1.74 10.66 3.02 15.85 4.91 13.96 5.1 26.94 4.25 38.38-6.1 88.04 66.02 183.68 117.8 284.05 161.71 53.9-20.83 105.77-44.24 156.08-71.09 64.54-34.46 126.51-72.77 181.31-121.71 33.13-29.59 63.3-61.91 83.64-101.82 25.67-50.34 43.2-103.82 57.47-158.36 16.03-61.27 26.65-123.52 33.59-186.47 4.18-37.96 6.96-76 8.88-114.11 2.14-42.4 1.92-84.85 1.42-127.29zm-495.6-21.04c-3.54-10.15-11.17-17.44-18.25-25.1-2.04-2.2-4.94-3.8-5.6-7.1 1.83-1.63 3.47-.44 5 .15 19.63 7.6 31.8 21.99 37.46 41.98 2.46 8.73-.72 16.52-5.32 23.89-20.3 32.51-51.84 50.51-85.21 66.16-11.81 5.94-24.6 8.63-37.4 11.33-20.51 4.33-41.52 7.01-61.13 19.24 1.72-5.88 4.81-8.77 8.02-11.54 13.93-12 30.31-19.93 46.56-28.06 7.11-3.56 14.12-7.28 21.18-10.93 11.5-7.88 22.97-15.82 34.5-23.64 6.36-4.32 10.87-10.45 15.87-16.04 3.86-4.33 2.38-10.15 2.83-15.38.61-7.17 4.27-11.52 10.98-12.84 2.11 1.71 2.02 4.34 2.13 6.63.27 6.02 2.72 10.46 8.74 11.8 6.4 1.43 12.54.52 16.77-5.21 5.79-7.83 5.95-16.52 2.87-25.34zm-387.85 207.36c-1.97-3.88-4.03-7.91-3.92-12.52-2.93-10.09-.68-19.87 2.29-29.42 5.78-18.61 16.01-34.48 30.24-47.87 13.71-12.91 21.6-29.01 25.05-47.45 3.46-18.52-.28-35.25-11.92-50.15-1.76-2.25-3.49-4.53-5.49-7.15 1.22-.15 1.98-.51 2.43-.27 23.65 12.4 41.46 29.48 45.97 57.31.94 5.83-.32 10.6-4.03 15.34-8.02 10.25-17.7 18.71-27.76 26.74-24.93 19.89-36.09 46.48-38.33 77.54.04 20.88 6.3 39.49 21.59 56.16-9.94-1.31-18.51-1.08-26.79-3.28-4.16-1.11-7.43-3.66-6.01-8.68 2.63-9.3.95-17.86-3.32-26.3zm-11.74-182.5c-26.06 17.57-32.79 42.64-26.36 71.75 6.88 31.13 13.09 62.46 22.87 92.89 1.26 3.93 2.16 7.99 3.22 11.99 3.62 9.5 5.83 19.29 5.83 29.75-7.74-6.65-11.7-15.75-16.28-24.44-16.33-28.57-38.05-54.21-47.31-86.62-5.27-18.43-8.48-36.92 1.87-54.84 12.93-22.38 33.39-34.61 56.8-43.05 1.08 1.93-.09 2.19-.64 2.57zm426.92 17.79c15.69-14.75 27.2-32.58 36.65-51.85 2.77-5.67 4.94-11.88 10.43-16.22 5.02 3.16 4.93 8.48 5.21 12.96 1.11 17.78-.04 35.37-5.85 52.45-1.92 5.64-3.2 11.52-4.49 17.35-6.83 30.95-26.36 51.99-52.62 67.83-8.18 4.93-16.84 8.8-25.89 11.8-17.48 6.93-35.91 9.48-54.44 10.78-15.42 1.08-30.93 2.39-47.26-.37 26.05-6.86 49.96-17.19 72.37-30.91 12.63-9 25.1-18.15 34.94-30.4 4.74-5.89 9.7-11.78 12.6-18.69 4.14-9.89 10.67-17.52 18.35-24.73zM585.631 476.316c2.87 1.03 5.1-.89 7.39-1.9 31.57-13.99 59.11-33.63 84.65-56.94 13.98-12.76 25.69-26.75 36.29-42.08 1.78-2.58 3.48-5.59 7.22-7.09.85 3.8.33 6.98-.36 10.19-3.73 17.49-10.03 34.14-18.56 49.71-4.54 8.28-12.19 14.62-19.08 21.23-24.56 23.55-52.09 42.05-85.72 50.06-2.15.51-4.32.89-6.49 1.34 0 0-.01 0-.01-.01-11.91 3.8-24.31 4.62-36.62 5.77-13 1.21-26.07 1.7-39.11 2.61-5.6.39-10.83-.02-16.05-2.77-6.82-3.6-14.12-6.28-22.61-9.97 25.38-.62 48.12-6.69 70.12-16.1 9.99-4.27 18.68-10.92 28.76-14.93 6.6-5.15 13.34-10.14 19.78-15.48 19.93-16.55 37.56-35.08 49.33-58.53.3-.59.67-1.14 1.42-2.4 3.48 9.93 9.08 17.19 16.44 23.77-3.79 8.76-9.97 15.38-16.5 21.54-17.84 16.84-38.28 29.95-60.32 40.6-.02.43-.03.87-.05 1.3m-108.45-219.8c-4.76-5.33-10.55-9.47-16.24-13.73-1.15-.86-2.86-1.45-2.73-3.5 3.23-1.3 6.16.29 8.87 1.39 26.09 10.57 44.33 29.03 48.25 57.15 2.12 15.19-2.44 30.93-10.54 45.07-9.19 16.05-23.49 25.09-40.11 30.78-26.52 9.07-50.86 21.81-72.28 39.97-7.2 7.47-15.06 14.24-21.97 22.04-10.5 11.87-19.26 24.7-25.36 39.81-4.59 1.19-9.45 2.44-13.89 3.58-13.41-6.99-17.19-14.39-14.33-29.02 1.74-8.87 4.38-17.56 8.31-25.78 4.23-12.85 9.67-25.16 16.71-36.72 5.8-9.52 13.7-17.03 24.03-21.14 12.19-4.84 20.11-14.94 29.66-22.94 4.68-3.92 3.86-11.09 3.3-17.04-1.52-16.19 5.08-28.82 16.7-39.31 2.55-2.3 5-4.99 8.77-5.43.47 2.5-1.54 3.94-2.6 5.73-10.28 17.38.09 39.08 20.16 42 1.26.18 2.78.21 3.88-.31 18.47-8.78 33.32-21.2 39.8-41.41 3.85-12.02-.37-22.22-8.39-31.19zm-124.04 15.41c.76.28 1.76.44 1.85 2.15-2.54 2.16-6.13 2.51-9.34 3.63-22.74 7.94-36.33 28.42-34.76 52.43.68 10.3 5.05 18.67 12.88 25.3 15.03 12.72 16.76 19.57 7.99 37.38-8.32 16.89-18.27 32.96-26.14 50.1-3.69 12.27-8.21 24.29-9.77 37.17-1.65 13.52-1.76 27.01-.16 40.49 1.93 16.21-.04 31-14.13 42.47-7.98-1.87-16.22-3.47-24.27-5.77-22.27-6.35-40.55-30.38-40.68-53.02-2.75-14.29.77-27.75 5.97-40.8 7.32-18.36 18.94-33.45 35.39-44.74 7.86-5.4 15.1-11.6 21.44-18.83 12.09-13.81 13.27-29.56 7.81-46.13-5.18-15.74-7.38-31.45-2.69-47.67 7.85-27.16 42.14-44.25 68.61-34.16zm372.43 336.29c-16.95 3.96-32.33-1.18-47.26-8.4-5.45-2.63-11.15-5.3-14.07-11.08 1.8-3.31 4.24-2.43 6.64-2.23 13.44 1.11 26.89 2.21 40.34 3.08 3.01.2 6.07-.54 9.1-.85 25.77-2.83 47.27-15 67.73-30.03 8.51-6.26 15.65-14.15 24.39-20.21 1.76 2.74.24 4.54-.7 6.06-19.46 31.4-46.23 53.38-82.21 63.35-1.25.35-2.63.22-3.96.31zm40-61.36c-19.78 10.88-40.34 19.82-62.68 24.07-20.17 5.9-40.86 7.51-61.67 6.06-19.52-1.36-38.43-5.92-56.33-14.21-7.02-3.26-13.5-7.25-21.13-13.15 35.35 4.29 68.72 4.21 101.9-2.39 11.17-2.92 22-6.79 32.39-11.84 13.37-6.5 26.8-12.84 40.69-18.19 9.65-3.73 18.1-9.37 24.42-17.29 27.35 4.9 50.47-5.86 74.39-19.95-1.43 6.19-4.23 9.54-6.86 12.8-18.1 22.36-39.95 40.25-65.12 54.09zm-423.34 251.39c6.05-22.66 13.01-45.11 16.42-68.41 1.3-20.79 1.4-41.44-4.65-61.74-2.92-9.79-7.87-18.58-12.16-27.7 7.38 2.93 10.85 9.94 15.65 15.45 10.94 12.58 20.25 26.38 28.75 40.71.55.92.74 2.06 1.1 3.09 19.39 32.57 30.25 67.7 27.46 105.69-3.66 49.61-23.03 92.46-59.92 126.66-3.41 3.16-7.37 5.66-11.87 7.18-7.03 2.39-11.65.44-14.22-6.52-2.17-5.86-2.93-12.04-3.02-18.29-.58-39.57 6.29-78.06 16.46-116.12zm-79.56 238.48c-6.46 16.61-18.75 22.62-36.02 17.53-6.59-1.94-13.23-3.75-19.68-6.07-12.31-4.44-17.58-11.52-17.29-24.56.34-14.84 1.54-29.65 2.37-44.47-1.71-6.95-.26-14.01-.48-21.24 2.8 8.04 6.55 15.39 13.03 21 3.76 1.67 7.48 4.33 11.48.49h.01c3.68-17.99-4.75-34.28-7.93-50.71 5.05-7.03 11.64-6.28 17.56-5.14 17.16 3.3 30.2 11.96 36.44 29.34 3.2 8.92 7.5 17.45 11.31 26.16.65 1.56.85 3.51 3.67 3.68 2.85-3.38 1.41-7.8 2.14-11.72-2.19-30.41.4-50.17 8.03-55.12 6.97 8.3 15.77 14.78 25.33 20.24 7.45 2.93 14.49 6.68 21.19 11 9.06 5.83 11.9 13.4 9.9 24-1.22 6.53-2.56 13.1-2.93 19.7-.92 16.08-6.7 23.42-22.24 26.53-8.07 1.61-16.2 2.07-24.46.83-14.81-2.23-25.98 4.52-31.43 18.53z" style="fill:#0d1559"/><linearGradient id="a" x1="543.69" x2="539.657" y1="197.778" y2="1182.608" gradientUnits="userSpaceOnUse"><stop offset=".393" style="stop-color:#0d1559"/><stop offset=".398" style="stop-color:#0c1457"/><stop offset=".458" style="stop-color:#040843"/><stop offset=".498" style="stop-color:#01033b"/></linearGradient><path d="M842.791 1025.67c-3.134 3.505-5.679 7.683-10.533 9.222-2.818-.428-3.823-2.798-5.122-4.828-17.892-27.974-39.751-52.292-66.712-71.791-14.983-10.836-31.542-19.043-47.998-27.312-18.1-9.095-34.161-20.61-46.964-36.462-9.866-12.215-15.014-26.561-19.146-41.424-5.841-21.011-9.582-42.485-13.47-63.883-8.951-49.266-36.084-86.126-76.135-114.502-31.66-22.431-65.953-39.227-103.86-48.182-.901-.116-.385 1.51-.385.621 0-.269.191-.379.56-.278 10.541 2.867 20.384 7.552 30.28 12.007 29.143 13.122 56.079 29.55 79.015 52.231 26.877 26.577 42.577 58.654 48.755 95.679 3.474 20.824 5.319 41.754 5.73 62.905.257 13.225 1.168 26.565 5.212 39.471 6.747 21.528 20.072 37.285 40.088 47.468 9.105 4.632 18.213 9.266 27.426 13.677 19.621 9.394 35.286 23.743 49.637 39.656 19.34 21.443 35.437 45.581 55.098 66.771 1.071 1.154 1.997 2.401 1.882 4.112-5.325 4.858-10.65 9.714-17.982 11.402-1.676.08-2.305-1.217-2.819-2.386-10.458-23.779-27.898-41.916-47.294-58.42-16.254-13.83-33.355-26.496-52.29-36.486-5.015-2.646-10.026-5.511-16.575-5.664.254 4.803 2.983 8.082 4.857 11.693 9.205 17.733 13.862 36.643 11.98 56.515-2.117 22.363-15.343 38.769-31.607 52.938-12.14 10.577-26.044 18.359-40.774 24.78-7.317 3.189-14.363 6.984-21.455 10.656-2.341 1.212-4.813 2.402-5.75 5.666.883 4.233 4.775 5.218 8.264 6.283 15.541 4.744 31.498 7.291 47.659 8.745 2.796.251 6.436-1.362 7.957 2.767-8.559 6.534-18.762 9.883-28.397 14.202-20.999 9.413-42.307 18.138-63.505 27.104-1.409.596-2.96.858-4.383 1.259-96.254-43.208-188.603-92.931-272.828-157.127 6.513-9.103 14.16-11.311 24.691-9.931 16.022 2.1 31.802.609 44.493-11.811 4.512-4.416 6.491-9.695 6.475-15.444-.024-8.278 1.55-16.261 2.919-24.303 2.094-12.297 1.096-17.324-5.754-26.683 23.55-12.125 38.199-32.575 51.092-54.672 12.636-21.657 20.534-45.038 24.677-69.66 3.637-21.614 2.391-43.149-2.305-64.539-9.049-41.218-29.484-76.404-56.432-108.33-7.903-9.364-16.874-17.544-25.019-26.081-4.129-.721-7.87-1.155-9.748 2.903-1.702 3.679.102 6.861 2.488 9.721 15.662 18.769 22.26 40.703 23.688 64.826 1.764 29.798-6.359 57.812-14.055 85.962-6.931 25.35-13.38 50.87-16.377 76.969-2.583 22.485-5.762 45.152-.684 68.288-12.421-5.219-22.503-12.507-30.595-22.213h-7.948c-10.057 6.059-9.033 16.839-10.251 26.414-.832 6.544-.159 13.279-.71 20.344-7.113-18.124-17.549-32.791-37.418-37.977 1.503-3.277 4.811-2.885 7.473-3.405 24.766-4.842 46.491-15.668 65.365-32.433 3.355-2.98 5.222-6.274 6.22-10.584 5.155-22.26 7.607-45.089 14.492-66.992 5.984-19.038 12.346-37.967 16.385-55.313-12.244 30.487-32.478 58.505-57.524 82.365-24.773 23.599-48.888 48.762-82.114 62.146-1.213-13.153 4.217-24.064 9.346-35.04-.134-.669 1.396-.893.471-1.864.132.595.074 1.076-.316 1.492-6.469 9.554-14.316 18.03-21.016 27.403-6.057 8.473-11.158 17.486-17.138 27.37 8.261 1.692 15.64 3.321 23.328 3.582 2.874.098 6.396-1.141 8.163 2.642-2.317 1.042-3.862 2.918-5.656 5.351-2.03 15.737 10.848 29.669 7.188 46.662-9.984-4.164-7.488-16.233-13.879-21.598-4.83-1.812-8.325-.396-11.727 3.209-11.073-12.542-21.233-25.292-29.862-39.173-18.587-29.899-31.047-62.597-43.17-95.451-13.573-36.783-24.159-74.437-32.935-112.605-6.421-27.926-11.885-56.05-15.748-84.468-2.936-21.6-6.283-43.147-8.993-64.774-1.476-11.78-2.007-23.678-2.926-35.047 2.939-3.807 6.336-4.545 10.366-4.521 22.415.131 44.831.023 67.246.09 6.177.018 12.237 1.441 18.467 1.54 5.27.084 8.468 4.328 10.944 8.717 2.502 4.435 4.991 8.879 7.392 13.369 3.283 6.138 7.465 11.026 15.062 11.195 4.219 10.192 13.34 11.113 22.154 11.703 14.027.94 27.388 2.727 39.472 11.299 6.583 4.67 14.94 6.257 23.501 3.752 9.085-2.659 18.386.818 27.575-.322 4.397 2.894 8.114 6.801 13.531 8.147 4.586 1.14 8.148.485 11.144-3.481 23.508-31.12 55.624-47.058 93.618-51.259 31.693-3.504 62.802.967 93.18 10.524 16.964 5.337 33.573 11.561 49.865 20.126-5.603-4.57-10.795-8.75-16.099-12.797-1.91-1.458-4.121-2.783-4.099-5.675 9.686.591 18.397 3.284 25.897 9.991 16.558 14.808 36.956 21.322 58.152 25.81a190.045 190.045 0 0 0 39.73 4.155c.148 13.953 11.047 18.326 20.523 22.885 24.514 11.794 49.447 12.181 73.497.106 166.524-68.952 195.049-75.074 283.441-48.634 2.38 5.146-11.294 100.664-12.084 105.008-8.496 46.746-18.638 93.103-33.238 138.406-5.98 18.556-12.413 36.925-19.43 55.104-.749 1.94-1.312 3.765-3.436 4.55-2.898-.229-3.92-2.664-5.293-4.609-12.829-18.169-27.285-34.969-42.233-51.42-44.921-49.438-95.957-91.634-151.679-128.183-51.459-33.753-106.221-60.921-164.523-80.91-45.284-15.526-91.438-27.301-138.82-34.199-10.314-1.501-20.689-2.182-31.209-2.277 6.835 3.736 14.212 6.039 21.589 8.264 69.173 20.856 136.806 45.863 202.676 75.559 78.163 35.238 150.398 80.085 216.679 134.516 31.085 25.528 60.487 52.871 88.444 81.782 1.534 1.586 3.281 3.055 3.536 5.477-5.2 16.241-11.923 31.802-20.745 46.423-2.485-.006-3.19-2.088-4.269-3.701-21.024-31.414-44.189-61.053-70.09-88.692-46.101-49.194-99.001-89.448-157.375-122.762-62.289-35.549-128.548-61.189-197.987-78.72-12.444-3.142-24.751-6.834-37.375-9.267 9.477 2.05 18.94 4.227 28.051 7.539a311.701 311.701 0 0 1 27.024 11.295 388.456 388.456 0 0 1 26.544 13.891c8.49 4.86 16.596 10.3 24.705 15.745 22.11 14.845 40.626 33.63 58.387 53.254 21.733 24.014 45.885 45.078 74.226 61.089 21.87 12.355 44.914 22.285 67.47 33.231 29.46 14.296 57.032 31.577 82.167 52.723 23.539 19.803 44.385 42.107 63.249 66.33 1.723 2.212 4.122 4.17 4.001 7.423-3.164 5.522-6.186 11.149-11.275 15.247-3.024.201-4.061-2.335-5.57-4.134-28.068-33.491-58.917-63.907-95.605-88.085-14.972-9.867-31.263-16.719-47.808-23.193-13.85-5.419-27.518-11.229-40.83-17.912-14.809-7.434-28.404-16.408-39.798-28.572-2.331-2.489-4.475-5.758-8.698-5.031-3.166 1.715-3.144 4.705-3.252 7.586-.885 23.585 6.029 45.058 17.599 65.3 11.726 20.515 29.744 33.735 50.505 43.762 21.641 10.452 37.448 26.656 47.629 48.331 12.306 26.199 26.485 51.259 44.101 74.298 1.397 1.828 3.478 3.626 2.411 6.471z" style="fill:url(#a)"/><path d="M778.857 309.978c-23.911-3.48-47.797-7.145-71.741-10.378-16.695-2.254-33.47-3.914-50.161-5.834-8.245-16.47-12.77-16.862-23.766-1.788l-19.55-1.433c.912-3.217 1.886-6.241 2.625-9.322 4.122-17.193-2.126-32.655-17.016-41.863-6.649-4.112-13.855-6.971-21.607-8.155-5.186-.792-10.696-.855-13.808 4.132-3.083 4.94-.282 9.493 3.129 13.206 9.599 10.448 16.833 22.199 20.633 35.949.404 1.463.713 2.952 1.105 4.591-6.607.674-12.235.335-17.423-4.582-4.781-4.532-10.934-7.501-17.332-9.575-4.375-1.418-8.761-2.322-12.273 1.753-3.209 3.724-1.027 7.464.656 11.493h-21.732c-3.008-7.681-6.163-15.445-10.968-22.396-11.549-16.708-27.102-27.835-46.636-33.222-7.531-2.077-12.185.702-12.395 6.593-.139 3.916 2.534 5.994 5.178 7.989 6.201 4.679 12.551 9.176 17.626 15.151 7.558 8.9 8.796 17.856 3.733 27.898l-50.498 3.817c-.042-3.36 2.34-5.255 3.655-7.623 1.785-3.214 3.379-6.519.145-9.711-3.104-3.064-6.671-2.99-10.341-.973-8.146 4.479-14.601 10.746-19.643 18.524-.602.929-1.334 1.773-2.193 2.903-25.308 2.889-50.715 6.579-76.849 10.692 5.185-11.554 13.336-18.81 24.242-23.139 3.081-1.223 6.263-2.221 9.452-3.136 4.245-1.219 7.239-3.446 7.092-8.29-.136-4.475-3.022-6.573-6.964-7.762-13.205-3.982-26.289-3.051-39.303.88-2.729.824-5.408 1.815-8.516 2.867v-55.052c29.541-5.223 59.365-9.537 89.565-12.462-12.566 7.605-21.519 17.694-25.204 32.014-2.637 10.245-1.87 20.242 1.856 30.035 1.643 4.316 4.102 8.101 9.533 7.599 5.258-.487 6.858-4.547 7.289-8.929.914-9.309 6.276-15.026 13.884-19.784 11.692-7.311 16.509-19.874 13.651-32.006-1.126-4.783-4.172-7.571-9.019-10.836 11.471-1.152 21.769-2.352 32.095-3.195 56.719-4.629 113.47-5.751 170.322-2.314 55.211 3.337 109.982 10.15 164.494 19.305 1.06.178 2.072.638 3.107.967 2.127 2.885 1.981 6.254 1.985 9.57.028 25.459.045 50.917-.02 76.376-.009 3.263.45 6.716-2.094 9.456z" style="fill:#fcfcfc"/><path d="m778.857 309.978.128-95.403c26.325 3.676 52.274 9.35 78.219 14.983 60.188 13.067 119.629 28.951 178.227 47.951 2.292.743 4.561 1.561 7.589 2.601 1.436 31.94 2.684 63.757 2.126 96.486-9.254-2.898-17.849-5.616-26.46-8.282-78.129-24.186-157.423-43.552-238.004-57.598-.631-.109-1.217-.486-1.825-.738z" style="fill:#9c0003"/><path d="M43.613 373.906c-1.922-31.047 1.362-61.981.97-94.396 85.078-28.012 171.823-49.147 260.635-65.029v55.741c-16.736 9.495-27.065 24.353-29.249 45.519-13.215 2.771-26.633 6.237-40.27 8.069-4.45.598-9.471-3.065-14.279-4.797-3.212.517-6.233 1.479-8.549 4.344-5.394-9.757-11.054-18.939-17.813-27.462-4.151-5.235-8.518-7.407-14.532-4.194-3.411 4.305-1.947 8.575-.6 12.78a1278.1 1278.1 0 0 0 7.473 22.672c.731 2.144 1.407 4.206.65 6.579-1.464 1.735-3.369 2.617-5.756 2.297-5.455-7.302-9.205-8.255-19.198-4.379-5.975 2.317-12.114 4.453-17.202 8.526-11.93 9.55-26.458 12.731-40.607 16.917-18.226 5.392-36.403 10.954-54.62 16.376-2.045.607-4.045 2.133-7.053.437z" style="fill:#01033e"/><path d="M842.791 1025.67c-3.43-4.892-6.822-9.811-10.296-14.671-12.533-17.533-23.931-35.718-32.536-55.563-11.927-27.505-30.885-47.777-58.304-61.074-41.91-20.325-59.662-56.766-63.142-101.494-.403-5.183-.676-10.726 3.279-15.035 4.262-1.693 7.232.636 9.528 3.256 19.541 22.3 45.236 35.075 72.349 44.412 60.486 20.829 106.473 60.8 147.318 108.085 3.771 4.366 7.417 8.84 11.121 13.264-5.34 10.613-14.033 18.607-21.814 27.215-16.384 18.124-34.555 34.42-53.4 49.957-1.219 1.004-2.337 2.083-4.103 1.648z" style="fill:#fefefe"/><path d="M933.382 931.603c-19.516-24.817-40.361-48.358-64.271-69.125-30.761-26.718-65.543-46.791-102.381-63.705-30.223-13.876-60.185-28.253-86.34-49.332-14.225-11.465-27.42-24.024-39.338-37.794-43.831-50.644-98.689-83.564-162.546-102.243-.627-.183-1.332-.082-1.981-.21-.316-.062-.587-.349-1.67-1.039 28.146 4.938 54.907 11.797 81.341 19.97 94.146 29.108 180.519 72.966 256.889 135.755 51.685 42.494 95.388 92.081 131.57 148.344-2.537 7.17-6.581 13.463-11.273 19.379zM796.149 1060.828c-20.135-20.19-35.94-43.988-54.499-65.503-18.383-21.311-39.459-38.759-65.495-50.048-14.04-6.088-27.776-12.942-38.307-24.652-13.793-15.336-20.124-33.657-21.647-53.908-1.731-23.012-2.095-46.076-4.925-69.065-6.959-56.524-34.796-99.579-81.398-131.31-22.68-15.443-47.332-26.866-72.804-36.721-2.746-1.062-5.751-1.717-8.723-4.423 6.688-.398 12.128 1.344 17.524 2.962 44.001 13.197 83.121 35.103 117.154 66.019 28.73 26.099 44.525 59.101 51.857 96.735 4.111 21.1 7.94 42.254 13.25 63.12 7.707 30.29 25.24 52.945 52.135 68.366 12.097 6.936 24.668 13.038 36.974 19.613 36.885 19.709 65.544 48.222 88.438 82.884 2.198 3.328 4.384 6.663 6.576 9.996-11.202 9.809-23.08 18.674-36.11 25.935zM640.321 1149.318c-16.704-1.946-33.486-3.495-49.777-7.916-6.263-1.7-13.081-2.802-16.991-9.098 1.2-5.304 5.631-6.988 9.424-8.919 11.041-5.62 22.292-10.825 33.407-16.299 13.868-6.83 25.86-16.149 36.664-27.205 23.955-24.513 26.068-53.003 15.828-83.89-2.38-7.179-5.946-13.81-9.512-20.445-1.338-2.491-3.075-4.869-3.281-8.146 4.26-1.889 7.813.21 11.32 1.717 14.955 6.425 28.397 15.41 41.462 24.978 16.869 12.355 32.683 25.895 46.443 41.733 9.518 10.955 17.547 22.816 22.858 36.402-.028 2.208-1.883 2.861-3.326 3.781-41.122 26.224-83.767 49.711-127.653 70.956-2.161 1.047-4.571 1.579-6.866 2.351z" style="fill:#fcfcfc"/><path d="M965.4 865.801C898.004 796.17 823.366 735.72 738.975 687.768c-75.219-42.74-155.031-74.927-236.944-102.168-21.85-7.266-43.8-14.235-65.658-21.476-3.225-1.068-6.824-1.705-9.86-5.17 8.806-1.639 16.966-.638 24.934.391 117.43 15.164 225.316 55.892 323.658 121.802 66.468 44.548 125.81 97.028 175.749 159.801 5.373 6.754 10.265 13.892 15.381 20.852.157 1.425 1.419 3.079-.835 4.001z" style="fill:#fcfcfc"/><path d="M424.352 281.585c-.03 0-.05.01-.08.01 0-.04-.01-.08-.02-.12l.1.11z" style="fill:#c80004"/><path d="M533.183 544.42c7.886 7.457 17.543 12.909 24.61 21.447-13.726-5.988-27.253-12.024-41.237-16.951-32.089-11.307-64.925-17.965-99.148-15.482-41.781 3.031-76.474 19.482-101.469 54.095-.636.881-1.389 1.677-2.464 2.962-7.893-2.537-17.419-1.701-21.433-11.656.79-4.655 3.679-8.164 6.977-11.067 15.227-13.406 17.102-30.224 12.953-48.708-.434-1.933-.942-3.849-1.544-6.297 15.614-6.883 31.742-11.348 48.388-13.898 61.841-9.473 117.117 7.737 168.225 41.704 2.012 1.337 4.093 2.57 6.142 3.851zM214.879 857.182c1.989 2.355-.453 3.965-1.146 5.716-3.889 9.834-7.642 19.69-9.854 31.825 33.353-16.397 58.375-41.177 83.444-65.61 25.426-24.782 45.529-53.552 59.383-88.39.53 7.578-1.684 12.885-3.035 18.267-5.82 23.184-15.022 45.405-19.792 68.89-3.086 15.193-6.014 30.419-8.848 45.661-.726 3.903-2.448 6.83-5.429 9.492-20.883 18.646-45.024 30.33-72.702 34.661-.845.132-1.645.556-2.466.844l-26.863 1.369c-11.116-1.604-22.493-1.605-33.72-5.271 11.42-21.053 24.713-40.275 41.132-57.268l-.104-.186z" style="fill:#fcfcfc"/><path d="M636.689 512.049c32.706-21.287 58.149-47.369 76.148-80.996 14.638 1.661 20.168-7.887 23.591-19.916.606-2.13 1.397-4.206 2.058-6.32 8.74-27.992 36.805-45.148 65.725-40.14.61.106 1.157.571 2.072 1.043-1.893 2.343-4.624 2.529-6.93 3.262-20.705 6.578-33.061 19.848-36.716 41.901-2.343 14.137-3.152 27.558-.53 41.95 3.643 19.998-7.206 35.04-22.867 46.252-13.552 9.702-29.629 12.841-45.841 14.172-17.033 1.398-34.148.471-51.222-.16-1.296-.049-2.578-.478-5.488-1.048z" style="fill:#c80004"/><linearGradient id="b" x1="244.942" x2="326.719" y1="340.415" y2="453.235" gradientUnits="userSpaceOnUse"><stop offset=".543" style="stop-color:#c80004"/><stop offset=".621" style="stop-color:#c30004"/><stop offset=".71" style="stop-color:#b50004"/><stop offset=".806" style="stop-color:#9e0004"/><stop offset=".906" style="stop-color:#7d0003"/><stop offset=".936" style="stop-color:#720003"/></linearGradient><path d="M310.832 330.035c.68 10.3 5.05 18.67 12.88 25.3 15.03 12.72 16.76 19.57 7.99 37.38-8.32 16.89-18.27 32.96-26.14 50.1-3.69 12.27-8.21 24.29-9.77 37.17-1.65 13.52-1.76 27.01-.16 40.49 1.93 16.21-.04 31-14.13 42.47-7.98-1.87-16.22-3.47-24.27-5.77-22.27-6.35-40.55-30.38-40.68-53.02-2.75-14.29.77-27.75 5.97-40.8 7.32-18.36 18.94-33.45 35.39-44.74 7.86-5.4 15.1-11.6 21.44-18.83 12.09-13.81 13.27-29.56 7.81-46.13-5.18-15.74-7.38-31.45-2.69-47.67 7.85-27.16 42.14-44.25 68.61-34.16.76.28 1.76.44 1.85 2.15-2.54 2.16-6.13 2.51-9.34 3.63-22.74 7.94-36.33 28.42-34.76 52.43z" style="fill:url(#b)"/><path d="M184.518 296.556c3.373.579 4.464 2.385 5.591 3.926 11.567 15.813 21.599 32.452 28.158 51.069 4.082 11.585 3.221 22.572-2.266 33.432-3.821 7.562-8.272 14.762-13.627 21.25-7.766 9.408-13.082 19.895-16.698 31.484-1.743 5.587-3.238 11.597-8.306 15.379-4.036.116-6.53-2.255-8.49-4.878-11.726-15.695-16.428-33.23-12.689-52.618 1.742-9.035 6.981-16.034 15.494-19.589 23.122-9.653 28.726-24.189 22.028-50.365-2.45-9.58-5.938-18.895-9.195-29.09z" style="fill:#c80004"/><path d="M602.118 99.256v46.069h-11.697V76.518h17.543l18.537 40.725c.691-14.307 1.487-26.44 2.645-39.342 4.652.044 7.965-.052 12.733.391l-3.605 68.645h-13.92l-22.236-47.681z" style="fill:#fcfcfc"/><linearGradient id="c" x1="876.623" x2="636.832" y1="431.305" y2="563.446" gradientUnits="userSpaceOnUse"><stop offset=".543" style="stop-color:#c80004"/><stop offset=".621" style="stop-color:#c30004"/><stop offset=".71" style="stop-color:#b50004"/><stop offset=".806" style="stop-color:#9e0004"/><stop offset=".906" style="stop-color:#7d0003"/><stop offset=".936" style="stop-color:#720003"/></linearGradient><path d="M837.492 479.865c-1.43 6.19-4.23 9.54-6.86 12.8-18.1 22.36-39.95 40.25-65.12 54.09-19.78 10.88-40.34 19.82-62.68 24.07-20.17 5.9-40.86 7.51-61.67 6.06-19.52-1.36-38.43-5.92-56.33-14.21-7.02-3.26-13.5-7.25-21.13-13.15 35.35 4.29 68.72 4.21 101.9-2.39 11.17-2.92 22-6.79 32.39-11.84 13.37-6.5 26.8-12.84 40.69-18.19 9.65-3.73 18.1-9.37 24.42-17.29 27.35 4.9 50.47-5.86 74.39-19.95z" style="fill:url(#c)"/><path d="m295.928 92.412 37.606-4.825 12.763 9.625 2.157 19.207-9.57 11.396 14.106 27.547-14.909 1.907-13.564-26.03c-2.622.211-4.275.358-7.446.874l3.206 27.233-14.747 2.1a1240194.5 1240194.5 0 0 1-9.602-69.034z" style="fill:#fcfcfc"/><linearGradient id="d" x1="383.38" x2="429.978" y1="244.297" y2="438.684" gradientUnits="userSpaceOnUse"><stop offset=".543" style="stop-color:#c80004"/><stop offset=".621" style="stop-color:#c30004"/><stop offset=".71" style="stop-color:#b50004"/><stop offset=".806" style="stop-color:#9e0004"/><stop offset=".906" style="stop-color:#7d0003"/><stop offset=".936" style="stop-color:#720003"/></linearGradient><path d="M504.732 342.795c-9.19 16.05-23.49 25.09-40.11 30.78-26.52 9.07-50.86 21.81-72.28 39.97-7.2 7.47-15.06 14.24-21.97 22.04-10.5 11.87-19.26 24.7-25.36 39.81-4.59 1.19-9.45 2.44-13.89 3.58-13.41-6.99-17.19-14.39-14.33-29.02 1.74-8.87 4.38-17.56 8.31-25.78 4.23-12.85 9.67-25.16 16.71-36.72 5.8-9.52 13.7-17.03 24.03-21.14 12.19-4.84 20.11-14.94 29.66-22.94 4.68-3.92 3.86-11.09 3.3-17.04-1.52-16.19 5.08-28.82 16.7-39.31 2.55-2.3 5-4.99 8.77-5.43.47 2.5-1.54 3.94-2.6 5.73-10.28 17.38.09 39.08 20.16 42 1.26.18 2.78.21 3.88-.31 18.47-8.78 33.32-21.2 39.8-41.41 3.85-12.02-.37-22.22-8.39-31.19-4.76-5.33-10.55-9.47-16.24-13.73-1.15-.86-2.86-1.45-2.73-3.5 3.23-1.3 6.16.29 8.87 1.39 26.09 10.57 44.33 29.03 48.25 57.15 2.12 15.19-2.44 30.93-10.54 45.07z" style="fill:url(#d)"/><linearGradient id="e" x1="739.696" x2="541.048" y1="359.075" y2="502.564" gradientUnits="userSpaceOnUse"><stop offset=".543" style="stop-color:#c80004"/><stop offset=".621" style="stop-color:#c30004"/><stop offset=".71" style="stop-color:#b50004"/><stop offset=".806" style="stop-color:#9e0004"/><stop offset=".906" style="stop-color:#7d0003"/><stop offset=".936" style="stop-color:#720003"/></linearGradient><path d="M585.641 476.311c2.87 1.03 5.1-.89 7.39-1.9 31.57-13.99 59.11-33.63 84.65-56.94 13.98-12.76 25.69-26.75 36.29-42.08 1.78-2.58 3.48-5.59 7.22-7.09.85 3.8.33 6.98-.36 10.19-3.73 17.49-10.03 34.14-18.56 49.71-4.54 8.28-12.19 14.62-19.08 21.23-24.56 23.55-52.09 42.05-85.72 50.06-2.15.51-4.32.89-6.49 1.34 0 0-.01 0-.01-.01-11.91 3.8-24.31 4.62-36.62 5.77-13 1.21-26.07 1.7-39.11 2.61-5.6.39-10.83-.02-16.05-2.77-6.82-3.6-14.12-6.28-22.61-9.97 25.38-.62 48.12-6.69 70.12-16.1 9.99-4.27 18.68-10.92 28.76-14.93 6.6-5.15 13.34-10.14 19.78-15.48 19.93-16.55 37.56-35.08 49.33-58.53.3-.59.67-1.14 1.42-2.4 3.48 9.93 9.08 17.19 16.44 23.77-3.79 8.76-9.97 15.38-16.5 21.54-17.84 16.84-38.28 29.95-60.32 40.6-.02.43-.03.87-.05 1.3-.13.02-.513-.201-.643-.181-.19.01.462-.202.272-.192" style="fill:url(#e)"/><path d="m899.222 139.005 20.912 4.698-2.004 9.739c-6.736-.689-13.507-2.093-20.558-3.109-1.288 5.393-2.514 9.536-3.585 15.086l29.379 6.503c-.99 5.106-2.064 9.069-2.901 14.166l-44.385-9.157 13.274-68.446 46.23 9.576-3.105 14.367-30.602-6.284-2.655 12.861zM785.466 133.834c-.512 5.762-1.183 10.973-1.799 16.32l-12.929 9.634-23.802-2.855-11.916-14.576 4.8-43.807 14.573-10.92 25.888 3.109 9.903 12.436c-.989 5.147-1.487 10-2.718 15.354l-13.562-1.836c-1.61-4.146 2.09-9.047-3.125-12.193l-11.718-1.585-4.408 3.056-3.897 32.025c4.065 6.178 11.847 7.872 18.543 3.945l1.934-9.577c4.749.517 9.262.851 14.233 1.47zM458.406 77.66l18.973-1.077 19.334 68.685h-15.431l-4.271-14.226c-5.543.16-9.749.586-16.029.738-1.085 5.419-2.478 9.684-3.57 15.141l-13.386 1.108 14.38-70.369z" style="fill:#fcfcfc"/><path d="M768.026 493.432c5.553-12.868 10.521-25.844 6.645-41.571 9.945 6.388 16.294.407 22.843-4.294 12.636-9.07 21.513-21.576 30.623-33.869 1.727-2.33 2.958-5.591 7.384-5.375 1.333 4.316.931 8.644-.045 12.908-5.093 22.251-16.68 40.338-35.023 53.974-9.958 7.402-20.486 13.87-31.982 18.653l-.445-.426z" style="fill:#c80004"/><path d="m155.238 117.601 45.518-9.466c1.373 5.26 2.444 8.806 3.649 14.214l-30.809 6.526 3.091 14.204 21.644-4.292c1.156 4.223 1.951 6.482 2.521 10.333l-21.913 4.827 5.84 28.484-14.52 3.223-15.021-68.053z" style="fill:#fcfcfc"/><linearGradient id="f" x1="599.368" x2="460.854" y1="285.485" y2="415.414" gradientUnits="userSpaceOnUse"><stop offset=".543" style="stop-color:#c80004"/><stop offset=".621" style="stop-color:#c30004"/><stop offset=".71" style="stop-color:#b50004"/><stop offset=".806" style="stop-color:#9e0004"/><stop offset=".906" style="stop-color:#7d0003"/><stop offset=".936" style="stop-color:#720003"/></linearGradient><path d="M584.182 347.195c-20.3 32.51-51.84 50.51-85.21 66.16-11.81 5.94-24.6 8.63-37.4 11.33-20.51 4.33-41.52 7.01-61.13 19.24 1.72-5.88 4.81-8.77 8.02-11.54 13.93-12 30.31-19.93 46.56-28.06 7.11-3.56 14.12-7.28 21.18-10.93 11.5-7.88 22.97-15.82 34.5-23.64 6.36-4.32 10.87-10.45 15.87-16.04 3.86-4.33 2.38-10.15 2.83-15.38.61-7.17 4.27-11.52 10.98-12.84 2.11 1.71 2.02 4.34 2.13 6.63.27 6.02 2.72 10.46 8.74 11.8 6.4 1.43 12.54.52 16.77-5.21 5.79-7.83 5.95-16.52 2.87-25.34-3.54-10.15-11.17-17.44-18.25-25.1-2.04-2.2-4.94-3.8-5.6-7.1 1.83-1.63 3.47-.44 5 .15 19.63 7.6 31.8 21.99 37.46 41.98 2.46 8.73-.72 16.52-5.32 23.89z" style="fill:url(#f)"/><linearGradient id="g" x1="650.796" x2="497.207" y1="338.313" y2="451.733" gradientUnits="userSpaceOnUse"><stop offset=".543" style="stop-color:#c80004"/><stop offset=".621" style="stop-color:#c30004"/><stop offset=".71" style="stop-color:#b50004"/><stop offset=".806" style="stop-color:#9e0004"/><stop offset=".906" style="stop-color:#7d0003"/><stop offset=".936" style="stop-color:#720003"/></linearGradient><path d="M644.662 353.365c-1.92 5.64-3.2 11.52-4.49 17.35-6.83 30.95-26.36 51.99-52.62 67.83-8.18 4.93-16.84 8.8-25.89 11.8-17.48 6.93-35.91 9.48-54.44 10.78-15.42 1.08-30.93 2.39-47.26-.37 26.05-6.86 49.96-17.19 72.37-30.91 12.63-9 25.1-18.15 34.94-30.4 4.74-5.89 9.7-11.78 12.6-18.69 4.14-9.89 10.67-17.52 18.35-24.73 15.69-14.75 27.2-32.58 36.65-51.85 2.77-5.67 4.94-11.88 10.43-16.22 5.02 3.16 4.93 8.48 5.21 12.96 1.11 17.78-.04 35.37-5.85 52.45z" style="fill:url(#g)"/><linearGradient id="h" x1="359.058" x2="310.526" y1="817.137" y2="741.941" gradientUnits="userSpaceOnUse"><stop offset="0" style="stop-color:#c80004"/><stop offset=".197" style="stop-color:#c30004"/><stop offset=".425" style="stop-color:#b50004"/><stop offset=".669" style="stop-color:#9e0004"/><stop offset=".923" style="stop-color:#7d0003"/><stop offset="1" style="stop-color:#720003"/></linearGradient><path d="M414.742 805.235c-3.66 49.61-23.03 92.46-59.92 126.66-3.41 3.16-7.37 5.66-11.87 7.18-7.03 2.39-11.65.44-14.22-6.52-2.17-5.86-2.93-12.04-3.02-18.29-.58-39.57 6.29-78.06 16.46-116.12 6.05-22.66 13.01-45.11 16.42-68.41 1.3-20.79 1.4-41.44-4.65-61.74-2.92-9.79-7.87-18.58-12.16-27.7 7.38 2.93 10.85 9.94 15.65 15.45 10.94 12.58 20.25 26.38 28.75 40.71.55.92.74 2.06 1.1 3.09 19.39 32.57 30.25 67.7 27.46 105.69z" style="fill:url(#h)"/><path d="M598.639 294.239c-7.221-19.615-14.399-39.455-30.633-54.483 13.254-5.433 35.186 6.408 40.965 20.444 5.069 12.314.663 29.218-10.332 34.039zM382.864 264.81c-6.97-10.486-7.469-20.979-4.079-31.703 3.592-11.365 11.006-19.697 21.728-24.815 6.919-3.302 11.311-.561 11.635 7.12.303 7.166-1.347 14.245-7.347 18.465-10.948 7.701-21.475 15.298-21.937 30.933z" style="fill:#c80004"/><linearGradient id="i" x1="222.673" x2="228.246" y1="439.63" y2="529.696" gradientUnits="userSpaceOnUse"><stop offset=".543" style="stop-color:#c80004"/><stop offset=".621" style="stop-color:#c30004"/><stop offset=".71" style="stop-color:#b50004"/><stop offset=".806" style="stop-color:#9e0004"/><stop offset=".906" style="stop-color:#7d0003"/><stop offset=".936" style="stop-color:#720003"/></linearGradient><path d="M263.662 398.555c-8.02 10.25-17.7 18.71-27.76 26.74-24.93 19.89-36.09 46.48-38.33 77.54.04 20.88 6.3 39.49 21.59 56.16-9.94-1.31-18.51-1.08-26.79-3.28-4.16-1.11-7.43-3.66-6.01-8.68 2.63-9.3.95-17.86-3.32-26.3-1.97-3.88-4.03-7.91-3.92-12.52-2.93-10.09-.68-19.87 2.29-29.42 5.78-18.61 16.01-34.48 30.24-47.87 13.71-12.91 21.6-29.01 25.05-47.45 3.46-18.52-.28-35.25-11.92-50.15-1.76-2.25-3.49-4.53-5.49-7.15 1.22-.15 1.98-.51 2.43-.27 23.65 12.4 41.46 29.48 45.97 57.31.94 5.83-.32 10.6-4.03 15.34z" style="fill:url(#i)"/><linearGradient id="j" x1="824.779" x2="679.268" y1="561.225" y2="593.323" gradientUnits="userSpaceOnUse"><stop offset=".543" style="stop-color:#c80004"/><stop offset=".621" style="stop-color:#c30004"/><stop offset=".71" style="stop-color:#b50004"/><stop offset=".806" style="stop-color:#9e0004"/><stop offset=".906" style="stop-color:#7d0003"/><stop offset=".936" style="stop-color:#720003"/></linearGradient><path d="M811.682 544.455c-19.46 31.4-46.23 53.38-82.21 63.35-1.25.35-2.63.22-3.96.31-16.95 3.96-32.33-1.18-47.26-8.4-5.45-2.63-11.15-5.3-14.07-11.08 1.8-3.31 4.24-2.43 6.64-2.23 13.44 1.11 26.89 2.21 40.34 3.08 3.01.2 6.07-.54 9.1-.85 25.77-2.83 47.27-15 67.73-30.03 8.51-6.26 15.65-14.15 24.39-20.21 1.76 2.74.24 4.54-.7 6.06z" style="fill:url(#j)"/><path d="M688.797 360.487c-10.941-8.806-14.583-23.915-10.009-34.78 4.446-10.562 15.062-18.037 24.881-17.038 2.521 6.322.109 12.418-3.457 17.084-7.543 9.867-14.143 19.717-11.415 34.734z" style="fill:#c80004"/><linearGradient id="k" x1="153.314" x2="162.31" y1="470.903" y2="538.833" gradientUnits="userSpaceOnUse"><stop offset=".543" style="stop-color:#c80004"/><stop offset=".621" style="stop-color:#c30004"/><stop offset=".71" style="stop-color:#b50004"/><stop offset=".806" style="stop-color:#9e0004"/><stop offset=".906" style="stop-color:#7d0003"/><stop offset=".936" style="stop-color:#720003"/></linearGradient><path d="M176.862 544.615c-7.74-6.65-11.7-15.75-16.28-24.44-16.33-28.57-38.05-54.21-47.31-86.62-5.27-18.43-8.48-36.92 1.87-54.84 12.93-22.38 33.39-34.61 56.8-43.05 1.08 1.93-.09 2.19-.64 2.57-26.06 17.57-32.79 42.64-26.36 71.75 6.88 31.13 13.09 62.46 22.87 92.89 1.26 3.93 2.16 7.99 3.22 11.99 3.62 9.5 5.83 19.29 5.83 29.75z" style="fill:url(#k)"/><linearGradient id="l" x1="278.569" x2="257.96" y1="1081.686" y2="928.395" gradientUnits="userSpaceOnUse"><stop offset=".452" style="stop-color:#c80004"/><stop offset=".54" style="stop-color:#c30004"/><stop offset=".642" style="stop-color:#b50004"/><stop offset=".751" style="stop-color:#9e0004"/><stop offset=".865" style="stop-color:#7d0003"/><stop offset=".9" style="stop-color:#720003"/></linearGradient><path d="M343.672 971.035c-1.22 6.53-2.56 13.1-2.93 19.7-.92 16.08-6.7 23.42-22.24 26.53-8.07 1.61-16.2 2.07-24.46.83-14.81-2.23-25.98 4.52-31.43 18.53-6.46 16.61-18.75 22.62-36.02 17.53-6.59-1.94-13.23-3.75-19.68-6.07-12.31-4.44-17.58-11.52-17.29-24.56.34-14.84 1.54-29.65 2.37-44.47-1.71-6.95-.26-14.01-.48-21.24 2.8 8.04 6.55 15.39 13.03 21 3.76 1.67 7.48 4.33 11.48.49h.01c3.68-17.99-4.75-34.28-7.93-50.71 5.05-7.03 11.64-6.28 17.56-5.14 17.16 3.3 30.2 11.96 36.44 29.34 3.2 8.92 7.5 17.45 11.31 26.16.65 1.56.85 3.51 3.67 3.68 2.85-3.38 1.41-7.8 2.14-11.72-2.19-30.41.4-50.17 8.03-55.12 6.97 8.3 15.77 14.78 25.33 20.24 7.45 2.93 14.49 6.68 21.19 11 9.06 5.83 11.9 13.4 9.9 24z" style="fill:url(#l)"/><path d="m768.027 493.433.445.426-.822.742M424.352 281.587l.318-.551-.418.438.1.113z" style="fill:#c80004"/><path d="M356.563 1071.551c7.293-3.399 14.183-4.194 20.797-5.835 33.775-8.382 65.672-21.57 95.85-38.635 20.626-11.663 35.977-29.535 50.155-48.141 18.55-24.342 33.863-50.467 40.089-80.961 4.122-20.19 3.815-40.616 2.797-61.074-.368-7.399-1.588-14.965 1.701-22.268 6.133-.536 8.719 3.761 11.369 7.326 13.027 17.524 21.391 37.233 26.164 58.444 10.732 47.693-4.794 87.89-36.025 123.261-36.058 40.839-81.859 63.483-135.348 71.307-23.178 3.391-46.392 4.37-69.586.032-1.73-.323-3.431-.87-5.089-1.468-.755-.273-1.372-.926-2.874-1.988z" style="fill:#fcfcfc"/><path d="M414.901 675.493c3.214-1.58 6.135-.109 9.03.694 57.546 15.974 113.066 80.554 118.735 139.878 6.871 71.896-20.485 127.112-82.977 164.3-24.285 14.451-50.275 21.857-78.67 19.842-4.835-.343-9.707-.603-14.382-3.481 2.883-3.686 7.124-3.593 10.735-4.452 20.338-4.834 40.282-10.556 57.919-22.394 36.214-24.308 61.785-56.067 71.006-99.709 3.609-17.079-.295-33.057-5.452-48.954-9.719-29.963-24.225-57.564-42.34-83.242-12.919-18.312-26.327-36.279-39.436-54.458-1.739-2.415-4.436-4.452-4.168-8.024zM623.764 926.626c5.28 2.53 6.98 7.215 8.804 11.599 11.355 27.293 12.367 55.11 3.684 83.286-13.022 42.259-36.598 76.656-75.323 99.309-29.048 16.992-64.419 13.189-89.704-9.105-3.297-2.907-6.765-5.804-7.833-10.505 2.136-3.19 5.114-1.885 7.82-1.501 17.386 2.466 34.787 5.114 52.111-.226 36.865-11.363 61.678-36.136 78.197-70.259 12.719-26.272 17.359-54.285 18.763-83.092.317-6.477.134-13.145 3.481-19.506z" style="fill:#fcfcfc"/><path d="M596.459 815.828c-6.34-.77-10.202-4.872-14.071-8.674-20.448-20.091-36.289-43.594-50.144-68.522-8.966-16.132-18.381-31.932-31.388-45.247-29.737-30.441-66.188-46.872-108.117-51.889-3.501-.419-6.984-.993-10.215-2.447 53.812-2.754 104.396 7.068 145.959 44.008 36.133 32.113 74.663 109.442 67.976 132.771zM107.504 587.18c28.487-13.706 58.441-18.607 89.354-15.906 48.804 4.264 90.069 24.63 123.84 60.21 3.463 3.648 5.726 7.563 6.92 12.516 3.311 13.729 7.081 27.347 9.553 41.661-10.48-10.114-21.01-20.176-31.427-30.354-15.807-15.445-33.406-28.474-52.811-38.985-41.737-22.607-86.299-32.727-133.745-29.786-3.893.241-7.789.431-11.684.644z" style="fill:#fcfcfc"/><path d="M332.676 597.013c.397-7.941 6.074-10.141 12.145-11.28 10.958-2.056 20.436-5.951 27.527-15.35 9.622-12.754 23.093-13.501 37.174-9.5 13.128 3.731 23.954 11.059 31.883 22.409 6.746 9.657 4.384 22.481-5.63 29.777-9.555 6.962-20.643 9.906-32.009 11.979-20.931 3.817-40.382-.501-58.198-11.736-5.882-3.708-11.825-8.057-12.892-16.299z" style="fill:#0d1559"/><path d="M265.168 718.902c-14.564-53.768-46.889-92.654-98.662-116.901 46.021-7.669 110.865 70.161 98.662 116.901zM230.368 830.221c17.655-26.397 28.277-55.373 31.438-88.871 2.675 12.207 1.16 28.51-4.257 45.035-5.491 16.751-13.436 32.183-26.31 44.64-.559.022-.849-.246-.871-.804z" style="fill:#fcfcfc"/><path d="m231.239 831.025-.909 1.246c-1.095-.871-.391-1.446.041-2.049.303.25.593.518.868.803z" style="fill:#fcfcfc"/><path d="M585.632 476.205c.01.03.02.06.02.09M315.229 119.225l-1.782-14.176 14.162-1.868c5.478 3.504 6.356 7.565 2.935 13.981-4.723 1.438-9.728 1.836-15.315 2.063zM467.084 96.374l7.392 25.593-12.446.795 5.054-26.388z" style="fill:#0d1559"/><path d="M381.874 570.715c3.778-4.058 8.788-5.29 13.927-5.087 16.224.64 29.528 7.448 39.173 20.532 6.167 8.367 4.586 15.471-3.886 21.695-22.159 16.279-63.927 15.071-85.106-2.504-2.885-2.394-5.878-4.794-6.521-8.845.454-2.087 1.783-3.012 3.785-3.115 1.847.492 2.838 2.013 4.046 3.304 6.907 7.377 18.131 9.517 26.054 5.005 8.971-5.108 12.658-14.638 9.689-25.193-.536-1.908-1.556-3.702-1.161-5.792z" style="fill:#c80004"/><path d="M381.874 570.715c7.234 12.464 4.382 25.657-6.975 32.271-11.412 6.646-24.165 2.781-31.653-9.595 1.843-.634 3.641-1.555 5.537-1.855 12.072-1.907 21.987-7.286 29.163-17.414.974-1.373 2.603-2.282 3.928-3.407z" style="fill:#fcfcfc"/></svg>