<?xml version="1.0" encoding="utf-8"?>
<!-- Generator: Adobe Illustrator 28.2.0, SVG Export Plug-In . SVG Version: 6.00 Build 0)  -->
<svg version="1.1" id="Layer_1" xmlns="http://www.w3.org/2000/svg" xmlns:xlink="http://www.w3.org/1999/xlink" x="0px" y="0px"
	 viewBox="0 0 684.33 684.33" style="enable-background:new 0 0 684.33 684.33;" xml:space="preserve">
<path style="fill:#FFFFFF;" d="M99.486,584.486c-5.535,3.906,37.249-12.328,31.473-6.553c-5.779,5.779-9.319,8.667-10.62,8.667
	c-0.488,0-0.896-0.244-1.221-0.732c-0.328-0.488-0.488-1.545-0.488-3.174v-153.32c0-0.648,0.21-1.179,0.633-1.587
	c0.423-0.404,0.889-0.61,1.4-0.61c0.847,0,1.61,0.488,2.289,1.465c1.186,1.465,1.781,3.094,1.781,4.883v10.498
	c0,20.348,3.163,43.541,9.491,69.58c6.328,26.043,14.606,44.598,24.83,55.664c5.028,5.535,10.872,8.301,17.525,8.301
	c7.625,0,14.278-3.62,19.958-10.864c5.676-7.24,8.518-18.188,8.518-32.837c0-13.996-2.605-28.809-7.812-44.434
	c-6.836-20.832-21.973-54.199-45.41-100.098c-14.648-28.645-23.968-49.354-27.954-62.134c-3.99-12.775-5.981-25.185-5.981-37.231
	c0-23.926,5.642-42.641,16.934-56.152c11.288-13.508,24.158-20.264,38.616-20.264c12.344,0,32.128-29.251,42.039-16.067
	c8.122-4.395,7.338,25.997,14.977,19.485c2.594-2.277,4.299-3.418,5.115-3.418c0.324,0,0.648,0.164,0.973,0.488
	c0.324,0.652,0.488,1.793,0.488,3.418v132.568c0,1.793-0.408,3.258-1.217,4.395c-0.488,0.652-1.137,0.977-1.945,0.977
	c-0.977,0-1.705-0.404-2.193-1.221c-0.488-0.812-1.461-6.672-2.92-17.578c-6.652-50.617-15.499-84.145-26.53-100.586
	c-6.493-9.438-13.874-14.16-22.148-14.16c-6.168,0-11.524,2.77-16.067,8.301c-4.543,5.535-6.813,13.672-6.813,24.414
	c0,19.371,11.066,51.189,33.203,95.459l21.484,43.213c14.809,29.785,24.659,53.429,29.542,70.923
	c4.883,17.498,7.324,33.165,7.324,46.997c0,24.09-5.943,42.969-17.822,56.641c-11.883,13.672-25.799,20.508-41.749,20.508
	C171.933,588.31,109.74,601.088,99.486,584.486z"/>
<path style="fill:#FFFFFF;" d="M278.543,578.544v-354.98l-0.057-3.077c-1.793-1.137-3-0.023-3-1c0-0.812,1.215-0.859,3-2h50
	c1.785,1.141,0,1.188,0,2c0,0.977,1.789-0.137,0,1l0.105,3.077v166.992h31.25V223.563l-0.355-4.077c-1.793-1.137-2-0.023-2-1
	s1.207-0.023,3-1h50c1.789,1.141-1,1.188-1,2c0,0.977,2.789-0.137,1,1l-0.107,3.077v354.98h14.648c0.812,0,1.545,0.274,2.197,0.824
	c0.648,0.549,0.977,1.289,0.977,2.228s-0.328,1.682-0.98,2.231c-0.656,0.55-1.389,0.82-2.205,0.82h-73.223
	c-0.816,0-1.511-0.271-2.083-0.82s-0.854-1.293-0.854-2.231s0.29-1.679,0.874-2.228c0.579-0.55,1.289-0.824,2.12-0.824h7.992
	V396.415h-31.25v182.129h9.521c0.812,0,1.503,0.274,2.075,0.824c0.568,0.549,0.854,1.289,0.854,2.228s-0.286,1.682-0.854,2.231
	s-1.259,0.82-2.067,0.82h-75.699c-1.785-1.095-2.678-2.113-2.678-3.052s0.893-1.953,2.686-3.052H278.543z"/>
<path style="fill:#FFFFFF;" d="M454.324,223.563l0.162-4.077c-1.793-1.137,1,0.816,1,0c0-0.977-2.793-0.859-1-2h49
	c0.812,0,2.428-0.568,3,0c0.568,0.572-1,1.188-1,2c0,0.977,2.568,0.432,2,1c-0.572,0.572-2.188,0-3,0l-0.113,3.077V578.3h10.292
	c7.347,0,13.802-2.075,19.355-6.226c5.555-4.15,10.944-12.733,16.171-25.757c7.675-19.203,13.271-40.161,16.784-62.866
	c3.51-22.705,5.349-37.231,5.513-43.579c0.152-2.277,0.466-3.742,0.935-4.395l1.873-0.732l1.873,0.732
	c0.622,0.652,0.935,1.385,0.935,2.197l-1.953,146.973H438.947c-0.816,0-1.507-0.271-2.079-0.82s-0.854-1.293-0.854-2.231
	s0.286-1.679,0.866-2.228c0.576-0.55,1.277-0.824,2.102-0.824h15.343V223.563z"/>
<rect x="65.486" y="577.486" style="fill:#FFFFFF;" width="559" height="33"/>
<rect x="24.486" y="610.486" style="fill:#FFFFFF;" width="637" height="33"/>
<polygon style="fill:none;stroke:#FFFFFF;stroke-width:35;stroke-miterlimit:10;" points="345.986,62.986 103.986,175.986 
	587.986,175.986 "/>
<rect x="66.486" y="188.486" style="fill:#FFFFFF;" width="559" height="33"/>
</svg>
